<?xml version="1.0" encoding="UTF-8" standalone="no"?>
<!-- Generator: Adobe Illustrator 19.0.0, SVG Export Plug-In . SVG Version: 6.00 Build 0)  -->

<svg
   version="1.1"
   id="Layer_1"
   x="0px"
   y="0px"
   viewBox="0 0 90 135"
   style="enable-background:new 0 0 90 135;"
   xml:space="preserve"
   sodipodi:docname="ambassador00.svg"
   inkscape:version="1.2.2 (b0a8486541, 2022-12-01)"
   xmlns:inkscape="http://www.inkscape.org/namespaces/inkscape"
   xmlns:sodipodi="http://sodipodi.sourceforge.net/DTD/sodipodi-0.dtd"
   xmlns="http://www.w3.org/2000/svg"
   xmlns:svg="http://www.w3.org/2000/svg"><defs
   id="defs1797"><rect
     x="3.2948394"
     y="100.11359"
     width="104.93297"
     height="39.834335"
     id="rect2215" /></defs><sodipodi:namedview
   id="namedview1795"
   pagecolor="#ffffff"
   bordercolor="#999999"
   borderopacity="1"
   inkscape:showpageshadow="0"
   inkscape:pageopacity="0"
   inkscape:pagecheckerboard="0"
   inkscape:deskcolor="#d1d1d1"
   showgrid="false"
   inkscape:zoom="7.6074074"
   inkscape:cx="44.956183"
   inkscape:cy="67.5"
   inkscape:window-width="3840"
   inkscape:window-height="2077"
   inkscape:window-x="0"
   inkscape:window-y="0"
   inkscape:window-maximized="1"
   inkscape:current-layer="text2213" />
<style
   type="text/css"
   id="style1751">
	.st0{fill:#FFFFFF;stroke:#000000;stroke-miterlimit:10;}
	.st1{fill:none;stroke:#000000;stroke-miterlimit:10;}
	.st2{opacity:0.51;}
	.st3{fill:#D7D62F;}
	.st4{fill:none;}
	.st5{font-family:'MosaicoSCSC';}
	.st6{font-size:9px;}
	.st7{font-size:12px;}
</style>

<rect
   style="fill:#ffffff;stroke-width:6.94299;stroke-miterlimit:10"
   id="rect2211"
   width="90"
   height="135"
   x="0"
   y="0" /><path
   id="XMLID_90_"
   class="st1"
   d="M67.9,8c3.6-0.1,7.3-0.5,10.9-1.2c-1.3,2.1-2.4,4.4-3.2,6.9c2.5-1,5.1-1.8,7.7-2.3  c0,4,0,8.1,0.1,12.1c-2.7-1.6-5.4-3.3-8-4.9c-0.3,2.4,0.2,4.9,1.5,7c-2.5,0.7-5.2,1.1-7.8,1.1c0.1-1.9,0.2-3.9,0.3-5.8  c1.4,0.6,3.2-0.2,3.6-1.7c-3-0.3-6-1-8.8-2.1c1.3-0.9,2.3-2.5,2.4-4.1c0.1,0.5,0.2,1,0.3,1.5c2.4-2,4.2-4.5,5.4-7.4  c0.1,0.5,0.2,1,0.3,1.4" />
<g
   id="XMLID_159_"
   class="st2">
	<g
   id="XMLID_14_">
		<path
   id="XMLID_18_"
   class="st3"
   d="M68.5,26.9c1.4,1.5,3.4,3.4,5.7,3.2c2-0.2,3.7-2.2,5.3-3.2c3.5-2.2,5.9-6.3,2.7-10    c-0.6-0.7-1.6-0.9-2.4-0.6c-4.3,1.2-9.2,5.5-5.3,10.1c2.7,3.2,8.6,3,9.4-1.6c0.2-1.3-0.3-2.8-1.7-3.1c-0.2,0-0.3-0.1-0.5-0.1    c-1.2-0.3-2.1,0.2-2.8,1.1c-0.1,0.2-0.2,0.3-0.3,0.5c-1.6,2.2,1.4,4.3,3.4,3.4c5.3-2.4,6.4-12.5,2.1-16.3    c-4.8-4.3-10.5,2.4-10.7,7.2c-0.1,2,2.2,3,3.8,2.2c2.6-1.4,3.5-4.4,3-7.2c-0.2-1.3-1.9-2.1-3.1-1.7c-3.6,1.1-6.6,6.6-4.8,10.2    c2.5,5,8.6,1.3,10.6-2c2.1-3.3,2.2-9.8-3.3-9.3c-6.3,0.5-8.4,8.2-7.5,13.3c0.3,1.7,2.4,2.1,3.7,1.5c3.7-1.7,8.2-13.1,3.2-15.7    c-3.5-1.8-5.8,2.3-7.4,4.6c-2.5,3.5-4.2,7.2-3.5,11.6c0.3,1.7,2.4,2.2,3.7,1.5c4.5-2.4,5.7-9.9,4.9-14.5c-0.2-1.3-1.9-2.1-3.1-1.7    c-2,0.5-3.1,1.9-4.4,3.4c-0.8,0.9-2.4,3.6-3.5,3.8c0.9,0.4,1.9,0.8,2.8,1.1c-1-1.8-3.1-7.3-0.8-8.6c2-1.2,3.5,1.9,2.2,3.4    c1-0.1,2-0.3,3-0.4c-1.5-1.1-1.4-3.9-2.5-5.4c-0.7-1-2.2-1.7-3.4-0.9c-3.5,2.5-4,9.7,1.5,9.9c2.6,0.1,4.5-1.8,5.7-3.9    c0.7-1.2,1-2.5,1.6-3.8C75.9,8.4,76.2,7,76.3,7c3-0.9-2,4.5-1.8,4.4c-2.5,2.1,1.1,5.6,3.5,3.5c4.1-3.5,6.4-10.5-0.7-12.3    c-2-0.5-4.1-0.1-5.3,1.7c-0.6,0.9-0.8,2.1-1.1,3c-0.3,0.9-0.6,1.8-1.1,2.6c-0.3,0.4-1,1.3-0.3,0.9c-1.1-0.3-2.3-0.6-3.4-0.9    c1.8,2.5,1.5,5.2,4.2,7.2c0.8,0.6,2.4,0.4,3-0.4c3.2-3.8,1.7-13.9-4.7-13c-2.8,0.4-6.3,3.2-7.3,5.8c-1.1,3.2,1,8.6,2.7,11.4    c0.6,1,1.7,1.4,2.8,1.1c3.7-0.8,4.6-6.3,7.9-7.2c-1-0.6-2.1-1.2-3.1-1.7c0.4,2-0.4,7.6-2.6,8.8c1.2,0.5,2.4,1,3.7,1.5    c-0.3-2,0.7-4.4,1.7-6c0.8-1.2,2.9-2.9,1.9-4.1c-0.8-1.1-0.8,1.1-1,1.9c-0.3,1.7-0.5,3.9-2.3,4.7c1.2,0.5,2.4,1,3.7,1.5    c-0.2-1-0.1-6.6,2.1-6.4c0.7,0.1-0.4,1.2-0.6,1.4c-2.6,3.4-1.6-0.5-0.1-1c-1-0.6-2.1-1.2-3.1-1.7c-0.2,0.5-0.5,1-0.7,1.5    c1.3,0.7,2.5,1.4,3.8,2.2c0.1-2.1,2.2-5.5,3.1-0.5c0.3,1.8-0.2,4.4-2,5.3c1.1,1.1,2.3,2.3,3.4,3.4c0.1-0.2,0.2-0.3,0.3-0.5    c-0.9,0.4-1.9,0.8-2.8,1.1c0.2,0,0.3,0.1,0.5,0.1c-0.6-1-1.2-2.1-1.7-3.1c-0.6-1-0.5-1.5,0.4-1.7c0.5-0.3,1.1-0.5,1.7-0.6    c-0.8-0.2-1.6-0.4-2.4-0.6c1.1,1.3-3.3,3-3.8,3.3c-0.3,0.2-1.3,1.4-1.5,1.4c1.3-0.1-0.9-1.5-1.2-1.9C69.9,21,66.3,24.5,68.5,26.9    L68.5,26.9z" />
	</g>
</g>
<path
   id="XMLID_235_"
   class="st1"
   d="M89.7,101.5c-5.2-8.2-8.2-17.8-8.6-27.6c0-1.2-0.1-2.4-0.8-3.4c-0.5-0.7-1.4-1.1-2.2-1.5  c-5.9-2.8-11.7-5.5-17.6-8.3c-1.4-0.7-3-1.5-3.5-3c-0.3-1-0.1-2.1,0-3.1c1.7-8.7,3.3-17.3,5-26c0.2-1.1,0.4-2.2,0.3-3.4  c-0.4-2.7-2.8-4.6-5.1-6c-6.8-4-14.6-5.8-22.2-7.6c-2-0.5-4-0.9-6-0.7c-2.2,0.2-4.2,1.1-6.2,2c-4.2,2-8.3,4.3-12.2,6.7  C6.4,22.5,1.9,26.6,3,31.3c0.5,2,1.9,3.6,3.3,5.2c5.6,6.3,10.8,13.1,15.6,20.1c2.2,3.2,4.3,6.7,4.4,10.6c0.1,3.5-1.6,6.9-3.8,9.7  C18.2,82.4,12,86,6,89.6c-1.4,0.8-2.7,1.6-4.1,2.4" />
<path
   id="XMLID_234_"
   class="st1"
   d="M60.6,38.1c-2.7-2.9-6-5.3-9.7-6.7" />
<path
   id="XMLID_233_"
   class="st1"
   d="M60.4,20.5c-2.4,3.3-5.3,6.3-8.6,8.8c-2.6,2-5.4,3.6-8.3,5.2c-4.7,2.6-9.5,5-14.4,7.3  c-4.9,2.3-10.2,4.5-13.5,8.9c0.4-0.6,0.8-1.2,1.2-1.8" />
<path
   id="XMLID_232_"
   class="st1"
   d="M60.1,38.1c0.2-0.2,0.3-0.5,0.3-0.9c-2,1.2-4.1,2.4-6.1,3.6c-1.1,0.6-2.2,1.3-3.4,1.5  c-1.5,0.3-3.1,0-4.7-0.3c-3-0.6-6-1.1-9-1.7c0.4,0.5,0.4,1.3-0.1,1.7" />
<path
   id="XMLID_231_"
   class="st1"
   d="M49.1,46c-2.7-0.7-5.4-1-8.1-1.1c-3-0.1-6.7,0.5-7.9,3.3c3.7,0.6,7.4,0.8,11,0.6  c0.9,0,1.8-0.1,2.5-0.6s1.1-1.6,0.5-2.3c-0.5-0.6-1.7-1-1.4-1.7" />
<path
   id="XMLID_230_"
   class="st1"
   d="M51.6,47c1,1,2.4,1.5,3.8,1.6c0.5,0,1.1-0.1,1.4-0.5c0.3-0.5,0-1.1-0.4-1.4  c-0.4-0.3-1-0.5-1.5-0.6c-0.7-0.2-1.4-0.3-2.1-0.1c-0.7,0.2-1.2,1.1-0.8,1.7c1,1.8,2.1,4.5,1.6,6.5c-0.4,1.3-1.5,2.2-2.8,2.6  c-1.3,0.4-2.6,0.3-3.9,0.1c-1.8-0.3-3.6-0.7-5.4-1.3" />
<path
   id="XMLID_229_"
   class="st1"
   d="M56.1,63.1c0.1-0.9-0.9-1.4-1.7-1.6c-4.7-1.2-9.7-1.6-14.6-1.2c-0.3,0-0.6,0-0.7-0.2  c-0.1-0.3,0.5-0.4,0.4-0.1" />
<path
   id="XMLID_228_"
   class="st1"
   d="M63.9,64.2c-0.2,2.4-2,4.4-4.1,5.6c-2.7,1.6-6,2.3-9.1,1.9c-2.9-0.4-5.7-1.6-8.5-2.5  c-4.3-1.4-8.8-1.9-13.3-2.4c0.3-0.4,1-0.4,1.3,0" />
<path
   id="XMLID_227_"
   class="st1"
   d="M23.4,79.1c1.6,0.4,2.7,1.9,3.5,3.4s1.3,3.2,2.3,4.5c1.4,1.8,3.5,2.7,5.5,3.5  c1.5,0.6,3,1.3,4.5,1.9c1.7,0.7,3.6,1.8,3.7,3.7c0,0.7-0.2,1.4-0.2,2c0,1.9,1.9,3.2,3.6,3.6c1.1,0.3,2.6,0.7,2.8,1.9  c0,0.3,0,0.7,0.2,0.9c0.3,0.2,0.5-0.5,0.2-0.4c-0.6,0.6-1.7,0-1.6-0.8" />
<path
   id="XMLID_226_"
   class="st1"
   d="M66,105.1c-0.2-2.4-0.5-4.9-0.7-7.3c-0.2-2.1-0.5-4.3-1.9-5.8c-0.8-0.8-1.9-1.4-2.9-1.9  c-3-1.7-5.5-4.2-8.4-6c-5.3-3.4-11.7-4.5-17.9-5.6c-0.2,0.3-0.5,0.7-0.7,1" />
<path
   id="XMLID_225_"
   class="st1"
   d="M67.1,66.5c-0.9,6.6-1.5,13.3-1.8,20" />
<path
   id="XMLID_224_"
   class="st1"
   d="M41.4,47.2c-0.2-0.4-0.3-0.8-0.3-1.3c-0.3-0.3-0.9-0.3-1.1,0.1c-0.2,0.4,0,0.9,0.4,1  c0.2-0.3,0.1-0.8-0.3-0.9c-0.5,0.2-0.8,0.8-0.6,1.3c0.5,0,0.7-0.9,0.2-1c-0.5,0.3,0.1,1.4,0.6,1c0.2-0.3,0.1-0.8-0.3-1  c-0.4,0.2-0.6,0.6-0.6,1c0.4,0.2,0.9,0,1.1-0.4c-0.4-0.4-1.3,0.3-1,0.8c0.5-0.2,0.9-0.6,1.1-1.1" />
<path
   id="XMLID_223_"
   class="st1"
   d="M54.8,47.2c0.2-0.3-0.2-0.7-0.5-0.6c-0.3,0.2-0.2,0.7,0.1,0.8c0.5,0,0.3-1.1-0.2-0.8  c-0.1,0.3,0.2,0.6,0.5,0.5c0.3-0.1,0.3-0.6,0.1-0.7" />
<path
   id="XMLID_222_"
   class="st1"
   d="M2.7,92.4c1.1-1,2.6-1.2,4.1-0.9s2.7,1,3.9,1.7c3.9,2.3,8,5.2,9.2,9.6c0.3,1.1,0.4,2.2,0.5,3.3  c0.2,2.8,0.3,5.6,0.4,8.4c-0.3-0.4-0.6-0.7-0.9-1.1" />
<path
   id="XMLID_221_"
   class="st1"
   d="M52.6,61.6c-1.5,1.5-3.7,2.2-5.8,2c-2.1-0.2-4-1.5-5.1-3.2" />
<path
   id="XMLID_220_"
   class="st1"
   d="M21.8,46.2c0.1-0.3,0.3-0.6,0.4-0.9c-0.7,0.8-0.7,2.1-0.6,3.1c0.1,1.2,1,3.7,0.8,4.8  c-0.2,1.2-0.8,1.2-1.1,2.2" />
<path
   id="XMLID_219_"
   class="st1"
   d="M18.8,48.7c-0.3,0,0.1-0.5,0.3-0.3c0.2,0.2,0.1,0.5,0,0.8c-0.5,0.3-0.1,2.1,0.3,2.3" />
<path
   id="XMLID_218_"
   class="st1"
   d="M55.5,59.8c0.3,0.6,0.5,1.2,0.4,1.8" />
<path
   id="XMLID_217_"
   class="st1"
   d="M53.6,59.6c0.3,0,0.4,0.3,0.5,0.5c0.1,0.3,0.2,0.7,0.2,1" />
<path
   id="XMLID_216_"
   class="st1"
   d="M51.9,59.4c0.2,0.3,0.2,0.7,0.1,1" />
<path
   id="XMLID_215_"
   class="st1"
   d="M50.2,59.1c-0.1,0.3-0.2,0.7-0.3,1" />
<path
   id="XMLID_214_"
   class="st1"
   d="M47.9,58.9c0,0.4,0,0.8-0.1,1.2" />
<path
   id="XMLID_213_"
   class="st1"
   d="M46.1,58.5c-0.5,0.5-0.9,1.3-0.8,2" />
<path
   id="XMLID_207_"
   class="st1"
   d="M43.7,58.6c-0.4,0.5-0.7,1-0.9,1.5" />
<path
   id="XMLID_206_"
   class="st1"
   d="M41.5,58.7c0,0.4-0.1,0.8-0.2,1.2" />
<path
   id="XMLID_174_"
   class="st1"
   d="M40.1,58.7c-0.1,0.2-0.3,0.4-0.3,0.6c-0.1,0.2-0.1,0.5,0.1,0.6" />
<path
   id="XMLID_60_"
   class="st4"
   d="M12,0h66c6.6,0,12,5.4,12,12v111c0,6.6-5.4,12-12,12H12c-6.6,0-12-5.4-12-12V12  C0,5.4,5.4,0,12,0z" />

<rect
   style="fill:#000000;stroke-width:6.94299;stroke-miterlimit:10"
   id="rect2219"
   width="90"
   height="20"
   x="0"
   y="110" /><g
   aria-label="AMBASSADOR"
   transform="translate(1.5273438,12.419477)"
   id="text2213"
   style="font-style:italic;font-weight:bold;font-size:12px;font-family:'Times New Roman';-inkscape-font-specification:'Times New Roman,  Bold Italic';white-space:pre;fill:#ffffff"><path
     d="M 8.1582031,108.15279 H 5.6972656 l -0.4921875,0.60937 -0.5625,0.67383 q -0.1640625,0.2168 -0.2402344,0.39258 -0.058594,0.13477 -0.058594,0.26953 0,0.14063 0.1464844,0.26367 0.1523437,0.11719 0.4980468,0.13477 v 0.2168 H 2.6152344 l 0.058594,-0.2168 q 0.3164063,-0.0527 0.5625,-0.22266 0.328125,-0.23437 0.9433594,-0.96679 l 5.6308594,-6.72071 h 0.2636721 l -0.2636721,6.50391 q -0.017578,0.50976 -0.017578,0.61523 0,0.39844 0.1582031,0.58008 0.1640621,0.18164 0.5390621,0.21094 l -0.05859,0.2168 H 6.9921875 l 0.064453,-0.2168 q 0.5097656,-0.0469 0.5859375,-0.082 0.1640625,-0.082 0.2988281,-0.33985 0.1347657,-0.26367 0.1640626,-0.9082 z m 0,-0.48047 0.1523438,-2.58984 -2.2089844,2.58984 z"
     id="path2501" /><path
     d="m 15.839844,102.76802 0.585937,5.46094 3.779297,-5.46094 h 2.783203 l -0.07031,0.2168 q -0.574219,0 -0.873047,0.24609 -0.298828,0.2461 -0.509766,0.97266 l -1.464844,5.08594 q -0.140625,0.48047 -0.140625,0.71484 0,0.2168 0.175782,0.35156 0.175781,0.12891 0.691406,0.14063 l -0.05273,0.2168 h -3.966797 l 0.07031,-0.2168 q 0.638672,0 0.94336,-0.24024 0.304687,-0.24609 0.515625,-0.96679 l 1.49414,-5.15039 -4.546875,6.57422 h -0.240234 l -0.714844,-6.70313 -1.517578,5.2793 q -0.09375,0.32226 -0.09375,0.53906 0,0.29297 0.199219,0.47461 0.205078,0.17578 0.691406,0.19336 l -0.05859,0.2168 h -2.625 l 0.05274,-0.2168 q 0.474609,-0.0176 0.726562,-0.19922 0.445313,-0.32812 0.644531,-1.00781 l 1.716797,-5.8711 q -0.246093,-0.26953 -0.445312,-0.35156 -0.19336,-0.082 -0.65625,-0.082 l 0.07031,-0.2168 z"
     id="path2503" /><path
     d="m 23.826172,102.76802 h 3.140625 q 1.048828,0 1.5,0.11133 0.591797,0.14063 0.914062,0.55078 0.328125,0.4043 0.328125,0.91992 0,0.42188 -0.257812,0.86133 -0.257813,0.43946 -0.773438,0.72657 -0.509765,0.28125 -1.570312,0.52148 1.101562,0.31055 1.529297,0.79687 0.427734,0.48633 0.427734,1.13086 0,0.60352 -0.421875,1.19532 -0.421875,0.58593 -1.119141,0.86132 -0.697265,0.26954 -2.554687,0.26954 h -3.304688 l 0.07617,-0.2168 q 0.480469,0 0.685547,-0.0879 0.210938,-0.0879 0.333985,-0.26953 0.128906,-0.1875 0.298828,-0.77344 l 1.417968,-4.88672 q 0.216797,-0.74414 0.216797,-0.99609 0,-0.20508 -0.175781,-0.33985 -0.169922,-0.13476 -0.75,-0.1582 z m 1.798828,3.50977 q 0.796875,-0.0117 1.253906,-0.25195 0.462891,-0.24024 0.738281,-0.78516 0.28125,-0.55078 0.28125,-1.03711 0,-0.45703 -0.287109,-0.74414 -0.287109,-0.28711 -0.767578,-0.27539 l -0.322266,0.0117 z m -0.140625,0.43945 -1.013672,3.53321 q 0.292969,0.0117 0.439453,0.0117 1.306641,0 1.816406,-0.72656 0.509766,-0.73242 0.509766,-1.56445 0,-0.39844 -0.199219,-0.70313 -0.193359,-0.31054 -0.503906,-0.42773 -0.310547,-0.12305 -1.048828,-0.12305 z"
     id="path2505" /><path
     d="M 34.835937,108.15279 H 32.375 l -0.492188,0.60937 -0.5625,0.67383 q -0.164062,0.2168 -0.240234,0.39258 -0.05859,0.13477 -0.05859,0.26953 0,0.14063 0.146485,0.26367 0.152343,0.11719 0.498047,0.13477 v 0.2168 h -2.373047 l 0.05859,-0.2168 q 0.316407,-0.0527 0.5625,-0.22266 0.328125,-0.23437 0.94336,-0.96679 l 5.630859,-6.72071 h 0.263672 l -0.263672,6.50391 q -0.01758,0.50976 -0.01758,0.61523 0,0.39844 0.158203,0.58008 0.164063,0.18164 0.539063,0.21094 l -0.05859,0.2168 h -3.439453 l 0.06445,-0.2168 q 0.509766,-0.0469 0.585937,-0.082 0.164063,-0.082 0.298829,-0.33985 0.134765,-0.26367 0.164062,-0.9082 z m 0,-0.48047 0.152344,-2.58984 -2.208984,2.58984 z"
     id="path2507" /><path
     d="m 44.978516,102.58638 -0.66211,2.69532 h -0.193359 q -0.06445,-0.63282 -0.228516,-1.01368 -0.246094,-0.55078 -0.65625,-0.84961 -0.404297,-0.29882 -0.878906,-0.29882 -0.457031,0 -0.802734,0.35156 -0.339844,0.3457 -0.339844,0.78515 0,0.4336 0.234375,0.85547 0.240234,0.41602 1.125,1.25977 0.708984,0.67383 0.949219,1.16016 0.246093,0.48632 0.246093,1.05468 0,0.63867 -0.339843,1.17774 -0.339844,0.53906 -0.990235,0.83789 -0.644531,0.29297 -1.464844,0.29297 -0.503906,0 -1.271484,-0.15235 -0.761719,-0.14648 -1.013672,-0.14648 -0.199219,0 -0.357422,0.0645 -0.158203,0.0586 -0.392578,0.23438 h -0.228515 l 0.708984,-3.0293 h 0.222656 q 0.07617,0.79687 0.322266,1.35937 0.246094,0.55665 0.703125,0.87305 0.457031,0.31055 1.042969,0.31055 0.580078,0 0.966796,-0.38086 0.392579,-0.38672 0.392579,-0.90234 0,-0.43946 -0.222657,-0.84375 -0.216797,-0.4043 -1.001953,-1.17774 -0.779297,-0.77344 -1.078125,-1.38281 -0.216797,-0.45117 -0.216797,-0.96094 0,-0.88476 0.697266,-1.5293 0.697266,-0.64453 1.822266,-0.64453 0.509765,0 1.341796,0.22852 0.486329,0.13476 0.685547,0.13476 0.169922,0 0.304688,-0.0703 0.134765,-0.0762 0.316406,-0.29297 z"
     id="path2509" /><path
     d="m 51.652344,102.58638 -0.66211,2.69532 h -0.193359 q -0.06445,-0.63282 -0.228516,-1.01368 -0.246093,-0.55078 -0.65625,-0.84961 -0.404297,-0.29882 -0.878906,-0.29882 -0.457031,0 -0.802734,0.35156 -0.339844,0.3457 -0.339844,0.78515 0,0.4336 0.234375,0.85547 0.240234,0.41602 1.125,1.25977 0.708984,0.67383 0.949219,1.16016 0.246093,0.48632 0.246093,1.05468 0,0.63867 -0.339843,1.17774 -0.339844,0.53906 -0.990235,0.83789 -0.644531,0.29297 -1.464843,0.29297 -0.503907,0 -1.271485,-0.15235 -0.761719,-0.14648 -1.013672,-0.14648 -0.199218,0 -0.357422,0.0645 -0.158203,0.0586 -0.392578,0.23438 h -0.228515 l 0.708984,-3.0293 h 0.222656 q 0.07617,0.79687 0.322266,1.35937 0.246094,0.55665 0.703125,0.87305 0.457031,0.31055 1.042969,0.31055 0.580078,0 0.966797,-0.38086 0.392578,-0.38672 0.392578,-0.90234 0,-0.43946 -0.222657,-0.84375 -0.216796,-0.4043 -1.001953,-1.17774 -0.779297,-0.77344 -1.078125,-1.38281 -0.216797,-0.45117 -0.216797,-0.96094 0,-0.88476 0.697266,-1.5293 0.697266,-0.64453 1.822266,-0.64453 0.509765,0 1.341797,0.22852 0.486328,0.13476 0.685546,0.13476 0.169922,0 0.304688,-0.0703 0.134766,-0.0762 0.316406,-0.29297 z"
     id="path2511" /><path
     d="m 56.1875,108.15279 h -2.460938 l -0.492187,0.60937 -0.5625,0.67383 q -0.164063,0.2168 -0.240234,0.39258 -0.05859,0.13477 -0.05859,0.26953 0,0.14063 0.146484,0.26367 0.152344,0.11719 0.498047,0.13477 v 0.2168 h -2.373047 l 0.05859,-0.2168 q 0.316406,-0.0527 0.5625,-0.22266 0.328125,-0.23437 0.943359,-0.96679 l 5.63086,-6.72071 h 0.263672 l -0.263672,6.50391 q -0.01758,0.50976 -0.01758,0.61523 0,0.39844 0.158203,0.58008 0.164062,0.18164 0.539062,0.21094 l -0.05859,0.2168 h -3.439453 l 0.06445,-0.2168 q 0.509766,-0.0469 0.585938,-0.082 0.164062,-0.082 0.298828,-0.33985 0.134766,-0.26367 0.164063,-0.9082 z m 0,-0.48047 0.152344,-2.58984 -2.208985,2.58984 z"
     id="path2513" /><path
     d="m 58.894531,110.71334 0.07031,-0.2168 q 0.574218,0 0.867187,-0.23438 0.298828,-0.24023 0.492188,-0.89062 l 1.441406,-5.00977 q 0.140625,-0.49218 0.140625,-0.80859 0,-0.26953 -0.164063,-0.39844 -0.164062,-0.1289 -0.83789,-0.16992 l 0.07031,-0.2168 h 2.71875 q 2.150391,0 3.09961,0.87305 0.955078,0.86719 0.955078,2.4375 0,1.10742 -0.439453,1.85742 -0.861328,1.46485 -2.044922,2.1211 -1.183594,0.65625 -3.041016,0.65625 z m 4.962891,-7.47657 -1.746094,6.02344 q -0.123047,0.41602 -0.123047,0.59766 0,0.16406 0.134766,0.26367 0.175781,0.13476 0.521484,0.13476 0.826172,0 1.476563,-0.51562 0.832031,-0.66211 1.265625,-1.78125 0.439453,-1.11914 0.439453,-2.2207 0,-0.79688 -0.251953,-1.38868 -0.251953,-0.59179 -0.779297,-0.90234 -0.369141,-0.21094 -0.9375,-0.21094 z"
     id="path2515" /><path
     d="m 71.369141,110.90084 q -0.960938,0 -1.552735,-0.39258 -0.591797,-0.39258 -0.890625,-1.07227 -0.292969,-0.67969 -0.292969,-1.32422 0,-1.30078 0.744141,-2.61914 0.744141,-1.32422 2.003906,-2.11523 1.265625,-0.79688 2.496094,-0.79688 0.720703,0 1.365234,0.36328 0.650391,0.36329 1.007813,1.01368 0.363281,0.65039 0.363281,1.3125 0,1.48242 -0.943359,2.97656 -0.94336,1.48828 -2.121094,2.15625 -0.890625,0.49805 -2.179687,0.49805 z m 2.314453,-7.83985 q -0.462891,0 -0.791016,0.16992 -0.322266,0.16407 -0.673828,0.55664 -0.351563,0.39258 -0.714844,1.125 -0.363281,0.72657 -0.685547,1.98047 -0.316406,1.25391 -0.316406,2.0918 0,0.71484 0.310547,1.08398 0.310547,0.36329 0.796875,0.36329 0.644531,0 1.095703,-0.42774 0.896484,-0.84961 1.458984,-2.49023 0.56836,-1.64649 0.56836,-2.92969 0,-0.80273 -0.304688,-1.16016 -0.298828,-0.36328 -0.74414,-0.36328 z"
     id="path2517" /><path
     d="m 80.105469,106.83443 -0.703125,2.4082 q -0.152344,0.50977 -0.152344,0.75 0,0.22266 0.181641,0.35742 0.18164,0.13477 0.755859,0.14649 l -0.08203,0.2168 h -3.826172 l 0.07031,-0.2168 q 0.574219,0 0.837891,-0.22266 0.269531,-0.22265 0.492187,-0.99609 l 1.476563,-5.09766 q 0.123047,-0.42773 0.123047,-0.67383 0,-0.23437 -0.152344,-0.35742 -0.152344,-0.12304 -0.708984,-0.16406 l 0.05859,-0.2168 h 3.292969 q 1.41211,0 1.986328,0.49219 0.574219,0.49219 0.574219,1.26563 0,0.81445 -0.667969,1.4707 -0.421875,0.41016 -1.49414,0.70898 l 0.714843,2.40821 q 0.28711,0.96679 0.498047,1.16601 0.216797,0.19922 0.714844,0.2168 v 0.2168 h -2.472656 l -1.125,-3.87891 -0.19336,0.0117 q -0.06445,0 -0.199218,-0.0117 z m 0.08203,-0.35156 q 0.205078,0.0117 0.345703,0.0117 0.855469,0 1.40625,-0.58594 0.550781,-0.58594 0.550781,-1.53516 0,-0.5625 -0.292968,-0.85547 -0.292969,-0.29297 -0.773438,-0.29297 -0.117187,0 -0.275391,0.006 z"
     id="path2519" /></g></svg>
