<?xml version="1.0" encoding="UTF-8" standalone="no"?>
<!-- Created with Inkscape (http://www.inkscape.org/) -->

<svg
   width="35"
   height="35"
   viewBox="0 0 9.2604164 9.2604167"
   version="1.1"
   id="svg5"
   inkscape:version="1.1.2 (0a00cf5339, 2022-02-04, custom)"
   sodipodi:docname="ambassador-icon.svg"
   xmlns:inkscape="http://www.inkscape.org/namespaces/inkscape"
   xmlns:sodipodi="http://sodipodi.sourceforge.net/DTD/sodipodi-0.dtd"
   xmlns="http://www.w3.org/2000/svg"
   xmlns:svg="http://www.w3.org/2000/svg">
  <sodipodi:namedview
     id="namedview7"
     pagecolor="#ffffff"
     bordercolor="#999999"
     borderopacity="1"
     inkscape:pageshadow="0"
     inkscape:pageopacity="0"
     inkscape:pagecheckerboard="true"
     inkscape:document-units="mm"
     showgrid="false"
     showguides="true"
     inkscape:guide-bbox="true"
     inkscape:zoom="16"
     inkscape:cx="19.71875"
     inkscape:cy="9.9062498"
     inkscape:window-width="3840"
     inkscape:window-height="2085"
     inkscape:window-x="0"
     inkscape:window-y="0"
     inkscape:window-maximized="1"
     inkscape:current-layer="g1395"
     height="250px"
     units="px" />
  <defs
     id="defs2" />
  <g
     inkscape:label="Layer 1"
     inkscape:groupmode="layer"
     id="layer1">
    <g
       id="g1395"
       transform="matrix(1.2126042,0,0,1.2126042,-71.082006,-92.586838)">
      <g
         id="XMLID_159_-3"
         class="st2"
         style="opacity:1;fill:#ffffff;fill-opacity:1"
         transform="matrix(0.26458333,0,0,0.26458333,42.871768,75.884324)">
        <g
           id="XMLID_14_-6-6"
           style="fill:#ffffff;fill-opacity:1">
          <path
             id="XMLID_18_-2-7"
             class="st3"
             d="m 68.5,26.9 c 1.4,1.5 3.4,3.4 5.7,3.2 2,-0.2 3.7,-2.2 5.3,-3.2 3.5,-2.2 5.9,-6.3 2.7,-10 -0.6,-0.7 -1.6,-0.9 -2.4,-0.6 -4.3,1.2 -9.2,5.5 -5.3,10.1 2.7,3.2 8.6,3 9.4,-1.6 0.2,-1.3 -0.3,-2.8 -1.7,-3.1 -0.2,0 -0.3,-0.1 -0.5,-0.1 -1.2,-0.3 -2.1,0.2 -2.8,1.1 -0.1,0.2 -0.2,0.3 -0.3,0.5 -1.6,2.2 1.4,4.3 3.4,3.4 5.3,-2.4 6.4,-12.5 2.1,-16.3 -4.8,-4.3 -10.5,2.4 -10.7,7.2 -0.1,2 2.2,3 3.8,2.2 2.6,-1.4 3.5,-4.4 3,-7.2 -0.2,-1.3 -1.9,-2.1 -3.1,-1.7 -3.6,1.1 -6.6,6.6 -4.8,10.2 2.5,5 8.6,1.3 10.6,-2 2.1,-3.3 2.2,-9.8 -3.3,-9.3 -6.3,0.5 -8.4,8.2 -7.5,13.3 0.3,1.7 2.4,2.1 3.7,1.5 C 79.5,22.8 84,11.4 79,8.8 75.5,7 73.2,11.1 71.6,13.4 c -2.5,3.5 -4.2,7.2 -3.5,11.6 0.3,1.7 2.4,2.2 3.7,1.5 4.5,-2.4 5.7,-9.9 4.9,-14.5 -0.2,-1.3 -1.9,-2.1 -3.1,-1.7 -2,0.5 -3.1,1.9 -4.4,3.4 -0.8,0.9 -2.4,3.6 -3.5,3.8 0.9,0.4 1.9,0.8 2.8,1.1 -1,-1.8 -3.1,-7.3 -0.8,-8.6 2,-1.2 3.5,1.9 2.2,3.4 1,-0.1 2,-0.3 3,-0.4 C 71.4,11.9 71.5,9.1 70.4,7.6 69.7,6.6 68.2,5.9 67,6.7 c -3.5,2.5 -4,9.7 1.5,9.9 2.6,0.1 4.5,-1.8 5.7,-3.9 0.7,-1.2 1,-2.5 1.6,-3.8 0.1,-0.5 0.4,-1.9 0.5,-1.9 3,-0.9 -2,4.5 -1.8,4.4 C 72,13.5 75.6,17 78,14.9 82.1,11.4 84.4,4.4 77.3,2.6 75.3,2.1 73.2,2.5 72,4.3 c -0.6,0.9 -0.8,2.1 -1.1,3 -0.3,0.9 -0.6,1.8 -1.1,2.6 -0.3,0.4 -1,1.3 -0.3,0.9 -1.1,-0.3 -2.3,-0.6 -3.4,-0.9 1.8,2.5 1.5,5.2 4.2,7.2 0.8,0.6 2.4,0.4 3,-0.4 3.2,-3.8 1.7,-13.9 -4.7,-13 -2.8,0.4 -6.3,3.2 -7.3,5.8 -1.1,3.2 1,8.6 2.7,11.4 0.6,1 1.7,1.4 2.8,1.1 3.7,-0.8 4.6,-6.3 7.9,-7.2 -1,-0.6 -2.1,-1.2 -3.1,-1.7 0.4,2 -0.4,7.6 -2.6,8.8 1.2,0.5 2.4,1 3.7,1.5 -0.3,-2 0.7,-4.4 1.7,-6 0.8,-1.2 2.9,-2.9 1.9,-4.1 -0.8,-1.1 -0.8,1.1 -1,1.9 -0.3,1.7 -0.5,3.9 -2.3,4.7 1.2,0.5 2.4,1 3.7,1.5 -0.2,-1 -0.1,-6.6 2.1,-6.4 0.7,0.1 -0.4,1.2 -0.6,1.4 -2.6,3.4 -1.6,-0.5 -0.1,-1 -1,-0.6 -2.1,-1.2 -3.1,-1.7 -0.2,0.5 -0.5,1 -0.7,1.5 1.3,0.7 2.5,1.4 3.8,2.2 0.1,-2.1 2.2,-5.5 3.1,-0.5 0.3,1.8 -0.2,4.4 -2,5.3 1.1,1.1 2.3,2.3 3.4,3.4 0.1,-0.2 0.2,-0.3 0.3,-0.5 -0.9,0.4 -1.9,0.8 -2.8,1.1 0.2,0 0.3,0.1 0.5,0.1 -0.6,-1 -1.2,-2.1 -1.7,-3.1 -0.6,-1 -0.5,-1.5 0.4,-1.7 0.5,-0.3 1.1,-0.5 1.7,-0.6 -0.8,-0.2 -1.6,-0.4 -2.4,-0.6 1.1,1.3 -3.3,3 -3.8,3.3 -0.3,0.2 -1.3,1.4 -1.5,1.4 1.3,-0.1 -0.9,-1.5 -1.2,-1.9 -2.2,-2.1 -5.8,1.4 -3.6,3.8 z"
             style="fill:#ffffff;fill-opacity:1" />
        </g>
      </g>
      <path
         id="XMLID_90_-5"
         class="st1"
         d="m 60.836976,78.000991 c 0.9525,-0.02646 1.931459,-0.132292 2.883959,-0.3175 -0.34396,0.555625 -0.635,1.164166 -0.84667,1.825625 0.66146,-0.264584 1.34938,-0.47625 2.03729,-0.608542 0,1.058333 0,2.143125 0.0265,3.201458 -0.71437,-0.423333 -1.42875,-0.873125 -2.11666,-1.296458 -0.0794,0.635 0.0529,1.296458 0.39687,1.852083 -0.66146,0.185209 -1.375832,0.291042 -2.063749,0.291042 0.02646,-0.502708 0.05292,-1.031875 0.07937,-1.534583 0.370417,0.15875 0.846667,-0.05292 0.9525,-0.449792 -0.79375,-0.07937 -1.5875,-0.264583 -2.328333,-0.555625 0.343958,-0.238125 0.608541,-0.661458 0.635,-1.084792 0.02646,0.132292 0.05292,0.264584 0.07937,0.396875 0.635,-0.529166 1.11125,-1.190625 1.42875,-1.957916 0.02646,0.132291 0.05292,0.264583 0.07937,0.370416"
         style="fill:none;stroke:#000000;stroke-width:0.264583;stroke-miterlimit:10" />
      <g
         id="XMLID_159_"
         class="st2"
         style="opacity:0.51;fill:#d7d62f;fill-opacity:1"
         transform="matrix(0.26458333,0,0,0.26458333,42.871768,75.884324)">
        <g
           id="XMLID_14_-6"
           style="fill:#d7d62f;fill-opacity:1">
          <path
             id="XMLID_18_-2"
             class="st3"
             d="m 68.5,26.9 c 1.4,1.5 3.4,3.4 5.7,3.2 2,-0.2 3.7,-2.2 5.3,-3.2 3.5,-2.2 5.9,-6.3 2.7,-10 -0.6,-0.7 -1.6,-0.9 -2.4,-0.6 -4.3,1.2 -9.2,5.5 -5.3,10.1 2.7,3.2 8.6,3 9.4,-1.6 0.2,-1.3 -0.3,-2.8 -1.7,-3.1 -0.2,0 -0.3,-0.1 -0.5,-0.1 -1.2,-0.3 -2.1,0.2 -2.8,1.1 -0.1,0.2 -0.2,0.3 -0.3,0.5 -1.6,2.2 1.4,4.3 3.4,3.4 5.3,-2.4 6.4,-12.5 2.1,-16.3 -4.8,-4.3 -10.5,2.4 -10.7,7.2 -0.1,2 2.2,3 3.8,2.2 2.6,-1.4 3.5,-4.4 3,-7.2 -0.2,-1.3 -1.9,-2.1 -3.1,-1.7 -3.6,1.1 -6.6,6.6 -4.8,10.2 2.5,5 8.6,1.3 10.6,-2 2.1,-3.3 2.2,-9.8 -3.3,-9.3 -6.3,0.5 -8.4,8.2 -7.5,13.3 0.3,1.7 2.4,2.1 3.7,1.5 C 79.5,22.8 84,11.4 79,8.8 75.5,7 73.2,11.1 71.6,13.4 c -2.5,3.5 -4.2,7.2 -3.5,11.6 0.3,1.7 2.4,2.2 3.7,1.5 4.5,-2.4 5.7,-9.9 4.9,-14.5 -0.2,-1.3 -1.9,-2.1 -3.1,-1.7 -2,0.5 -3.1,1.9 -4.4,3.4 -0.8,0.9 -2.4,3.6 -3.5,3.8 0.9,0.4 1.9,0.8 2.8,1.1 -1,-1.8 -3.1,-7.3 -0.8,-8.6 2,-1.2 3.5,1.9 2.2,3.4 1,-0.1 2,-0.3 3,-0.4 C 71.4,11.9 71.5,9.1 70.4,7.6 69.7,6.6 68.2,5.9 67,6.7 c -3.5,2.5 -4,9.7 1.5,9.9 2.6,0.1 4.5,-1.8 5.7,-3.9 0.7,-1.2 1,-2.5 1.6,-3.8 0.1,-0.5 0.4,-1.9 0.5,-1.9 3,-0.9 -2,4.5 -1.8,4.4 C 72,13.5 75.6,17 78,14.9 82.1,11.4 84.4,4.4 77.3,2.6 75.3,2.1 73.2,2.5 72,4.3 c -0.6,0.9 -0.8,2.1 -1.1,3 -0.3,0.9 -0.6,1.8 -1.1,2.6 -0.3,0.4 -1,1.3 -0.3,0.9 -1.1,-0.3 -2.3,-0.6 -3.4,-0.9 1.8,2.5 1.5,5.2 4.2,7.2 0.8,0.6 2.4,0.4 3,-0.4 3.2,-3.8 1.7,-13.9 -4.7,-13 -2.8,0.4 -6.3,3.2 -7.3,5.8 -1.1,3.2 1,8.6 2.7,11.4 0.6,1 1.7,1.4 2.8,1.1 3.7,-0.8 4.6,-6.3 7.9,-7.2 -1,-0.6 -2.1,-1.2 -3.1,-1.7 0.4,2 -0.4,7.6 -2.6,8.8 1.2,0.5 2.4,1 3.7,1.5 -0.3,-2 0.7,-4.4 1.7,-6 0.8,-1.2 2.9,-2.9 1.9,-4.1 -0.8,-1.1 -0.8,1.1 -1,1.9 -0.3,1.7 -0.5,3.9 -2.3,4.7 1.2,0.5 2.4,1 3.7,1.5 -0.2,-1 -0.1,-6.6 2.1,-6.4 0.7,0.1 -0.4,1.2 -0.6,1.4 -2.6,3.4 -1.6,-0.5 -0.1,-1 -1,-0.6 -2.1,-1.2 -3.1,-1.7 -0.2,0.5 -0.5,1 -0.7,1.5 1.3,0.7 2.5,1.4 3.8,2.2 0.1,-2.1 2.2,-5.5 3.1,-0.5 0.3,1.8 -0.2,4.4 -2,5.3 1.1,1.1 2.3,2.3 3.4,3.4 0.1,-0.2 0.2,-0.3 0.3,-0.5 -0.9,0.4 -1.9,0.8 -2.8,1.1 0.2,0 0.3,0.1 0.5,0.1 -0.6,-1 -1.2,-2.1 -1.7,-3.1 -0.6,-1 -0.5,-1.5 0.4,-1.7 0.5,-0.3 1.1,-0.5 1.7,-0.6 -0.8,-0.2 -1.6,-0.4 -2.4,-0.6 1.1,1.3 -3.3,3 -3.8,3.3 -0.3,0.2 -1.3,1.4 -1.5,1.4 1.3,-0.1 -0.9,-1.5 -1.2,-1.9 -2.2,-2.1 -5.8,1.4 -3.6,3.8 z"
             style="fill:#d7d62f;fill-opacity:1" />
        </g>
      </g>
    </g>
  </g>
</svg>
