<?xml version="1.0" encoding="utf-8"?>
<!-- Generator: Adobe Illustrator 19.0.0, SVG Export Plug-In . SVG Version: 6.00 Build 0)  -->
<svg version="1.1" id="Layer_1" xmlns="http://www.w3.org/2000/svg" xmlns:xlink="http://www.w3.org/1999/xlink" x="0px" y="0px"
	 viewBox="0 0 90 135" style="enable-background:new 0 0 90 135;" xml:space="preserve">
<style type="text/css">
	.st0{fill:#FFFFFF;stroke:#000000;stroke-miterlimit:10;}
	.st1{fill:none;stroke:#000000;stroke-miterlimit:10;}
	.st2{opacity:0.51;}
	.st3{fill:#D7D62F;}
	.st4{fill:none;}
	.st5{font-family:'MosaicoSCSC';}
	.st6{font-size:9px;}
	.st7{font-size:12px;}
</style>
<path id="XMLID_12_" class="st0" d="M78,0H12C5.4,0,0,5.4,0,12v111c0,6.6,5.4,12,12,12h66c6.6,0,12-5.4,12-12V12C90,5.4,84.6,0,78,0
	z"/>
<path id="XMLID_90_" class="st1" d="M67.9,8c3.6-0.1,7.3-0.5,10.9-1.2c-1.3,2.1-2.4,4.4-3.2,6.9c2.5-1,5.1-1.8,7.7-2.3
	c0,4,0,8.1,0.1,12.1c-2.7-1.6-5.4-3.3-8-4.9c-0.3,2.4,0.2,4.9,1.5,7c-2.5,0.7-5.2,1.1-7.8,1.1c0.1-1.9,0.2-3.9,0.3-5.8
	c1.4,0.6,3.2-0.2,3.6-1.7c-3-0.3-6-1-8.8-2.1c1.3-0.9,2.3-2.5,2.4-4.1c0.1,0.5,0.2,1,0.3,1.5c2.4-2,4.2-4.5,5.4-7.4
	c0.1,0.5,0.2,1,0.3,1.4"/>
<g id="XMLID_159_" class="st2">
	<g id="XMLID_14_">
		<path id="XMLID_18_" class="st3" d="M68.5,26.9c1.4,1.5,3.4,3.4,5.7,3.2c2-0.2,3.7-2.2,5.3-3.2c3.5-2.2,5.9-6.3,2.7-10
			c-0.6-0.7-1.6-0.9-2.4-0.6c-4.3,1.2-9.2,5.5-5.3,10.1c2.7,3.2,8.6,3,9.4-1.6c0.2-1.3-0.3-2.8-1.7-3.1c-0.2,0-0.3-0.1-0.5-0.1
			c-1.2-0.3-2.1,0.2-2.8,1.1c-0.1,0.2-0.2,0.3-0.3,0.5c-1.6,2.2,1.4,4.3,3.4,3.4c5.3-2.4,6.4-12.5,2.1-16.3
			c-4.8-4.3-10.5,2.4-10.7,7.2c-0.1,2,2.2,3,3.8,2.2c2.6-1.4,3.5-4.4,3-7.2c-0.2-1.3-1.9-2.1-3.1-1.7c-3.6,1.1-6.6,6.6-4.8,10.2
			c2.5,5,8.6,1.3,10.6-2c2.1-3.3,2.2-9.8-3.3-9.3c-6.3,0.5-8.4,8.2-7.5,13.3c0.3,1.7,2.4,2.1,3.7,1.5c3.7-1.7,8.2-13.1,3.2-15.7
			c-3.5-1.8-5.8,2.3-7.4,4.6c-2.5,3.5-4.2,7.2-3.5,11.6c0.3,1.7,2.4,2.2,3.7,1.5c4.5-2.4,5.7-9.9,4.9-14.5c-0.2-1.3-1.9-2.1-3.1-1.7
			c-2,0.5-3.1,1.9-4.4,3.4c-0.8,0.9-2.4,3.6-3.5,3.8c0.9,0.4,1.9,0.8,2.8,1.1c-1-1.8-3.1-7.3-0.8-8.6c2-1.2,3.5,1.9,2.2,3.4
			c1-0.1,2-0.3,3-0.4c-1.5-1.1-1.4-3.9-2.5-5.4c-0.7-1-2.2-1.7-3.4-0.9c-3.5,2.5-4,9.7,1.5,9.9c2.6,0.1,4.5-1.8,5.7-3.9
			c0.7-1.2,1-2.5,1.6-3.8C75.9,8.4,76.2,7,76.3,7c3-0.9-2,4.5-1.8,4.4c-2.5,2.1,1.1,5.6,3.5,3.5c4.1-3.5,6.4-10.5-0.7-12.3
			c-2-0.5-4.1-0.1-5.3,1.7c-0.6,0.9-0.8,2.1-1.1,3c-0.3,0.9-0.6,1.8-1.1,2.6c-0.3,0.4-1,1.3-0.3,0.9c-1.1-0.3-2.3-0.6-3.4-0.9
			c1.8,2.5,1.5,5.2,4.2,7.2c0.8,0.6,2.4,0.4,3-0.4c3.2-3.8,1.7-13.9-4.7-13c-2.8,0.4-6.3,3.2-7.3,5.8c-1.1,3.2,1,8.6,2.7,11.4
			c0.6,1,1.7,1.4,2.8,1.1c3.7-0.8,4.6-6.3,7.9-7.2c-1-0.6-2.1-1.2-3.1-1.7c0.4,2-0.4,7.6-2.6,8.8c1.2,0.5,2.4,1,3.7,1.5
			c-0.3-2,0.7-4.4,1.7-6c0.8-1.2,2.9-2.9,1.9-4.1c-0.8-1.1-0.8,1.1-1,1.9c-0.3,1.7-0.5,3.9-2.3,4.7c1.2,0.5,2.4,1,3.7,1.5
			c-0.2-1-0.1-6.6,2.1-6.4c0.7,0.1-0.4,1.2-0.6,1.4c-2.6,3.4-1.6-0.5-0.1-1c-1-0.6-2.1-1.2-3.1-1.7c-0.2,0.5-0.5,1-0.7,1.5
			c1.3,0.7,2.5,1.4,3.8,2.2c0.1-2.1,2.2-5.5,3.1-0.5c0.3,1.8-0.2,4.4-2,5.3c1.1,1.1,2.3,2.3,3.4,3.4c0.1-0.2,0.2-0.3,0.3-0.5
			c-0.9,0.4-1.9,0.8-2.8,1.1c0.2,0,0.3,0.1,0.5,0.1c-0.6-1-1.2-2.1-1.7-3.1c-0.6-1-0.5-1.5,0.4-1.7c0.5-0.3,1.1-0.5,1.7-0.6
			c-0.8-0.2-1.6-0.4-2.4-0.6c1.1,1.3-3.3,3-3.8,3.3c-0.3,0.2-1.3,1.4-1.5,1.4c1.3-0.1-0.9-1.5-1.2-1.9C69.9,21,66.3,24.5,68.5,26.9
			L68.5,26.9z"/>
	</g>
</g>
<path id="XMLID_235_" class="st1" d="M89.7,101.5c-5.2-8.2-8.2-17.8-8.6-27.6c0-1.2-0.1-2.4-0.8-3.4c-0.5-0.7-1.4-1.1-2.2-1.5
	c-5.9-2.8-11.7-5.5-17.6-8.3c-1.4-0.7-3-1.5-3.5-3c-0.3-1-0.1-2.1,0-3.1c1.7-8.7,3.3-17.3,5-26c0.2-1.1,0.4-2.2,0.3-3.4
	c-0.4-2.7-2.8-4.6-5.1-6c-6.8-4-14.6-5.8-22.2-7.6c-2-0.5-4-0.9-6-0.7c-2.2,0.2-4.2,1.1-6.2,2c-4.2,2-8.3,4.3-12.2,6.7
	C6.4,22.5,1.9,26.6,3,31.3c0.5,2,1.9,3.6,3.3,5.2c5.6,6.3,10.8,13.1,15.6,20.1c2.2,3.2,4.3,6.7,4.4,10.6c0.1,3.5-1.6,6.9-3.8,9.7
	C18.2,82.4,12,86,6,89.6c-1.4,0.8-2.7,1.6-4.1,2.4"/>
<path id="XMLID_234_" class="st1" d="M60.6,38.1c-2.7-2.9-6-5.3-9.7-6.7"/>
<path id="XMLID_233_" class="st1" d="M60.4,20.5c-2.4,3.3-5.3,6.3-8.6,8.8c-2.6,2-5.4,3.6-8.3,5.2c-4.7,2.6-9.5,5-14.4,7.3
	c-4.9,2.3-10.2,4.5-13.5,8.9c0.4-0.6,0.8-1.2,1.2-1.8"/>
<path id="XMLID_232_" class="st1" d="M60.1,38.1c0.2-0.2,0.3-0.5,0.3-0.9c-2,1.2-4.1,2.4-6.1,3.6c-1.1,0.6-2.2,1.3-3.4,1.5
	c-1.5,0.3-3.1,0-4.7-0.3c-3-0.6-6-1.1-9-1.7c0.4,0.5,0.4,1.3-0.1,1.7"/>
<path id="XMLID_231_" class="st1" d="M49.1,46c-2.7-0.7-5.4-1-8.1-1.1c-3-0.1-6.7,0.5-7.9,3.3c3.7,0.6,7.4,0.8,11,0.6
	c0.9,0,1.8-0.1,2.5-0.6s1.1-1.6,0.5-2.3c-0.5-0.6-1.7-1-1.4-1.7"/>
<path id="XMLID_230_" class="st1" d="M51.6,47c1,1,2.4,1.5,3.8,1.6c0.5,0,1.1-0.1,1.4-0.5c0.3-0.5,0-1.1-0.4-1.4
	c-0.4-0.3-1-0.5-1.5-0.6c-0.7-0.2-1.4-0.3-2.1-0.1c-0.7,0.2-1.2,1.1-0.8,1.7c1,1.8,2.1,4.5,1.6,6.5c-0.4,1.3-1.5,2.2-2.8,2.6
	c-1.3,0.4-2.6,0.3-3.9,0.1c-1.8-0.3-3.6-0.7-5.4-1.3"/>
<path id="XMLID_229_" class="st1" d="M56.1,63.1c0.1-0.9-0.9-1.4-1.7-1.6c-4.7-1.2-9.7-1.6-14.6-1.2c-0.3,0-0.6,0-0.7-0.2
	c-0.1-0.3,0.5-0.4,0.4-0.1"/>
<path id="XMLID_228_" class="st1" d="M63.9,64.2c-0.2,2.4-2,4.4-4.1,5.6c-2.7,1.6-6,2.3-9.1,1.9c-2.9-0.4-5.7-1.6-8.5-2.5
	c-4.3-1.4-8.8-1.9-13.3-2.4c0.3-0.4,1-0.4,1.3,0"/>
<path id="XMLID_227_" class="st1" d="M23.4,79.1c1.6,0.4,2.7,1.9,3.5,3.4s1.3,3.2,2.3,4.5c1.4,1.8,3.5,2.7,5.5,3.5
	c1.5,0.6,3,1.3,4.5,1.9c1.7,0.7,3.6,1.8,3.7,3.7c0,0.7-0.2,1.4-0.2,2c0,1.9,1.9,3.2,3.6,3.6c1.1,0.3,2.6,0.7,2.8,1.9
	c0,0.3,0,0.7,0.2,0.9c0.3,0.2,0.5-0.5,0.2-0.4c-0.6,0.6-1.7,0-1.6-0.8"/>
<path id="XMLID_226_" class="st1" d="M66,105.1c-0.2-2.4-0.5-4.9-0.7-7.3c-0.2-2.1-0.5-4.3-1.9-5.8c-0.8-0.8-1.9-1.4-2.9-1.9
	c-3-1.7-5.5-4.2-8.4-6c-5.3-3.4-11.7-4.5-17.9-5.6c-0.2,0.3-0.5,0.7-0.7,1"/>
<path id="XMLID_225_" class="st1" d="M67.1,66.5c-0.9,6.6-1.5,13.3-1.8,20"/>
<path id="XMLID_224_" class="st1" d="M41.4,47.2c-0.2-0.4-0.3-0.8-0.3-1.3c-0.3-0.3-0.9-0.3-1.1,0.1c-0.2,0.4,0,0.9,0.4,1
	c0.2-0.3,0.1-0.8-0.3-0.9c-0.5,0.2-0.8,0.8-0.6,1.3c0.5,0,0.7-0.9,0.2-1c-0.5,0.3,0.1,1.4,0.6,1c0.2-0.3,0.1-0.8-0.3-1
	c-0.4,0.2-0.6,0.6-0.6,1c0.4,0.2,0.9,0,1.1-0.4c-0.4-0.4-1.3,0.3-1,0.8c0.5-0.2,0.9-0.6,1.1-1.1"/>
<path id="XMLID_223_" class="st1" d="M54.8,47.2c0.2-0.3-0.2-0.7-0.5-0.6c-0.3,0.2-0.2,0.7,0.1,0.8c0.5,0,0.3-1.1-0.2-0.8
	c-0.1,0.3,0.2,0.6,0.5,0.5c0.3-0.1,0.3-0.6,0.1-0.7"/>
<path id="XMLID_222_" class="st1" d="M2.7,92.4c1.1-1,2.6-1.2,4.1-0.9s2.7,1,3.9,1.7c3.9,2.3,8,5.2,9.2,9.6c0.3,1.1,0.4,2.2,0.5,3.3
	c0.2,2.8,0.3,5.6,0.4,8.4c-0.3-0.4-0.6-0.7-0.9-1.1"/>
<path id="XMLID_221_" class="st1" d="M52.6,61.6c-1.5,1.5-3.7,2.2-5.8,2c-2.1-0.2-4-1.5-5.1-3.2"/>
<path id="XMLID_220_" class="st1" d="M21.8,46.2c0.1-0.3,0.3-0.6,0.4-0.9c-0.7,0.8-0.7,2.1-0.6,3.1c0.1,1.2,1,3.7,0.8,4.8
	c-0.2,1.2-0.8,1.2-1.1,2.2"/>
<path id="XMLID_219_" class="st1" d="M18.8,48.7c-0.3,0,0.1-0.5,0.3-0.3c0.2,0.2,0.1,0.5,0,0.8c-0.5,0.3-0.1,2.1,0.3,2.3"/>
<path id="XMLID_218_" class="st1" d="M55.5,59.8c0.3,0.6,0.5,1.2,0.4,1.8"/>
<path id="XMLID_217_" class="st1" d="M53.6,59.6c0.3,0,0.4,0.3,0.5,0.5c0.1,0.3,0.2,0.7,0.2,1"/>
<path id="XMLID_216_" class="st1" d="M51.9,59.4c0.2,0.3,0.2,0.7,0.1,1"/>
<path id="XMLID_215_" class="st1" d="M50.2,59.1c-0.1,0.3-0.2,0.7-0.3,1"/>
<path id="XMLID_214_" class="st1" d="M47.9,58.9c0,0.4,0,0.8-0.1,1.2"/>
<path id="XMLID_213_" class="st1" d="M46.1,58.5c-0.5,0.5-0.9,1.3-0.8,2"/>
<path id="XMLID_207_" class="st1" d="M43.7,58.6c-0.4,0.5-0.7,1-0.9,1.5"/>
<path id="XMLID_206_" class="st1" d="M41.5,58.7c0,0.4-0.1,0.8-0.2,1.2"/>
<path id="XMLID_174_" class="st1" d="M40.1,58.7c-0.1,0.2-0.3,0.4-0.3,0.6c-0.1,0.2-0.1,0.5,0.1,0.6"/>
<path id="XMLID_60_" class="st4" d="M12,0h66c6.6,0,12,5.4,12,12v111c0,6.6-5.4,12-12,12H12c-6.6,0-12-5.4-12-12V12
	C0,5.4,5.4,0,12,0z"/>
<text id="XMLID_13_" transform="matrix(1 0 0 1 0 94.6201)"><tspan x="0" y="0" class="st5 st6"> </tspan><tspan x="0" y="14.4" class="st5 st7">   AMBASSADOR: </tspan><tspan x="0" y="25.2" class="st5 st6">    Exchange cards with Court Deck</tspan><tspan x="2.7" y="36" class="st5 st6">    Blocks stealing</tspan></text>
</svg>
