<?xml version="1.0" encoding="UTF-8" standalone="no"?>
<!-- Created with Inkscape (http://www.inkscape.org/) -->

<svg
   width="35"
   height="35"
   viewBox="0 0 9.2604164 9.2604167"
   version="1.1"
   id="svg5"
   inkscape:version="1.1.2 (0a00cf5339, 2022-02-04, custom)"
   sodipodi:docname="ambassador-captain-icon.svg"
   xmlns:inkscape="http://www.inkscape.org/namespaces/inkscape"
   xmlns:sodipodi="http://sodipodi.sourceforge.net/DTD/sodipodi-0.dtd"
   xmlns="http://www.w3.org/2000/svg"
   xmlns:svg="http://www.w3.org/2000/svg">
  <sodipodi:namedview
     id="namedview7"
     pagecolor="#ffffff"
     bordercolor="#999999"
     borderopacity="1"
     inkscape:pageshadow="0"
     inkscape:pageopacity="0"
     inkscape:pagecheckerboard="true"
     inkscape:document-units="mm"
     showgrid="false"
     showguides="true"
     inkscape:guide-bbox="true"
     inkscape:zoom="32.000001"
     inkscape:cx="22.328124"
     inkscape:cy="15.953125"
     inkscape:window-width="3840"
     inkscape:window-height="2085"
     inkscape:window-x="0"
     inkscape:window-y="0"
     inkscape:window-maximized="1"
     inkscape:current-layer="layer1"
     height="250px"
     units="px" />
  <defs
     id="defs2" />
  <g
     inkscape:label="Layer 1"
     inkscape:groupmode="layer"
     id="layer1">
    <g
       id="g1898"
       transform="matrix(0.7217117,0,0,0.7217117,-6.0377925,0.01550261)">
      <g
         id="XMLID_160_-3"
         class="st2"
         style="fill:#ffffff;fill-opacity:1"
         transform="matrix(0.34537721,0,0,0.34537721,-9.4825857,-0.28138367)">
        <g
           id="XMLID_14_-3-6"
           style="fill:#ffffff;fill-opacity:1">
          <path
             id="XMLID_18_-6-7"
             class="st3"
             d="m 72.2,25.8 c 3.9,2.7 10.1,-1.1 7.2,-5.8 -1.1,-1.8 -4,-1.5 -4.6,0.6 -0.4,1.5 -0.2,2.2 0.4,3.6 0.4,0.8 1.4,1.2 2.2,1.2 5.8,0.3 4.5,-7.9 0.4,-9.6 -1.2,-0.5 -2.4,-0.8 -3.7,-0.5 -0.5,0.1 -1.2,0.3 -1.6,0.6 -0.6,0.5 -1.3,1.6 0.1,1.3 2.6,-0.6 2.5,-4.6 1.4,-6.2 -0.7,-1 -1.6,-1.3 -2.8,-1.1 -3.3,0.5 -3.8,4.4 -3.8,7.1 0.1,3.6 1.2,6.9 4.7,8.5 3.3,1.5 7.8,1.7 10.9,-0.2 4.6,-2.8 2.2,-7.9 3.5,-12.2 -1.6,-0.2 -3.3,-0.4 -4.9,-0.7 0,1.7 -0.9,3 -1,4.6 0,0.7 0.7,-1.2 0.8,-1.8 0.4,-1.5 1,-2.9 0.1,-4.4 -1.9,-3.1 -5.3,-1.2 -8,-1.9 0.4,1.4 0.7,2.8 1.1,4.2 -0.9,-0.5 -1.3,-0.3 -1.3,0.7 -0.2,0.6 -0.3,1.2 -0.5,1.8 -0.4,1.3 -0.6,2.4 -0.6,3.7 0,3.2 5,3.2 5,0 0,-2.8 0.6,-5.6 0.7,-8.5 0,-1.5 -0.8,-4.3 0.6,-5.5 -1,0.1 -2,0.3 -3,0.4 2.7,1.2 2.8,5 1.9,7.4 1.6,0.4 3.2,0.9 4.8,1.3 0.1,-0.6 2.3,-5.4 1.9,-5.8 -0.6,0.1 -1.2,0.2 -1.8,0.3 0.1,0.3 0.3,0.5 0.4,0.8 0,-0.2 1,2.4 0.8,2.4 -3.2,0.4 -3.2,5.4 0,5 C 89.8,16.3 89.3,10.3 86.4,6 85.2,4.2 82.9,3 80.9,4.4 78.8,5.8 78,10.8 77.4,13.1 76.6,16.3 81,17.3 82.2,14.4 84,10.1 82.7,3.3 78.1,1.4 77,0.9 76,1 75.1,1.8 c -2,1.6 -2.2,4.1 -2.2,6.5 0.1,3.7 -0.5,7.3 -0.5,11 1.7,0 3.3,0 5,0 0,-3.2 2.8,-6.8 0.4,-9.7 -1.9,-2.3 -4.6,-1.9 -6.6,0 -1.3,1.3 -0.7,3.8 1.1,4.2 1.2,0.3 2.4,0.3 3.6,0.1 1.1,-0.2 1.3,0.4 1,-0.5 0.1,0.3 -0.4,1.6 -0.5,2 -0.4,2.3 -0.2,5.4 2.1,6.7 5.6,3.3 8.2,-6 8.2,-9.8 0,-2.8 -4.1,-3.4 -4.9,-0.7 -0.6,2.1 -0.8,3.9 -0.7,6 0.2,3.1 -1.6,4.2 -4.5,3.8 -2.1,-0.3 -3.5,-0.9 -4,-3.1 -0.2,-1 0,-3.8 0,-3.8 -0.9,-0.4 -1.9,-0.8 -2.8,-1.1 0.5,-0.8 0.4,-0.8 -0.3,-0.1 -0.3,0.2 -0.6,0.5 -0.8,0.7 -0.4,0.4 -0.8,0.9 -1,1.5 -0.6,1.7 0.2,3.5 1.4,4.6 1.1,1 2.4,1.6 3.9,1.2 0.8,-0.2 1.4,-1 2.2,-1.3 0.1,0 2.1,0.1 2.3,0.1 0.7,0.4 1.4,0.8 2.2,1.2 0,0.1 0.1,0.2 0.1,0.3 -1.5,0.2 -3,0.4 -4.6,0.6 -0.1,-0.4 -0.3,-0.7 -0.4,-1.1 -2.7,-1.4 -5.2,2.9 -2.6,4.7 z"
             style="fill:#ffffff;fill-opacity:1" />
        </g>
      </g>
      <path
         id="XMLID_81_"
         class="st1"
         d="m 17.387762,1.8944927 c 0.06908,-0.1726894 0.138151,-0.3453776 0.207225,-0.5526031 -0.448989,0.8979794 -0.379915,1.9686495 -0.138149,2.9702424 0.241763,0.9670579 0.58714,1.9341134 0.621679,2.9702449 0,0.2417642 -0.03454,0.5180657 -0.241765,0.6562165 C 17.733147,7.8004426 17.698601,7.5932159 17.733147,7.4550663"
         style="fill:none;stroke:#000000;stroke-width:0.345376;stroke-miterlimit:10" />
      <path
         id="XMLID_82_"
         class="st1"
         d="m 14.762896,5.3482635 c -0.06908,-0.1381496 -0.03453,-0.3453764 0.06908,-0.4489897 0.310839,1.381509 1.830499,2.2449523 3.246546,2.2104137 0.518066,-0.034535 1.036132,-0.1381496 1.416045,-0.4835271 0.379917,-0.3453776 0.587142,-0.8979807 0.379917,-1.3469705 -0.03454,0.069082 -0.03454,0.1381496 -0.06908,0.2072256"
         style="fill:none;stroke:#000000;stroke-width:0.345376;stroke-miterlimit:10" />
      <path
         id="XMLID_83_"
         class="st1"
         d="m 15.695414,3.1378497 c 1.036131,0.1726894 2.141338,0.034535 3.108394,-0.3799149 -0.138152,0.034535 -0.241764,0.034535 -0.379915,0.069082"
         style="fill:none;stroke:#000000;stroke-width:0.345376;stroke-miterlimit:10" />
      <g
         id="XMLID_160_"
         class="st2"
         style="opacity:0.51;fill:#00aeef;fill-opacity:1"
         transform="matrix(0.34537721,0,0,0.34537721,-9.4825857,-0.28138367)">
        <g
           id="XMLID_14_-3"
           style="fill:#00aeef;fill-opacity:1">
          <path
             id="XMLID_18_-6"
             class="st3"
             d="m 72.2,25.8 c 3.9,2.7 10.1,-1.1 7.2,-5.8 -1.1,-1.8 -4,-1.5 -4.6,0.6 -0.4,1.5 -0.2,2.2 0.4,3.6 0.4,0.8 1.4,1.2 2.2,1.2 5.8,0.3 4.5,-7.9 0.4,-9.6 -1.2,-0.5 -2.4,-0.8 -3.7,-0.5 -0.5,0.1 -1.2,0.3 -1.6,0.6 -0.6,0.5 -1.3,1.6 0.1,1.3 2.6,-0.6 2.5,-4.6 1.4,-6.2 -0.7,-1 -1.6,-1.3 -2.8,-1.1 -3.3,0.5 -3.8,4.4 -3.8,7.1 0.1,3.6 1.2,6.9 4.7,8.5 3.3,1.5 7.8,1.7 10.9,-0.2 4.6,-2.8 2.2,-7.9 3.5,-12.2 -1.6,-0.2 -3.3,-0.4 -4.9,-0.7 0,1.7 -0.9,3 -1,4.6 0,0.7 0.7,-1.2 0.8,-1.8 0.4,-1.5 1,-2.9 0.1,-4.4 -1.9,-3.1 -5.3,-1.2 -8,-1.9 0.4,1.4 0.7,2.8 1.1,4.2 -0.9,-0.5 -1.3,-0.3 -1.3,0.7 -0.2,0.6 -0.3,1.2 -0.5,1.8 -0.4,1.3 -0.6,2.4 -0.6,3.7 0,3.2 5,3.2 5,0 0,-2.8 0.6,-5.6 0.7,-8.5 0,-1.5 -0.8,-4.3 0.6,-5.5 -1,0.1 -2,0.3 -3,0.4 2.7,1.2 2.8,5 1.9,7.4 1.6,0.4 3.2,0.9 4.8,1.3 0.1,-0.6 2.3,-5.4 1.9,-5.8 -0.6,0.1 -1.2,0.2 -1.8,0.3 0.1,0.3 0.3,0.5 0.4,0.8 0,-0.2 1,2.4 0.8,2.4 -3.2,0.4 -3.2,5.4 0,5 C 89.8,16.3 89.3,10.3 86.4,6 85.2,4.2 82.9,3 80.9,4.4 78.8,5.8 78,10.8 77.4,13.1 76.6,16.3 81,17.3 82.2,14.4 84,10.1 82.7,3.3 78.1,1.4 77,0.9 76,1 75.1,1.8 c -2,1.6 -2.2,4.1 -2.2,6.5 0.1,3.7 -0.5,7.3 -0.5,11 1.7,0 3.3,0 5,0 0,-3.2 2.8,-6.8 0.4,-9.7 -1.9,-2.3 -4.6,-1.9 -6.6,0 -1.3,1.3 -0.7,3.8 1.1,4.2 1.2,0.3 2.4,0.3 3.6,0.1 1.1,-0.2 1.3,0.4 1,-0.5 0.1,0.3 -0.4,1.6 -0.5,2 -0.4,2.3 -0.2,5.4 2.1,6.7 5.6,3.3 8.2,-6 8.2,-9.8 0,-2.8 -4.1,-3.4 -4.9,-0.7 -0.6,2.1 -0.8,3.9 -0.7,6 0.2,3.1 -1.6,4.2 -4.5,3.8 -2.1,-0.3 -3.5,-0.9 -4,-3.1 -0.2,-1 0,-3.8 0,-3.8 -0.9,-0.4 -1.9,-0.8 -2.8,-1.1 0.5,-0.8 0.4,-0.8 -0.3,-0.1 -0.3,0.2 -0.6,0.5 -0.8,0.7 -0.4,0.4 -0.8,0.9 -1,1.5 -0.6,1.7 0.2,3.5 1.4,4.6 1.1,1 2.4,1.6 3.9,1.2 0.8,-0.2 1.4,-1 2.2,-1.3 0.1,0 2.1,0.1 2.3,0.1 0.7,0.4 1.4,0.8 2.2,1.2 0,0.1 0.1,0.2 0.1,0.3 -1.5,0.2 -3,0.4 -4.6,0.6 -0.1,-0.4 -0.3,-0.7 -0.4,-1.1 -2.7,-1.4 -5.2,2.9 -2.6,4.7 z"
             style="fill:#00aeef;fill-opacity:1" />
        </g>
      </g>
    </g>
    <g
       id="g1887"
       transform="matrix(0.71387732,0,0,0.71387732,-0.17574126,2.6262417)">
      <g
         id="XMLID_159_-3"
         class="st2"
         style="fill:#ffffff;fill-opacity:1"
         transform="matrix(0.32083486,0,0,0.32083486,-19.09552,-0.569188)">
        <g
           id="XMLID_14_-6-6"
           style="fill:#ffffff;fill-opacity:1">
          <path
             id="XMLID_18_-2-7"
             class="st3"
             d="m 68.5,26.9 c 1.4,1.5 3.4,3.4 5.7,3.2 2,-0.2 3.7,-2.2 5.3,-3.2 3.5,-2.2 5.9,-6.3 2.7,-10 -0.6,-0.7 -1.6,-0.9 -2.4,-0.6 -4.3,1.2 -9.2,5.5 -5.3,10.1 2.7,3.2 8.6,3 9.4,-1.6 0.2,-1.3 -0.3,-2.8 -1.7,-3.1 -0.2,0 -0.3,-0.1 -0.5,-0.1 -1.2,-0.3 -2.1,0.2 -2.8,1.1 -0.1,0.2 -0.2,0.3 -0.3,0.5 -1.6,2.2 1.4,4.3 3.4,3.4 5.3,-2.4 6.4,-12.5 2.1,-16.3 -4.8,-4.3 -10.5,2.4 -10.7,7.2 -0.1,2 2.2,3 3.8,2.2 2.6,-1.4 3.5,-4.4 3,-7.2 -0.2,-1.3 -1.9,-2.1 -3.1,-1.7 -3.6,1.1 -6.6,6.6 -4.8,10.2 2.5,5 8.6,1.3 10.6,-2 2.1,-3.3 2.2,-9.8 -3.3,-9.3 -6.3,0.5 -8.4,8.2 -7.5,13.3 0.3,1.7 2.4,2.1 3.7,1.5 C 79.5,22.8 84,11.4 79,8.8 75.5,7 73.2,11.1 71.6,13.4 c -2.5,3.5 -4.2,7.2 -3.5,11.6 0.3,1.7 2.4,2.2 3.7,1.5 4.5,-2.4 5.7,-9.9 4.9,-14.5 -0.2,-1.3 -1.9,-2.1 -3.1,-1.7 -2,0.5 -3.1,1.9 -4.4,3.4 -0.8,0.9 -2.4,3.6 -3.5,3.8 0.9,0.4 1.9,0.8 2.8,1.1 -1,-1.8 -3.1,-7.3 -0.8,-8.6 2,-1.2 3.5,1.9 2.2,3.4 1,-0.1 2,-0.3 3,-0.4 C 71.4,11.9 71.5,9.1 70.4,7.6 69.7,6.6 68.2,5.9 67,6.7 c -3.5,2.5 -4,9.7 1.5,9.9 2.6,0.1 4.5,-1.8 5.7,-3.9 0.7,-1.2 1,-2.5 1.6,-3.8 0.1,-0.5 0.4,-1.9 0.5,-1.9 3,-0.9 -2,4.5 -1.8,4.4 C 72,13.5 75.6,17 78,14.9 82.1,11.4 84.4,4.4 77.3,2.6 75.3,2.1 73.2,2.5 72,4.3 c -0.6,0.9 -0.8,2.1 -1.1,3 -0.3,0.9 -0.6,1.8 -1.1,2.6 -0.3,0.4 -1,1.3 -0.3,0.9 -1.1,-0.3 -2.3,-0.6 -3.4,-0.9 1.8,2.5 1.5,5.2 4.2,7.2 0.8,0.6 2.4,0.4 3,-0.4 3.2,-3.8 1.7,-13.9 -4.7,-13 -2.8,0.4 -6.3,3.2 -7.3,5.8 -1.1,3.2 1,8.6 2.7,11.4 0.6,1 1.7,1.4 2.8,1.1 3.7,-0.8 4.6,-6.3 7.9,-7.2 -1,-0.6 -2.1,-1.2 -3.1,-1.7 0.4,2 -0.4,7.6 -2.6,8.8 1.2,0.5 2.4,1 3.7,1.5 -0.3,-2 0.7,-4.4 1.7,-6 0.8,-1.2 2.9,-2.9 1.9,-4.1 -0.8,-1.1 -0.8,1.1 -1,1.9 -0.3,1.7 -0.5,3.9 -2.3,4.7 1.2,0.5 2.4,1 3.7,1.5 -0.2,-1 -0.1,-6.6 2.1,-6.4 0.7,0.1 -0.4,1.2 -0.6,1.4 -2.6,3.4 -1.6,-0.5 -0.1,-1 -1,-0.6 -2.1,-1.2 -3.1,-1.7 -0.2,0.5 -0.5,1 -0.7,1.5 1.3,0.7 2.5,1.4 3.8,2.2 0.1,-2.1 2.2,-5.5 3.1,-0.5 0.3,1.8 -0.2,4.4 -2,5.3 1.1,1.1 2.3,2.3 3.4,3.4 0.1,-0.2 0.2,-0.3 0.3,-0.5 -0.9,0.4 -1.9,0.8 -2.8,1.1 0.2,0 0.3,0.1 0.5,0.1 -0.6,-1 -1.2,-2.1 -1.7,-3.1 -0.6,-1 -0.5,-1.5 0.4,-1.7 0.5,-0.3 1.1,-0.5 1.7,-0.6 -0.8,-0.2 -1.6,-0.4 -2.4,-0.6 1.1,1.3 -3.3,3 -3.8,3.3 -0.3,0.2 -1.3,1.4 -1.5,1.4 1.3,-0.1 -0.9,-1.5 -1.2,-1.9 -2.2,-2.1 -5.8,1.4 -3.6,3.8 z"
             style="fill:#ffffff;fill-opacity:1" />
        </g>
      </g>
      <path
         id="XMLID_90_-5"
         class="st1"
         d="M 2.6891666,1.9974913 C 3.8441721,1.9654058 5.0312619,1.8370735 6.1862674,1.6124895 5.7691801,2.2862427 5.4162637,3.024162 5.1595918,3.82625 5.961681,3.5054143 6.7958557,3.2487472 7.6300182,3.0883294 c 0,1.2833391 0,2.5987624 0.032134,3.8821014 C 6.7959042,6.4570955 5.929644,5.9116758 5.0954814,5.3983404 4.9992007,6.1683441 5.1596282,6.9704308 5.5767277,7.644184 4.7746385,7.8687693 3.908388,7.9971028 3.074217,7.9971028 3.1063025,7.387517 3.138388,6.7458468 3.1704613,6.136261 3.6196306,6.3287619 4.1971333,6.07209 4.3254668,5.5908413 3.3629623,5.4945969 2.4004577,5.2700069 1.5021205,4.9170881 1.9192054,4.6283367 2.2400398,4.1150014 2.2721241,3.6016648 2.3042096,3.7620826 2.3362952,3.9225005 2.3683685,4.0829171 3.1383722,3.4412482 3.715875,2.6391602 4.1008768,1.7087399 c 0.032085,0.1604166 0.064171,0.3208345 0.096244,0.449168"
         style="fill:none;stroke:#000000;stroke-width:0.320834;stroke-miterlimit:10" />
      <g
         id="XMLID_159_"
         class="st2"
         style="opacity:0.51;fill:#d7d62f;fill-opacity:1"
         transform="matrix(0.32083486,0,0,0.32083486,-19.09552,-0.569188)">
        <g
           id="XMLID_14_-6"
           style="fill:#d7d62f;fill-opacity:1">
          <path
             id="XMLID_18_-2"
             class="st3"
             d="m 68.5,26.9 c 1.4,1.5 3.4,3.4 5.7,3.2 2,-0.2 3.7,-2.2 5.3,-3.2 3.5,-2.2 5.9,-6.3 2.7,-10 -0.6,-0.7 -1.6,-0.9 -2.4,-0.6 -4.3,1.2 -9.2,5.5 -5.3,10.1 2.7,3.2 8.6,3 9.4,-1.6 0.2,-1.3 -0.3,-2.8 -1.7,-3.1 -0.2,0 -0.3,-0.1 -0.5,-0.1 -1.2,-0.3 -2.1,0.2 -2.8,1.1 -0.1,0.2 -0.2,0.3 -0.3,0.5 -1.6,2.2 1.4,4.3 3.4,3.4 5.3,-2.4 6.4,-12.5 2.1,-16.3 -4.8,-4.3 -10.5,2.4 -10.7,7.2 -0.1,2 2.2,3 3.8,2.2 2.6,-1.4 3.5,-4.4 3,-7.2 -0.2,-1.3 -1.9,-2.1 -3.1,-1.7 -3.6,1.1 -6.6,6.6 -4.8,10.2 2.5,5 8.6,1.3 10.6,-2 2.1,-3.3 2.2,-9.8 -3.3,-9.3 -6.3,0.5 -8.4,8.2 -7.5,13.3 0.3,1.7 2.4,2.1 3.7,1.5 C 79.5,22.8 84,11.4 79,8.8 75.5,7 73.2,11.1 71.6,13.4 c -2.5,3.5 -4.2,7.2 -3.5,11.6 0.3,1.7 2.4,2.2 3.7,1.5 4.5,-2.4 5.7,-9.9 4.9,-14.5 -0.2,-1.3 -1.9,-2.1 -3.1,-1.7 -2,0.5 -3.1,1.9 -4.4,3.4 -0.8,0.9 -2.4,3.6 -3.5,3.8 0.9,0.4 1.9,0.8 2.8,1.1 -1,-1.8 -3.1,-7.3 -0.8,-8.6 2,-1.2 3.5,1.9 2.2,3.4 1,-0.1 2,-0.3 3,-0.4 C 71.4,11.9 71.5,9.1 70.4,7.6 69.7,6.6 68.2,5.9 67,6.7 c -3.5,2.5 -4,9.7 1.5,9.9 2.6,0.1 4.5,-1.8 5.7,-3.9 0.7,-1.2 1,-2.5 1.6,-3.8 0.1,-0.5 0.4,-1.9 0.5,-1.9 3,-0.9 -2,4.5 -1.8,4.4 C 72,13.5 75.6,17 78,14.9 82.1,11.4 84.4,4.4 77.3,2.6 75.3,2.1 73.2,2.5 72,4.3 c -0.6,0.9 -0.8,2.1 -1.1,3 -0.3,0.9 -0.6,1.8 -1.1,2.6 -0.3,0.4 -1,1.3 -0.3,0.9 -1.1,-0.3 -2.3,-0.6 -3.4,-0.9 1.8,2.5 1.5,5.2 4.2,7.2 0.8,0.6 2.4,0.4 3,-0.4 3.2,-3.8 1.7,-13.9 -4.7,-13 -2.8,0.4 -6.3,3.2 -7.3,5.8 -1.1,3.2 1,8.6 2.7,11.4 0.6,1 1.7,1.4 2.8,1.1 3.7,-0.8 4.6,-6.3 7.9,-7.2 -1,-0.6 -2.1,-1.2 -3.1,-1.7 0.4,2 -0.4,7.6 -2.6,8.8 1.2,0.5 2.4,1 3.7,1.5 -0.3,-2 0.7,-4.4 1.7,-6 0.8,-1.2 2.9,-2.9 1.9,-4.1 -0.8,-1.1 -0.8,1.1 -1,1.9 -0.3,1.7 -0.5,3.9 -2.3,4.7 1.2,0.5 2.4,1 3.7,1.5 -0.2,-1 -0.1,-6.6 2.1,-6.4 0.7,0.1 -0.4,1.2 -0.6,1.4 -2.6,3.4 -1.6,-0.5 -0.1,-1 -1,-0.6 -2.1,-1.2 -3.1,-1.7 -0.2,0.5 -0.5,1 -0.7,1.5 1.3,0.7 2.5,1.4 3.8,2.2 0.1,-2.1 2.2,-5.5 3.1,-0.5 0.3,1.8 -0.2,4.4 -2,5.3 1.1,1.1 2.3,2.3 3.4,3.4 0.1,-0.2 0.2,-0.3 0.3,-0.5 -0.9,0.4 -1.9,0.8 -2.8,1.1 0.2,0 0.3,0.1 0.5,0.1 -0.6,-1 -1.2,-2.1 -1.7,-3.1 -0.6,-1 -0.5,-1.5 0.4,-1.7 0.5,-0.3 1.1,-0.5 1.7,-0.6 -0.8,-0.2 -1.6,-0.4 -2.4,-0.6 1.1,1.3 -3.3,3 -3.8,3.3 -0.3,0.2 -1.3,1.4 -1.5,1.4 1.3,-0.1 -0.9,-1.5 -1.2,-1.9 -2.2,-2.1 -5.8,1.4 -3.6,3.8 z"
             style="fill:#d7d62f;fill-opacity:1" />
        </g>
      </g>
    </g>
  </g>
</svg>
