<?xml version="1.0" encoding="utf-8"?>
<!-- Generator: Adobe Illustrator 19.0.0, SVG Export Plug-In . SVG Version: 6.00 Build 0)  -->
<svg version="1.1" id="Layer_1" xmlns="http://www.w3.org/2000/svg" xmlns:xlink="http://www.w3.org/1999/xlink" x="0px" y="0px"
	 viewBox="0 0 90 135" style="enable-background:new 0 0 90 135;" xml:space="preserve">
<style type="text/css">
	.st0{fill:#FFFFFF;stroke:#000000;stroke-miterlimit:10;}
	.st1{fill:none;stroke:#000000;stroke-miterlimit:10;}
	.st2{opacity:0.51;}
	.st3{fill:#434343;}
	.st4{fill:none;}
	.st5{font-family:'MosaicoSCSC';}
	.st6{font-size:9px;}
	.st7{font-size:12px;}
</style>
<path id="XMLID_205_" class="st0" d="M90,12v111c0,6.6-5.4,12-12,12H12c-6.6,0-12-5.4-12-12V12C0,5.4,5.4,0,12,0h66
	C84.6,0,90,5.4,90,12z"/>
<path id="XMLID_84_" class="st1" d="M59.3,15.5c-1.1-1.7-0.8-4.1,0.3-5.7s2.9-2.8,4.8-3.6c1.6-0.7,3.4-1.3,5.1-1.7
	c1.1-0.2,2.2-0.4,3.3-0.2c2.6,0.4,4.5,2.7,5.7,5.1c1.2,2.4,2,5.1,2.2,7.8c-1.3,0.1-2.6,0.2-3.9,0.4c-0.2,0-0.5,0-0.6,0.2
	c-0.4,0.3-0.2,0.9,0,1.4c0.8,1.7,1.7,3.4,2.5,5.1c0.3,0.5,0.5,1.3,0.1,1.7c-0.2,0.2-0.6,0.2-0.9,0.2c-3.6,0.2-7.3,0.3-10.9,0.5
	c0-3.5,0-7.1,0-10.6c-1.2,0.4-2.5,0.9-3.7,1.3c-0.7,0.2-1.7,0.3-1.7-0.4"/>
<path id="XMLID_85_" class="st1" d="M64.3,10.4c-0.2-1,0.8-2.1,1.8-2.1c1.1,0,2,1.2,1.7,2.2c-0.2,1-1.4,1.7-2.3,1.1
	c-0.9-0.5-0.7-2.1,0.2-2.3"/>
<path id="XMLID_86_" class="st1" d="M72.8,10.3c-0.5-0.5,0.4-1.5,1.1-1.3s1.1,1.1,1.2,1.8c0.1,0.8,0.1,1.8-0.6,2.3
	c-0.7,0.6-1.8,0.4-2.5-0.2c-0.7-0.6-1-1.5-1.3-2.4c-0.2-0.8-0.4-1.6-0.1-2.3c0.3-0.7,1.2-1.3,1.9-1"/>
<path id="XMLID_87_" class="st1" d="M69.8,21c-0.2,1.8-0.1,3.6,0.2,5.4"/>
<path id="XMLID_88_" class="st1" d="M72.4,21c-0.6,1.8-0.5,3.9,0.3,5.7"/>
<path id="XMLID_89_" class="st1" d="M74.9,20.7c0.1,2.3,0.5,4.5,1.2,6.7"/>
<path id="XMLID_9_" class="st1" d="M0.2,81.4c9.3-2,18.6-4.1,27.9-6.1c-0.9-2.6,1.1-5.3,0-7.9c-0.7-1.7-2.8-2.6-2.4-4.7
	c0.8-3.6,6.9-3.8,9.6-3.2c-1.4,5.1-1.1,9.6,3.3,13c4.5,3.5,7.2,7.6,10.1,12.4c0.8-4.4,0.9-11.4,6-13.4c5-0.6,10-3.6,11.2-9.3
	c3.4,2.1-1,2.3,0,0c0.9,1.7,2.9,4.7,2.9,6.7c-1,4-5,6-8,9c-1,2-3,4,1,6c8,3,19-2,25.5,5.4"/>
<path id="XMLID_23_" class="st1" d="M65.1,62.9c2.7-4.1,3.7-9.2,2.9-14.1c-0.2-0.9-0.4-1.8,0-2.6c0.4-1,1.5-1.4,2.2-2.2
	c1.3-1.5,0.8-3.8,0.1-5.6c-2.2-5.3-6.8-9.4-12-11.8s-11.1-3.2-16.8-3c-1.3,0-2.6,0.1-3.8,0.5c-3.5,0.9-6.3,3.6-8.2,6.7
	C28.8,32,28,33.4,28,34.8c0,1.3,0.5,2.5,1.1,3.7c1.6,3.5,3.2,7,4.8,10.5c-0.9-1-1.8-2-3-2.3c-1.3-0.3-2.9,0.3-3,1.6
	c-0.1,0.8,0.4,1.6,1,2.3c1.1,1.4,2.2,2.8,3.2,4.3c0.7,0.9,1.5,1.8,2.5,1.8c1.1,0,1.8-1.8,0.7-2.1c0.2,2-0.1,4-0.9,5.8
	c0.4-0.4,0.7-0.9,1.1-1.3"/>
<path id="XMLID_24_" class="st1" d="M67,46.9c0.1-0.7-0.7-1.1-1.3-1.4c-2.9-1.2-5.8-2.4-8.7-3.4c-2.1-0.8-4.3-1.5-6.5-1.6
	c-6-0.4-11.5,3-16.5,6.4c0.1-0.5,0.5-1,1-1.1"/>
<path id="XMLID_144_" class="st1" d="M42.7,23.8c0.3-1.5-0.1-3.1-0.9-4.3c-0.4-0.6-0.9-1.1-1.3-1.6c-0.6-0.6-1.2-1.2-2-1.5
	c-0.6-0.2-1.1-0.1-1.7-0.2c-2.1-0.2-3.8-2-4-4.1c-0.2-2.1,1.3-4.2,3.3-4.7c1.4-0.4,2.9-0.1,4.4,0.3c4.1,0.9,8.2,1.8,12.2,2.7
	c0.3,0.1,0.7,0.2,0.9,0.3c0.8,0.6,0.5,2.1-0.4,2.6c-0.9,0.5-2,0.4-3,0.2c-1-0.2-2-0.5-3.1-0.3c1.2,2.9,2,5.9,2.4,9
	c0,0.4,0.1,0.9,0.3,1.3c0.2,0.4,0.8,0.6,1.2,0.4"/>
<path id="XMLID_145_" class="st1" d="M53.5,46.3c-1.4-1.2-3.6-1.3-5.2-0.4c-0.8,0.5-1.5,1.5-1.2,2.5c1.8-0.6,3.6-1.2,5.4-1.7
	c0.4-0.1,1.2,0,1,0.5"/>
<path id="XMLID_146_" class="st1" d="M64.2,48.8c0.7-0.4,1.7-0.1,2.3,0.4c0.6,0.6,1,1.4,1.3,2.1c-1.5,0.3-3.1,0.6-4.6,0.3
	c-1.5-0.3-3-1.4-3.2-2.9c1.4,0.1,2.8,0.2,4.3,0.3c0.4,0,0.9,0.4,0.6,0.7"/>
<path id="XMLID_147_" class="st1" d="M62.2,64c0.1-1.2,0.1-2.4,0.2-3.6c0-0.2,0-0.5-0.1-0.7c-0.1-0.2-0.3-0.3-0.5-0.4
	c-4-2.1-9.4-1.1-12.5,2.2c4-1.1,8.3,2.1,12.4,1.1c-0.1,0.3-0.2,0.5-0.4,0.8"/>
<path id="XMLID_148_" class="st1" d="M54.7,54.5c0.2,0.2,0.6,0.1,0.9,0c1-0.3,2.2,0.1,2.8,1c0.8-0.1,1.1-1.1,0.9-1.9
	c-0.2-0.8-0.8-1.4-1.1-2.1c-0.4-0.9-0.4-1.9-0.1-2.8c-0.3,0.2-0.5,0.8-0.3,1.1"/>
<path id="XMLID_149_" class="st1" d="M50.2,48c-0.1,1-0.5,1.9-1.1,2.7c-3.6,0.3-7.1,0.6-10.7,0.9c-0.5,0-1.1,0.1-1.6-0.1
	c-0.5-0.2-1-0.7-0.9-1.2c0.1-0.8,1-1.2,1.8-1.3c2.9-0.7,5.7-1.3,8.6-2c0.2,0,0.4-0.1,0.5,0s0.1,0.4-0.1,0.4"/>
<path id="XMLID_150_" class="st1" d="M39.7,17.8c-2-2.1-1.7-5.8,0.6-7.6c-1.4-0.1-2.7-0.6-3.9-1.3c1.6,0.8,3.2,1.4,5,1.7
	c1.3,0.2,2.6,0.3,3.7,1c1.1,0.7,2.2,1.9,3.3,1.4c0.3,0.4,0.6,0.9,0.9,1.3"/>
<path id="XMLID_151_" class="st1" d="M27.2,75c0.6,3.6,0.9,7.4,0.2,11c-0.7,3.6-2.6,7.1-5.5,9.3c4.6-0.7,9.4,0.5,13.1,3.3
	c3.7,2.7,6.3,6.9,7.1,11.5c3.8-5.3,5.9-11.8,5.9-18.4c2.6,6.6,7.2,12.4,13.1,16.4c3.4-3.5,7-6.8,10.8-9.9c-0.7,0.4-1.6-0.2-2.1-0.7
	c-4.2-4.2-7.5-9.3-9.6-14.9c0,0.4,0,0.7,0,1.1"/>
<path id="XMLID_152_" class="st1" d="M45.6,86.2c-0.5-0.9,0.1-2.2,1-2.6s2.1,0.1,2.8,0.9c0.7,0.8,0.9,1.9,0.8,3
	c-0.6,0.3-1.3,0.3-1.9,0c0.2,1,0.4,2,0.6,3c-0.8,0.2-1.7,0.1-2.4-0.2c0-0.4-0.1-0.8-0.1-1.1c-0.2,0.3-0.3,0.7-0.2,1.1
	c-0.1-0.2-0.1-0.4-0.2-0.6c-0.1,0.3-0.3,0.6-0.4,0.9c0.1-0.8-1.4-0.8-1.5-1.6c0-0.6,1.1-1.1,0.8-1.6c-0.5,0.5-1.3,0.6-1.9,0.2
	c-0.4-1.4,0.4-3.1,1.7-3.6c0.2,0.5,0.7,0.9,1.2,1"/>
<path id="XMLID_153_" class="st1" d="M62.3,49.8c-0.2,0,0.1,0.3,0.1,0.1c0,0.3-0.2,0.5-0.5,0.5c0-0.4,0.2-0.7,0.5-0.9"/>
<path id="XMLID_154_" class="st1" d="M49.4,46.8c0.4-0.4-0.3-1.1-0.7-0.8s0.1,1.1,0.6,0.9c-0.3,0-0.4-0.4-0.2-0.5s0.6,0,0.5,0.3
	c-0.2-0.1-0.3-0.3-0.5-0.4c0.1-0.2,0.1-0.3,0.2-0.5"/>
<path id="XMLID_155_" class="st1" d="M32,50c-0.8-0.5-1.6-0.8-2.5-1c-0.3-0.1-0.7-0.1-1,0.2c-0.4,0.4,0.1,1,0.6,1.3
	c1.6,1.2,3,2.7,4.1,4.4c0-0.5,0-1,0-1.4"/>
<path id="XMLID_156_" class="st1" d="M35.8,61.5c0,0.1,0,0.2,0,0.3c0,2.6,2.3,4.5,4.7,5.4c2.4,0.9,5,1.1,7.6,1.4
	c3.2,0.4,6.4,1.1,9.5,2.2c0.2,0.1,0.4,0.2,0.3,0.3c0,0.2-0.4,0-0.2-0.1"/>
<path id="XMLID_157_" class="st1" d="M48.6,92.6c-0.8,1.9,0,4,0.4,6c0.4,1.8,0.5,3.6,0.6,5.5c0.1,1.6,0.2,3.2,0.3,4.9
	c0.1,1.6,0.2,3.3,0,4.9"/>
<g id="XMLID_158_" class="st2">
	<g id="XMLID_14_">
		<path id="XMLID_18_" class="st3" d="M66.6,14.3c-0.2,4.5,3.3,11.5,8.7,10.6c4-0.7,7.1-6.9,3.5-9.9c-4.2-3.5-9,2.7-9.2,6.6
			c-0.1,2,1.3,3.8,3.5,3.7c2.4-0.1,3.4-2.7,3.7-4.7c0.6-3.5-1.1-13.8-6.9-9.6c-4,2.9-2.5,10.5,3.1,9.7c6.3-1,6.2-10.5,3.1-14.5
			c-2-2.6-4.8-2.8-7.8-3.2c-2.8-0.4-5.4-1.1-7.6,1.2c-2.8,2.9-5.3,12.8-0.6,14.9c6,2.7,8.6-6,6.8-10.1c-0.3-0.8-1.4-1.3-2.2-1.2
			c-9.1,0.4-9.3,15.2,0.9,12.7c4.2-1,7.3-3.6,8.3-7.9c0.8-3.3-1-8.3-5.2-7.6c-4.9,0.8-5,7.6-4.9,11.4c0,3.7,0.4,8.7,4.8,9.7
			c6.9,1.6,13.8-13,8.8-17.4c-0.8-0.7-2-1-3-0.4c-3.7,2.1-5.8,6-6.8,10c-0.7,2.7-1.7,7.4,0.5,9.6c2.7,2.7,6.6,0.1,8.8-1.9
			c3.4-3.1,4.5-6.7,4.6-11.2c0.1-3.1-0.3-7.6-4.2-8.2c-3.5-0.5-4.5,3-5.2,5.7c-0.9,3.6-2.1,9.3-0.6,12.8c1.7,3.9,6.2,3,8.4,0.3
			c-1.3-1-2.6-2-3.9-3c-1,2.1-2.5,3.9-3.2,6.2c-0.4,1.2,0.3,2.2,1.1,2.8c3.9,3,8.2-3.3,8.8-6.6c0.6-3.1-4.3-4.5-4.8-1.3
			c-0.1,0.6-1.9,3.3-1.5,3.6c0.4,0.9,0.8,1.9,1.1,2.8c0.6-1.8,1.8-3.3,2.7-5c1.2-2.4-2-5.3-3.9-3c-0.4,0.7-0.5,0.3-0.2-1.3
			c0-1.1,0-2.1,0-3.2c0.1-1,1.1-3.5,1-4.7c-0.2-1.9-0.4,0.1-0.5,1c-0.4,2,0.2,3.8-0.8,5.7c-0.4,0.8-2.6,3.9-3.7,3.9
			c-0.1,0.1-0.1,0.3-0.2,0.4c0-0.8,0.1-1.7,0.2-2.5c0.5-3.3,1.8-7.1,4.8-8.8c-1-0.1-2-0.3-3-0.4c1.7,1.5-4.7,14.3-5,4.7
			c0-1-0.1-2.1,0-3.1c0.2-3.9-0.1-0.4-1.5,0.7c-0.6,0.5-2.3,1.2-3,1.2c-0.4,0.1-0.8,0.1-1.2,0.2c-0.5-1.6,0-2.6,1.6-3
			c-0.7-0.4-1.4-0.8-2.2-1.2c0,0.1-0.1,3,0,2.9c0.2-0.2,0.5-2.6,0.6-3c0.7-3.1,1-3.8,4.4-3.5c3.4,0.3,6.9,2.6,5.5,6.5
			c-0.8,2.2-1.2,0.2-1.1,3.2c0,0.5-0.4,2.9,0.1,2.8c0.8,0.2,1.6,0.4,2.4,0.6c0.3,0.8,0.6,0.4,0.8-0.9c0-1.3-0.9-1.8-2.5-1.5
			c-1.1-0.8-1.4-3.2-1.4-4.4C71.7,11.1,66.7,11.1,66.6,14.3L66.6,14.3z"/>
	</g>
</g>
<path id="XMLID_19_" class="st4" d="M12,0h66c6.6,0,12,5.4,12,12v111c0,6.6-5.4,12-12,12H12c-6.6,0-12-5.4-12-12V12
	C0,5.4,5.4,0,12,0z"/>
<text id="XMLID_10_" transform="matrix(1 0 0 1 0 94.6201)"><tspan x="0" y="0" class="st5 st6"> </tspan><tspan x="0" y="14.4" class="st5 st7">   ASSASSIN: </tspan><tspan x="0" y="25.2" class="st5 st6">    Pay 3 coins to assassinate</tspan><tspan x="2.7" y="36" class="st5 st6">  another player</tspan></text>
</svg>
