<?xml version="1.0" encoding="UTF-8" standalone="no"?>
<!-- Created with Inkscape (http://www.inkscape.org/) -->

<svg
   width="35"
   height="35"
   viewBox="0 0 9.2604164 9.2604167"
   version="1.1"
   id="svg5"
   inkscape:version="1.1.2 (0a00cf5339, 2022-02-04, custom)"
   sodipodi:docname="assassin-icon.svg"
   xmlns:inkscape="http://www.inkscape.org/namespaces/inkscape"
   xmlns:sodipodi="http://sodipodi.sourceforge.net/DTD/sodipodi-0.dtd"
   xmlns="http://www.w3.org/2000/svg"
   xmlns:svg="http://www.w3.org/2000/svg">
  <sodipodi:namedview
     id="namedview7"
     pagecolor="#ffffff"
     bordercolor="#999999"
     borderopacity="1"
     inkscape:pageshadow="0"
     inkscape:pageopacity="0"
     inkscape:pagecheckerboard="true"
     inkscape:document-units="mm"
     showgrid="false"
     showguides="true"
     inkscape:guide-bbox="true"
     inkscape:zoom="16"
     inkscape:cx="17.53125"
     inkscape:cy="27.84375"
     inkscape:window-width="1920"
     inkscape:window-height="2085"
     inkscape:window-x="1920"
     inkscape:window-y="0"
     inkscape:window-maximized="0"
     inkscape:current-layer="g389"
     height="250px"
     units="px"
     width="35px" />
  <defs
     id="defs2" />
  <g
     inkscape:label="Layer 1"
     inkscape:groupmode="layer"
     id="layer1">
    <g
       id="g389"
       transform="matrix(1.0965948,0,0,1.0965948,-88.81252,-43.815858)">
      <g
         id="XMLID_158_-3"
         class="st2"
         style="opacity:1;fill:#ffffff"
         transform="matrix(0.26458333,0,0,0.26458333,66.587987,39.634967)">
        <g
           id="XMLID_14_-6"
           style="fill:#ffffff;fill-opacity:1">
          <path
             id="XMLID_18_-7"
             class="st3"
             d="m 66.6,14.3 c -0.2,4.5 3.3,11.5 8.7,10.6 4,-0.7 7.1,-6.9 3.5,-9.9 -4.2,-3.5 -9,2.7 -9.2,6.6 -0.1,2 1.3,3.8 3.5,3.7 2.4,-0.1 3.4,-2.7 3.7,-4.7 0.6,-3.5 -1.1,-13.8 -6.9,-9.6 -4,2.9 -2.5,10.5 3.1,9.7 6.3,-1 6.2,-10.5 3.1,-14.5 C 74.1,3.6 71.3,3.4 68.3,3 65.5,2.6 62.9,1.9 60.7,4.2 57.9,7.1 55.4,17 60.1,19.1 c 6,2.7 8.6,-6 6.8,-10.1 -0.3,-0.8 -1.4,-1.3 -2.2,-1.2 -9.1,0.4 -9.3,15.2 0.9,12.7 4.2,-1 7.3,-3.6 8.3,-7.9 0.8,-3.3 -1,-8.3 -5.2,-7.6 -4.9,0.8 -5,7.6 -4.9,11.4 0,3.7 0.4,8.7 4.8,9.7 6.9,1.6 13.8,-13 8.8,-17.4 -0.8,-0.7 -2,-1 -3,-0.4 -3.7,2.1 -5.8,6 -6.8,10 -0.7,2.7 -1.7,7.4 0.5,9.6 2.7,2.7 6.6,0.1 8.8,-1.9 3.4,-3.1 4.5,-6.7 4.6,-11.2 0.1,-3.1 -0.3,-7.6 -4.2,-8.2 -3.5,-0.5 -4.5,3 -5.2,5.7 -0.9,3.6 -2.1,9.3 -0.6,12.8 1.7,3.9 6.2,3 8.4,0.3 -1.3,-1 -2.6,-2 -3.9,-3 -1,2.1 -2.5,3.9 -3.2,6.2 -0.4,1.2 0.3,2.2 1.1,2.8 3.9,3 8.2,-3.3 8.8,-6.6 0.6,-3.1 -4.3,-4.5 -4.8,-1.3 -0.1,0.6 -1.9,3.3 -1.5,3.6 0.4,0.9 0.8,1.9 1.1,2.8 0.6,-1.8 1.8,-3.3 2.7,-5 1.2,-2.4 -2,-5.3 -3.9,-3 -0.4,0.7 -0.5,0.3 -0.2,-1.3 0,-1.1 0,-2.1 0,-3.2 0.1,-1 1.1,-3.5 1,-4.7 -0.2,-1.9 -0.4,0.1 -0.5,1 -0.4,2 0.2,3.8 -0.8,5.7 -0.4,0.8 -2.6,3.9 -3.7,3.9 -0.1,0.1 -0.1,0.3 -0.2,0.4 0,-0.8 0.1,-1.7 0.2,-2.5 0.5,-3.3 1.8,-7.1 4.8,-8.8 -1,-0.1 -2,-0.3 -3,-0.4 1.7,1.5 -4.7,14.3 -5,4.7 0,-1 -0.1,-2.1 0,-3.1 0.2,-3.9 -0.1,-0.4 -1.5,0.7 -0.6,0.5 -2.3,1.2 -3,1.2 -0.4,0.1 -0.8,0.1 -1.2,0.2 -0.5,-1.6 0,-2.6 1.6,-3 -0.7,-0.4 -1.4,-0.8 -2.2,-1.2 0,0.1 -0.1,3 0,2.9 0.2,-0.2 0.5,-2.6 0.6,-3 0.7,-3.1 1,-3.8 4.4,-3.5 3.4,0.3 6.9,2.6 5.5,6.5 -0.8,2.2 -1.2,0.2 -1.1,3.2 0,0.5 -0.4,2.9 0.1,2.8 0.8,0.2 1.6,0.4 2.4,0.6 0.3,0.8 0.6,0.4 0.8,-0.9 0,-1.3 -0.9,-1.8 -2.5,-1.5 -1.1,-0.8 -1.4,-3.2 -1.4,-4.4 0.3,-3.1 -4.7,-3.1 -4.8,0.1 z"
             style="fill:#ffffff;fill-opacity:1" />
        </g>
      </g>
      <path
         id="XMLID_84_"
         class="st1"
         d="m 82.277778,43.736009 c -0.291041,-0.449792 -0.211666,-1.084792 0.07937,-1.508125 0.291042,-0.423334 0.767292,-0.740834 1.27,-0.9525 0.423334,-0.185209 0.899584,-0.343959 1.349375,-0.449792 0.291042,-0.05292 0.582084,-0.105833 0.873125,-0.05292 0.687917,0.105834 1.190625,0.714375 1.508125,1.349375 0.3175,0.635 0.529167,1.349375 0.582084,2.06375 -0.343959,0.02646 -0.687917,0.05292 -1.031875,0.105834 -0.05292,0 -0.132292,0 -0.15875,0.05292 -0.105834,0.07937 -0.05292,0.238125 0,0.370417 0.211666,0.449792 0.449791,0.899583 0.661458,1.349375 0.07937,0.132292 0.132292,0.343958 0.02646,0.449792 -0.05292,0.05292 -0.15875,0.05292 -0.238125,0.05292 -0.9525,0.05292 -1.931458,0.07937 -2.883958,0.132292 0,-0.926042 0,-1.878542 0,-2.804583 -0.3175,0.105833 -0.661458,0.238125 -0.978958,0.343958 -0.185209,0.05292 -0.449792,0.07937 -0.449792,-0.105833"
         style="fill:none;stroke:#000000;stroke-width:0.264583;stroke-miterlimit:10" />
      <path
         id="XMLID_85_"
         class="st1"
         d="m 83.600695,42.386634 c -0.05292,-0.264584 0.211667,-0.555625 0.47625,-0.555625 0.291042,0 0.529167,0.3175 0.449792,0.582083 -0.05292,0.264583 -0.370417,0.449792 -0.608542,0.291042 -0.238125,-0.132292 -0.185208,-0.555625 0.05292,-0.608542"
         style="fill:none;stroke:#000000;stroke-width:0.264583;stroke-miterlimit:10" />
      <path
         id="XMLID_86_"
         class="st1"
         d="m 85.849653,42.360175 c -0.132291,-0.132291 0.105834,-0.396875 0.291042,-0.343958 0.185208,0.05292 0.291042,0.291042 0.3175,0.47625 0.02646,0.211667 0.02646,0.47625 -0.15875,0.608542 -0.185208,0.15875 -0.47625,0.105833 -0.661458,-0.05292 -0.185209,-0.15875 -0.264584,-0.396875 -0.343959,-0.635 -0.05292,-0.211667 -0.105833,-0.423333 -0.02646,-0.608542 0.07937,-0.185208 0.3175,-0.343958 0.502708,-0.264583"
         style="fill:none;stroke:#000000;stroke-width:0.264583;stroke-miterlimit:10" />
      <path
         id="XMLID_87_"
         class="st1"
         d="m 85.055903,45.191217 c -0.05292,0.47625 -0.02646,0.9525 0.05292,1.42875"
         style="fill:none;stroke:#000000;stroke-width:0.264583;stroke-miterlimit:10" />
      <path
         id="XMLID_88_"
         class="st1"
         d="m 85.74382,45.191217 c -0.15875,0.47625 -0.132292,1.031875 0.07937,1.508125"
         style="fill:none;stroke:#000000;stroke-width:0.264583;stroke-miterlimit:10" />
      <path
         id="XMLID_89_"
         class="st1"
         d="m 86.405278,45.111842 c 0.02646,0.608542 0.132292,1.190625 0.3175,1.772708"
         style="fill:none;stroke:#000000;stroke-width:0.264583;stroke-miterlimit:10" />
      <g
         id="XMLID_158_"
         class="st2"
         style="opacity:0.51"
         transform="matrix(0.26458333,0,0,0.26458333,66.587987,39.634967)">
        <g
           id="XMLID_14_"
           style="fill:#434343;fill-opacity:1">
          <path
             id="XMLID_18_"
             class="st3"
             d="m 66.6,14.3 c -0.2,4.5 3.3,11.5 8.7,10.6 4,-0.7 7.1,-6.9 3.5,-9.9 -4.2,-3.5 -9,2.7 -9.2,6.6 -0.1,2 1.3,3.8 3.5,3.7 2.4,-0.1 3.4,-2.7 3.7,-4.7 0.6,-3.5 -1.1,-13.8 -6.9,-9.6 -4,2.9 -2.5,10.5 3.1,9.7 6.3,-1 6.2,-10.5 3.1,-14.5 C 74.1,3.6 71.3,3.4 68.3,3 65.5,2.6 62.9,1.9 60.7,4.2 57.9,7.1 55.4,17 60.1,19.1 c 6,2.7 8.6,-6 6.8,-10.1 -0.3,-0.8 -1.4,-1.3 -2.2,-1.2 -9.1,0.4 -9.3,15.2 0.9,12.7 4.2,-1 7.3,-3.6 8.3,-7.9 0.8,-3.3 -1,-8.3 -5.2,-7.6 -4.9,0.8 -5,7.6 -4.9,11.4 0,3.7 0.4,8.7 4.8,9.7 6.9,1.6 13.8,-13 8.8,-17.4 -0.8,-0.7 -2,-1 -3,-0.4 -3.7,2.1 -5.8,6 -6.8,10 -0.7,2.7 -1.7,7.4 0.5,9.6 2.7,2.7 6.6,0.1 8.8,-1.9 3.4,-3.1 4.5,-6.7 4.6,-11.2 0.1,-3.1 -0.3,-7.6 -4.2,-8.2 -3.5,-0.5 -4.5,3 -5.2,5.7 -0.9,3.6 -2.1,9.3 -0.6,12.8 1.7,3.9 6.2,3 8.4,0.3 -1.3,-1 -2.6,-2 -3.9,-3 -1,2.1 -2.5,3.9 -3.2,6.2 -0.4,1.2 0.3,2.2 1.1,2.8 3.9,3 8.2,-3.3 8.8,-6.6 0.6,-3.1 -4.3,-4.5 -4.8,-1.3 -0.1,0.6 -1.9,3.3 -1.5,3.6 0.4,0.9 0.8,1.9 1.1,2.8 0.6,-1.8 1.8,-3.3 2.7,-5 1.2,-2.4 -2,-5.3 -3.9,-3 -0.4,0.7 -0.5,0.3 -0.2,-1.3 0,-1.1 0,-2.1 0,-3.2 0.1,-1 1.1,-3.5 1,-4.7 -0.2,-1.9 -0.4,0.1 -0.5,1 -0.4,2 0.2,3.8 -0.8,5.7 -0.4,0.8 -2.6,3.9 -3.7,3.9 -0.1,0.1 -0.1,0.3 -0.2,0.4 0,-0.8 0.1,-1.7 0.2,-2.5 0.5,-3.3 1.8,-7.1 4.8,-8.8 -1,-0.1 -2,-0.3 -3,-0.4 1.7,1.5 -4.7,14.3 -5,4.7 0,-1 -0.1,-2.1 0,-3.1 0.2,-3.9 -0.1,-0.4 -1.5,0.7 -0.6,0.5 -2.3,1.2 -3,1.2 -0.4,0.1 -0.8,0.1 -1.2,0.2 -0.5,-1.6 0,-2.6 1.6,-3 -0.7,-0.4 -1.4,-0.8 -2.2,-1.2 0,0.1 -0.1,3 0,2.9 0.2,-0.2 0.5,-2.6 0.6,-3 0.7,-3.1 1,-3.8 4.4,-3.5 3.4,0.3 6.9,2.6 5.5,6.5 -0.8,2.2 -1.2,0.2 -1.1,3.2 0,0.5 -0.4,2.9 0.1,2.8 0.8,0.2 1.6,0.4 2.4,0.6 0.3,0.8 0.6,0.4 0.8,-0.9 0,-1.3 -0.9,-1.8 -2.5,-1.5 -1.1,-0.8 -1.4,-3.2 -1.4,-4.4 0.3,-3.1 -4.7,-3.1 -4.8,0.1 z"
             style="fill:#434343;fill-opacity:1" />
        </g>
      </g>
    </g>
  </g>
</svg>
