<?xml version="1.0" encoding="UTF-8" standalone="no"?>
<!-- Generator: Adobe Illustrator 19.0.0, SVG Export Plug-In . SVG Version: 6.00 Build 0)  -->

<svg
   version="1.1"
   id="Layer_1"
   x="0px"
   y="0px"
   viewBox="0 0 90 135"
   style="enable-background:new 0 0 90 135;"
   xml:space="preserve"
   sodipodi:docname="assassin00.svg"
   inkscape:version="1.2.2 (b0a8486541, 2022-12-01)"
   xmlns:inkscape="http://www.inkscape.org/namespaces/inkscape"
   xmlns:sodipodi="http://sodipodi.sourceforge.net/DTD/sodipodi-0.dtd"
   xmlns="http://www.w3.org/2000/svg"
   xmlns:svg="http://www.w3.org/2000/svg"><defs
   id="defs1841"><rect
     x="-62.068451"
     y="111.19718"
     width="80.18742"
     height="42.690165"
     id="rect2284" /></defs><sodipodi:namedview
   id="namedview1839"
   pagecolor="#ffffff"
   bordercolor="#999999"
   borderopacity="1"
   inkscape:showpageshadow="0"
   inkscape:pageopacity="0"
   inkscape:pagecheckerboard="0"
   inkscape:deskcolor="#d1d1d1"
   showgrid="false"
   inkscape:zoom="7.6074074"
   inkscape:cx="44.956183"
   inkscape:cy="67.5"
   inkscape:window-width="3840"
   inkscape:window-height="2077"
   inkscape:window-x="0"
   inkscape:window-y="0"
   inkscape:window-maximized="1"
   inkscape:current-layer="text2282" />
<style
   type="text/css"
   id="style1799">
	.st0{fill:#FFFFFF;stroke:#000000;stroke-miterlimit:10;}
	.st1{fill:none;stroke:#000000;stroke-miterlimit:10;}
	.st2{opacity:0.51;}
	.st3{fill:#434343;}
	.st4{fill:none;}
	.st5{font-family:'MosaicoSCSC';}
	.st6{font-size:9px;}
	.st7{font-size:12px;}
</style>

<rect
   style="fill:#ffffff;stroke-width:6.94299;stroke-miterlimit:10"
   id="rect2278"
   width="90"
   height="135"
   x="0"
   y="0" /><path
   id="XMLID_84_"
   class="st1"
   d="M59.3,15.5c-1.1-1.7-0.8-4.1,0.3-5.7s2.9-2.8,4.8-3.6c1.6-0.7,3.4-1.3,5.1-1.7  c1.1-0.2,2.2-0.4,3.3-0.2c2.6,0.4,4.5,2.7,5.7,5.1c1.2,2.4,2,5.1,2.2,7.8c-1.3,0.1-2.6,0.2-3.9,0.4c-0.2,0-0.5,0-0.6,0.2  c-0.4,0.3-0.2,0.9,0,1.4c0.8,1.7,1.7,3.4,2.5,5.1c0.3,0.5,0.5,1.3,0.1,1.7c-0.2,0.2-0.6,0.2-0.9,0.2c-3.6,0.2-7.3,0.3-10.9,0.5  c0-3.5,0-7.1,0-10.6c-1.2,0.4-2.5,0.9-3.7,1.3c-0.7,0.2-1.7,0.3-1.7-0.4" />
<path
   id="XMLID_85_"
   class="st1"
   d="M64.3,10.4c-0.2-1,0.8-2.1,1.8-2.1c1.1,0,2,1.2,1.7,2.2c-0.2,1-1.4,1.7-2.3,1.1  c-0.9-0.5-0.7-2.1,0.2-2.3" />
<path
   id="XMLID_86_"
   class="st1"
   d="M72.8,10.3c-0.5-0.5,0.4-1.5,1.1-1.3s1.1,1.1,1.2,1.8c0.1,0.8,0.1,1.8-0.6,2.3  c-0.7,0.6-1.8,0.4-2.5-0.2c-0.7-0.6-1-1.5-1.3-2.4c-0.2-0.8-0.4-1.6-0.1-2.3c0.3-0.7,1.2-1.3,1.9-1" />
<path
   id="XMLID_87_"
   class="st1"
   d="M69.8,21c-0.2,1.8-0.1,3.6,0.2,5.4" />
<path
   id="XMLID_88_"
   class="st1"
   d="M72.4,21c-0.6,1.8-0.5,3.9,0.3,5.7" />
<path
   id="XMLID_89_"
   class="st1"
   d="M74.9,20.7c0.1,2.3,0.5,4.5,1.2,6.7" />
<path
   id="XMLID_9_"
   class="st1"
   d="M0.2,81.4c9.3-2,18.6-4.1,27.9-6.1c-0.9-2.6,1.1-5.3,0-7.9c-0.7-1.7-2.8-2.6-2.4-4.7  c0.8-3.6,6.9-3.8,9.6-3.2c-1.4,5.1-1.1,9.6,3.3,13c4.5,3.5,7.2,7.6,10.1,12.4c0.8-4.4,0.9-11.4,6-13.4c5-0.6,10-3.6,11.2-9.3  c3.4,2.1-1,2.3,0,0c0.9,1.7,2.9,4.7,2.9,6.7c-1,4-5,6-8,9c-1,2-3,4,1,6c8,3,19-2,25.5,5.4" />
<path
   id="XMLID_23_"
   class="st1"
   d="M65.1,62.9c2.7-4.1,3.7-9.2,2.9-14.1c-0.2-0.9-0.4-1.8,0-2.6c0.4-1,1.5-1.4,2.2-2.2  c1.3-1.5,0.8-3.8,0.1-5.6c-2.2-5.3-6.8-9.4-12-11.8s-11.1-3.2-16.8-3c-1.3,0-2.6,0.1-3.8,0.5c-3.5,0.9-6.3,3.6-8.2,6.7  C28.8,32,28,33.4,28,34.8c0,1.3,0.5,2.5,1.1,3.7c1.6,3.5,3.2,7,4.8,10.5c-0.9-1-1.8-2-3-2.3c-1.3-0.3-2.9,0.3-3,1.6  c-0.1,0.8,0.4,1.6,1,2.3c1.1,1.4,2.2,2.8,3.2,4.3c0.7,0.9,1.5,1.8,2.5,1.8c1.1,0,1.8-1.8,0.7-2.1c0.2,2-0.1,4-0.9,5.8  c0.4-0.4,0.7-0.9,1.1-1.3" />
<path
   id="XMLID_24_"
   class="st1"
   d="M67,46.9c0.1-0.7-0.7-1.1-1.3-1.4c-2.9-1.2-5.8-2.4-8.7-3.4c-2.1-0.8-4.3-1.5-6.5-1.6  c-6-0.4-11.5,3-16.5,6.4c0.1-0.5,0.5-1,1-1.1" />
<path
   id="XMLID_144_"
   class="st1"
   d="M42.7,23.8c0.3-1.5-0.1-3.1-0.9-4.3c-0.4-0.6-0.9-1.1-1.3-1.6c-0.6-0.6-1.2-1.2-2-1.5  c-0.6-0.2-1.1-0.1-1.7-0.2c-2.1-0.2-3.8-2-4-4.1c-0.2-2.1,1.3-4.2,3.3-4.7c1.4-0.4,2.9-0.1,4.4,0.3c4.1,0.9,8.2,1.8,12.2,2.7  c0.3,0.1,0.7,0.2,0.9,0.3c0.8,0.6,0.5,2.1-0.4,2.6c-0.9,0.5-2,0.4-3,0.2c-1-0.2-2-0.5-3.1-0.3c1.2,2.9,2,5.9,2.4,9  c0,0.4,0.1,0.9,0.3,1.3c0.2,0.4,0.8,0.6,1.2,0.4" />
<path
   id="XMLID_145_"
   class="st1"
   d="M53.5,46.3c-1.4-1.2-3.6-1.3-5.2-0.4c-0.8,0.5-1.5,1.5-1.2,2.5c1.8-0.6,3.6-1.2,5.4-1.7  c0.4-0.1,1.2,0,1,0.5" />
<path
   id="XMLID_146_"
   class="st1"
   d="M64.2,48.8c0.7-0.4,1.7-0.1,2.3,0.4c0.6,0.6,1,1.4,1.3,2.1c-1.5,0.3-3.1,0.6-4.6,0.3  c-1.5-0.3-3-1.4-3.2-2.9c1.4,0.1,2.8,0.2,4.3,0.3c0.4,0,0.9,0.4,0.6,0.7" />
<path
   id="XMLID_147_"
   class="st1"
   d="M62.2,64c0.1-1.2,0.1-2.4,0.2-3.6c0-0.2,0-0.5-0.1-0.7c-0.1-0.2-0.3-0.3-0.5-0.4  c-4-2.1-9.4-1.1-12.5,2.2c4-1.1,8.3,2.1,12.4,1.1c-0.1,0.3-0.2,0.5-0.4,0.8" />
<path
   id="XMLID_148_"
   class="st1"
   d="M54.7,54.5c0.2,0.2,0.6,0.1,0.9,0c1-0.3,2.2,0.1,2.8,1c0.8-0.1,1.1-1.1,0.9-1.9  c-0.2-0.8-0.8-1.4-1.1-2.1c-0.4-0.9-0.4-1.9-0.1-2.8c-0.3,0.2-0.5,0.8-0.3,1.1" />
<path
   id="XMLID_149_"
   class="st1"
   d="M50.2,48c-0.1,1-0.5,1.9-1.1,2.7c-3.6,0.3-7.1,0.6-10.7,0.9c-0.5,0-1.1,0.1-1.6-0.1  c-0.5-0.2-1-0.7-0.9-1.2c0.1-0.8,1-1.2,1.8-1.3c2.9-0.7,5.7-1.3,8.6-2c0.2,0,0.4-0.1,0.5,0s0.1,0.4-0.1,0.4" />
<path
   id="XMLID_150_"
   class="st1"
   d="M39.7,17.8c-2-2.1-1.7-5.8,0.6-7.6c-1.4-0.1-2.7-0.6-3.9-1.3c1.6,0.8,3.2,1.4,5,1.7  c1.3,0.2,2.6,0.3,3.7,1c1.1,0.7,2.2,1.9,3.3,1.4c0.3,0.4,0.6,0.9,0.9,1.3" />
<path
   id="XMLID_151_"
   class="st1"
   d="M27.2,75c0.6,3.6,0.9,7.4,0.2,11c-0.7,3.6-2.6,7.1-5.5,9.3c4.6-0.7,9.4,0.5,13.1,3.3  c3.7,2.7,6.3,6.9,7.1,11.5c3.8-5.3,5.9-11.8,5.9-18.4c2.6,6.6,7.2,12.4,13.1,16.4c3.4-3.5,7-6.8,10.8-9.9c-0.7,0.4-1.6-0.2-2.1-0.7  c-4.2-4.2-7.5-9.3-9.6-14.9c0,0.4,0,0.7,0,1.1" />
<path
   id="XMLID_152_"
   class="st1"
   d="M45.6,86.2c-0.5-0.9,0.1-2.2,1-2.6s2.1,0.1,2.8,0.9c0.7,0.8,0.9,1.9,0.8,3  c-0.6,0.3-1.3,0.3-1.9,0c0.2,1,0.4,2,0.6,3c-0.8,0.2-1.7,0.1-2.4-0.2c0-0.4-0.1-0.8-0.1-1.1c-0.2,0.3-0.3,0.7-0.2,1.1  c-0.1-0.2-0.1-0.4-0.2-0.6c-0.1,0.3-0.3,0.6-0.4,0.9c0.1-0.8-1.4-0.8-1.5-1.6c0-0.6,1.1-1.1,0.8-1.6c-0.5,0.5-1.3,0.6-1.9,0.2  c-0.4-1.4,0.4-3.1,1.7-3.6c0.2,0.5,0.7,0.9,1.2,1" />
<path
   id="XMLID_153_"
   class="st1"
   d="M62.3,49.8c-0.2,0,0.1,0.3,0.1,0.1c0,0.3-0.2,0.5-0.5,0.5c0-0.4,0.2-0.7,0.5-0.9" />
<path
   id="XMLID_154_"
   class="st1"
   d="M49.4,46.8c0.4-0.4-0.3-1.1-0.7-0.8s0.1,1.1,0.6,0.9c-0.3,0-0.4-0.4-0.2-0.5s0.6,0,0.5,0.3  c-0.2-0.1-0.3-0.3-0.5-0.4c0.1-0.2,0.1-0.3,0.2-0.5" />
<path
   id="XMLID_155_"
   class="st1"
   d="M32,50c-0.8-0.5-1.6-0.8-2.5-1c-0.3-0.1-0.7-0.1-1,0.2c-0.4,0.4,0.1,1,0.6,1.3  c1.6,1.2,3,2.7,4.1,4.4c0-0.5,0-1,0-1.4" />
<path
   id="XMLID_156_"
   class="st1"
   d="M35.8,61.5c0,0.1,0,0.2,0,0.3c0,2.6,2.3,4.5,4.7,5.4c2.4,0.9,5,1.1,7.6,1.4  c3.2,0.4,6.4,1.1,9.5,2.2c0.2,0.1,0.4,0.2,0.3,0.3c0,0.2-0.4,0-0.2-0.1" />
<path
   id="XMLID_157_"
   class="st1"
   d="M48.6,92.6c-0.8,1.9,0,4,0.4,6c0.4,1.8,0.5,3.6,0.6,5.5c0.1,1.6,0.2,3.2,0.3,4.9  c0.1,1.6,0.2,3.3,0,4.9" />
<g
   id="XMLID_158_"
   class="st2">
	<g
   id="XMLID_14_">
		<path
   id="XMLID_18_"
   class="st3"
   d="M66.6,14.3c-0.2,4.5,3.3,11.5,8.7,10.6c4-0.7,7.1-6.9,3.5-9.9c-4.2-3.5-9,2.7-9.2,6.6    c-0.1,2,1.3,3.8,3.5,3.7c2.4-0.1,3.4-2.7,3.7-4.7c0.6-3.5-1.1-13.8-6.9-9.6c-4,2.9-2.5,10.5,3.1,9.7c6.3-1,6.2-10.5,3.1-14.5    c-2-2.6-4.8-2.8-7.8-3.2c-2.8-0.4-5.4-1.1-7.6,1.2c-2.8,2.9-5.3,12.8-0.6,14.9c6,2.7,8.6-6,6.8-10.1c-0.3-0.8-1.4-1.3-2.2-1.2    c-9.1,0.4-9.3,15.2,0.9,12.7c4.2-1,7.3-3.6,8.3-7.9c0.8-3.3-1-8.3-5.2-7.6c-4.9,0.8-5,7.6-4.9,11.4c0,3.7,0.4,8.7,4.8,9.7    c6.9,1.6,13.8-13,8.8-17.4c-0.8-0.7-2-1-3-0.4c-3.7,2.1-5.8,6-6.8,10c-0.7,2.7-1.7,7.4,0.5,9.6c2.7,2.7,6.6,0.1,8.8-1.9    c3.4-3.1,4.5-6.7,4.6-11.2c0.1-3.1-0.3-7.6-4.2-8.2c-3.5-0.5-4.5,3-5.2,5.7c-0.9,3.6-2.1,9.3-0.6,12.8c1.7,3.9,6.2,3,8.4,0.3    c-1.3-1-2.6-2-3.9-3c-1,2.1-2.5,3.9-3.2,6.2c-0.4,1.2,0.3,2.2,1.1,2.8c3.9,3,8.2-3.3,8.8-6.6c0.6-3.1-4.3-4.5-4.8-1.3    c-0.1,0.6-1.9,3.3-1.5,3.6c0.4,0.9,0.8,1.9,1.1,2.8c0.6-1.8,1.8-3.3,2.7-5c1.2-2.4-2-5.3-3.9-3c-0.4,0.7-0.5,0.3-0.2-1.3    c0-1.1,0-2.1,0-3.2c0.1-1,1.1-3.5,1-4.7c-0.2-1.9-0.4,0.1-0.5,1c-0.4,2,0.2,3.8-0.8,5.7c-0.4,0.8-2.6,3.9-3.7,3.9    c-0.1,0.1-0.1,0.3-0.2,0.4c0-0.8,0.1-1.7,0.2-2.5c0.5-3.3,1.8-7.1,4.8-8.8c-1-0.1-2-0.3-3-0.4c1.7,1.5-4.7,14.3-5,4.7    c0-1-0.1-2.1,0-3.1c0.2-3.9-0.1-0.4-1.5,0.7c-0.6,0.5-2.3,1.2-3,1.2c-0.4,0.1-0.8,0.1-1.2,0.2c-0.5-1.6,0-2.6,1.6-3    c-0.7-0.4-1.4-0.8-2.2-1.2c0,0.1-0.1,3,0,2.9c0.2-0.2,0.5-2.6,0.6-3c0.7-3.1,1-3.8,4.4-3.5c3.4,0.3,6.9,2.6,5.5,6.5    c-0.8,2.2-1.2,0.2-1.1,3.2c0,0.5-0.4,2.9,0.1,2.8c0.8,0.2,1.6,0.4,2.4,0.6c0.3,0.8,0.6,0.4,0.8-0.9c0-1.3-0.9-1.8-2.5-1.5    c-1.1-0.8-1.4-3.2-1.4-4.4C71.7,11.1,66.7,11.1,66.6,14.3L66.6,14.3z" />
	</g>
</g>
<path
   id="XMLID_19_"
   class="st4"
   d="M12,0h66c6.6,0,12,5.4,12,12v111c0,6.6-5.4,12-12,12H12c-6.6,0-12-5.4-12-12V12  C0,5.4,5.4,0,12,0z" />

<rect
   style="fill:#000000;stroke-width:6.94299;stroke-miterlimit:10"
   id="rect2280"
   width="90"
   height="20"
   x="0"
   y="110" /><g
   aria-label="ASSASSIN"
   transform="translate(75.720783,1.0548507)"
   id="text2282"
   style="font-style:italic;font-weight:bold;font-size:13.3333px;font-family:'Times New Roman';-inkscape-font-specification:'Times New Roman,  Bold Italic';white-space:pre"><path
     d="m -56.664727,120.13003 h -2.734368 l -0.546874,0.67708 -0.624998,0.7487 q -0.182292,0.24088 -0.266927,0.43619 -0.0651,0.14974 -0.0651,0.29948 0,0.15625 0.16276,0.29297 0.169271,0.13021 0.553384,0.14974 v 0.24088 h -2.636712 l 0.0651,-0.24088 q 0.351562,-0.0586 0.624999,-0.2474 0.364582,-0.26041 1.048174,-1.07421 l 6.256495,-7.46743 h 0.292968 l -0.292968,7.22654 q -0.01953,0.56641 -0.01953,0.6836 0,0.4427 0.175781,0.64453 0.182291,0.20182 0.598957,0.23437 l -0.0651,0.24088 h -3.821605 l 0.07161,-0.24088 q 0.566404,-0.0521 0.65104,-0.0911 0.182291,-0.0911 0.33203,-0.3776 0.149739,-0.29297 0.182291,-1.00911 z m 0,-0.53385 0.16927,-2.8776 -2.454421,2.8776 z"
     style="fill:#ffffff"
     id="path2591" /><path
     d="m -45.395225,113.94515 -0.735675,2.99478 h -0.214843 q -0.07161,-0.70312 -0.253906,-1.1263 -0.273436,-0.61197 -0.729164,-0.944 -0.449218,-0.33203 -0.97656,-0.33203 -0.507812,0 -0.891925,0.39062 -0.377603,0.38411 -0.377603,0.87239 0,0.48177 0.260416,0.95052 0.266926,0.46224 1.249996,1.39974 0.787759,0.74869 1.054685,1.28906 0.273437,0.54036 0.273437,1.17187 0,0.70963 -0.377603,1.30859 -0.377603,0.59896 -1.100258,0.93099 -0.716144,0.32552 -1.6276,0.32552 -0.559894,0 -1.412757,-0.16927 -0.846352,-0.16276 -1.126299,-0.16276 -0.221354,0 -0.397134,0.0716 -0.175781,0.0651 -0.436197,0.26042 h -0.253906 l 0.787759,-3.36588 h 0.247395 q 0.08463,0.88541 0.358072,1.51041 0.273437,0.61849 0.781248,0.97005 0.507811,0.34505 1.158851,0.34505 0.64453,0 1.074216,-0.42317 0.436197,-0.42969 0.436197,-1.0026 0,-0.48828 -0.247395,-0.9375 -0.240885,-0.44922 -1.113279,-1.30859 -0.865883,-0.85937 -1.197913,-1.53646 -0.240885,-0.5013 -0.240885,-1.0677 0,-0.98307 0.774738,-1.69922 0.774737,-0.71614 2.024734,-0.71614 0.566405,0 1.490882,0.2539 0.540363,0.14974 0.761716,0.14974 0.188802,0 0.338541,-0.0781 0.149739,-0.0846 0.351562,-0.32552 z"
     style="fill:#ffffff"
     id="path2593" /><path
     d="m -37.979879,113.94515 -0.735676,2.99478 h -0.214843 q -0.07161,-0.70312 -0.253905,-1.1263 -0.273437,-0.61197 -0.729165,-0.944 -0.449218,-0.33203 -0.97656,-0.33203 -0.507811,0 -0.891925,0.39062 -0.377603,0.38411 -0.377603,0.87239 0,0.48177 0.260416,0.95052 0.266926,0.46224 1.249997,1.39974 0.787758,0.74869 1.054684,1.28906 0.273437,0.54036 0.273437,1.17187 0,0.70963 -0.377603,1.30859 -0.377603,0.59896 -1.100258,0.93099 -0.716144,0.32552 -1.6276,0.32552 -0.559894,0 -1.412757,-0.16927 -0.846352,-0.16276 -1.126299,-0.16276 -0.221353,0 -0.397134,0.0716 -0.175781,0.0651 -0.436197,0.26042 h -0.253906 l 0.787759,-3.36588 h 0.247395 q 0.08464,0.88541 0.358072,1.51041 0.273437,0.61849 0.781248,0.97005 0.507811,0.34505 1.158851,0.34505 0.64453,0 1.074216,-0.42317 0.436197,-0.42969 0.436197,-1.0026 0,-0.48828 -0.247395,-0.9375 -0.240885,-0.44922 -1.113278,-1.30859 -0.865884,-0.85937 -1.197914,-1.53646 -0.240885,-0.5013 -0.240885,-1.0677 0,-0.98307 0.774738,-1.69922 0.774737,-0.71614 2.024734,-0.71614 0.566405,0 1.490882,0.2539 0.540363,0.14974 0.761717,0.14974 0.188801,0 0.33854,-0.0781 0.14974,-0.0846 0.351562,-0.32552 z"
     style="fill:#ffffff"
     id="path2595" /><path
     d="m -32.940829,120.13003 h -2.734368 l -0.546874,0.67708 -0.624998,0.7487 q -0.182292,0.24088 -0.266927,0.43619 -0.0651,0.14974 -0.0651,0.29948 0,0.15625 0.16276,0.29297 0.169271,0.13021 0.553384,0.14974 v 0.24088 h -2.636712 l 0.0651,-0.24088 q 0.351562,-0.0586 0.624999,-0.2474 0.364582,-0.26041 1.048174,-1.07421 l 6.256495,-7.46743 h 0.292968 l -0.292968,7.22654 q -0.01953,0.56641 -0.01953,0.6836 0,0.4427 0.175781,0.64453 0.182291,0.20182 0.598957,0.23437 l -0.0651,0.24088 h -3.821605 l 0.07161,-0.24088 q 0.566405,-0.0521 0.651041,-0.0911 0.182291,-0.0911 0.33203,-0.3776 0.149739,-0.29297 0.182291,-1.00911 z m 0,-0.53385 0.16927,-2.8776 -2.454421,2.8776 z"
     style="fill:#ffffff"
     id="path2597" /><path
     d="m -21.671328,113.94515 -0.735675,2.99478 h -0.214843 q -0.07161,-0.70312 -0.253906,-1.1263 -0.273436,-0.61197 -0.729164,-0.944 -0.449218,-0.33203 -0.97656,-0.33203 -0.507812,0 -0.891925,0.39062 -0.377603,0.38411 -0.377603,0.87239 0,0.48177 0.260416,0.95052 0.266926,0.46224 1.249996,1.39974 0.787759,0.74869 1.054685,1.28906 0.273437,0.54036 0.273437,1.17187 0,0.70963 -0.377603,1.30859 -0.377603,0.59896 -1.100258,0.93099 -0.716144,0.32552 -1.6276,0.32552 -0.559894,0 -1.412757,-0.16927 -0.846352,-0.16276 -1.126299,-0.16276 -0.221354,0 -0.397134,0.0716 -0.175781,0.0651 -0.436197,0.26042 h -0.253906 l 0.787759,-3.36588 h 0.247395 q 0.08464,0.88541 0.358072,1.51041 0.273437,0.61849 0.781248,0.97005 0.507811,0.34505 1.158851,0.34505 0.64453,0 1.074216,-0.42317 0.436197,-0.42969 0.436197,-1.0026 0,-0.48828 -0.247395,-0.9375 -0.240885,-0.44922 -1.113279,-1.30859 -0.865883,-0.85937 -1.197913,-1.53646 -0.240885,-0.5013 -0.240885,-1.0677 0,-0.98307 0.774737,-1.69922 0.774738,-0.71614 2.024735,-0.71614 0.566405,0 1.490882,0.2539 0.540363,0.14974 0.761716,0.14974 0.188802,0 0.338541,-0.0781 0.149739,-0.0846 0.351562,-0.32552 z"
     style="fill:#ffffff"
     id="path2599" /><path
     d="m -14.255979,113.94515 -0.735676,2.99478 h -0.214843 q -0.07161,-0.70312 -0.253906,-1.1263 -0.273436,-0.61197 -0.729164,-0.944 -0.449218,-0.33203 -0.97656,-0.33203 -0.507812,0 -0.891925,0.39062 -0.377603,0.38411 -0.377603,0.87239 0,0.48177 0.260416,0.95052 0.266926,0.46224 1.249996,1.39974 0.787759,0.74869 1.054685,1.28906 0.273437,0.54036 0.273437,1.17187 0,0.70963 -0.377603,1.30859 -0.377603,0.59896 -1.100258,0.93099 -0.716144,0.32552 -1.6276,0.32552 -0.559894,0 -1.412757,-0.16927 -0.846352,-0.16276 -1.126299,-0.16276 -0.221354,0 -0.397134,0.0716 -0.175781,0.0651 -0.436197,0.26042 h -0.253906 l 0.787759,-3.36588 h 0.247395 q 0.08463,0.88541 0.358072,1.51041 0.273437,0.61849 0.781248,0.97005 0.507811,0.34505 1.158851,0.34505 0.64453,0 1.074216,-0.42317 0.436197,-0.42969 0.436197,-1.0026 0,-0.48828 -0.247395,-0.9375 -0.240885,-0.44922 -1.113279,-1.30859 -0.865883,-0.85937 -1.197913,-1.53646 -0.240885,-0.5013 -0.240885,-1.0677 0,-0.98307 0.774738,-1.69922 0.774737,-0.71614 2.024734,-0.71614 0.566405,0 1.490882,0.2539 0.540363,0.14974 0.761716,0.14974 0.188802,0 0.338541,-0.0781 0.149739,-0.0846 0.351562,-0.32552 z"
     style="fill:#ffffff"
     id="path2601" /><path
     d="m -12.77812,114.38786 0.07161,-0.24089 h 4.3098851 l -0.084635,0.24089 q -0.585936,0 -0.8984352,0.26041 -0.3059888,0.26042 -0.5403633,1.08724 l -1.6145794,5.65103 q -0.175781,0.59895 -0.175781,0.80078 0,0.23437 0.182292,0.36458 0.234374,0.16927 0.885414,0.18229 l -0.0651,0.24088 h -4.381499 l 0.07161,-0.24088 q 0.657551,0 0.963539,-0.2474 0.305989,-0.2539 0.553384,-1.10025 l 1.6276,-5.65103 q 0.14974,-0.52083 0.14974,-0.78776 0,-0.24088 -0.182292,-0.3776 -0.182291,-0.13672 -0.872393,-0.18229 z"
     style="fill:#ffffff"
     id="path2603" /><path
     d="m -4.679182,114.14697 2.7604097,5.8854 1.24348645,-4.27082 q 0.097656,-0.35156 0.097656,-0.625 0,-0.32552 -0.20833281,-0.52083 -0.2018224,-0.19531 -0.70312324,-0.22786 l 0.071614,-0.24089 h 2.7994721 l -0.065104,0.24089 q -0.5338528,0.0326 -0.88541442,0.29947 -0.34505121,0.26693 -0.58593602,1.07422 l -2.15494246,7.31118 h -0.2473952 l -3.5416577,-7.52602 -1.7122353,5.86587 q -0.084635,0.30599 -0.084635,0.54687 0,0.35156 0.227864,0.56641 0.2343744,0.20833 0.7421856,0.20833 l -0.058594,0.24088 h -2.8775969 l 0.058594,-0.24088 q 0.3710929,0 0.5273425,-0.0651 0.2734368,-0.10417 0.5338528,-0.39714 0.260416,-0.29948 0.423176,-0.85937 l 1.8684849,-6.41275 q -0.3450513,-0.38411 -0.5794257,-0.49479 -0.2343744,-0.11067 -0.7031232,-0.11718 l 0.071614,-0.24089 z"
     style="fill:#ffffff"
     id="path2605" /></g></svg>
