<?xml version="1.0" encoding="UTF-8" standalone="no"?>
<!-- Generator: Adobe Illustrator 19.0.0, SVG Export Plug-In . SVG Version: 6.00 Build 0)  -->

<svg
   version="1.1"
   id="Layer_1"
   x="0px"
   y="0px"
   viewBox="0 0 135 135"
   style="enable-background:new 0 0 135 135;"
   xml:space="preserve"
   sodipodi:docname="banker.svg"
   inkscape:version="1.1.2 (0a00cf5339, 2022-02-04, custom)"
   xmlns:inkscape="http://www.inkscape.org/namespaces/inkscape"
   xmlns:sodipodi="http://sodipodi.sourceforge.net/DTD/sodipodi-0.dtd"
   xmlns="http://www.w3.org/2000/svg"
   xmlns:svg="http://www.w3.org/2000/svg"><defs
   id="defs304" /><sodipodi:namedview
   id="namedview302"
   pagecolor="#ffffff"
   bordercolor="#999999"
   borderopacity="1"
   inkscape:pageshadow="0"
   inkscape:pageopacity="0"
   inkscape:pagecheckerboard="0"
   showgrid="false"
   inkscape:zoom="6.4666667"
   inkscape:cx="67.5"
   inkscape:cy="67.5"
   inkscape:window-width="3840"
   inkscape:window-height="2085"
   inkscape:window-x="0"
   inkscape:window-y="0"
   inkscape:window-maximized="1"
   inkscape:current-layer="XMLID_275_" />
<style
   type="text/css"
   id="style2">
	.st0{fill:none;}
	.st1{font-family:'MosaicoSCSC';}
	.st2{font-size:9px;}
	.st3{font-size:12px;}
	.st4{fill:none;stroke:#000000;stroke-miterlimit:10;}
	.st5{opacity:0.51;}
	.st6{fill:#F7941E;}
</style>
<g
   id="XMLID_275_">
	<path
   id="XMLID_282_-6"
   class="st4"
   d="M 123,0 H 11.999997 c -6.6,0 -12,5.4 -12,12 v 111 c 0,6.6 5.4,12 12,12 H 123 c 6.6,0 12,-5.4 12,-12 V 12 C 135,5.4 129.6,0 123,0 Z"
   style="fill:#ffffff;fill-opacity:1;stroke:none;stroke-miterlimit:10" /><path
   id="XMLID_1358_"
   class="st0"
   d="M12,0h111c6.6,0,12,5.4,12,12v111c0,6.6-5.4,12-12,12H12c-6.6,0-12-5.4-12-12V12   C0,5.4,5.4,0,12,0z" />
	<text
   id="XMLID_284_"
   transform="matrix(1.5 0 0 1 -3.051758e-004 94.6201)"><tspan
     x="0"
     y="0"
     class="st1 st2"
     id="tspan5"> </tspan><tspan
     x="0"
     y="14.4"
     class="st1 st3"
     id="tspan7">   Banker Lady</tspan></text>
	<path
   id="XMLID_282_"
   class="st4"
   d="M123,0H12C5.4,0,0,5.4,0,12v111c0,6.6,5.4,12,12,12h111c6.6,0,12-5.4,12-12V12   C135,5.4,129.6,0,123,0z" />
</g>
<g
   id="XMLID_236_">
	<g
   id="XMLID_644_">
		<path
   id="XMLID_649_"
   d="M48,24.5c-3.3,3.2-5.8,7.2-6,12.1c-0.1,2.6,0.9,1.9-0.6,0.6c-0.8-0.7-1.8-1.6-3-1.3    c-3.6,0.9-4.4,8.9-4.7,11.6c-0.4,4-0.6,9.6,1.7,13.1c0.7,1.2,2.6,1.8,3.2,2.6c0.7,0.9-0.1,1.8-0.1,3.3c0,3.2,0.9,5.5,0.2,8.9    c-0.6,2.8-1.1,6.2-0.5,9c0.3,1.4,1.1,2.2,1.9,3.4c1.9,2.7,3,5.8,4.6,8.7c2.2,4,4.8,7.3,8.8,9.7c4,2.4,7.7,5.2,12.7,4.4    c4.1-0.7,8.3-3.6,11.4-6.2c3.4-2.8,6-6.3,9-9.5c3.2-3.4,7.5-7.2,9.7-11.3c5.1-9.3,9-19.1,11.5-29.6c2.2-9,3.8-22.1-2.6-29.7    c-6.3-7.5-18.1-11.6-27.5-13.2c-5.1-0.9-11-1.1-15.8,1c-5.7,2.5-10.2,8.2-14,12.8c-0.5,0.6,0.4,1.5,0.9,0.9    c5.1-6.2,11.1-13.4,19.7-14c6.6-0.4,13.4,1,19.5,3.4c7,2.8,15.3,6.4,18.5,13.8c3.1,7.3,1.7,17,0.1,24.6c-1.5,7-3.9,14.6-7,21    c-1.3,2.7-3,4.8-4.2,7.5C93.6,86,90,88.9,87.4,92c-3.9,4.6-8.1,9.7-13.1,13.2c-2.8,2-5.8,3.7-9.3,4c-4.4,0.4-6.8-1.6-10.5-3.8    c-7.4-4.3-10.1-12.2-14.3-19.3c-2.7-4.4,0.1-9.4,0.1-14.1c0-1.6-0.6-3.2-0.7-4.7c-0.1-1.7,0.6-3.1,0.5-4.8c0-0.4-0.3-0.6-0.6-0.6    c-5.5-0.5-5.1-10.4-4.7-14.4c0.4-3.8,0.5-9.4,6.4-7.3c0.6,0.2,0.4,0.9,1.3,1.1c0.3,0.1,0.6,0,0.7-0.3c1.1-1.9-0.2-4.3,0.3-6.3    c0.8-4.1,2.4-6.6,5.3-9.4C49.4,24.8,48.5,23.9,48,24.5L48,24.5z" />
	</g>
</g>
<g
   id="XMLID_241_">
	<g
   id="XMLID_637_">
		<path
   id="XMLID_642_"
   d="M72.5,63.7c1.1-2.3-0.9-5.4-2.9-6.4c-1.5-0.7-3.1-1.1-4.7-1.5c-0.7-0.2-1.4-0.4-2.1-0.4    c-1.2-0.2-2.5,0.5-3.7,0.4c-0.8-0.1-1.1,1.1-0.3,1.2c1.2,0.2,2.1-0.4,3.3-0.4c1.3,0,2.6,0.6,3.8,0.9c1.6,0.4,3.2,0.7,4.4,2    C71,60.1,72,62,71.5,63C71.1,63.8,72.2,64.4,72.5,63.7L72.5,63.7z" />
	</g>
</g>
<g
   id="XMLID_242_">
	<g
   id="XMLID_631_">
		<path
   id="XMLID_635_"
   d="M71.6,63.4c-1.3-1.9-3-2.5-5.2-2.7c-2.4-0.3-5.2-1.3-6-3.9c-0.3-0.8-1.5-0.4-1.2,0.3c0.6,1.9,2,3.2,3.8,4    c2.6,1.2,5.8,0.2,7.5,2.9C71,64.7,72.1,64,71.6,63.4L71.6,63.4z" />
	</g>
</g>
<g
   id="XMLID_243_">
	<g
   id="XMLID_624_">
		<path
   id="XMLID_629_"
   d="M67.8,57.6c-0.6,0.1-0.8,1.1-0.9,1.6c-0.1,0.8,0.3,1.6,1,2c0.6,0.3,1.7,0.5,2.3,0.1    c0.7-0.4,0.7-1.2,0.7-1.9c0-0.8-1.3-0.8-1.3,0c0,0.2,0.1,0.7-0.1,0.8c-0.2,0.1-0.8,0-1-0.1c-0.3-0.1-0.4-0.5-0.4-0.8    c0-0.2,0.1-0.3,0.1-0.5c0-0.1,0-0.1,0-0.2c0.1-0.2,0-0.2-0.2,0.1C68.9,58.7,68.5,57.5,67.8,57.6L67.8,57.6z" />
	</g>
</g>
<g
   id="XMLID_251_">
	<g
   id="XMLID_618_">
		<path
   id="XMLID_622_"
   d="M70.3,59.2c-0.2-0.5-0.6-0.9-1-1.1c-0.6-0.3-1-0.1-1.3,0.4c-0.5,0.6,0.3,1.5,0.9,0.9    c0.1-0.1,0.1-0.1,0.2-0.2c-0.2,0-0.3,0.1-0.2,0.1c0,0.1,0.3,0.2,0.3,0.3C69.3,60.3,70.5,59.9,70.3,59.2L70.3,59.2z" />
	</g>
</g>
<g
   id="XMLID_252_">
	<g
   id="XMLID_612_">
		<path
   id="XMLID_616_"
   d="M68.4,58.5c-0.4,0.4-0.5,0.8-0.5,1.4c0,0.3,0.3,0.6,0.6,0.6c0.4,0,0.6-0.3,0.6-0.6c0-0.2,0-0.4,0.2-0.5    C69.8,58.8,68.9,57.9,68.4,58.5L68.4,58.5z" />
	</g>
</g>
<g
   id="XMLID_253_">
	<g
   id="XMLID_605_">
		<path
   id="XMLID_610_"
   d="M99.9,67.2c-2.4-1-5.2-2.7-7.8-3.1C91,64,89.6,64,88.6,64.5c-1.1,0.5-1.6,1.9-2.7,2.4    c-0.7,0.3-0.4,1.5,0.3,1.2c0.8-0.3,1.2-0.9,1.8-1.5c1.4-1.3,2.8-1.5,4.6-1.1c2.2,0.5,4.8,2,6.9,2.8    C100.3,68.7,100.7,67.5,99.9,67.2L99.9,67.2z" />
	</g>
</g>
<g
   id="XMLID_256_">
	<g
   id="XMLID_598_">
		<path
   id="XMLID_603_"
   d="M86,68.3c3.1,0,5.9,1.6,9,1.9c2.2,0.3,3.4-0.7,5.2-1.3c0.7-0.3,0.4-1.5-0.3-1.2c-0.6,0.2-0.9,0.5-1.4,0.7    c-1.8,0.8-3.2,0.5-5.1,0.1c-2.4-0.5-4.8-1.4-7.2-1.4C85.2,67.1,85.2,68.3,86,68.3L86,68.3z" />
	</g>
</g>
<g
   id="XMLID_258_">
	<g
   id="XMLID_591_">
		<path
   id="XMLID_596_"
   d="M93.9,65.4c-0.4,0.5-0.7,1.1-0.6,1.7c0.1,0.7,0.5,1.5,1.1,1.8c0.3,0.1,0.6,0.2,0.9,0.2    c0.4,0,0.8,0.1,1.1,0c0.7-0.1,1-0.7,0.9-1.4c0-0.7-0.5-1.3-1-1.8c-0.4-0.4-1.1-1-1.7-0.6c-0.5,0.2-0.8,1-0.6,1.5    c0.3,0.6,1.1,0.4,1.5,0.1c0.5-0.5,0-1.2-0.6-1c-0.7,0.1-1,1.2-0.9,1.8c0.1,0.2,0.3,0.5,0.6,0.5c0.3,0,0.5-0.1,0.7-0.4    c0.1-0.1,0.1-0.2,0.2-0.3c0-0.1,0-0.1,0.1-0.2c0.1-0.2,0-0.2-0.3-0.1c0.5,0.6,1.6,0,1.1-0.6c-0.3-0.5-0.9-0.6-1.4-0.4    c-0.2,0.1-0.4,0.2-0.5,0.4c0,0.1-0.1,0.3-0.1,0.3c0,0.3-0.3,0,0.3,0c0.2,0.2,0.4,0.3,0.6,0.5c0,0.1,0.1-0.2,0.1-0.1    c0.1-0.2,0.2-0.1,0-0.1c-0.2-0.3-0.4-0.7-0.6-1c0,0,0.1,0,0.1,0c0.1,0.1,0.2,0.2,0.4,0.3c0,0,0,0.4,0.1,0.1c0.1-0.1,0.1-0.1-0.1,0    c-0.1,0-0.2,0.1-0.1,0.1c0.1,0.1,0.4,0.4,0.5,0.5c0.2,0.2,0.4,0.4,0.4,0.7c0.1,0.3,0,0.2-0.2,0.2c-0.5,0-0.9,0.1-1.2-0.5    c-0.2-0.4-0.2-0.8,0.1-1.2C95.3,65.7,94.4,64.8,93.9,65.4L93.9,65.4z" />
	</g>
</g>
<g
   id="XMLID_271_">
	<g
   id="XMLID_584_">
		<path
   id="XMLID_589_"
   d="M83.7,64.8c-0.1,1.3-0.8,2.5-1,3.8c-0.3,2,0,4.1-0.4,6.1c-0.3,1.5-0.9,3-1.1,4.5c-0.2,1.6,1,3.1-0.4,4.5    c-0.5,0.4-3.1,1.5-3.9,1.1c-0.9-0.4-1-1.7-1.7-2.3c-0.8-0.7-9-2.1-8.5-3.1c0.3-0.7-0.7-1.4-1.1-0.6c-2.2,4.5,5.4,3.6,6.9,4    c3,0.8,2.1,3.6,5.3,3.2c1.3-0.2,3.9-0.8,4.7-1.9c1.1-1.5-0.2-3.7,0.2-5.5c0.4-2.2,1-4.2,1.1-6.5c0.1-2.5,0.9-4.8,1.1-7.2    C85,64,83.8,64,83.7,64.8L83.7,64.8z" />
	</g>
</g>
<g
   id="XMLID_289_">
	<g
   id="XMLID_577_">
		<path
   id="XMLID_582_"
   d="M56.9,88c3.4,2.7,8.6,0.5,12.3,2.4c1.3,0.7,2.3,1.3,3.7,1.5c0.7,0.1,1.6-0.3,2.2-0.1    c0.9,0.3,1.1,0.9,1.9,1.3c0.8,0.5,1.1,0.7,2.1,1c0.8,0.3,1.1-0.9,0.3-1.2c-1.5-0.5-2.4-1.9-3.9-2.4c-1.1-0.3-2.4,0.2-3.6-0.2    c-0.8-0.3-1.6-0.9-2.3-1.3c-3.5-1.8-8.7,0.4-11.8-2C57.2,86.6,56.3,87.5,56.9,88L56.9,88z" />
	</g>
</g>
<g
   id="XMLID_306_">
	<g
   id="XMLID_571_">
		<path
   id="XMLID_575_"
   d="M78.7,93.4c-1.9,0.9-3.2,2.4-5,3.4c-3,1.6-7.8,2.1-10.9,0.3c-2.9-1.7-4-5.8-5-8.8    c-0.3-0.8-1.5-0.4-1.2,0.3c1.3,3.9,2.6,8.8,6.9,10.2c2.2,0.7,4.7,0.6,7,0.5c1.3-0.1,3.2-0.1,4.5-0.8c1.8-0.9,2.5-3.1,4.4-4    C80,94.1,79.4,93,78.7,93.4L78.7,93.4z" />
	</g>
</g>
<g
   id="XMLID_313_">
	<g
   id="XMLID_565_">
		<path
   id="XMLID_569_"
   d="M59.5,89.8c0.4,3,5.1,3.8,7.4,4.5c3.2,1,7,1.2,10.2,0c0.7-0.3,0.4-1.5-0.3-1.2c-2.4,1-5.4,1-7.9,0.5    c-1.8-0.4-7.7-1.6-8-3.8C60.7,89.1,59.4,89.1,59.5,89.8L59.5,89.8z" />
	</g>
</g>
<g
   id="XMLID_320_">
	<g
   id="XMLID_559_">
		<path
   id="XMLID_563_"
   d="M77.2,93.1c-1.2-0.3-2.1-1-3.3-1.3c-1.9-0.5-3.9-0.1-5.7-1.1c-2.9-1.6-4.6-2.1-8-2.3    c-0.8,0-0.8,1.2,0,1.3c2.1,0.1,4.2,0.1,6.1,1.2c0.9,0.5,1.6,1.4,2.7,1.7c1.2,0.4,2.9,0.1,4.2,0.4c1.3,0.3,2.4,1,3.7,1.3    C77.6,94.5,78,93.3,77.2,93.1L77.2,93.1z" />
	</g>
</g>
<g
   id="XMLID_327_">
	<g
   id="XMLID_553_">
		<path
   id="XMLID_557_"
   d="M61.9,89.8c-0.3,0.9,0.5,1.3,1.2,1.6c0.7,0.3,1.7,0.2,2.4,0.5c0.2,0.1,0.2-0.1,0.3,0    c0.1,0,0.1,0.3,0.2,0.4c1.5,1.1,1.5,1.1,3.5,1.2c2.1,0.1,3.8,1,5.8,0.3c0.8-0.3,0.4-1.5-0.3-1.2c-1.5,0.5-2.7-0.1-4.2-0.3    c-1.3-0.2-2.7,0.2-3.6-0.7c-0.3-0.3-0.3-0.7-0.7-1c-0.3-0.2-3.5-0.2-3.4-0.4C63.3,89.3,62.1,89,61.9,89.8L61.9,89.8z" />
	</g>
</g>
<g
   id="XMLID_334_">
	<g
   id="XMLID_547_">
		<path
   id="XMLID_551_"
   d="M60.9,91.8c0.9,0.3,1.5,0.3,2.4,0.4c1.2,0.2,2.2,1.1,3.4,1.2c1.2,0.2,2.3,0,3.5,0.4c1,0.3,2.2,0.2,3,0.5    c0.7,0.3,1.1-0.9,0.3-1.2c-0.6-0.2-0.4-0.1-1-0.2c-0.8-0.2-1.7-0.5-2.5-0.6c-0.9-0.2-1.9,0-2.8-0.1c-1.3-0.1-2.2-1.1-3.4-1.3    c-0.9-0.2-1.8-0.1-2.7-0.4C60.5,90.3,60.2,91.5,60.9,91.8L60.9,91.8z" />
	</g>
</g>
<g
   id="XMLID_341_">
	<g
   id="XMLID_540_">
		<path
   id="XMLID_545_"
   d="M76.2,60.3c-4.7-5.4-12.3-8.4-19.3-9.2c-0.8-0.1-0.8,1.2,0,1.3c6.6,0.7,13.9,3.8,18.4,8.8    C75.8,61.8,76.7,60.9,76.2,60.3L76.2,60.3z" />
	</g>
</g>
<g
   id="XMLID_348_">
	<g
   id="XMLID_533_">
		<path
   id="XMLID_538_"
   d="M89.9,63.9c4.4,0.8,8.9,2.9,13.3,1.8c0.8-0.2,0.4-1.4-0.3-1.2c-4.1,1-8.6-1.1-12.7-1.8    C89.5,62.5,89.1,63.7,89.9,63.9L89.9,63.9z" />
	</g>
</g>
<g
   id="XMLID_355_">
	<g
   id="XMLID_526_">
		<path
   id="XMLID_531_"
   d="M40.8,45.6c-1.4,0-2.7-0.1-3.9,0.7c-0.4,0.3-0.8,0.8-1.1,1.3c-0.3,0.8-0.2,1.2-0.1,2c0,0.8,1.3,0.8,1.3,0    c0-0.4-0.2-0.8-0.1-1.2c0.1-0.5,0.6-1,1-1.2c0.9-0.5,1.9-0.3,2.9-0.3C41.6,46.9,41.6,45.7,40.8,45.6L40.8,45.6z" />
	</g>
</g>
<g
   id="XMLID_362_">
	<g
   id="XMLID_519_">
		<path
   id="XMLID_524_"
   d="M40.2,46.4c-0.2,1-0.1,2.1-0.1,3.1c0,0.3,0.2,1.1,0.1,1.4c-0.2,0.5-0.5,0.4-0.9,0.7    c-1.8,1.5-0.4,3.4-0.5,5.2c0.3-0.2,0.6-0.4,0.9-0.5c-0.8-0.3-1.1-1.7-1.5-2.4c-0.4-0.7-1.2-1.4-1.6-2.2c-0.3-0.7-1.5-0.4-1.2,0.3    c0.5,1.1,1.4,1.9,1.9,3c0.4,0.9,0.7,2,1.7,2.4c0.4,0.2,0.9,0,0.9-0.5c0-0.9-0.7-2.1-0.5-3c0.3-1,1.4-1.3,1.8-2.1    c0.3-0.6,0-1.1,0-1.8c-0.1-1-0.1-2.3,0.1-3.3C41.6,46,40.4,45.6,40.2,46.4L40.2,46.4z" />
	</g>
</g>
<g
   id="XMLID_369_">
	<g
   id="XMLID_512_">
		<path
   id="XMLID_517_"
   d="M38.1,69.5c-3.7,1.1-5,3.8-5.7,7.4c-0.3,1.8,0.6,5.1-0.7,6.4c-1,1-5.4,1.8-6.6,2.2    c-4.9,1.5-9.9,3.9-15,4.4c-1.9,0.2-4.4-0.3-6.1,0.6c-1.4,0.7-2.3,2.1-3.7,2.9c-0.7,0.4-0.1,1.4,0.6,1.1c1.1-0.6,1.9-1.5,2.9-2.1    c2.6-1.6,5.5-1,8.4-1.5c4.5-0.8,8.9-2.8,13.2-4.2c1.9-0.6,6.4-1.1,7.7-2.9c0.8-1.1,0.3-2.8,0.3-4.1c0.1-3.6,0.9-7.8,5-9    C39.2,70.5,38.9,69.3,38.1,69.5L38.1,69.5z" />
	</g>
</g>
<g
   id="XMLID_376_">
	<g
   id="XMLID_505_">
		<path
   id="XMLID_510_"
   d="M94.9,86.9c3.5-1.8,8.9,0.4,12.6,0.8c3.9,0.4,6.9,1.2,10.2,3.2c2.8,1.7,6,2.9,8.7,4.7c2.8,1.8,5,4.8,8,6    c0.7,0.3,1.1-0.9,0.3-1.2c-1.9-0.8-4.1-3.2-5.7-4.4c-1.5-1.1-3-2-4.6-2.8c-3.3-1.6-6.4-3.9-9.8-5.3c-2.9-1.2-5.8-1.2-8.9-1.7    c-3.5-0.5-8.1-2.2-11.5-0.4C93.6,86.2,94.2,87.3,94.9,86.9L94.9,86.9z" />
	</g>
</g>
<g
   id="XMLID_171_">
	<g
   id="XMLID_498_">
		<path
   id="XMLID_503_"
   d="M73.6,31c-3.7,0.2-6.6,1.6-9.6,3.7c-1.5,1-2.9,2.2-4.1,3.6c-1.2,1.4-2,3.4-3.4,4.6    c-0.6,0.5,0.3,1.4,0.9,0.9c2.2-2,3.2-4.9,5.6-6.8c3.1-2.5,6.6-4.5,10.6-4.7C74.4,32.2,74.4,30.9,73.6,31L73.6,31z" />
	</g>
</g>
<g
   id="XMLID_240_">
	<g
   id="XMLID_490_">
		<path
   id="XMLID_495_"
   d="M73.4,32c-0.9,1.3-2.3,2.2-3.2,3.5c-1.1,1.5-2,3.3-2.7,5c-1.2,2.5-2,5.2-2.3,7.8c-0.1,0.8,1.2,0.8,1.3,0    c0.4-3.2,1.6-6.2,3.1-9c1.4-2.6,3.3-4.4,5-6.7C74.9,31.9,73.8,31.3,73.4,32L73.4,32z" />
	</g>
</g>
<g
   id="XMLID_255_">
	<g
   id="XMLID_479_">
		<path
   id="XMLID_488_"
   d="M73.8,32.3c0.1,1.3,0.4,2.5,0.3,3.8c-0.1,2.4-1.3,4.3-2.3,6.5c-1,2.2-1.7,4.5-1.7,6.9    c0,0.8,1.3,0.8,1.3,0c0-3.7,1.9-6.7,3.4-9.9c1.1-2.4,0.5-4.7,0.3-7.2C75,31.5,73.7,31.5,73.8,32.3L73.8,32.3z" />
	</g>
</g>
<g
   id="XMLID_266_">
	<g
   id="XMLID_471_">
		<path
   id="XMLID_477_"
   d="M74.5,32.7c3,3.3,4.6,6.1,4.2,10.7c-0.3,2.8-0.8,5.7-1.2,8.6c-0.1,0.8,1.1,1.1,1.2,0.3    c0.5-3.8,1.5-7.7,1.4-11.5c-0.1-3.9-2.2-6.2-4.7-9C74.8,31.2,73.9,32.1,74.5,32.7L74.5,32.7z" />
	</g>
</g>
<g
   id="XMLID_267_">
	<g
   id="XMLID_463_">
		<path
   id="XMLID_469_"
   d="M75.4,32.9c4,1.3,8.1,1.5,9.3,6.4c1,4,1.1,9,0.3,13c-0.2,0.8,1,1.1,1.2,0.3c0.9-4.5,1.1-10.7-0.7-15    c-1.7-4.3-5.8-4.6-9.8-5.9C75,31.4,74.7,32.6,75.4,32.9L75.4,32.9z" />
	</g>
</g>
<g
   id="XMLID_268_">
	<g
   id="XMLID_456_">
		<path
   id="XMLID_461_"
   d="M82.4,33.8c4.7,2.3,5.3,6,6.9,10.3c1.5,4.2,2.1,7.5,0.1,11.8c-0.3,0.7,0.7,1.4,1.1,0.6    c2.3-5,1.8-7.7,0-12.8c-1.8-5-2.4-8.7-7.4-11.1C82.3,32.4,81.7,33.5,82.4,33.8L82.4,33.8z" />
	</g>
</g>
<g
   id="XMLID_270_">
	<g
   id="XMLID_449_">
		<path
   id="XMLID_454_"
   d="M86.1,33.5c3.3,2,5,4.4,6.9,7.6c0.7,1.1,1.8,2.2,2.3,3.4c0.8,2,0.3,4.5-0.5,6.5c-0.3,0.7,0.8,1.4,1.1,0.6    c1.4-3.2,1.5-6.3-0.5-9.2c-2.8-4-4.4-7.5-8.7-10C86,32,85.4,33.1,86.1,33.5L86.1,33.5z" />
	</g>
</g>
<g
   id="XMLID_445_">
	<g
   id="XMLID_442_">
		<path
   id="XMLID_447_"
   d="M72.6,31.4c-6,2.9-11.6,7.8-13.6,14.4c-0.2,0.8,1,1.1,1.2,0.3c1.9-6.3,7.4-10.9,13-13.6    C74,32.1,73.3,31,72.6,31.4L72.6,31.4z" />
	</g>
</g>
<g
   id="XMLID_452_">
	<g
   id="XMLID_436_">
		<path
   id="XMLID_440_"
   d="M69.8,31.8c-0.7,2.9-2.8,5.1-3.5,8.1c-0.5,2.2-1.3,4.5-0.7,6.7c0.2,0.8,1.4,0.4,1.2-0.3    c-0.7-2.5,0.4-5.9,1.3-8.3c0.8-2.1,2.3-3.7,2.8-5.9C71.2,31.3,70,31,69.8,31.8L69.8,31.8z" />
	</g>
</g>
<g
   id="XMLID_459_">
	<g
   id="XMLID_425_">
		<path
   id="XMLID_434_"
   d="M75.5,33.8c0.9,6.3-1.1,12.5-1,18.8c0,0.8,1.3,0.8,1.3,0c-0.1-6.4,1.9-12.7,1-19.2    C76.6,32.6,75.4,33,75.5,33.8L75.5,33.8z" />
	</g>
</g>
<g
   id="XMLID_466_">
	<g
   id="XMLID_419_">
		<path
   id="XMLID_423_"
   d="M74.4,35.1c2.2,1.2,4.9,4.7,5.9,6.8c1.9,4.2,0.6,8.9-2.2,12.4c-0.5,0.6,0.4,1.5,0.9,0.9    c2.6-3.3,4.1-7.5,3.1-11.8c-0.8-3.4-4-7.8-7.1-9.4C74.4,33.7,73.7,34.8,74.4,35.1L74.4,35.1z" />
	</g>
</g>
<g
   id="XMLID_473_">
	<g
   id="XMLID_413_">
		<path
   id="XMLID_417_"
   d="M79.4,33.4C81.9,37.8,90.1,48,86.2,53c-0.5,0.6,0.6,1.3,1.1,0.6c1.7-2.2,1.1-5.6,0.2-8    c-1.6-4.4-4.7-8.7-7.1-12.8C80.1,32.1,79,32.7,79.4,33.4L79.4,33.4z" />
	</g>
</g>
<g
   id="XMLID_480_">
	<g
   id="XMLID_406_">
		<path
   id="XMLID_410_"
   d="M91,35.1c0,0.1,0.1,0.1,0.1,0.2c0,0.3,0.3,0.6,0.6,0.6c0.3,0,0.7-0.3,0.6-0.6c0-0.3-0.1-0.5-0.3-0.8    C91.7,33.8,90.6,34.4,91,35.1L91,35.1z" />
	</g>
</g>
<g
   id="XMLID_487_">
	<g
   id="XMLID_400_">
		<path
   id="XMLID_404_"
   d="M86.2,34.4c3.1,4.4,7.1,9.9,3.5,15.2c-0.5,0.7,0.6,1.3,1.1,0.6c3.9-5.8-0.1-11.6-3.5-16.5    C86.8,33.1,85.7,33.8,86.2,34.4L86.2,34.4z" />
	</g>
</g>
<g
   id="XMLID_494_">
	<g
   id="XMLID_393_">
		<path
   id="XMLID_398_"
   d="M89.4,34.9c2.9,4.2,6.1,12.2,4.1,17.2c-0.3,0.7,0.9,1.1,1.2,0.3c2.2-5.5-1-13.5-4.2-18.1    C90,33.6,88.9,34.2,89.4,34.9L89.4,34.9z" />
	</g>
</g>
<g
   id="XMLID_501_">
	<g
   id="XMLID_387_">
		<path
   id="XMLID_391_"
   d="M90.5,35.4c3.8,5.1,7.3,11,4.6,17.5c-0.3,0.7,0.9,1.1,1.2,0.3c2.8-6.9-0.7-13.1-4.7-18.5    C91.2,34.1,90.1,34.8,90.5,35.4L90.5,35.4z" />
	</g>
</g>
<g
   id="XMLID_508_">
	<g
   id="XMLID_381_">
		<path
   id="XMLID_385_"
   d="M62,33.8c1.8,5.2,3,11,3.3,16.5c0,0.8,1.3,0.8,1.3,0c-0.3-5.7-1.5-11.5-3.4-16.8    C62.9,32.7,61.7,33,62,33.8L62,33.8z" />
	</g>
</g>
<g
   id="XMLID_515_">
	<g
   id="XMLID_374_">
		<path
   id="XMLID_379_"
   d="M65.6,33.2c2.3,2.3,4.9,4.3,6.4,7.2c1.2,2.2,2.3,6.7,1,9.2c-0.4,0.7,0.7,1.3,1.1,0.6    c1.3-2.4,0.7-6.4-0.2-8.9c-1.5-3.8-4.6-6.2-7.4-9C66,31.7,65.1,32.6,65.6,33.2L65.6,33.2z" />
	</g>
</g>
<g
   id="XMLID_522_">
	<g
   id="XMLID_367_">
		<path
   id="XMLID_372_"
   d="M71.3,33.2c4.2,0.6,6.8,4.9,8.6,8.3c1.5,2.9,4.2,7.6,3,10.9c-0.3,0.7,0.9,1.1,1.2,0.3    c1.5-3.8-1.4-8.5-3.1-11.9c-1.9-3.8-4.8-8.3-9.3-8.9C70.8,31.9,70.5,33.1,71.3,33.2L71.3,33.2z" />
	</g>
</g>
<g
   id="XMLID_529_">
	<g
   id="XMLID_360_">
		<path
   id="XMLID_365_"
   d="M74.8,35c7.6,1.1,15.7,10.6,11.6,18.2c-0.4,0.7,0.7,1.3,1.1,0.6c4.5-8.4-3.9-18.9-12.4-20.1    C74.3,33.7,74,34.9,74.8,35L74.8,35z" />
	</g>
</g>
<g
   id="XMLID_536_">
	<g
   id="XMLID_353_">
		<path
   id="XMLID_358_"
   d="M84.3,36.2c3.6,1.4,5.9,3.3,7.8,6.7c1.2,2.1,3.1,8,1.4,10.1c-0.5,0.6,0.4,1.5,0.9,0.9    c1.9-2.4,0.5-8.2-0.7-10.7c-1.9-4.1-5.1-6.5-9.1-8.1C83.8,34.7,83.5,35.9,84.3,36.2L84.3,36.2z" />
	</g>
</g>
<g
   id="XMLID_543_">
	<g
   id="XMLID_345_">
		<path
   id="XMLID_351_"
   d="M88.6,34.8c6.7,4.2,8.6,10.5,7.2,18c-0.1,0.8,1.1,1.1,1.2,0.3c1.5-8.1-0.6-14.9-7.8-19.4    C88.6,33.3,87.9,34.4,88.6,34.8L88.6,34.8z" />
	</g>
</g>
<g
   id="XMLID_578_">
	<g
   id="XMLID_338_">
		<path
   id="XMLID_343_"
   d="M67.1,36.4c0,1.9-1.4,4.1-2,5.9c-0.7,2-1.1,4.2-1.5,6.3c-0.1,0.8,1.1,1.1,1.2,0.3    c0.4-2.3,0.9-4.7,1.7-6.8c0.7-1.9,1.8-3.7,1.8-5.7C68.4,35.6,67.1,35.6,67.1,36.4L67.1,36.4z" />
	</g>
</g>
<g
   id="XMLID_585_">
	<g
   id="XMLID_331_">
		<path
   id="XMLID_336_"
   d="M70.7,34.9c2.2,6-1.4,11.9-2,17.8c-0.1,0.8,1.2,0.8,1.3,0c0.6-6.1,4.2-11.9,2-18.2    C71.6,33.9,70.4,34.2,70.7,34.9L70.7,34.9z" />
	</g>
</g>
<g
   id="XMLID_592_">
	<g
   id="XMLID_324_">
		<path
   id="XMLID_329_"
   d="M74.8,36.3c2.3,5.9,1.9,14-0.5,19.8c-0.3,0.7,0.9,1.1,1.2,0.3c2.5-6.1,2.9-14.3,0.5-20.5    C75.7,35.2,74.5,35.5,74.8,36.3L74.8,36.3z" />
	</g>
</g>
<g
   id="XMLID_599_">
	<g
   id="XMLID_317_">
		<path
   id="XMLID_322_"
   d="M82.5,38.4c2.6,4.7,3.1,15-0.9,19.1c-0.6,0.6,0.3,1.5,0.9,0.9c4.5-4.6,4-15.2,1.1-20.6    C83.2,37.1,82.2,37.7,82.5,38.4L82.5,38.4z" />
	</g>
</g>
<g
   id="XMLID_606_">
	<g
   id="XMLID_310_">
		<path
   id="XMLID_315_"
   d="M92,36.7c1.5,2.9,2.7,5.6,3,8.9c0.3,3.5-0.8,6.2-2,9.5c-0.3,0.7,0.9,1.1,1.2,0.3c1.4-3.5,2.5-6.1,2.1-10    c-0.3-3.5-1.6-6.3-3.2-9.4C92.8,35.4,91.7,36,92,36.7L92,36.7z" />
	</g>
</g>
<g
   id="XMLID_627_">
	<g
   id="XMLID_303_">
		<path
   id="XMLID_308_"
   d="M90,39.9c-0.2,2.7-0.3,5.4-0.2,8.1c0.1,3.5,1.3,7-0.4,10.3c-0.4,0.7,0.7,1.4,1.1,0.6    c1.3-2.6,1.2-5.2,0.9-8c-0.4-3.6-0.4-7.3-0.1-10.9C91.3,39.1,90,39.1,90,39.9L90,39.9z" />
	</g>
</g>
<g
   id="XMLID_641_">
	<g
   id="XMLID_297_">
		<path
   id="XMLID_301_"
   d="M84,39.6c0.2,2.8,1.4,5.6,1.9,8.3c0.8,4.5,0.3,8.1-0.4,12.5c-0.1,0.8,1.1,1.1,1.2,0.3    c0.6-3.5,1.3-6.5,1-10.1c-0.4-3.7-2.2-7.3-2.5-11C85.2,38.8,83.9,38.8,84,39.6L84,39.6z" />
	</g>
</g>
<g
   id="XMLID_648_">
	<g
   id="XMLID_291_">
		<path
   id="XMLID_295_"
   d="M78.8,35.9c0.5,3.7,3.3,6.5,3.3,10.4c0.1,4.7-2.6,9.2-4.3,13.4c-0.3,0.7,0.9,1.1,1.2,0.3    c1.8-4.3,4.4-8.9,4.3-13.8c0-4-2.8-7-3.3-10.7C79.9,34.8,78.7,35.1,78.8,35.9L78.8,35.9z" />
	</g>
</g>
<g
   id="XMLID_350_">
	<g
   id="XMLID_283_">
		<path
   id="XMLID_288_"
   d="M72.6,35c0,0-1.1,3.9-1.1,4.2c-0.3,2.4,0.3,4.6,0.3,6.9c0,0.8,1.2,0.8,1.3,0c0.1-3.3-0.7-6.2,0.4-9.4    c0.3-0.9,0.9-2.2-0.2-2.8C72.5,33.5,71.9,34.6,72.6,35L72.6,35z" />
	</g>
</g>
<g
   id="XMLID_397_">
	<g
   id="XMLID_276_">
		<path
   id="XMLID_280_"
   d="M76.2,34.4c0.4,1.2-0.5,3-0.7,4.2c-0.3,1.6-0.5,3.2-0.6,4.8c-0.1,3.7-0.2,7,1.4,10.3    c0.3,0.7,1.4,0.1,1.1-0.6c-1.9-4-1.6-9.4-0.8-13.7c0.3-1.7,1.4-3.6,0.8-5.3C77.1,33.3,75.9,33.7,76.2,34.4L76.2,34.4z" />
	</g>
</g>
<g
   id="XMLID_433_">
	<g
   id="XMLID_264_">
		<path
   id="XMLID_273_"
   d="M79.8,34.3c0.4,5.4-0.1,10.7,0,16c0,2.1,0.3,4.1,0.4,6.2c0,1.4-0.3,3,0.2,4.4c0.3,0.7,1.5,0.4,1.2-0.3    c-0.6-1.7,0-4-0.1-5.8C81.3,52.8,81,51,81,49c0-4.9,0.4-9.8,0-14.7C81,33.5,79.7,33.5,79.8,34.3L79.8,34.3z" />
	</g>
</g>
<g
   id="XMLID_467_">
	<g
   id="XMLID_257_">
		<path
   id="XMLID_262_"
   d="M82.3,36.8c0.8,4.2,1.5,8.3,1.5,12.6c0,2.4,0.3,5.9-0.6,8.2c-0.3,0.7,0.9,1.1,1.2,0.3    c1-2.4,0.7-5.9,0.7-8.5c0-4.5-0.7-8.6-1.5-13C83.4,35.6,82.2,36,82.3,36.8L82.3,36.8z" />
	</g>
</g>
<g
   id="XMLID_474_">
	<g
   id="XMLID_246_">
		<path
   id="XMLID_250_"
   d="M68.5,36.6c-0.7,4.3-2.7,8.1-2.7,12.5c0,0.8,1.2,0.8,1.3,0c0-4.3,2-8,2.6-12.2    C69.8,36.1,68.6,35.8,68.5,36.6L68.5,36.6z" />
	</g>
</g>
<g
   id="XMLID_481_">
	<g
   id="XMLID_235_">
		<path
   id="XMLID_244_"
   d="M79.7,32.9c2.2,4.4,2.4,7.6,1.3,12.3c-0.7,2.8-0.8,5.4-0.8,8.3c0,0.8,1.2,0.8,1.3,0    c0-4.3,1.4-8.1,1.7-12.3c0.3-3.3-0.8-6.1-2.3-9C80.4,31.6,79.3,32.2,79.7,32.9L79.7,32.9z" />
	</g>
</g>
<g
   id="XMLID_486_">
	<g
   id="XMLID_229_">
		<path
   id="XMLID_233_"
   d="M31.9,86.4c0.1-0.6,0.7-1.1,0.9-1.7c0.2-0.6,0.4-1.4,0.4-2.1c0-0.8-1.2-0.8-1.2,0c0,0.7-0.2,1.6-0.6,2.2    c-0.4,0.6-0.7,1-0.7,1.7C30.5,87.2,31.8,87.2,31.9,86.4L31.9,86.4z" />
	</g>
</g>
<g
   id="XMLID_673_">
	<g
   id="XMLID_223_">
		<path
   id="XMLID_227_"
   d="M47.5,32.5c1.4,1.4,1.7,3.4,3,4.9c1.2,1.3,3,2.2,4.6,2.8c0.8,0.3,1.1-0.9,0.3-1.2    c-1.7-0.6-3.8-1.8-4.7-3.5c-0.7-1.3-1.2-2.8-2.3-3.9C47.8,31.1,46.9,32,47.5,32.5L47.5,32.5z" />
	</g>
</g>
<g
   id="XMLID_680_">
	<g
   id="XMLID_217_">
		<path
   id="XMLID_221_"
   d="M56,39.3c-0.8-2.4,1-5.1,1.4-7.4c0.4-1.8,0.4-3.9,1.1-5.6c0.3-0.8-0.9-1.1-1.2-0.3    c-0.8,2.2-0.7,4.9-1.5,7.1c-0.7,2.2-1.8,4.2-1,6.5C55.1,40.4,56.3,40,56,39.3L56,39.3z" />
	</g>
</g>
<g
   id="XMLID_694_">
	<g
   id="XMLID_211_">
		<path
   id="XMLID_215_"
   d="M57.8,25.5c-2.2,0-4.2,0.6-6.2,1.4c-1.7,0.7-4,1.6-5.4,2.9c-0.6,0.6,0.3,1.4,0.9,0.9    c1.2-1.2,3.3-2,4.9-2.6c1.9-0.8,3.7-1.4,5.8-1.4C58.6,26.7,58.6,25.5,57.8,25.5L57.8,25.5z" />
	</g>
</g>
<g
   id="XMLID_711_">
	<g
   id="XMLID_205_">
		<path
   id="XMLID_209_"
   d="M45.8,30.9c0.3,0.3,0.6,0.4,0.9,0.6c0.3,0.2,0.5,0.6,0.7,0.9c0.5,0.6,1.4-0.3,0.9-0.9    c-0.3-0.3-0.4-0.7-0.7-0.9c-0.3-0.2-0.7-0.3-0.9-0.6C46.1,29.4,45.3,30.3,45.8,30.9L45.8,30.9z" />
	</g>
</g>
<g
   id="XMLID_718_">
	<g
   id="XMLID_199_">
		<path
   id="XMLID_203_"
   d="M105.8,38.8c-0.7,3.8-1.6,7.5-1.5,11.3c0,0.8,1.3,0.8,1.3,0c0-3.6,0.8-7.4,1.5-11    C107.2,38.3,106,38,105.8,38.8L105.8,38.8z" />
	</g>
</g>
<g
   id="XMLID_725_">
	<g
   id="XMLID_193_">
		<path
   id="XMLID_197_"
   d="M105.2,51c1.3-0.8,2-2.2,3-3.3c0.6-0.6-0.3-1.5-0.9-0.9c-0.9,1-1.5,2.4-2.7,3.1    C103.9,50.3,104.5,51.4,105.2,51L105.2,51z" />
	</g>
</g>
<g
   id="XMLID_732_">
	<g
   id="XMLID_187_">
		<path
   id="XMLID_191_"
   d="M105.8,39.4c0.5,0.5,0.7,1.1,1.2,1.6c0.2,0.2,0.3,0.4,0.4,0.7c0.1,0.3,0.2,0.5,0.4,0.7    c0.6,0.5,1.5-0.4,0.9-0.9c-0.2-0.1-0.1-0.4-0.2-0.6c-0.1-0.3-0.4-0.5-0.6-0.8c-0.4-0.5-0.6-1.1-1.2-1.6    C106.1,37.9,105.2,38.8,105.8,39.4L105.8,39.4z" />
	</g>
</g>
<g
   id="XMLID_739_">
	<g
   id="XMLID_181_">
		<path
   id="XMLID_185_"
   d="M53.5,45.4c-0.3,2.8-1.7,5.3-2.4,8c-0.5,2.1-0.9,3.9-1.1,6c-0.1,0.8,1.2,0.8,1.3,0    c0.2-2.5,0.7-4.9,1.5-7.3c0.7-2.3,1.7-4.3,2-6.7C54.8,44.6,53.6,44.6,53.5,45.4L53.5,45.4z" />
	</g>
</g>
<g
   id="XMLID_746_">
	<g
   id="XMLID_175_">
		<path
   id="XMLID_179_"
   d="M50.3,58.5c-3.5,1.2-9.4-0.8-12.7-1.8c-4.1-1.2-8.8-2.7-11.9-5.8c-2.4-2.3-4-6.2-2.8-9.5    c0.6-1.6,3.3-3,4.7-3.8c5-2.7,9.5-2.3,14.8-2.4c0.8,0,0.8-1.3,0-1.3c-6.9,0.2-11.8,0.1-17.7,3.9c-3.5,2.2-4.7,5.6-3,9.4    c2.3,5,6.9,7.7,11.9,9.5c4.6,1.6,12.2,4.6,17,3C51.3,59.4,51,58.2,50.3,58.5L50.3,58.5z" />
	</g>
</g>
<g
   id="XMLID_753_">
	<g
   id="XMLID_168_">
		<path
   id="XMLID_173_"
   d="M54.1,44.5c-6-0.2-12.7-2.7-18.2-5.1c-3.8-1.6-6.6-4.9-3.7-8.9c3-4.2,9.5-4,14.1-4c0.8,0,0.8-1.2,0-1.3    c-4.2,0-10.7-0.3-13.9,2.9c-2.3,2.2-3.8,5.8-2.1,8.8c1.9,3.2,6.6,4.1,9.8,5.2c4.6,1.6,9,3.4,14,3.6C54.9,45.8,54.9,44.5,54.1,44.5    L54.1,44.5z" />
	</g>
</g>
<g
   id="XMLID_760_">
	<g
   id="XMLID_162_">
		<path
   id="XMLID_166_"
   d="M107.5,63.1c1.1,1.9-0.1,5.5-0.5,7.3c-0.6,2.7,0.2,5,0.1,7.7c0,0.8,1.2,0.8,1.3,0    c0.1-1.8-0.5-3.5-0.5-5.2c0-1.6,0.7-3.1,1-4.6c0.3-1.7,0.7-4.2-0.2-5.8C108.2,61.8,107.1,62.4,107.5,63.1L107.5,63.1z" />
	</g>
</g>
<g
   id="XMLID_767_">
	<g
   id="XMLID_156_">
		<path
   id="XMLID_160_"
   d="M107.8,78.7c1.5,0.5,2.9-0.1,4.3-0.7c2.7-1.2,5.3-2.7,8.1-4c5.3-2.4,8.7-5,9.4-11    c1.4-11.5-10.2-16.7-19.4-19.3c-0.8-0.2-1.1,1-0.3,1.2c8,2.2,18,6.3,18.6,15.8c0.4,6.9-4.5,10.2-10.1,12.7    c-2.5,1.1-7.4,5-10.2,4.1C107.3,77.2,107,78.5,107.8,78.7L107.8,78.7z" />
	</g>
</g>
<g
   id="XMLID_774_">
	<g
   id="XMLID_150_">
		<path
   id="XMLID_154_"
   d="M108.5,62.7c2.5-3.5,5.1-3.1,8.3-4.7c1.9-0.9,3.6-2.3,5.2-3.7c3.1-2.8,5.3-6.4,5.4-10.7    c0.2-9.5-11.6-14.5-19.6-15.1c-0.8-0.1-0.8,1.2,0,1.3c10.2,0.8,23.7,9.3,16.1,20.6c-2.6,3.8-6.4,6.2-10.7,7.5    c-3,0.9-4,1.9-5.8,4.3C106.9,62.8,108,63.4,108.5,62.7L108.5,62.7z" />
	</g>
</g>
<g
   id="XMLID_781_">
	<g
   id="XMLID_144_">
		<path
   id="XMLID_148_"
   d="M30.7,29.4c-0.3,0.8-1.3,1.7-1.8,2.4c-0.7,1-1.3,2-2,3c-1.5,2.2-3.5,3.9-5.2,5.9    c-0.5,0.6,0.4,1.5,0.9,0.9c1.8-2.1,3.9-3.9,5.4-6.2c0.8-1.1,1.4-2.3,2.3-3.4c0.6-0.8,1.4-1.4,1.7-2.4C32.1,29,30.9,28.7,30.7,29.4    L30.7,29.4z" />
	</g>
</g>
<g
   id="XMLID_788_">
	<g
   id="XMLID_138_">
		<path
   id="XMLID_142_"
   d="M126.2,43.7c1.6,2.2,1.4,7,1.4,9.7c0.1,2.8-0.2,5.4,0.8,8.1c0.3,0.7,1.5,0.4,1.2-0.3    c-1.2-3.3-0.5-6.5-0.8-9.8c-0.3-2.6,0.1-6.1-1.5-8.3C126.8,42.5,125.7,43.1,126.2,43.7L126.2,43.7z" />
	</g>
</g>
<g
   id="XMLID_412_">
	<g
   id="XMLID_132_">
		<path
   id="XMLID_136_"
   d="M42.6,91.5c-4.8,0.1-11.9-2.4-16.3-0.3c-1,0.5-3.7,3.6-4.9,3.9c-0.7,0.2-2,0.1-2.8,0.1    c-2.1,0.1-4.2,0-6.3,0.1c-3.4,0.1-6.8,0.5-10.2,0.8c-0.8,0.1-0.8,1.3,0,1.3c3.2-0.3,6.5-0.6,9.7-0.7c3.7-0.2,8.9,0.7,12.4-0.9    c0.9-0.5,1.5-1.1,2.3-1.8c1.6-1.5,1.9-2,4.6-1.9c3.8,0.1,7.7,0.8,11.5,0.7C43.4,92.7,43.4,91.5,42.6,91.5L42.6,91.5z" />
	</g>
</g>
<g
   id="XMLID_427_">
	<g
   id="XMLID_126_">
		<path
   id="XMLID_130_"
   d="M90.4,91c4,0.6,7.6,2,11.7,2c2.6,0,4.5-0.3,6.6,1.5c1.6,1.4,2.5,3.1,4.3,4.3c3.1,2,6.1,1.4,9.6,2    c4.2,0.7,8.4,2.6,12.7,2.5c0.8,0,0.8-1.3,0-1.3c-4.5,0-8.8-2.1-13.3-2.7c-1.8-0.2-3.6,0-5.3-0.4c-2.9-0.7-4.5-2.6-6.4-4.7    c-2-2.2-2.9-2.6-5.9-2.5c-4.8,0-8.9-1.3-13.6-2C90,89.7,89.6,90.9,90.4,91L90.4,91z" />
	</g>
</g>
<g
   id="XMLID_428_">
	<g
   id="XMLID_120_">
		<path
   id="XMLID_124_"
   d="M84.4,97.3c3.9,1.7,8.6,1.3,12.7,2.5c3.7,1.1,6.8,1.8,9.1,5.1c1,1.4,1.5,2.5,2.9,3.6    c3.3,2.6,7.1,2.3,11.1,2.4c2.9,0,5.2,0,7.8,1.3c2,1,3.7,1.6,5.9,2.3c0.8,0.3,1.1-1,0.3-1.2c-3.7-1.2-6.7-3.4-10.7-3.7    c-6.4-0.4-12.1,0.7-16.2-5.3c-2-2.9-4.3-4.2-7.6-5.1c-2.3-0.6-4.6-1.4-7-1.9c-2.4-0.4-5.4-0.2-7.7-1.1    C84.3,95.9,83.7,97,84.4,97.3L84.4,97.3z" />
	</g>
</g>
<g
   id="XMLID_429_">
	<g
   id="XMLID_114_">
		<path
   id="XMLID_118_"
   d="M76.4,104.9c5.8,0.6,10,4.3,15.5,5.8c2.5,0.7,5.1,1.1,7.5,2c3,1.1,5.2,3.6,7.3,5.9c1.8,2,4.1,5.8,7,6    c3.1,0.2,6.6-1,9.8-1.1c3.1,0,6.2,0.7,9.3,0.7c0.8,0,0.8-1.3,0-1.3c-3.2,0-6.1-0.7-9.3-0.7c-2.7,0.1-6.6,1.3-9.2,0.9    c-4.6-0.7-7.2-7.1-10.7-9.8c-3.9-3-9.4-2.8-13.8-4.6c-4.7-1.9-8.1-4.5-13.3-5.1C75.6,103.6,75.6,104.8,76.4,104.9L76.4,104.9z" />
	</g>
</g>
<g
   id="XMLID_430_">
	<g
   id="XMLID_108_">
		<path
   id="XMLID_112_"
   d="M132.8,124.4c0.4,0,0.8,0,1.3,0c0.4,0,0.7-0.1,1.1-0.2c0.8-0.1,0.5-1.3-0.3-1.2c-0.3,0-0.6,0.1-0.9,0.1    c-0.4,0-0.7,0-1.1,0C131.9,123.1,131.9,124.4,132.8,124.4L132.8,124.4z" />
	</g>
</g>
<g
   id="XMLID_482_">
	<g
   id="XMLID_102_">
		<path
   id="XMLID_106_"
   d="M70.3,108.9c2.5,2.9,7.3,4.4,10.8,5.9c2.9,1.2,5.8,2,8.8,2.8c4.3,1.1,6.3,3.7,9.2,6.7    c3.4,3.6,7.1,6.1,11.9,7.4c2.5,0.7,5.3,1.7,7.9,2c2.4,0.2,4.4-0.5,6.7-0.8c0.8-0.1,0.5-1.3-0.3-1.2c-3.7,0.5-5.9,0.9-9.6,0    c-2-0.5-4.1-0.9-6-1.6c-6.2-2.1-9-7-13.5-11.1c-3-2.7-7.2-2.7-10.9-4c-2.5-0.9-4.7-2-7-3.1c-2.3-1.1-5.2-1.8-7-3.9    C70.7,107.4,69.8,108.3,70.3,108.9L70.3,108.9z" />
	</g>
</g>
<g
   id="XMLID_497_">
	<g
   id="XMLID_96_">
		<path
   id="XMLID_100_"
   d="M44.4,96.6c-8.3,0.2-12.6,4.1-17.1,10.7c-2,2.9-3.9,5.1-7.6,5.4c-2.1,0.2-4.6-0.5-6.8-0.6    c-4-0.2-7.8,0.1-11.7,0.8c-0.8,0.2-0.5,1.4,0.3,1.2c4.5-0.9,9-1,13.6-0.7c3.2,0.2,7.1,1.7,9.8-0.6c2-1.7,3.1-4.6,4.7-6.8    c3.9-5.4,8-8.2,14.8-8.3C45.2,97.9,45.2,96.6,44.4,96.6L44.4,96.6z" />
	</g>
</g>
<g
   id="XMLID_655_">
	<g
   id="XMLID_90_">
		<path
   id="XMLID_94_"
   d="M54.7,106.8c-2.4,7-9.2,6-15,7.6c-4,1.1-7.4,2.6-10.8,4.9c-2.5,1.7-4.2,3.9-7.5,4.4c-2.3,0.3-4.9,0-7.2,0    c-4.6,0-9.1-0.9-13.7-1c-0.8,0-0.8,1.2,0,1.3c5.7,0.1,11.3,1,17.1,1c2.3,0,4.7,0.3,6.9-0.7c2.2-1,3.9-3,5.8-4.3    c5.2-3.5,10.6-4.2,16.6-5.3c4.2-0.7,7.6-3.3,9-7.4C56.1,106.3,54.9,106,54.7,106.8L54.7,106.8z" />
	</g>
</g>
<g
   id="XMLID_674_">
	<g
   id="XMLID_84_">
		<path
   id="XMLID_88_"
   d="M61.2,110c-1.6,3-3.4,7.3-6.2,9.1c-4.2,2.7-9.3,1.1-13.7,2.8c-2.4,0.9-3.9,2.4-5.9,4    c-3,2.4-8.1,7.7-12.2,6.8c-0.8-0.2-1.1,1-0.3,1.2c3.3,0.7,5.8-1.4,8.5-3.3c4.1-3,8.2-7.6,13.5-8.2c3.8-0.4,8.5-0.2,11.8-2.6    c2.6-2,4.3-6.4,5.8-9.2C62.7,109.9,61.6,109.2,61.2,110L61.2,110z" />
	</g>
</g>
<g
   id="XMLID_682_">
	<g
   id="XMLID_78_">
		<path
   id="XMLID_82_"
   d="M66.8,110.6c0.8,3.2,1.4,6.6,3.7,9.1c2.4,2.6,5.9,3.3,9.1,4.4c2.4,0.8,4.3,1.4,6.1,3.9    c0.4,0.6,0.6,1.4,1,1.9c0.7,0.7,1.1,0.9,2,1.2c3,1.3,6.6,2.3,9.7,3.4c0.8,0.3,1.1-0.9,0.3-1.2c-2.3-0.8-4.6-1.9-7-2.7    c-2.5-0.8-3.3-1.3-5-3.3c-0.8-1-0.9-1.6-2-2.4c-3-2.3-7.3-2.2-10.6-4c-4.3-2.4-5.1-6.1-6.2-10.5C67.8,109.5,66.6,109.8,66.8,110.6    L66.8,110.6z" />
	</g>
</g>
<g
   id="XMLID_697_">
	<g
   id="XMLID_72_">
		<path
   id="XMLID_76_"
   d="M63.3,110.6c-0.7,5.1-3.8,14.2-9.1,15.9c-1.9,0.6-2.3,0.4-3.3,2.1c-0.6,1-0.3,2.9-1,3.8    c-0.4,0.6-1.6,1.1-2.4,1.6c-0.7,0.4,0,1.5,0.6,1.1c1.4-0.9,2.2-0.8,2.9-2.2c0.1-0.2,0.4-1.8,0.5-2c0.7-1.8,1.7-2.6,3.4-3.4    c0.9-0.4,1.9-0.5,2.8-1.2c2-1.6,3-5,4.2-7.3c1.3-2.5,2.2-5.4,2.6-8.2C64.6,110.1,63.4,109.8,63.3,110.6L63.3,110.6z" />
	</g>
</g>
<g
   id="XMLID_715_">
	<g
   id="XMLID_66_">
		<path
   id="XMLID_70_"
   d="M65.3,110.3c-0.6,5.7-1.7,9.7,1.5,14.9c2.6,4.2,7.3,6.2,9.4,10.6c0.3,0.7,1.4,0.1,1.1-0.6    c-0.8-1.6-1-2.9-2.4-4.1c-1.5-1.2-3.1-2.1-4.4-3.6c-2.4-2.5-4.6-5.7-4.9-9.3c-0.3-2.7,0.7-5.3,1-8    C66.6,109.5,65.4,109.5,65.3,110.3L65.3,110.3z" />
	</g>
</g>
<g
   id="XMLID_723_">
	<g
   id="XMLID_60_">
		<path
   id="XMLID_64_"
   d="M62,67.9c-0.3,1.2-0.6,3.3-1.3,4.3c-0.8,1.1-0.1,0.6-1,0.4c-0.4-0.1-1-0.3-1.4-0.5    c-2.5-0.7-4.8-1.2-7.3-2.2c-0.7-0.3-1.1,0.9-0.3,1.2c1.4,0.6,2.7,1.2,4.2,1.6c1,0.2,2.1,0.4,3.1,0.6c0.7,0.2,1.4,0.7,2.1,0.8    c2.2,0.4,2.8-4.4,3.2-5.9C63.4,67.5,62.2,67.1,62,67.9L62,67.9z" />
	</g>
</g>
<g
   id="XMLID_731_">
	<g
   id="XMLID_54_">
		<path
   id="XMLID_58_"
   d="M51,70.6c0.1-0.2,0.3-0.4,0.3-0.7c0.1-0.3,0.1-0.6,0.2-0.9c0.1-0.5-0.1-1-0.6-1.3    c-0.7-0.4-1.4-0.3-2.2-0.3c-0.6,0-1.2-0.2-1.6,0.4c-0.4,0.5-0.6,1.4-0.7,2c-0.1,0.7,0,1.3,0.5,1.7c0.5,0.4,1.1,0.5,1.7,0.5    c0.3,0,0.6,0,0.9-0.1c0.3-0.1,0.6-0.4,0.9-0.4c0.8-0.1,0.5-1.3-0.3-1.2c-0.7,0.1-1.1,0.6-1.9,0.5c-0.6-0.1-0.7-0.4-0.6-0.9    c0.1-0.3,0.2-1,0.4-1.2c0,0,0,0-0.1-0.1c0.1,0,0.2,0,0.3,0c0.1,0,0.3,0,0.4,0c0.4,0,1-0.2,1.3,0c0.4,0.2,0.1,0,0.2,0.3    c0,0.1,0,0.4-0.1,0.5c-0.1,0.3-0.3,0.5-0.4,0.8C49.6,71,50.8,71.4,51,70.6L51,70.6z" />
	</g>
</g>
<g
   id="XMLID_742_">
	<g
   id="XMLID_48_">
		<path
   id="XMLID_52_"
   d="M52.7,72.3c-1.4,2.3-0.6,5.2-3.8,6.2c-1,0.3-2.7,0-3.5,0.9c-0.4,0.5-0.6,2-0.4,2.6    c0.1,0.4,0.6,0.5,0.7,0.8c0.5,0.9,0.1,0.6,0,1.7c-0.1,1.4,1.7,2.7,3,1.7c1.6-1.2,0.9-3.8-0.8-4.3c-0.8-0.2-1.1,1-0.3,1.2    c1.7,0.4,0.2,2.7-0.5,1.1c0-0.1,0.5-1,0.5-1.2c0-0.2,0-0.5-0.2-0.6c-3.4-2.7,1.7-2.4,3.3-3.3c2.3-1.5,1.8-4.2,3.1-6.3    C54.2,72.2,53.1,71.6,52.7,72.3L52.7,72.3z" />
	</g>
</g>
<g
   id="XMLID_816_">
	<g
   id="XMLID_42_">
		<path
   id="XMLID_46_"
   d="M57.7,72.3c0-0.8,0-1.6,0.1-2.3c0.2-0.7,0.5-1.3,0.8-2c0.1-0.3,0.2-0.6,0.1-0.9c-0.3-1.1-1.6-1-2.4-1.6    c-1-0.8-0.8-1.5,0-2.3c0.7-0.7,0.3-0.3,1.1-0.4c0.8-0.1,1.4,0,1.8-1c0.8-1.9-1.5-3.6-3.3-3.3c-1.9,0.3-2.2,2.6-0.7,3.6    c0.7,0.5,1.3-0.6,0.6-1.1c0.6-0.3,1.1-0.6,1.7-0.8c-0.1,0.4-0.3,0.8-0.4,1.3c-0.1,0.1-0.5-0.3-0.7-0.2c-0.3,0.2-0.5,0.1-0.8,0.3    c-0.6,0.5-1.5,2.8-1.4,3.6c0.1,1.1,0.9,1.2,1.8,1.6c1.5,0.6,1.2,0.8,0.9,2.1c-0.4,1.3-0.5,2.1-0.5,3.5    C56.5,73.1,57.7,73.1,57.7,72.3L57.7,72.3z" />
	</g>
</g>
<g
   id="XMLID_851_">
	<g
   id="XMLID_36_">
		<path
   id="XMLID_40_"
   d="M91.6,76.1c-0.1,3.9-2.3,7.5-4.2,10.7c-0.6,1-0.7,1.4-2.1,1.9c-0.4,0.1-0.8-0.2-1.2,0.1    c-0.6,0.4-1.7,1.1-1.8,1.9c-0.2,1.4,1,1.8,2.3,1.8c2,0,2.9-0.9,3-2.8c0-0.8-1.2-0.8-1.3,0c-0.6,1.5-1.5,1.9-2.7,1.4    c0.7-0.8,1.6-1.2,2.6-1c0.1-0.1,0.3-0.1,0.4-0.2c1.2-0.5,2-2.5,2.6-3.5c1.8-3.1,3.6-6.4,3.7-10.2C92.9,75.3,91.7,75.3,91.6,76.1    L91.6,76.1z" />
	</g>
</g>
<g
   id="XMLID_858_">
	<g
   id="XMLID_30_">
		<path
   id="XMLID_34_"
   d="M87.3,78.9c-0.4,1.2-3.8,4.5-1.1,5c1.6,0.3,3.3,0.1,4.9,0.2c1.4,0.1,2.6,0.7,3.9,0.1    c0.7-0.3,0.1-1.4-0.6-1.1c-0.9,0.4-2.3-0.2-3.3-0.2c-1.3,0-2.6,0.1-3.9-0.1c-0.9-0.1-0.7-0.1-0.3-0.9c0.4-0.9,1.2-1.6,1.5-2.6    C88.8,78.5,87.6,78.2,87.3,78.9L87.3,78.9z" />
	</g>
</g>
<g
   id="XMLID_865_">
	<g
   id="XMLID_24_">
		<path
   id="XMLID_28_"
   d="M87.3,78.3c-0.5,0-1.6-0.1-0.9-0.9c0.4-0.5,1.2-0.3,1.7-0.1c0.7,0.3,0.7,0.7,1,1.3    c0.1,0.1,0.1,0.2,0.2,0.3c0.1,0.2,0.1,0.2,0.1-0.1c-0.2,0-0.4,0.1-0.6,0.1c-0.8,0-0.8,1.2,0,1.3c0.9,0,2.2-0.5,1.6-1.7    c-0.3-0.6-0.5-1.2-0.9-1.7c-0.5-0.4-1.1-0.8-1.7-0.9c-1.2-0.2-2.6,0.4-2.7,1.7c-0.1,1.5,1,2,2.3,2C88.1,79.6,88.1,78.3,87.3,78.3    L87.3,78.3z" />
	</g>
</g>
<g
   id="XMLID_872_">
	<g
   id="XMLID_18_">
		<path
   id="XMLID_22_"
   d="M91.6,76.5c1,0.6,2,0.7,3.1,0.9c0.8,0.1,1.6,0,2-0.7c0.3-0.5,0.1-2.8,0.4-2.8c0,0,0.7,0.5,0.9,0.6    c0.6,0.2,1.2,0.3,1.8,0.3c0.8,0,0.8-1.2,0-1.3c-1.2-0.1-2.1-1.2-3.3-1c-0.2,0-0.4,0.2-0.4,0.4c-0.1,0.5-0.2,0.9-0.3,1.4    c0,0.3,0.1,0.9,0,1.1c-0.4,0.8-2.7,0.3-3.4-0.1C91.6,75,90.9,76,91.6,76.5L91.6,76.5z" />
	</g>
</g>
<path
   id="XMLID_879_"
   class="st4"
   d="M14.8,5.4c-0.2,0.2-0.6,0.3-0.8,0.5c-0.3,0.2-0.4,0.4-0.7,0.6c-0.6,0.4-1.3,0.8-1.9,1.2  c-0.6,0.4-1.2,0.9-1.7,1.3C9.1,9.6,8.5,10,7.9,10.4c-0.5,0.4-0.9,0.8-1.3,1.2c-0.5,0.4-1.1,0.7-1.5,1.1c-0.5,0.5-0.8,1.1-1.4,1.5  c-0.2,0.2-1.1,0.6-1.1,0.8c0.4,0.3,1.2,0.5,1.7,0.7c0.4,0.2,0.9,0.3,1.3,0.6c0.2,0.1,0.3,0.4,0.5,0.5c0.2,0.1,0.4,0.2,0.6,0.3  c0.5,0.3,1,0.9,1.5,1.4c0.5,0.4,0.9,0.6,1.5,0.8c0.4,0.1,1,0.3,1.2,0.6c0.4,0.5,0.1,1-0.2,1.5c-0.2,0.3-0.3,0.7-0.5,1  c-0.2,0.4-0.5,0.7-0.8,1.1c-0.2,0.3-0.2,0.6-0.4,0.9c-0.2,0.3-0.4,0.6-0.6,0.8c-0.4,0.5-0.8,1-1,1.5c-0.3,0.6-0.6,1.1-0.8,1.7  c-0.1,0.2-0.2,0.4-0.3,0.7c-0.1,0.3-0.2,0.5-0.4,0.8c-0.6,1.2,1.8,1.7,2.6,1.9c0.8,0.2,1.1,0.4,1.7,1c0.5,0.5,0.7,1.2,1.2,1.7  c0.3,0.3,0.7,1.1,1.1,1.3c0.5,0.2,0.8-0.5,1-0.9c0.4-0.6,1-1,1.5-1.4c0.5-0.5,1-0.9,1.7-1c1-0.3,2.5-0.5,3.1-1.5  c0.2-0.4,0.6-1,0.7-1.5c0.1-0.3-0.1-0.7-0.3-1c-0.2-0.4-0.3-0.7-0.4-1.1c-0.2-0.6-0.3-1.3-0.4-1.9c-0.1-0.5-0.1-1-0.1-1.5  c0-0.4-0.2-0.8-0.4-1.2c-0.2-0.7-0.5-1.3-0.7-2c-0.1-0.4-0.2-0.9-0.1-1.3c0.1-0.6,0.6-0.8,1-1.2c1-0.8,2.1-1.1,3.1-1.8  c0.7-0.5,1.4-1,2.2-1.5c0.4-0.3,1-1,0.9-1.5c-0.1-0.6-0.6-1-1-1.3c-0.2-0.2-0.4-0.4-0.6-0.6c-0.3-0.2-0.7-0.3-0.9-0.6  c-0.5-0.5-0.9-1-1.5-1.4c-0.2-0.1-0.4-0.2-0.6-0.3c-0.5-0.3-1-0.6-1.5-0.9c-0.6-0.4-1.2-0.7-1.6-1.3c-0.4-0.5-0.9-1.1-1.5-1.4" />
<path
   id="XMLID_886_"
   class="st4"
   d="M16.4,5.6c-0.4,0-0.9-0.2-1.3-0.4c-0.6-0.3-0.6-0.2-1.1,0.2" />
<path
   id="XMLID_900_"
   class="st4"
   d="M8.8,13.6c0.1-0.1,0.3-0.2,0.4-0.3c0.1-0.1,0.3-0.2,0.5-0.4c0.2-0.2,0.4-0.4,0.6-0.5  c0.1-0.1,0.2-0.2,0.3-0.3c0.1,0,0.1-0.1,0.2-0.1c0.1-0.1,0.2-0.2,0.4-0.3c0.1-0.1,0.2-0.1,0.3-0.2c0,0,0,0,0.1-0.1  c0,0,0.1,0,0.1-0.1c0.1-0.1,0.1-0.1,0.2-0.2c0.1,0,0.1-0.1,0.2-0.1c0.1-0.1,0.1-0.1,0.2-0.2c0.1-0.1,0.3-0.2,0.4-0.2  c0.1,0,0.2-0.1,0.3-0.1c0.1,0,0.2-0.1,0.3-0.1c0.4-0.1,0.7-0.2,1-0.4c0.1,0,0.1-0.1,0.2-0.1c0,0,0.1,0,0.1-0.1  c0.1,0,0.1-0.1,0.2-0.1c0.1,0,0.2-0.1,0.2-0.1c0.1-0.1,0.2-0.1,0.3-0.2c0.1,0,0.2,0,0.3,0c0.1,0,0.2,0,0.3,0  c0.2,0.1,0.3,0.4,0.5,0.5c0,0,0.1,0,0.1,0.1c0.1,0,0.1,0.1,0.1,0.1c0.1,0.1,0.2,0.1,0.3,0.2c0.1,0.1,0.2,0.2,0.3,0.3  c0.1,0.1,0.1,0.2,0.2,0.2c0.1,0.1,0.1,0.1,0.2,0.2c0.1,0,0.1,0.1,0.2,0.1c0.2,0.1,0.4,0.2,0.6,0.3c0.4,0.2,0.7,0.4,1.1,0.6  c0.1,0.1,0.2,0.1,0.3,0.2c0,0,0.1,0,0.1,0.1c0,0,0.1,0,0.2,0.1c0,0.1,0,0.2,0,0.2c0,0.1-0.1,0.2-0.1,0.3c-0.1,0.2-0.2,0.4-0.4,0.5  c-0.1,0.1-0.2,0.1-0.3,0.2c-0.1,0.1-0.2,0.1-0.3,0.2c-0.2,0.1-0.3,0.2-0.5,0.3c-0.3,0.1-0.5,0.3-0.7,0.5c-0.1,0.1-0.3,0.2-0.4,0.3  c-0.1,0.1-0.3,0.2-0.4,0.3c-0.2,0.2-0.4,0.4-0.6,0.5C16.1,15.9,16,15.9,16,16c0,0.1-0.1,0.1-0.1,0.2c0,0-0.1,0-0.1,0.1  c-0.1,0.1-0.2,0.1-0.3,0.2c-0.1,0.1-0.2,0.1-0.4,0.2c0,0-0.1,0.1-0.1,0.1c-0.1,0-0.1,0.1-0.2,0.1c-0.1,0.1-0.2,0.1-0.3,0.1  c-0.2,0.1-0.4,0.2-0.6,0.3c-0.1,0-0.2,0.1-0.3,0.1c-0.1,0-0.2,0.1-0.3,0.1c0,0-0.1-0.1-0.1-0.1c-0.1,0-0.1-0.1-0.2-0.1  c-0.1,0-0.1-0.1-0.2-0.2c-0.1,0-0.2-0.1-0.2-0.1c-0.1-0.1-0.2-0.2-0.3-0.2c-0.2-0.1-0.3-0.2-0.5-0.3c-0.3-0.2-0.5-0.4-0.7-0.5  c-0.1-0.1-0.2-0.2-0.4-0.2c-0.1-0.1-0.2-0.1-0.3-0.2c-0.2-0.2-0.5-0.3-0.8-0.4C9.4,15.1,9.2,15,9,14.9c-0.3-0.1-0.5-0.3-0.8-0.4  c-0.2-0.1-0.4-0.3-0.5-0.4" />
<path
   id="XMLID_907_"
   class="st4"
   d="M9,13.4c0,0.1-0.2,0.1-0.2,0.2c-0.1,0.1-0.2,0.1-0.3,0.1c-0.1,0-0.2,0.1-0.2,0.1  c0,0-0.2,0.2-0.2,0.2" />
<g
   id="XMLID_893_"
   class="st5">
	<g
   id="XMLID_12_">
		<path
   id="XMLID_16_"
   class="st6"
   d="M9.9,30.9c1.4,1.5,3.4,3.4,5.7,3.2c2-0.2,3.7-2.2,5.3-3.2c3.5-2.2,5.9-6.3,2.7-10    c-0.6-0.7-1.6-0.9-2.4-0.6c-4.3,1.2-9.2,5.5-5.3,10.1c2.7,3.2,8.6,3,9.4-1.6c0.2-1.3-0.3-2.8-1.7-3.1c-0.2,0-0.3-0.1-0.5-0.1    c-1.2-0.3-2.1,0.2-2.8,1.1c-0.1,0.2-0.2,0.3-0.3,0.5c-1.6,2.2,1.4,4.3,3.4,3.4c5.3-2.4,6.4-12.5,2.1-16.3    c-4.8-4.3-10.5,2.4-10.7,7.2c-0.1,2,2.2,3,3.8,2.2c2.6-1.4,3.5-4.4,3-7.2c-0.2-1.3-1.9-2.1-3.1-1.7c-3.6,1.1-6.6,6.6-4.8,10.2    c2.5,5,8.6,1.3,10.6-2c2.1-3.3,2.2-9.8-3.3-9.3c-6.3,0.5-8.4,8.2-7.5,13.3c0.3,1.7,2.4,2.1,3.7,1.5c3.7-1.7,8.2-13.1,3.2-15.7    c-3.5-1.8-5.8,2.3-7.4,4.6c-2.5,3.5-4.2,7.2-3.5,11.6c0.3,1.7,2.4,2.2,3.7,1.5c4.5-2.4,5.7-9.9,4.9-14.5c-0.2-1.3-1.9-2.1-3.1-1.7    c-2,0.5-3.1,1.9-4.4,3.4C9.7,18.3,8.1,21,7,21.3C8,21.7,8.9,22,9.9,22.4c-1-1.8-3.1-7.3-0.8-8.6c2-1.2,3.5,1.9,2.2,3.4    c1-0.1,2-0.3,3-0.4c-1.5-1.1-1.4-3.9-2.5-5.4c-0.7-1-2.2-1.7-3.4-0.9c-3.5,2.5-4,9.7,1.5,9.9c2.6,0.1,4.5-1.8,5.7-3.9    c0.7-1.2,1-2.5,1.6-3.8c0.1-0.2,0.4-1.7,0.6-1.7c3-0.9-2,4.5-1.8,4.4c-2.5,2.1,1.1,5.6,3.5,3.5c4.1-3.5,6.4-10.5-0.7-12.3    c-2-0.5-4.1-0.1-5.3,1.7c-0.6,0.9-0.8,2.1-1.1,3c-0.3,0.9-0.6,1.8-1.1,2.6c-0.3,0.4-1,1.3-0.3,0.9c-1.1-0.3-2.3-0.6-3.4-0.9    c1.8,2.5,1.5,5.2,4.2,7.2c0.8,0.6,2.4,0.4,3-0.4c3.2-3.8,1.7-13.9-4.7-13c-2.8,0.4-6.3,3.2-7.3,5.8c-1.1,3.2,1,8.6,2.7,11.4    c0.6,1,1.7,1.4,2.8,1.1c3.7-0.8,4.6-6.3,7.9-7.2c-1-0.6-2.1-1.2-3.1-1.7c0.4,2-0.4,7.6-2.6,8.8c1.2,0.5,2.4,1,3.7,1.5    c-0.3-2,0.7-4.4,1.7-6c0.8-1.2,2.9-2.9,1.9-4.1c-0.8-1.1-0.8,1.1-1,1.9c-0.3,1.7-0.5,3.9-2.3,4.7c1.2,0.5,2.4,1,3.7,1.5    c-0.2-1-0.1-6.6,2.1-6.4c0.7,0.1-0.4,1.2-0.6,1.4c-2.6,3.4-1.6-0.5-0.1-1c-1-0.6-2.1-1.2-3.1-1.7c-0.2,0.5-0.5,1-0.7,1.5    c1.3,0.7,2.5,1.4,3.8,2.2c0.1-2.1,2.2-5.5,3.1-0.5c0.3,1.8-0.2,4.4-2,5.3c1.1,1.1,2.3,2.3,3.4,3.4c0.1-0.2,0.2-0.3,0.3-0.5    c-0.9,0.4-1.9,0.8-2.8,1.1c0.2,0,0.3,0.1,0.5,0.1c-0.6-1-1.2-2.1-1.7-3.1c-0.6-1-0.5-1.5,0.4-1.7c0.5-0.3,1.1-0.5,1.7-0.6    c-0.8-0.2-1.6-0.4-2.4-0.6c1.1,1.3-3.3,3-3.8,3.3c-0.3,0.2-1.3,1.4-1.5,1.4c1.3-0.1-0.9-1.5-1.2-1.9C11.3,25,7.8,28.5,9.9,30.9    L9.9,30.9z" />
	</g>
</g>
</svg>
