<?xml version="1.0" encoding="UTF-8" standalone="no"?>
<!-- Created with Inkscape (http://www.inkscape.org/) -->

<svg
   width="35"
   height="35"
   viewBox="0 0 9.2604164 9.2604167"
   version="1.1"
   id="svg5"
   inkscape:version="1.1.2 (0a00cf5339, 2022-02-04, custom)"
   sodipodi:docname="banker-icon.svg"
   xmlns:inkscape="http://www.inkscape.org/namespaces/inkscape"
   xmlns:sodipodi="http://sodipodi.sourceforge.net/DTD/sodipodi-0.dtd"
   xmlns="http://www.w3.org/2000/svg"
   xmlns:svg="http://www.w3.org/2000/svg">
  <sodipodi:namedview
     id="namedview7"
     pagecolor="#ffffff"
     bordercolor="#999999"
     borderopacity="1"
     inkscape:pageshadow="0"
     inkscape:pageopacity="0"
     inkscape:pagecheckerboard="true"
     inkscape:document-units="mm"
     showgrid="false"
     showguides="true"
     inkscape:guide-bbox="true"
     inkscape:zoom="16"
     inkscape:cx="19.71875"
     inkscape:cy="9.90625"
     inkscape:window-width="3840"
     inkscape:window-height="2085"
     inkscape:window-x="0"
     inkscape:window-y="0"
     inkscape:window-maximized="1"
     inkscape:current-layer="g1395"
     height="250px"
     units="px" />
  <defs
     id="defs2" />
  <g
     inkscape:label="Layer 1"
     inkscape:groupmode="layer"
     id="layer1">
    <g
       id="g1395"
       transform="matrix(1.293835,0,0,1.293835,-75.730752,-98.772816)">
      <g
         id="XMLID_893_-3"
         class="st5"
         style="opacity:1;fill:#ffffff"
         transform="matrix(0.21819431,0,0,0.21819431,58.855162,75.484124)">
        <g
           id="XMLID_12_-5"
           style="fill:#ffffff;fill-opacity:1">
          <path
             id="XMLID_16_-6"
             class="st6"
             d="m 9.9,30.9 c 1.4,1.5 3.4,3.4 5.7,3.2 2,-0.2 3.7,-2.2 5.3,-3.2 3.5,-2.2 5.9,-6.3 2.7,-10 C 23,20.2 22,20 21.2,20.3 c -4.3,1.2 -9.2,5.5 -5.3,10.1 2.7,3.2 8.6,3 9.4,-1.6 0.2,-1.3 -0.3,-2.8 -1.7,-3.1 -0.2,0 -0.3,-0.1 -0.5,-0.1 -1.2,-0.3 -2.1,0.2 -2.8,1.1 -0.1,0.2 -0.2,0.3 -0.3,0.5 -1.6,2.2 1.4,4.3 3.4,3.4 5.3,-2.4 6.4,-12.5 2.1,-16.3 -4.8,-4.3 -10.5,2.4 -10.7,7.2 -0.1,2 2.2,3 3.8,2.2 2.6,-1.4 3.5,-4.4 3,-7.2 -0.2,-1.3 -1.9,-2.1 -3.1,-1.7 -3.6,1.1 -6.6,6.6 -4.8,10.2 2.5,5 8.6,1.3 10.6,-2 2.1,-3.3 2.2,-9.8 -3.3,-9.3 -6.3,0.5 -8.4,8.2 -7.5,13.3 0.3,1.7 2.4,2.1 3.7,1.5 3.7,-1.7 8.2,-13.1 3.2,-15.7 -3.5,-1.8 -5.8,2.3 -7.4,4.6 -2.5,3.5 -4.2,7.2 -3.5,11.6 0.3,1.7 2.4,2.2 3.7,1.5 4.5,-2.4 5.7,-9.9 4.9,-14.5 -0.2,-1.3 -1.9,-2.1 -3.1,-1.7 -2,0.5 -3.1,1.9 -4.4,3.4 -0.9,0.6 -2.5,3.3 -3.6,3.6 1,0.4 1.9,0.7 2.9,1.1 -1,-1.8 -3.1,-7.3 -0.8,-8.6 2,-1.2 3.5,1.9 2.2,3.4 1,-0.1 2,-0.3 3,-0.4 -1.5,-1.1 -1.4,-3.9 -2.5,-5.4 -0.7,-1 -2.2,-1.7 -3.4,-0.9 -3.5,2.5 -4,9.7 1.5,9.9 2.6,0.1 4.5,-1.8 5.7,-3.9 0.7,-1.2 1,-2.5 1.6,-3.8 0.1,-0.2 0.4,-1.7 0.6,-1.7 3,-0.9 -2,4.5 -1.8,4.4 -2.5,2.1 1.1,5.6 3.5,3.5 4.1,-3.5 6.4,-10.5 -0.7,-12.3 -2,-0.5 -4.1,-0.1 -5.3,1.7 -0.6,0.9 -0.8,2.1 -1.1,3 -0.3,0.9 -0.6,1.8 -1.1,2.6 -0.3,0.4 -1,1.3 -0.3,0.9 -1.1,-0.3 -2.3,-0.6 -3.4,-0.9 1.8,2.5 1.5,5.2 4.2,7.2 0.8,0.6 2.4,0.4 3,-0.4 3.2,-3.8 1.7,-13.9 -4.7,-13 -2.8,0.4 -6.3,3.2 -7.3,5.8 -1.1,3.2 1,8.6 2.7,11.4 0.6,1 1.7,1.4 2.8,1.1 3.7,-0.8 4.6,-6.3 7.9,-7.2 -1,-0.6 -2.1,-1.2 -3.1,-1.7 0.4,2 -0.4,7.6 -2.6,8.8 1.2,0.5 2.4,1 3.7,1.5 -0.3,-2 0.7,-4.4 1.7,-6 0.8,-1.2 2.9,-2.9 1.9,-4.1 -0.8,-1.1 -0.8,1.1 -1,1.9 -0.3,1.7 -0.5,3.9 -2.3,4.7 1.2,0.5 2.4,1 3.7,1.5 -0.2,-1 -0.1,-6.6 2.1,-6.4 0.7,0.1 -0.4,1.2 -0.6,1.4 -2.6,3.4 -1.6,-0.5 -0.1,-1 -1,-0.6 -2.1,-1.2 -3.1,-1.7 -0.2,0.5 -0.5,1 -0.7,1.5 1.3,0.7 2.5,1.4 3.8,2.2 0.1,-2.1 2.2,-5.5 3.1,-0.5 0.3,1.8 -0.2,4.4 -2,5.3 1.1,1.1 2.3,2.3 3.4,3.4 0.1,-0.2 0.2,-0.3 0.3,-0.5 -0.9,0.4 -1.9,0.8 -2.8,1.1 0.2,0 0.3,0.1 0.5,0.1 -0.6,-1 -1.2,-2.1 -1.7,-3.1 -0.6,-1 -0.5,-1.5 0.4,-1.7 0.5,-0.3 1.1,-0.5 1.7,-0.6 -0.8,-0.2 -1.6,-0.4 -2.4,-0.6 1.1,1.3 -3.3,3 -3.8,3.3 C 16,27.8 15,29 14.8,29 16.1,28.9 13.9,27.5 13.6,27.1 11.3,25 7.8,28.5 9.9,30.9 Z"
             style="fill:#ffffff;fill-opacity:1" />
        </g>
      </g>
      <path
         id="XMLID_879_"
         class="st4"
         d="m 62.084438,76.662373 c -0.04364,0.04364 -0.130917,0.06546 -0.174556,0.109097 -0.06546,0.04364 -0.08728,0.08728 -0.152736,0.130917 -0.130916,0.08728 -0.283652,0.174555 -0.414569,0.261833 -0.130916,0.08728 -0.261833,0.196375 -0.37093,0.283653 -0.130917,0.130916 -0.261833,0.218194 -0.39275,0.305472 -0.109097,0.08728 -0.196375,0.174555 -0.283653,0.261833 -0.109097,0.08728 -0.240013,0.152736 -0.327291,0.240014 -0.109097,0.109097 -0.174555,0.240013 -0.305472,0.327291 -0.04364,0.04364 -0.240014,0.130917 -0.240014,0.174556 0.08728,0.06546 0.261833,0.109097 0.370931,0.152736 0.08728,0.04364 0.196374,0.06546 0.283652,0.130916 0.04364,0.02182 0.06546,0.08728 0.109097,0.109097 0.04364,0.02182 0.08728,0.04364 0.130917,0.06546 0.109097,0.06546 0.218194,0.196375 0.327291,0.305472 0.109097,0.08728 0.196375,0.130916 0.327292,0.174555 0.08728,0.02182 0.218194,0.06546 0.261833,0.130917 0.08728,0.109097 0.02182,0.218194 -0.04364,0.327291 -0.04364,0.06546 -0.06546,0.152736 -0.109097,0.218195 -0.04364,0.08728 -0.109097,0.152736 -0.174555,0.240013 -0.04364,0.06546 -0.04364,0.130917 -0.08728,0.196375 -0.04364,0.06546 -0.08728,0.130917 -0.130917,0.174556 -0.08728,0.109097 -0.174555,0.218194 -0.218194,0.327291 -0.06546,0.130917 -0.130917,0.240014 -0.174556,0.37093 -0.02182,0.04364 -0.04364,0.08728 -0.06546,0.152736 -0.02182,0.06546 -0.04364,0.109098 -0.08728,0.174556 -0.130916,0.261833 0.39275,0.37093 0.567306,0.414569 0.174555,0.04364 0.240013,0.08728 0.37093,0.218194 0.109097,0.109098 0.152736,0.261834 0.261833,0.370931 0.06546,0.06546 0.152736,0.240013 0.240014,0.283652 0.109097,0.04364 0.174555,-0.109097 0.218194,-0.196375 0.08728,-0.130916 0.218194,-0.218194 0.327292,-0.305472 0.109097,-0.109097 0.218194,-0.196374 0.37093,-0.218194 0.218194,-0.06546 0.545486,-0.109097 0.676402,-0.327291 0.04364,-0.08728 0.130917,-0.218195 0.152736,-0.327292 0.02182,-0.06546 -0.02182,-0.152736 -0.06546,-0.218194 -0.04364,-0.08728 -0.06546,-0.152736 -0.08728,-0.240014 -0.04364,-0.130916 -0.06546,-0.283653 -0.08728,-0.414569 -0.02182,-0.109097 -0.02182,-0.218194 -0.02182,-0.327292 0,-0.08728 -0.04364,-0.174555 -0.08728,-0.261833 -0.04364,-0.152736 -0.109097,-0.283652 -0.152736,-0.436388 -0.02182,-0.08728 -0.04364,-0.196375 -0.02182,-0.283653 0.02182,-0.130917 0.130917,-0.174555 0.218194,-0.261833 0.218195,-0.174556 0.458208,-0.240014 0.676403,-0.39275 0.152736,-0.109097 0.305472,-0.218194 0.480027,-0.327291 0.08728,-0.06546 0.218194,-0.218195 0.196375,-0.327292 -0.02182,-0.130916 -0.130917,-0.218194 -0.218194,-0.283652 -0.04364,-0.04364 -0.08728,-0.08728 -0.130917,-0.130917 -0.06546,-0.04364 -0.152736,-0.06546 -0.196375,-0.130917 -0.109097,-0.109097 -0.196375,-0.218194 -0.327291,-0.305472 -0.04364,-0.02182 -0.08728,-0.04364 -0.130917,-0.06546 -0.109097,-0.06546 -0.218194,-0.130917 -0.327291,-0.196375 -0.130917,-0.08728 -0.261833,-0.152736 -0.349111,-0.283652 -0.08728,-0.109098 -0.196375,-0.240014 -0.327292,-0.305472"
         style="fill:none;stroke:#000000;stroke-width:0.218194;stroke-miterlimit:10" />
      <path
         id="XMLID_886_"
         class="st4"
         d="m 62.433549,76.706012 c -0.08728,0 -0.196375,-0.04364 -0.283653,-0.08728 -0.130917,-0.06546 -0.130917,-0.04364 -0.240014,0.04364"
         style="fill:none;stroke:#000000;stroke-width:0.218194;stroke-miterlimit:10" />
      <path
         id="XMLID_900_"
         class="st4"
         d="m 60.775272,78.451567 c 0.02182,-0.02182 0.06546,-0.04364 0.08728,-0.06546 0.02182,-0.02182 0.06546,-0.04364 0.109097,-0.08728 0.04364,-0.04364 0.08728,-0.08728 0.130916,-0.109098 0.02182,-0.02182 0.04364,-0.04364 0.06546,-0.06546 0.02182,0 0.02182,-0.02182 0.04364,-0.02182 0.02182,-0.02182 0.04364,-0.04364 0.08728,-0.06546 0.02182,-0.02182 0.04364,-0.02182 0.06546,-0.04364 0,0 0,0 0.02182,-0.02182 0,0 0.02182,0 0.02182,-0.02182 0.02182,-0.02182 0.02182,-0.02182 0.04364,-0.04364 0.02182,0 0.02182,-0.02182 0.04364,-0.02182 0.02182,-0.02182 0.02182,-0.02182 0.04364,-0.04364 0.02182,-0.02182 0.06546,-0.04364 0.08728,-0.04364 0.02182,0 0.04364,-0.02182 0.06546,-0.02182 0.02182,0 0.04364,-0.02182 0.06546,-0.02182 0.08728,-0.02182 0.152736,-0.04364 0.218195,-0.08728 0.02182,0 0.02182,-0.02182 0.04364,-0.02182 0,0 0.02182,0 0.02182,-0.02182 0.02182,0 0.02182,-0.02182 0.04364,-0.02182 0.02182,0 0.04364,-0.02182 0.04364,-0.02182 0.02182,-0.02182 0.04364,-0.02182 0.06546,-0.04364 0.02182,0 0.04364,0 0.06546,0 0.02182,0 0.04364,0 0.06546,0 0.04364,0.02182 0.06546,0.08728 0.109097,0.109097 0,0 0.02182,0 0.02182,0.02182 0.02182,0 0.02182,0.02182 0.02182,0.02182 0.02182,0.02182 0.04364,0.02182 0.06546,0.04364 0.02182,0.02182 0.04364,0.04364 0.06546,0.06546 0.02182,0.02182 0.02182,0.04364 0.04364,0.04364 0.02182,0.02182 0.02182,0.02182 0.04364,0.04364 0.02182,0 0.02182,0.02182 0.04364,0.02182 0.04364,0.02182 0.08728,0.04364 0.130916,0.06546 0.08728,0.04364 0.152736,0.08728 0.240014,0.130917 0.02182,0.02182 0.04364,0.02182 0.06546,0.04364 0,0 0.02182,0 0.02182,0.02182 0,0 0.02182,0 0.04364,0.02182 0,0.02182 0,0.04364 0,0.04364 0,0.02182 -0.02182,0.04364 -0.02182,0.06546 -0.02182,0.04364 -0.04364,0.08728 -0.08728,0.109097 -0.02182,0.02182 -0.04364,0.02182 -0.06546,0.04364 -0.02182,0.02182 -0.04364,0.02182 -0.06546,0.04364 -0.04364,0.02182 -0.06546,0.04364 -0.109097,0.06546 -0.06546,0.02182 -0.109097,0.06546 -0.152736,0.109097 -0.02182,0.02182 -0.06546,0.04364 -0.08728,0.06546 -0.02182,0.02182 -0.06546,0.04364 -0.08728,0.06546 -0.04364,0.04364 -0.08728,0.08728 -0.130916,0.109097 -0.06546,0.04364 -0.08728,0.04364 -0.08728,0.06546 0,0.02182 -0.02182,0.02182 -0.02182,0.04364 0,0 -0.02182,0 -0.02182,0.02182 -0.02182,0.02182 -0.04364,0.02182 -0.06546,0.04364 -0.02182,0.02182 -0.04364,0.02182 -0.08728,0.04364 0,0 -0.02182,0.02182 -0.02182,0.02182 -0.02182,0 -0.02182,0.02182 -0.04364,0.02182 -0.02182,0.02182 -0.04364,0.02182 -0.06546,0.02182 -0.04364,0.02182 -0.08728,0.04364 -0.130916,0.06546 -0.02182,0 -0.04364,0.02182 -0.06546,0.02182 -0.02182,0 -0.04364,0.02182 -0.06546,0.02182 0,0 -0.02182,-0.02182 -0.02182,-0.02182 -0.02182,0 -0.02182,-0.02182 -0.04364,-0.02182 -0.02182,0 -0.02182,-0.02182 -0.04364,-0.04364 -0.02182,0 -0.04364,-0.02182 -0.04364,-0.02182 -0.02182,-0.02182 -0.04364,-0.04364 -0.06546,-0.04364 -0.04364,-0.02182 -0.06546,-0.04364 -0.109097,-0.06546 -0.06546,-0.04364 -0.109097,-0.08728 -0.152736,-0.109097 -0.02182,-0.02182 -0.04364,-0.04364 -0.08728,-0.04364 -0.02182,-0.02182 -0.04364,-0.02182 -0.06546,-0.04364 -0.04364,-0.04364 -0.109097,-0.06546 -0.174556,-0.08728 -0.04364,-0.02182 -0.08728,-0.04364 -0.130916,-0.06546 -0.06546,-0.02182 -0.109097,-0.06546 -0.174556,-0.08728 -0.04364,-0.02182 -0.08728,-0.06546 -0.109097,-0.08728"
         style="fill:none;stroke:#000000;stroke-width:0.218194;stroke-miterlimit:10" />
      <path
         id="XMLID_907_"
         class="st4"
         d="m 60.818911,78.407928 c 0,0.02182 -0.04364,0.02182 -0.04364,0.04364 -0.02182,0.02182 -0.04364,0.02182 -0.06546,0.02182 -0.02182,0 -0.04364,0.02182 -0.04364,0.02182 0,0 -0.04364,0.04364 -0.04364,0.04364"
         style="fill:none;stroke:#000000;stroke-width:0.218194;stroke-miterlimit:10" />
      <g
         id="XMLID_893_"
         class="st5"
         style="opacity:0.51"
         transform="matrix(0.21819431,0,0,0.21819431,58.855162,75.484124)">
        <g
           id="XMLID_12_"
           style="fill:#f7941e;fill-opacity:1">
          <path
             id="XMLID_16_"
             class="st6"
             d="m 9.9,30.9 c 1.4,1.5 3.4,3.4 5.7,3.2 2,-0.2 3.7,-2.2 5.3,-3.2 3.5,-2.2 5.9,-6.3 2.7,-10 C 23,20.2 22,20 21.2,20.3 c -4.3,1.2 -9.2,5.5 -5.3,10.1 2.7,3.2 8.6,3 9.4,-1.6 0.2,-1.3 -0.3,-2.8 -1.7,-3.1 -0.2,0 -0.3,-0.1 -0.5,-0.1 -1.2,-0.3 -2.1,0.2 -2.8,1.1 -0.1,0.2 -0.2,0.3 -0.3,0.5 -1.6,2.2 1.4,4.3 3.4,3.4 5.3,-2.4 6.4,-12.5 2.1,-16.3 -4.8,-4.3 -10.5,2.4 -10.7,7.2 -0.1,2 2.2,3 3.8,2.2 2.6,-1.4 3.5,-4.4 3,-7.2 -0.2,-1.3 -1.9,-2.1 -3.1,-1.7 -3.6,1.1 -6.6,6.6 -4.8,10.2 2.5,5 8.6,1.3 10.6,-2 2.1,-3.3 2.2,-9.8 -3.3,-9.3 -6.3,0.5 -8.4,8.2 -7.5,13.3 0.3,1.7 2.4,2.1 3.7,1.5 3.7,-1.7 8.2,-13.1 3.2,-15.7 -3.5,-1.8 -5.8,2.3 -7.4,4.6 -2.5,3.5 -4.2,7.2 -3.5,11.6 0.3,1.7 2.4,2.2 3.7,1.5 4.5,-2.4 5.7,-9.9 4.9,-14.5 -0.2,-1.3 -1.9,-2.1 -3.1,-1.7 -2,0.5 -3.1,1.9 -4.4,3.4 -0.9,0.6 -2.5,3.3 -3.6,3.6 1,0.4 1.9,0.7 2.9,1.1 -1,-1.8 -3.1,-7.3 -0.8,-8.6 2,-1.2 3.5,1.9 2.2,3.4 1,-0.1 2,-0.3 3,-0.4 -1.5,-1.1 -1.4,-3.9 -2.5,-5.4 -0.7,-1 -2.2,-1.7 -3.4,-0.9 -3.5,2.5 -4,9.7 1.5,9.9 2.6,0.1 4.5,-1.8 5.7,-3.9 0.7,-1.2 1,-2.5 1.6,-3.8 0.1,-0.2 0.4,-1.7 0.6,-1.7 3,-0.9 -2,4.5 -1.8,4.4 -2.5,2.1 1.1,5.6 3.5,3.5 4.1,-3.5 6.4,-10.5 -0.7,-12.3 -2,-0.5 -4.1,-0.1 -5.3,1.7 -0.6,0.9 -0.8,2.1 -1.1,3 -0.3,0.9 -0.6,1.8 -1.1,2.6 -0.3,0.4 -1,1.3 -0.3,0.9 -1.1,-0.3 -2.3,-0.6 -3.4,-0.9 1.8,2.5 1.5,5.2 4.2,7.2 0.8,0.6 2.4,0.4 3,-0.4 3.2,-3.8 1.7,-13.9 -4.7,-13 -2.8,0.4 -6.3,3.2 -7.3,5.8 -1.1,3.2 1,8.6 2.7,11.4 0.6,1 1.7,1.4 2.8,1.1 3.7,-0.8 4.6,-6.3 7.9,-7.2 -1,-0.6 -2.1,-1.2 -3.1,-1.7 0.4,2 -0.4,7.6 -2.6,8.8 1.2,0.5 2.4,1 3.7,1.5 -0.3,-2 0.7,-4.4 1.7,-6 0.8,-1.2 2.9,-2.9 1.9,-4.1 -0.8,-1.1 -0.8,1.1 -1,1.9 -0.3,1.7 -0.5,3.9 -2.3,4.7 1.2,0.5 2.4,1 3.7,1.5 -0.2,-1 -0.1,-6.6 2.1,-6.4 0.7,0.1 -0.4,1.2 -0.6,1.4 -2.6,3.4 -1.6,-0.5 -0.1,-1 -1,-0.6 -2.1,-1.2 -3.1,-1.7 -0.2,0.5 -0.5,1 -0.7,1.5 1.3,0.7 2.5,1.4 3.8,2.2 0.1,-2.1 2.2,-5.5 3.1,-0.5 0.3,1.8 -0.2,4.4 -2,5.3 1.1,1.1 2.3,2.3 3.4,3.4 0.1,-0.2 0.2,-0.3 0.3,-0.5 -0.9,0.4 -1.9,0.8 -2.8,1.1 0.2,0 0.3,0.1 0.5,0.1 -0.6,-1 -1.2,-2.1 -1.7,-3.1 -0.6,-1 -0.5,-1.5 0.4,-1.7 0.5,-0.3 1.1,-0.5 1.7,-0.6 -0.8,-0.2 -1.6,-0.4 -2.4,-0.6 1.1,1.3 -3.3,3 -3.8,3.3 C 16,27.8 15,29 14.8,29 16.1,28.9 13.9,27.5 13.6,27.1 11.3,25 7.8,28.5 9.9,30.9 Z"
             style="fill:#f7941e;fill-opacity:1" />
        </g>
      </g>
    </g>
  </g>
</svg>
