<?xml version="1.0" encoding="UTF-8" standalone="no"?>
<!-- Created with Inkscape (http://www.inkscape.org/) -->

<svg
   width="35"
   height="35"
   viewBox="0 0 9.2604164 9.2604167"
   version="1.1"
   id="svg5"
   inkscape:version="1.1.2 (0a00cf5339, 2022-02-04, custom)"
   sodipodi:docname="captain-icon.svg"
   xmlns:inkscape="http://www.inkscape.org/namespaces/inkscape"
   xmlns:sodipodi="http://sodipodi.sourceforge.net/DTD/sodipodi-0.dtd"
   xmlns="http://www.w3.org/2000/svg"
   xmlns:svg="http://www.w3.org/2000/svg">
  <sodipodi:namedview
     id="namedview7"
     pagecolor="#ffffff"
     bordercolor="#999999"
     borderopacity="1"
     inkscape:pageshadow="0"
     inkscape:pageopacity="0"
     inkscape:pagecheckerboard="true"
     inkscape:document-units="mm"
     showgrid="false"
     showguides="true"
     inkscape:guide-bbox="true"
     inkscape:zoom="22.627418"
     inkscape:cx="11.733553"
     inkscape:cy="17.346213"
     inkscape:window-width="3840"
     inkscape:window-height="2085"
     inkscape:window-x="0"
     inkscape:window-y="0"
     inkscape:window-maximized="1"
     inkscape:current-layer="g776"
     height="250px"
     units="px" />
  <defs
     id="defs2" />
  <g
     inkscape:label="Layer 1"
     inkscape:groupmode="layer"
     id="layer1">
    <g
       id="g776"
       transform="matrix(1.3053627,0,0,1.3053627,-119.82687,-63.310123)">
      <g
         id="XMLID_160_-3"
         class="st2"
         style="opacity:1;fill:#ffffff;fill-opacity:1"
         transform="matrix(0.26458333,0,0,0.26458333,74.787875,48.380025)">
        <g
           id="XMLID_14_-3-6"
           style="fill:#ffffff;fill-opacity:1">
          <path
             id="XMLID_18_-6-7"
             class="st3"
             d="m 72.2,25.8 c 3.9,2.7 10.1,-1.1 7.2,-5.8 -1.1,-1.8 -4,-1.5 -4.6,0.6 -0.4,1.5 -0.2,2.2 0.4,3.6 0.4,0.8 1.4,1.2 2.2,1.2 5.8,0.3 4.5,-7.9 0.4,-9.6 -1.2,-0.5 -2.4,-0.8 -3.7,-0.5 -0.5,0.1 -1.2,0.3 -1.6,0.6 -0.6,0.5 -1.3,1.6 0.1,1.3 2.6,-0.6 2.5,-4.6 1.4,-6.2 -0.7,-1 -1.6,-1.3 -2.8,-1.1 -3.3,0.5 -3.8,4.4 -3.8,7.1 0.1,3.6 1.2,6.9 4.7,8.5 3.3,1.5 7.8,1.7 10.9,-0.2 4.6,-2.8 2.2,-7.9 3.5,-12.2 -1.6,-0.2 -3.3,-0.4 -4.9,-0.7 0,1.7 -0.9,3 -1,4.6 0,0.7 0.7,-1.2 0.8,-1.8 0.4,-1.5 1,-2.9 0.1,-4.4 -1.9,-3.1 -5.3,-1.2 -8,-1.9 0.4,1.4 0.7,2.8 1.1,4.2 -0.9,-0.5 -1.3,-0.3 -1.3,0.7 -0.2,0.6 -0.3,1.2 -0.5,1.8 -0.4,1.3 -0.6,2.4 -0.6,3.7 0,3.2 5,3.2 5,0 0,-2.8 0.6,-5.6 0.7,-8.5 0,-1.5 -0.8,-4.3 0.6,-5.5 -1,0.1 -2,0.3 -3,0.4 2.7,1.2 2.8,5 1.9,7.4 1.6,0.4 3.2,0.9 4.8,1.3 0.1,-0.6 2.3,-5.4 1.9,-5.8 -0.6,0.1 -1.2,0.2 -1.8,0.3 0.1,0.3 0.3,0.5 0.4,0.8 0,-0.2 1,2.4 0.8,2.4 -3.2,0.4 -3.2,5.4 0,5 C 89.8,16.3 89.3,10.3 86.4,6 85.2,4.2 82.9,3 80.9,4.4 78.8,5.8 78,10.8 77.4,13.1 76.6,16.3 81,17.3 82.2,14.4 84,10.1 82.7,3.3 78.1,1.4 77,0.9 76,1 75.1,1.8 c -2,1.6 -2.2,4.1 -2.2,6.5 0.1,3.7 -0.5,7.3 -0.5,11 1.7,0 3.3,0 5,0 0,-3.2 2.8,-6.8 0.4,-9.7 -1.9,-2.3 -4.6,-1.9 -6.6,0 -1.3,1.3 -0.7,3.8 1.1,4.2 1.2,0.3 2.4,0.3 3.6,0.1 1.1,-0.2 1.3,0.4 1,-0.5 0.1,0.3 -0.4,1.6 -0.5,2 -0.4,2.3 -0.2,5.4 2.1,6.7 5.6,3.3 8.2,-6 8.2,-9.8 0,-2.8 -4.1,-3.4 -4.9,-0.7 -0.6,2.1 -0.8,3.9 -0.7,6 0.2,3.1 -1.6,4.2 -4.5,3.8 -2.1,-0.3 -3.5,-0.9 -4,-3.1 -0.2,-1 0,-3.8 0,-3.8 -0.9,-0.4 -1.9,-0.8 -2.8,-1.1 0.5,-0.8 0.4,-0.8 -0.3,-0.1 -0.3,0.2 -0.6,0.5 -0.8,0.7 -0.4,0.4 -0.8,0.9 -1,1.5 -0.6,1.7 0.2,3.5 1.4,4.6 1.1,1 2.4,1.6 3.9,1.2 0.8,-0.2 1.4,-1 2.2,-1.3 0.1,0 2.1,0.1 2.3,0.1 0.7,0.4 1.4,0.8 2.2,1.2 0,0.1 0.1,0.2 0.1,0.3 -1.5,0.2 -3,0.4 -4.6,0.6 -0.1,-0.4 -0.3,-0.7 -0.4,-1.1 -2.7,-1.4 -5.2,2.9 -2.6,4.7 z"
             style="fill:#ffffff;fill-opacity:1" />
        </g>
      </g>
      <path
         id="XMLID_81_"
         class="st1"
         d="m 95.372458,50.0469 c 0.05292,-0.132292 0.105833,-0.264583 0.15875,-0.423333 -0.343958,0.687916 -0.291042,1.508125 -0.105833,2.275416 0.185208,0.740834 0.449791,1.481667 0.47625,2.275417 0,0.185208 -0.02646,0.396875 -0.185209,0.502708 -0.07937,-0.105833 -0.105833,-0.264583 -0.07937,-0.370416"
         style="fill:none;stroke:#000000;stroke-width:0.264583;stroke-miterlimit:10" />
      <path
         id="XMLID_82_"
         class="st1"
         d="m 93.361625,52.692733 c -0.05292,-0.105833 -0.02646,-0.264583 0.05292,-0.343958 0.238125,1.058333 1.402292,1.719792 2.487084,1.693333 0.396875,-0.02646 0.79375,-0.105833 1.084791,-0.370416 0.291042,-0.264584 0.449792,-0.687917 0.291042,-1.031875 -0.02646,0.05292 -0.02646,0.105833 -0.05292,0.15875"
         style="fill:none;stroke:#000000;stroke-width:0.264583;stroke-miterlimit:10" />
      <path
         id="XMLID_83_"
         class="st1"
         d="m 94.076,50.9994 c 0.79375,0.132292 1.640416,0.02646 2.38125,-0.291042 -0.105834,0.02646 -0.185209,0.02646 -0.291042,0.05292"
         style="fill:none;stroke:#000000;stroke-width:0.264583;stroke-miterlimit:10" />
      <g
         id="XMLID_160_"
         class="st2"
         style="opacity:0.51;fill:#00aeef;fill-opacity:1"
         transform="matrix(0.26458333,0,0,0.26458333,74.787875,48.380025)">
        <g
           id="XMLID_14_-3"
           style="fill:#00aeef;fill-opacity:1">
          <path
             id="XMLID_18_-6"
             class="st3"
             d="m 72.2,25.8 c 3.9,2.7 10.1,-1.1 7.2,-5.8 -1.1,-1.8 -4,-1.5 -4.6,0.6 -0.4,1.5 -0.2,2.2 0.4,3.6 0.4,0.8 1.4,1.2 2.2,1.2 5.8,0.3 4.5,-7.9 0.4,-9.6 -1.2,-0.5 -2.4,-0.8 -3.7,-0.5 -0.5,0.1 -1.2,0.3 -1.6,0.6 -0.6,0.5 -1.3,1.6 0.1,1.3 2.6,-0.6 2.5,-4.6 1.4,-6.2 -0.7,-1 -1.6,-1.3 -2.8,-1.1 -3.3,0.5 -3.8,4.4 -3.8,7.1 0.1,3.6 1.2,6.9 4.7,8.5 3.3,1.5 7.8,1.7 10.9,-0.2 4.6,-2.8 2.2,-7.9 3.5,-12.2 -1.6,-0.2 -3.3,-0.4 -4.9,-0.7 0,1.7 -0.9,3 -1,4.6 0,0.7 0.7,-1.2 0.8,-1.8 0.4,-1.5 1,-2.9 0.1,-4.4 -1.9,-3.1 -5.3,-1.2 -8,-1.9 0.4,1.4 0.7,2.8 1.1,4.2 -0.9,-0.5 -1.3,-0.3 -1.3,0.7 -0.2,0.6 -0.3,1.2 -0.5,1.8 -0.4,1.3 -0.6,2.4 -0.6,3.7 0,3.2 5,3.2 5,0 0,-2.8 0.6,-5.6 0.7,-8.5 0,-1.5 -0.8,-4.3 0.6,-5.5 -1,0.1 -2,0.3 -3,0.4 2.7,1.2 2.8,5 1.9,7.4 1.6,0.4 3.2,0.9 4.8,1.3 0.1,-0.6 2.3,-5.4 1.9,-5.8 -0.6,0.1 -1.2,0.2 -1.8,0.3 0.1,0.3 0.3,0.5 0.4,0.8 0,-0.2 1,2.4 0.8,2.4 -3.2,0.4 -3.2,5.4 0,5 C 89.8,16.3 89.3,10.3 86.4,6 85.2,4.2 82.9,3 80.9,4.4 78.8,5.8 78,10.8 77.4,13.1 76.6,16.3 81,17.3 82.2,14.4 84,10.1 82.7,3.3 78.1,1.4 77,0.9 76,1 75.1,1.8 c -2,1.6 -2.2,4.1 -2.2,6.5 0.1,3.7 -0.5,7.3 -0.5,11 1.7,0 3.3,0 5,0 0,-3.2 2.8,-6.8 0.4,-9.7 -1.9,-2.3 -4.6,-1.9 -6.6,0 -1.3,1.3 -0.7,3.8 1.1,4.2 1.2,0.3 2.4,0.3 3.6,0.1 1.1,-0.2 1.3,0.4 1,-0.5 0.1,0.3 -0.4,1.6 -0.5,2 -0.4,2.3 -0.2,5.4 2.1,6.7 5.6,3.3 8.2,-6 8.2,-9.8 0,-2.8 -4.1,-3.4 -4.9,-0.7 -0.6,2.1 -0.8,3.9 -0.7,6 0.2,3.1 -1.6,4.2 -4.5,3.8 -2.1,-0.3 -3.5,-0.9 -4,-3.1 -0.2,-1 0,-3.8 0,-3.8 -0.9,-0.4 -1.9,-0.8 -2.8,-1.1 0.5,-0.8 0.4,-0.8 -0.3,-0.1 -0.3,0.2 -0.6,0.5 -0.8,0.7 -0.4,0.4 -0.8,0.9 -1,1.5 -0.6,1.7 0.2,3.5 1.4,4.6 1.1,1 2.4,1.6 3.9,1.2 0.8,-0.2 1.4,-1 2.2,-1.3 0.1,0 2.1,0.1 2.3,0.1 0.7,0.4 1.4,0.8 2.2,1.2 0,0.1 0.1,0.2 0.1,0.3 -1.5,0.2 -3,0.4 -4.6,0.6 -0.1,-0.4 -0.3,-0.7 -0.4,-1.1 -2.7,-1.4 -5.2,2.9 -2.6,4.7 z"
             style="fill:#00aeef;fill-opacity:1" />
        </g>
      </g>
    </g>
    <g
       id="g389"
       transform="matrix(1.8369341,0,0,1.8369341,-77.182412,-67.911068)" />
  </g>
</svg>
