<?xml version="1.0" encoding="UTF-8" standalone="no"?>
<!-- Generator: Adobe Illustrator 19.0.0, SVG Export Plug-In . SVG Version: 6.00 Build 0)  -->

<svg
   version="1.1"
   id="Layer_1"
   x="0px"
   y="0px"
   viewBox="0 0 90 135"
   style="enable-background:new 0 0 90 135;"
   xml:space="preserve"
   sodipodi:docname="captain00.svg"
   inkscape:version="1.2.2 (b0a8486541, 2022-12-01)"
   xmlns:inkscape="http://www.inkscape.org/namespaces/inkscape"
   xmlns:sodipodi="http://sodipodi.sourceforge.net/DTD/sodipodi-0.dtd"
   xmlns="http://www.w3.org/2000/svg"
   xmlns:svg="http://www.w3.org/2000/svg"><defs
   id="defs60" /><sodipodi:namedview
   id="namedview58"
   pagecolor="#ffffff"
   bordercolor="#999999"
   borderopacity="1"
   inkscape:showpageshadow="0"
   inkscape:pageopacity="0"
   inkscape:pagecheckerboard="0"
   inkscape:deskcolor="#d1d1d1"
   showgrid="false"
   inkscape:zoom="10.758499"
   inkscape:cx="75.475215"
   inkscape:cy="65.111315"
   inkscape:window-width="3840"
   inkscape:window-height="2077"
   inkscape:window-x="0"
   inkscape:window-y="0"
   inkscape:window-maximized="1"
   inkscape:current-layer="Layer_1"
   showguides="true" />
<style
   type="text/css"
   id="style2">
	.st0{fill:#FFFFFF;stroke:#000000;stroke-miterlimit:10;}
	.st1{fill:none;stroke:#000000;stroke-miterlimit:10;}
	.st2{opacity:0.51;}
	.st3{fill:#00AEEF;}
	.st4{fill:none;}
	.st5{font-family:'MosaicoSCSC';}
	.st6{font-size:9px;}
	.st7{font-size:12px;}
</style>

<rect
   style="fill:#ffffff;stroke-width:6.94497;stroke-miterlimit:10"
   id="rect374"
   width="90"
   height="135"
   x="0"
   y="0" />


<path
   id="XMLID_68_"
   class="st1"
   d="M51.5,41c0.4,0,0.8,0.2,1,0.6c0.2-0.8-0.5-1.6-1.1-2.2c-5.1-4.6-10.1-9.1-15.2-13.7  c-5,2.1-9.8,4.5-14.4,7.3c5.4,5.4,12.7,9.1,15.7,16.1c5.4-2,10.6-4.5,15.6-7.3c-1.2,0.8-2.4,1.7-3.6,2.5" />
<path
   id="XMLID_69_"
   class="st1"
   d="M26,38.4c-5.4,1.2-9.8,6.1-10.4,11.6c-0.4,3.4,0.6,6.9,0.3,10.3c-0.2,2.6-1.1,5.2-0.6,7.8  c0.3,1.9,1.4,3.6,2.4,5.3c1.3,2,2.6,4.1,3.8,6.1c2.3,3.6,4.7,7.4,8.5,9.4c3.1,1.7,6.8,1.9,10.3,2c3.5,0.2,7.2,0.3,10.5-0.9  c3.3-1.2,6.4-4,6.6-7.5c0.1-1.5-0.2-3.1,0.6-4.3c0.3-0.4,0.7-0.8,0.9-1.2c0.5-1,0.1-2.1-0.1-3.2c-0.7-2.7-0.7-5.6-0.1-8.3  c0.3,1,0.8,2,1.7,2.5c1.6,0.8,3.7-0.7,4-2.4s-0.6-3.6-1.8-4.9c-1.5-1.7-3.5-3.3-3.6-5.6c-0.1-1.8,1.1-3.4,1.5-5.2  c0.5-2,0.1-4-0.7-5.9c-2.5-6.2-9-10.7-15.7-10.9" />
<path
   id="XMLID_70_"
   class="st1"
   d="M21.2,53.4c2,2.7,5.4,4.2,8.7,3.8c1-0.1,2.1-0.4,3.1-0.4c1,0,2.2,0.2,3-0.4  c1.8-1.3,0.3-4.7,2-6.2c0.1,0.3,0.1,0.6,0.2,0.9" />
<path
   id="XMLID_71_"
   class="st1"
   d="M32.5,51c0-0.1,0-0.2,0-0.3" />
<path
   id="XMLID_72_"
   class="st1"
   d="M31.5,46c0,0.1,0,0.2,0,0.3" />
<path
   id="XMLID_73_"
   class="st1"
   d="M27.2,44c-0.1-0.1-0.2-0.2-0.3-0.3" />
<line
   id="XMLID_74_"
   class="st1"
   x1="25.8"
   y1="52.3"
   x2="25.8"
   y2="52.3" />
<path
   id="XMLID_75_"
   class="st1"
   d="M24.1,47.3c0,0.3,0.1,0.7,0.1,1" />
<path
   id="XMLID_76_"
   class="st1"
   d="M21.8,42.7c0.1,0,0.2,0,0.3,0" />
<path
   id="XMLID_77_"
   class="st1"
   d="M26.5,41.3c0,0.3,0,0.7,0,1" />
<path
   id="XMLID_78_"
   class="st1"
   d="M18.5,49.3c0.1,0.1,0.2,0.2,0.3,0.3" />
<path
   id="XMLID_79_"
   class="st1"
   d="M24.8,54.7c0,0.1,0,0.2,0,0.3" />
<line
   id="XMLID_80_"
   class="st1"
   x1="28.2"
   y1="47.3"
   x2="28.2"
   y2="47.3" />
<path
   id="XMLID_121_"
   class="st1"
   d="M28.5,51.7c0.1-0.3-0.1-0.6-0.3-0.6" />
<path
   id="XMLID_122_"
   class="st1"
   d="M32.2,54.3c0,0.2,0,0.4,0,0.7" />
<line
   id="XMLID_123_"
   class="st1"
   x1="32.2"
   y1="48"
   x2="32.2"
   y2="48" />
<path
   id="XMLID_124_"
   class="st1"
   d="M29.8,45c0.1,0.1,0.2,0.2,0.3,0.3" />
<path
   id="XMLID_125_"
   class="st1"
   d="M41.1,46.4c-0.7-2.6-2.7-4.7-4.9-6.3c-2.2-1.6-4.6-2.9-6.6-4.7" />
<path
   id="XMLID_126_"
   class="st1"
   d="M45.8,44.6c1-1.4-0.5-3.2-1.7-4.3c-2.3-1.9-4.5-3.9-6.8-5.8c-0.4-0.3-0.8-0.7-1.3-0.7  c-0.4-0.1-0.8,0-1.1-0.1c-0.4-0.1-0.6-0.7-0.3-0.9" />
<path
   id="XMLID_127_"
   class="st1"
   d="M57.4,50.8c-0.9-0.3-1.9,0.1-2.4,0.9c-0.5,0.8-0.3,1.9,0.4,2.5c0.4,0.2,0.8,0.3,1.2,0.5  c0.9-1.1,1.8-2.1,2.7-3.2" />
<path
   id="XMLID_128_"
   class="st1"
   d="M44.8,55.9c0.2-0.2-2.7,0.6-3.3,1c-1.1,0.7-2.6,1.8-3.4,2.8c-1.3,1.6-2.6,3.4,0.7,3  c2.6-0.3,5-1.3,7.1-2.8c0.6-1.5,1-3.1,1.2-4.7c-0.7,0-1.3-0.5-1.5-1.2" />
<path
   id="XMLID_129_"
   class="st1"
   d="M38.2,53.7c1.7,0,3.3,0,5,0" />
<path
   id="XMLID_130_"
   class="st1"
   d="M55,45.1c-0.8,2-1.6,3.9-2.5,5.9c-0.1,0.2-0.2,0.4,0,0.6s0.5,0,0.4-0.2" />
<path
   id="XMLID_131_"
   class="st1"
   d="M46.5,79.9c0.3,0.4,1,0.2,1.4-0.2c0.3-0.4,0.5-0.9,0.6-1.4c0.8-2.1,3-3.4,5.2-4  c1.7-0.5,4-0.3,4.7,1.3" />
<path
   id="XMLID_132_"
   class="st1"
   d="M42.2,58.7c0.3-0.1,0.7,0,1,0.2c-0.4,0.3-0.8,0.5-1.3,0.8c0.2-0.5,1-0.6,1.2-0.1  c-0.5,0.1-1.1,0.1-1.6,0c0.2-0.3,0.5-0.6,0.9-0.5c0.3,0.4-0.5,0.7-1,0.5c0-0.5,0.1-1,0.1-1.5c0.4,0.2,0.7,0.8,0.4,1.2  c-0.3,0.4-1.1,0.3-1.1-0.2c-0.1-0.5,0.8-0.7,0.9-0.3" />
<path
   id="XMLID_133_"
   class="st1"
   d="M56.3,52.4c-0.1,0.2,0.1,0.4,0.3,0.4c0.2-0.1,0.1-0.4-0.1-0.5" />
<path
   id="XMLID_134_"
   class="st1"
   d="M24.5,63.9c0.1,0.2,0.4,0.1,0.5-0.1c0.1-0.2,0-0.4-0.1-0.7c-0.3-0.7-0.6-1.3-0.8-2  c-0.6-1.5-1.5-3.2-3-3.5c-1.2-0.3-2.4,0.4-3.2,1.3c-0.7,1-1.1,2.2-1.2,3.4c-0.2,1.1-0.2,2.3,0,3.4c0.3,1.6,1.3,3,2.2,4.3  c0.9,1.3,2.3,2.8,3.8,2.3c1.2-0.4,1.6-1.9,1.6-3.1c0-1.2-0.3-2.5,0-3.7c-0.2,0.3,0,0.7,0.3,0.8" />
<path
   id="XMLID_135_"
   class="st1"
   d="M54.4,45.9c0.9-0.3,1.8,0.1,2.4,0.8c0.5,0.7,0.6,1.8,0.1,2.5c-1.7,0.2-3-2.2-1.9-3.5  c0.7,0.2,2.9,2.1,3.6,2.3" />
<path
   id="XMLID_136_"
   class="st1"
   d="M22.9,69.7c-5.3,0.3-2,10.6,0.1,6.8c0.1,0.4,0.3,0.7,0.4,1.1c1.5-2.1,1.9-7.2-1.9-7.3" />
<path
   id="XMLID_137_"
   class="st1"
   d="M21.2,80c-0.2-0.1-0.4-0.3-0.6-0.4c-2.8,2-6.4,2.4-9.7,3.1s-7,2-8.6,5c1.1,0,2.1-0.7,2.5-1.7" />
<path
   id="XMLID_52_"
   class="st1"
   d="M58.4,80.2C68.5,78,79.5,80,89.6,83" />
<path
   id="XMLID_139_"
   class="st1"
   d="M15.3,81.3c0.6,4.6,3.7,8.6,7.6,11.2c3.9,2.5,8.5,3.7,13.2,4.2c5.3,0.6,10.7,0.5,15.9-0.5  c2.5-0.4,5-1,7.1-2.3c4.3-2.6,6.9-7.8,6.2-12.8c-0.1-0.2,0.4-0.4,0.5-0.1s-0.1,0.5-0.3,0.6" />
<path
   id="XMLID_54_"
   class="st1"
   d="M74.9,82.7c0.2-0.5,0.3-0.7,0.4-1.3c-0.4,4.3,0.8,8.6,3.1,12.2c3.2,3.3,5.2,6.3,9,7.7" />
<path
   id="XMLID_141_"
   class="st1"
   d="M11.5,84.3c0-0.4-0.3-0.7-0.7-0.7c0.9,3.4-0.2,7.2-2.1,10.1s-5.1,5-8.5,5.5  c0.8-0.2,1.5-0.4,2.3-0.6" />
<path
   id="XMLID_142_"
   class="st1"
   d="M52,43.1c0.6-0.9,1.6-1.9,2.6-1.7c0.6,0.1,1,0.6,1.5,1c1.3,1,3.2,1.3,4.7,0.6" />
<path
   id="XMLID_143_"
   class="st1"
   d="M56.6,52.3c-0.1,0-0.2,0-0.3,0" />

<rect
   style="fill:#000000;stroke-width:7.00916;stroke-miterlimit:10"
   id="rect478"
   width="90"
   height="20"
   x="0"
   y="110" /><g
   id="g449"
   transform="translate(-5.4201487,7.825753)"><path
     id="XMLID_90_"
     class="st4"
     d="m 12,0 h 66 c 6.6,0 12,5.4 12,12 v 111 c 0,6.6 -5.4,12 -12,12 H 12 C 5.4,135 0,129.6 0,123 V 12 C 0,5.4 5.4,0 12,0 Z" /></g>

<g
   id="g559"
   transform="translate(-6.3999103,8.0710035)"><path
     id="XMLID_81_"
     class="st1"
     d="m 77.8,6.3 c 0.2,-0.5 0.4,-1 0.6,-1.6 -1.3,2.6 -1.1,5.7 -0.4,8.6 0.7,2.8 1.7,5.6 1.8,8.6 0,0.7 -0.1,1.5 -0.7,1.9 -0.3,-0.4 -0.4,-1 -0.3,-1.4"
     style="fill:none;stroke:#000000;stroke-miterlimit:10" /><path
     id="XMLID_82_"
     class="st1"
     d="m 70.2,16.3 c -0.2,-0.4 -0.1,-1 0.2,-1.3 0.9,4 5.3,6.5 9.4,6.4 1.5,-0.1 3,-0.4 4.1,-1.4 1.1,-1 1.7,-2.6 1.1,-3.9 -0.1,0.2 -0.1,0.4 -0.2,0.6"
     style="fill:none;stroke:#000000;stroke-miterlimit:10" /><path
     id="XMLID_83_"
     class="st1"
     d="m 72.9,9.9 c 3,0.5 6.2,0.1 9,-1.1 -0.4,0.1 -0.7,0.1 -1.1,0.2"
     style="fill:none;stroke:#000000;stroke-miterlimit:10" /><g
     id="XMLID_160_"
     class="st2"
     style="opacity:0.51">
	<g
   id="XMLID_14_">
		<path
   id="XMLID_18_"
   class="st3"
   d="m 72.2,25.8 c 3.9,2.7 10.1,-1.1 7.2,-5.8 -1.1,-1.8 -4,-1.5 -4.6,0.6 -0.4,1.5 -0.2,2.2 0.4,3.6 0.4,0.8 1.4,1.2 2.2,1.2 5.8,0.3 4.5,-7.9 0.4,-9.6 -1.2,-0.5 -2.4,-0.8 -3.7,-0.5 -0.5,0.1 -1.2,0.3 -1.6,0.6 -0.6,0.5 -1.3,1.6 0.1,1.3 2.6,-0.6 2.5,-4.6 1.4,-6.2 -0.7,-1 -1.6,-1.3 -2.8,-1.1 -3.3,0.5 -3.8,4.4 -3.8,7.1 0.1,3.6 1.2,6.9 4.7,8.5 3.3,1.5 7.8,1.7 10.9,-0.2 4.6,-2.8 2.2,-7.9 3.5,-12.2 -1.6,-0.2 -3.3,-0.4 -4.9,-0.7 0,1.7 -0.9,3 -1,4.6 0,0.7 0.7,-1.2 0.8,-1.8 0.4,-1.5 1,-2.9 0.1,-4.4 -1.9,-3.1 -5.3,-1.2 -8,-1.9 0.4,1.4 0.7,2.8 1.1,4.2 -0.9,-0.5 -1.3,-0.3 -1.3,0.7 -0.2,0.6 -0.3,1.2 -0.5,1.8 -0.4,1.3 -0.6,2.4 -0.6,3.7 0,3.2 5,3.2 5,0 0,-2.8 0.6,-5.6 0.7,-8.5 0,-1.5 -0.8,-4.3 0.6,-5.5 -1,0.1 -2,0.3 -3,0.4 2.7,1.2 2.8,5 1.9,7.4 1.6,0.4 3.2,0.9 4.8,1.3 0.1,-0.6 2.3,-5.4 1.9,-5.8 -0.6,0.1 -1.2,0.2 -1.8,0.3 0.1,0.3 0.3,0.5 0.4,0.8 0,-0.2 1,2.4 0.8,2.4 -3.2,0.4 -3.2,5.4 0,5 C 89.8,16.3 89.3,10.3 86.4,6 85.2,4.2 82.9,3 80.9,4.4 78.8,5.8 78,10.8 77.4,13.1 76.6,16.3 81,17.3 82.2,14.4 84,10.1 82.7,3.3 78.1,1.4 77,0.9 76,1 75.1,1.8 c -2,1.6 -2.2,4.1 -2.2,6.5 0.1,3.7 -0.5,7.3 -0.5,11 1.7,0 3.3,0 5,0 0,-3.2 2.8,-6.8 0.4,-9.7 -1.9,-2.3 -4.6,-1.9 -6.6,0 -1.3,1.3 -0.7,3.8 1.1,4.2 1.2,0.3 2.4,0.3 3.6,0.1 1.1,-0.2 1.3,0.4 1,-0.5 0.1,0.3 -0.4,1.6 -0.5,2 -0.4,2.3 -0.2,5.4 2.1,6.7 5.6,3.3 8.2,-6 8.2,-9.8 0,-2.8 -4.1,-3.4 -4.9,-0.7 -0.6,2.1 -0.8,3.9 -0.7,6 0.2,3.1 -1.6,4.2 -4.5,3.8 -2.1,-0.3 -3.5,-0.9 -4,-3.1 -0.2,-1 0,-3.8 0,-3.8 -0.9,-0.4 -1.9,-0.8 -2.8,-1.1 0.5,-0.8 0.4,-0.8 -0.3,-0.1 -0.3,0.2 -0.6,0.5 -0.8,0.7 -0.4,0.4 -0.8,0.9 -1,1.5 -0.6,1.7 0.2,3.5 1.4,4.6 1.1,1 2.4,1.6 3.9,1.2 0.8,-0.2 1.4,-1 2.2,-1.3 0.1,0 2.1,0.1 2.3,0.1 0.7,0.4 1.4,0.8 2.2,1.2 0,0.1 0.1,0.2 0.1,0.3 -1.5,0.2 -3,0.4 -4.6,0.6 -0.1,-0.4 -0.3,-0.7 -0.4,-1.1 -2.7,-1.4 -5.2,2.9 -2.6,4.7 z"
   style="fill:#00aeef" />
	</g>
</g></g><g
   aria-label="CAPTAIN"
   id="XMLID_2_"
   style="font-size:13.3333px;text-align:center;text-anchor:middle"><path
     d="m 25.055391,115 -0.65104,2.80598 h -0.253905 q -0.04557,-1.14583 -0.566405,-1.70572 -0.514322,-0.56641 -1.347653,-0.56641 -0.898435,0 -1.79036,0.76823 -0.891925,0.76822 -1.510413,2.35025 -0.501301,1.28255 -0.501301,2.53255 0,1.11979 0.546874,1.71223 0.553384,0.58594 1.510413,0.58594 0.774738,0 1.412757,-0.33854 0.638019,-0.33854 1.289059,-1.10026 h 0.312499 q -0.807289,1.21093 -1.63411,1.69921 -0.820311,0.48828 -2.011714,0.48828 -1.595048,0 -2.571608,-0.96353 -0.97005,-0.97005 -0.97005,-2.52604 0,-1.45833 0.774738,-2.77994 0.774738,-1.32812 2.226557,-2.14192 Q 20.778058,115 22.216857,115 q 0.546874,0 1.360674,0.23437 0.416665,0.11719 0.579425,0.11719 0.32552,0 0.657551,-0.35156 z"
     style="-inkscape-font-specification:'Times New Roman,  Bold Italic';fill:#ffffff"
     id="path2344" /><path
     d="m 29.742879,121.18488 h -2.734368 l -0.546873,0.67708 -0.624999,0.7487 q -0.182291,0.24088 -0.266926,0.43619 -0.0651,0.14974 -0.0651,0.29948 0,0.15625 0.16276,0.29297 0.16927,0.13021 0.553384,0.14974 v 0.24088 h -2.636712 l 0.0651,-0.24088 q 0.351562,-0.0586 0.624998,-0.2474 0.364583,-0.26041 1.048175,-1.07421 L 31.578812,115 h 0.292968 l -0.292968,7.22654 q -0.01953,0.56641 -0.01953,0.68359 0,0.44271 0.175781,0.64453 0.182291,0.20183 0.598957,0.23438 l -0.0651,0.24088 H 28.44731 l 0.07161,-0.24088 q 0.566405,-0.0521 0.65104,-0.0911 0.182291,-0.0911 0.332031,-0.3776 0.149739,-0.29297 0.182291,-1.00911 z m 0,-0.53386 0.169271,-2.87759 -2.454421,2.87759 z"
     style="-inkscape-font-specification:'Times New Roman,  Bold Italic';fill:#ffffff"
     id="path2346" /><path
     d="m 37.014996,119.97394 -0.716144,2.46093 q -0.149739,0.52084 -0.149739,0.73568 0,0.29948 0.195312,0.45573 0.195312,0.14974 0.885415,0.16276 l -0.08464,0.24088 h -4.309885 l 0.07162,-0.24088 q 0.546874,-0.007 0.774738,-0.10417 0.227864,-0.10417 0.377603,-0.33203 0.110677,-0.14974 0.33203,-0.91797 l 1.634111,-5.60545 q 0.16927,-0.55989 0.16927,-0.80078 0,-0.24088 -0.214843,-0.40364 -0.214843,-0.16927 -0.781248,-0.1823 l 0.07161,-0.24088 h 3.496085 q 1.438799,0 2.070307,0.36458 0.97656,0.57292 0.97656,1.71875 0,1.10677 -0.97656,1.95312 -0.970049,0.83984 -2.617181,0.83984 -0.49479,0 -1.204424,-0.10417 z m 0.130208,-0.5013 q 0.423176,0.0521 0.703124,0.0521 0.898435,0 1.412757,-0.82031 0.514321,-0.82032 0.514321,-1.71224 0,-0.60547 -0.33203,-0.9375 -0.332031,-0.33854 -0.917967,-0.33854 -0.123697,0 -0.305989,0.013 z"
     style="-inkscape-font-specification:'Times New Roman,  Bold Italic';fill:#ffffff"
     id="path2348" /><path
     d="m 43.512375,115.20182 h 7.102847 l -0.670571,2.3763 h -0.234375 q 0.01302,-0.18881 0.01302,-0.33203 0,-0.67709 -0.397134,-1.04818 -0.397135,-0.3776 -1.341143,-0.42969 l -1.96614,6.64712 q -0.16276,0.55339 -0.16276,0.82031 0,0.2474 0.201822,0.39714 0.201822,0.14323 0.82031,0.15625 l -0.05859,0.24088 h -4.3815 l 0.07813,-0.24088 q 0.670571,0 0.97656,-0.2474 0.305989,-0.2539 0.559895,-1.1263 l 1.966141,-6.64712 q -1.015623,0.0326 -1.699215,0.44271 -0.683592,0.41016 -1.249997,1.36719 h -0.253905 z"
     style="-inkscape-font-specification:'Times New Roman,  Bold Italic';fill:#ffffff"
     id="path2350" /><path
     d="m 54.189433,121.18488 h -2.734368 l -0.546874,0.67708 -0.624998,0.7487 q -0.182292,0.24088 -0.266927,0.43619 -0.0651,0.14974 -0.0651,0.29948 0,0.15625 0.16276,0.29297 0.169271,0.13021 0.553384,0.14974 v 0.24088 h -2.636712 l 0.0651,-0.24088 q 0.351562,-0.0586 0.624999,-0.2474 0.364582,-0.26041 1.048174,-1.07421 L 56.025366,115 h 0.292968 l -0.292968,7.22654 q -0.01953,0.56641 -0.01953,0.68359 0,0.44271 0.175781,0.64453 0.182291,0.20183 0.598957,0.23438 l -0.0651,0.24088 h -3.821605 l 0.07161,-0.24088 q 0.566405,-0.0521 0.651041,-0.0911 0.182291,-0.0911 0.33203,-0.3776 0.149739,-0.29297 0.182291,-1.00911 z m 0,-0.53386 0.16927,-2.87759 -2.454421,2.87759 z"
     style="-inkscape-font-specification:'Times New Roman,  Bold Italic';fill:#ffffff"
     id="path2352" /><path
     d="m 59.521448,115.4427 0.07161,-0.24088 h 4.309885 l -0.08463,0.24088 q -0.585936,0 -0.898436,0.26042 -0.305988,0.26042 -0.540363,1.08724 l -1.614579,5.65102 q -0.175781,0.59896 -0.175781,0.80078 0,0.23438 0.182291,0.36459 0.234375,0.16927 0.885415,0.18229 l -0.0651,0.24088 h -4.3815 l 0.07162,-0.24088 q 0.65755,0 0.963539,-0.2474 0.305989,-0.2539 0.553384,-1.10026 l 1.6276,-5.65102 q 0.149739,-0.52083 0.149739,-0.78776 0,-0.24089 -0.182291,-0.3776 -0.182291,-0.13672 -0.872393,-0.1823 z"
     style="-inkscape-font-specification:'Times New Roman,  Bold Italic';fill:#ffffff"
     id="path2354" /><path
     d="m 67.620386,115.20182 2.760409,5.8854 1.243487,-4.27082 q 0.09766,-0.35156 0.09766,-0.625 0,-0.32552 -0.208333,-0.52083 -0.201822,-0.19531 -0.703123,-0.22787 l 0.07161,-0.24088 h 2.799472 l -0.0651,0.24088 q -0.533852,0.0326 -0.885414,0.29948 -0.345051,0.26693 -0.585936,1.07422 l -2.154943,7.31118 h -0.247395 l -3.541657,-7.52602 -1.712236,5.86587 q -0.08464,0.30599 -0.08464,0.54687 0,0.35156 0.227864,0.5664 0.234375,0.20834 0.742186,0.20834 l -0.05859,0.24088 h -2.877597 l 0.05859,-0.24088 q 0.371093,0 0.527342,-0.0651 0.273437,-0.10416 0.533853,-0.39713 0.260416,-0.29948 0.423176,-0.85937 l 1.868485,-6.41275 q -0.345051,-0.38411 -0.579426,-0.49479 -0.234374,-0.11067 -0.703123,-0.11719 l 0.07161,-0.24088 z"
     style="-inkscape-font-specification:'Times New Roman,  Bold Italic';fill:#ffffff"
     id="path2356" /></g></svg>
