<?xml version="1.0" encoding="utf-8"?>
<!-- Generator: Adobe Illustrator 19.0.0, SVG Export Plug-In . SVG Version: 6.00 Build 0)  -->
<svg version="1.1" id="Layer_1" xmlns="http://www.w3.org/2000/svg" xmlns:xlink="http://www.w3.org/1999/xlink" x="0px" y="0px"
	 viewBox="0 0 90 135" style="enable-background:new 0 0 90 135;" xml:space="preserve">
<style type="text/css">
	.st0{fill:#FFFFFF;stroke:#000000;stroke-miterlimit:10;}
	.st1{fill:none;stroke:#000000;stroke-miterlimit:10;}
	.st2{opacity:0.51;}
	.st3{fill:#00AEEF;}
	.st4{fill:none;}
	.st5{font-family:'MosaicoSCSC';}
	.st6{font-size:9px;}
	.st7{font-size:12px;}
</style>
<path id="XMLID_6_" class="st0" d="M78,0H12C5.4,0,0,5.4,0,12v111c0,6.6,5.4,12,12,12h66c6.6,0,12-5.4,12-12V12C90,5.4,84.6,0,78,0z
	"/>
<path id="XMLID_81_" class="st1" d="M77.8,6.3c0.2-0.5,0.4-1,0.6-1.6c-1.3,2.6-1.1,5.7-0.4,8.6c0.7,2.8,1.7,5.6,1.8,8.6
	c0,0.7-0.1,1.5-0.7,1.9c-0.3-0.4-0.4-1-0.3-1.4"/>
<path id="XMLID_82_" class="st1" d="M70.2,16.3c-0.2-0.4-0.1-1,0.2-1.3c0.9,4,5.3,6.5,9.4,6.4c1.5-0.1,3-0.4,4.1-1.4
	c1.1-1,1.7-2.6,1.1-3.9c-0.1,0.2-0.1,0.4-0.2,0.6"/>
<path id="XMLID_83_" class="st1" d="M72.9,9.9c3,0.5,6.2,0.1,9-1.1c-0.4,0.1-0.7,0.1-1.1,0.2"/>
<path id="XMLID_68_" class="st1" d="M51.5,41c0.4,0,0.8,0.2,1,0.6c0.2-0.8-0.5-1.6-1.1-2.2c-5.1-4.6-10.1-9.1-15.2-13.7
	c-5,2.1-9.8,4.5-14.4,7.3c5.4,5.4,12.7,9.1,15.7,16.1c5.4-2,10.6-4.5,15.6-7.3c-1.2,0.8-2.4,1.7-3.6,2.5"/>
<path id="XMLID_69_" class="st1" d="M26,38.4c-5.4,1.2-9.8,6.1-10.4,11.6c-0.4,3.4,0.6,6.9,0.3,10.3c-0.2,2.6-1.1,5.2-0.6,7.8
	c0.3,1.9,1.4,3.6,2.4,5.3c1.3,2,2.6,4.1,3.8,6.1c2.3,3.6,4.7,7.4,8.5,9.4c3.1,1.7,6.8,1.9,10.3,2c3.5,0.2,7.2,0.3,10.5-0.9
	c3.3-1.2,6.4-4,6.6-7.5c0.1-1.5-0.2-3.1,0.6-4.3c0.3-0.4,0.7-0.8,0.9-1.2c0.5-1,0.1-2.1-0.1-3.2c-0.7-2.7-0.7-5.6-0.1-8.3
	c0.3,1,0.8,2,1.7,2.5c1.6,0.8,3.7-0.7,4-2.4s-0.6-3.6-1.8-4.9c-1.5-1.7-3.5-3.3-3.6-5.6c-0.1-1.8,1.1-3.4,1.5-5.2
	c0.5-2,0.1-4-0.7-5.9c-2.5-6.2-9-10.7-15.7-10.9"/>
<path id="XMLID_70_" class="st1" d="M21.2,53.4c2,2.7,5.4,4.2,8.7,3.8c1-0.1,2.1-0.4,3.1-0.4c1,0,2.2,0.2,3-0.4
	c1.8-1.3,0.3-4.7,2-6.2c0.1,0.3,0.1,0.6,0.2,0.9"/>
<path id="XMLID_71_" class="st1" d="M32.5,51c0-0.1,0-0.2,0-0.3"/>
<path id="XMLID_72_" class="st1" d="M31.5,46c0,0.1,0,0.2,0,0.3"/>
<path id="XMLID_73_" class="st1" d="M27.2,44c-0.1-0.1-0.2-0.2-0.3-0.3"/>
<line id="XMLID_74_" class="st1" x1="25.8" y1="52.3" x2="25.8" y2="52.3"/>
<path id="XMLID_75_" class="st1" d="M24.1,47.3c0,0.3,0.1,0.7,0.1,1"/>
<path id="XMLID_76_" class="st1" d="M21.8,42.7c0.1,0,0.2,0,0.3,0"/>
<path id="XMLID_77_" class="st1" d="M26.5,41.3c0,0.3,0,0.7,0,1"/>
<path id="XMLID_78_" class="st1" d="M18.5,49.3c0.1,0.1,0.2,0.2,0.3,0.3"/>
<path id="XMLID_79_" class="st1" d="M24.8,54.7c0,0.1,0,0.2,0,0.3"/>
<line id="XMLID_80_" class="st1" x1="28.2" y1="47.3" x2="28.2" y2="47.3"/>
<path id="XMLID_121_" class="st1" d="M28.5,51.7c0.1-0.3-0.1-0.6-0.3-0.6"/>
<path id="XMLID_122_" class="st1" d="M32.2,54.3c0,0.2,0,0.4,0,0.7"/>
<line id="XMLID_123_" class="st1" x1="32.2" y1="48" x2="32.2" y2="48"/>
<path id="XMLID_124_" class="st1" d="M29.8,45c0.1,0.1,0.2,0.2,0.3,0.3"/>
<path id="XMLID_125_" class="st1" d="M41.1,46.4c-0.7-2.6-2.7-4.7-4.9-6.3c-2.2-1.6-4.6-2.9-6.6-4.7"/>
<path id="XMLID_126_" class="st1" d="M45.8,44.6c1-1.4-0.5-3.2-1.7-4.3c-2.3-1.9-4.5-3.9-6.8-5.8c-0.4-0.3-0.8-0.7-1.3-0.7
	c-0.4-0.1-0.8,0-1.1-0.1c-0.4-0.1-0.6-0.7-0.3-0.9"/>
<path id="XMLID_127_" class="st1" d="M57.4,50.8c-0.9-0.3-1.9,0.1-2.4,0.9c-0.5,0.8-0.3,1.9,0.4,2.5c0.4,0.2,0.8,0.3,1.2,0.5
	c0.9-1.1,1.8-2.1,2.7-3.2"/>
<path id="XMLID_128_" class="st1" d="M44.8,55.9c0.2-0.2-2.7,0.6-3.3,1c-1.1,0.7-2.6,1.8-3.4,2.8c-1.3,1.6-2.6,3.4,0.7,3
	c2.6-0.3,5-1.3,7.1-2.8c0.6-1.5,1-3.1,1.2-4.7c-0.7,0-1.3-0.5-1.5-1.2"/>
<path id="XMLID_129_" class="st1" d="M38.2,53.7c1.7,0,3.3,0,5,0"/>
<path id="XMLID_130_" class="st1" d="M55,45.1c-0.8,2-1.6,3.9-2.5,5.9c-0.1,0.2-0.2,0.4,0,0.6s0.5,0,0.4-0.2"/>
<path id="XMLID_131_" class="st1" d="M46.5,79.9c0.3,0.4,1,0.2,1.4-0.2c0.3-0.4,0.5-0.9,0.6-1.4c0.8-2.1,3-3.4,5.2-4
	c1.7-0.5,4-0.3,4.7,1.3"/>
<path id="XMLID_132_" class="st1" d="M42.2,58.7c0.3-0.1,0.7,0,1,0.2c-0.4,0.3-0.8,0.5-1.3,0.8c0.2-0.5,1-0.6,1.2-0.1
	c-0.5,0.1-1.1,0.1-1.6,0c0.2-0.3,0.5-0.6,0.9-0.5c0.3,0.4-0.5,0.7-1,0.5c0-0.5,0.1-1,0.1-1.5c0.4,0.2,0.7,0.8,0.4,1.2
	c-0.3,0.4-1.1,0.3-1.1-0.2c-0.1-0.5,0.8-0.7,0.9-0.3"/>
<path id="XMLID_133_" class="st1" d="M56.3,52.4c-0.1,0.2,0.1,0.4,0.3,0.4c0.2-0.1,0.1-0.4-0.1-0.5"/>
<path id="XMLID_134_" class="st1" d="M24.5,63.9c0.1,0.2,0.4,0.1,0.5-0.1c0.1-0.2,0-0.4-0.1-0.7c-0.3-0.7-0.6-1.3-0.8-2
	c-0.6-1.5-1.5-3.2-3-3.5c-1.2-0.3-2.4,0.4-3.2,1.3c-0.7,1-1.1,2.2-1.2,3.4c-0.2,1.1-0.2,2.3,0,3.4c0.3,1.6,1.3,3,2.2,4.3
	c0.9,1.3,2.3,2.8,3.8,2.3c1.2-0.4,1.6-1.9,1.6-3.1c0-1.2-0.3-2.5,0-3.7c-0.2,0.3,0,0.7,0.3,0.8"/>
<path id="XMLID_135_" class="st1" d="M54.4,45.9c0.9-0.3,1.8,0.1,2.4,0.8c0.5,0.7,0.6,1.8,0.1,2.5c-1.7,0.2-3-2.2-1.9-3.5
	c0.7,0.2,2.9,2.1,3.6,2.3"/>
<path id="XMLID_136_" class="st1" d="M22.9,69.7c-5.3,0.3-2,10.6,0.1,6.8c0.1,0.4,0.3,0.7,0.4,1.1c1.5-2.1,1.9-7.2-1.9-7.3"/>
<path id="XMLID_137_" class="st1" d="M21.2,80c-0.2-0.1-0.4-0.3-0.6-0.4c-2.8,2-6.4,2.4-9.7,3.1s-7,2-8.6,5c1.1,0,2.1-0.7,2.5-1.7"
	/>
<path id="XMLID_52_" class="st1" d="M58.4,80.2C68.5,78,79.5,80,89.6,83"/>
<path id="XMLID_139_" class="st1" d="M15.3,81.3c0.6,4.6,3.7,8.6,7.6,11.2c3.9,2.5,8.5,3.7,13.2,4.2c5.3,0.6,10.7,0.5,15.9-0.5
	c2.5-0.4,5-1,7.1-2.3c4.3-2.6,6.9-7.8,6.2-12.8c-0.1-0.2,0.4-0.4,0.5-0.1s-0.1,0.5-0.3,0.6"/>
<path id="XMLID_54_" class="st1" d="M74.9,82.7c0.2-0.5,0.3-0.7,0.4-1.3c-0.4,4.3,0.8,8.6,3.1,12.2c3.2,3.3,5.2,6.3,9,7.7"/>
<path id="XMLID_141_" class="st1" d="M11.5,84.3c0-0.4-0.3-0.7-0.7-0.7c0.9,3.4-0.2,7.2-2.1,10.1s-5.1,5-8.5,5.5
	c0.8-0.2,1.5-0.4,2.3-0.6"/>
<path id="XMLID_142_" class="st1" d="M52,43.1c0.6-0.9,1.6-1.9,2.6-1.7c0.6,0.1,1,0.6,1.5,1c1.3,1,3.2,1.3,4.7,0.6"/>
<path id="XMLID_143_" class="st1" d="M56.6,52.3c-0.1,0-0.2,0-0.3,0"/>
<g id="XMLID_160_" class="st2">
	<g id="XMLID_14_">
		<path id="XMLID_18_" class="st3" d="M72.2,25.8c3.9,2.7,10.1-1.1,7.2-5.8c-1.1-1.8-4-1.5-4.6,0.6c-0.4,1.5-0.2,2.2,0.4,3.6
			c0.4,0.8,1.4,1.2,2.2,1.2c5.8,0.3,4.5-7.9,0.4-9.6c-1.2-0.5-2.4-0.8-3.7-0.5c-0.5,0.1-1.2,0.3-1.6,0.6c-0.6,0.5-1.3,1.6,0.1,1.3
			c2.6-0.6,2.5-4.6,1.4-6.2c-0.7-1-1.6-1.3-2.8-1.1c-3.3,0.5-3.8,4.4-3.8,7.1c0.1,3.6,1.2,6.9,4.7,8.5c3.3,1.5,7.8,1.7,10.9-0.2
			c4.6-2.8,2.2-7.9,3.5-12.2c-1.6-0.2-3.3-0.4-4.9-0.7c0,1.7-0.9,3-1,4.6c0,0.7,0.7-1.2,0.8-1.8c0.4-1.5,1-2.9,0.1-4.4
			c-1.9-3.1-5.3-1.2-8-1.9c0.4,1.4,0.7,2.8,1.1,4.2c-0.9-0.5-1.3-0.3-1.3,0.7c-0.2,0.6-0.3,1.2-0.5,1.8c-0.4,1.3-0.6,2.4-0.6,3.7
			c0,3.2,5,3.2,5,0c0-2.8,0.6-5.6,0.7-8.5c0-1.5-0.8-4.3,0.6-5.5c-1,0.1-2,0.3-3,0.4c2.7,1.2,2.8,5,1.9,7.4c1.6,0.4,3.2,0.9,4.8,1.3
			c0.1-0.6,2.3-5.4,1.9-5.8c-0.6,0.1-1.2,0.2-1.8,0.3c0.1,0.3,0.3,0.5,0.4,0.8c0-0.2,1,2.4,0.8,2.4c-3.2,0.4-3.2,5.4,0,5
			c6.3-0.8,5.8-6.8,2.9-11.1c-1.2-1.8-3.5-3-5.5-1.6c-2.1,1.4-2.9,6.4-3.5,8.7c-0.8,3.2,3.6,4.2,4.8,1.3c1.8-4.3,0.5-11.1-4.1-13
			c-1.1-0.5-2.1-0.4-3,0.4c-2,1.6-2.2,4.1-2.2,6.5c0.1,3.7-0.5,7.3-0.5,11c1.7,0,3.3,0,5,0c0-3.2,2.8-6.8,0.4-9.7
			c-1.9-2.3-4.6-1.9-6.6,0c-1.3,1.3-0.7,3.8,1.1,4.2c1.2,0.3,2.4,0.3,3.6,0.1c1.1-0.2,1.3,0.4,1-0.5c0.1,0.3-0.4,1.6-0.5,2
			c-0.4,2.3-0.2,5.4,2.1,6.7c5.6,3.3,8.2-6,8.2-9.8c0-2.8-4.1-3.4-4.9-0.7c-0.6,2.1-0.8,3.9-0.7,6c0.2,3.1-1.6,4.2-4.5,3.8
			c-2.1-0.3-3.5-0.9-4-3.1c-0.2-1,0-3.8,0-3.8c-0.9-0.4-1.9-0.8-2.8-1.1c0.5-0.8,0.4-0.8-0.3-0.1c-0.3,0.2-0.6,0.5-0.8,0.7
			c-0.4,0.4-0.8,0.9-1,1.5c-0.6,1.7,0.2,3.5,1.4,4.6c1.1,1,2.4,1.6,3.9,1.2c0.8-0.2,1.4-1,2.2-1.3c0.1,0,2.1,0.1,2.3,0.1
			c0.7,0.4,1.4,0.8,2.2,1.2c0,0.1,0.1,0.2,0.1,0.3c-1.5,0.2-3,0.4-4.6,0.6c-0.1-0.4-0.3-0.7-0.4-1.1C72.1,19.7,69.6,24,72.2,25.8
			L72.2,25.8z"/>
	</g>
</g>
<path id="XMLID_90_" class="st4" d="M12,0h66c6.6,0,12,5.4,12,12v111c0,6.6-5.4,12-12,12H12c-6.6,0-12-5.4-12-12V12
	C0,5.4,5.4,0,12,0z"/>
<text id="XMLID_2_" transform="matrix(1 0 0 1 0 94.6201)"><tspan x="0" y="0" class="st5 st6"> </tspan><tspan x="0" y="14.4" class="st5 st7">   CAPTAIN: </tspan><tspan x="0" y="25.2" class="st5 st6">   Steal 2 coins from another player</tspan><tspan x="2.7" y="36" class="st5 st6">  Blocks stealing</tspan></text>
</svg>
