<?xml version="1.0" encoding="utf-8"?>
<!-- Generator: Adobe Illustrator 19.0.0, SVG Export Plug-In . SVG Version: 6.00 Build 0)  -->
<svg version="1.1" id="Layer_1" xmlns="http://www.w3.org/2000/svg" xmlns:xlink="http://www.w3.org/1999/xlink" x="0px" y="0px"
	 viewBox="0 0 90 135" style="enable-background:new 0 0 90 135;" xml:space="preserve">
<style type="text/css">
	.st0{fill:#FFFFFF;stroke:#000000;stroke-miterlimit:10;}
	.st1{fill:#6D6E71;stroke:#000000;stroke-miterlimit:10;}
</style>
<path id="XMLID_169_" class="st0" d="M78,0H12C5.4,0,0,5.4,0,12v111c0,6.6,5.4,12,12,12h66c6.6,0,12-5.4,12-12V12
	C90,5.4,84.6,0,78,0z"/>
<g id="XMLID_203_">
	<path id="XMLID_199_" class="st1" d="M26.9,26.6c0,0,0,0.1,0,0.1c-0.6-0.6-1.8,0.2-2.5,0c-0.2-0.1-0.9-0.4-1.2-0.2
		c-0.3,0.2,0.1,0.7,0.2,1c0.4,0.7,0.7,1.4,1.1,2c0.4,0.5,1,1.2,1.5,1.7c0-0.1,0-0.1,0-0.2"/>
	<g id="XMLID_202_">
		<path id="XMLID_250_" class="st1" d="M36.9,84.6c-0.5-1.4-0.7-2.9-1.2-4.3c-0.4-1.1-0.9-2.2-1.1-3.3c-0.4-1.8-1.3-3.5-2-5.2
			c-0.5-1.2-0.9-2.5-1.3-3.7c-0.2-0.6-0.6-1.2-0.7-1.9c-0.2-1,0.5-1.1,1.1-1.6c0.5-0.4,1.1-1,1.8-1.1c-0.6-1.2-1.7-2.3-2.5-3.4
			c-0.7-0.9-0.9-2.2-1.5-3.2c-0.5-0.9-0.8-2-1.4-2.9c-0.7,0.3-1.1,1.2-1.6,1.8c-0.4,0.5-0.5,0.9-0.8,1.4c-0.4,0.7-1,1.4-1.5,2
			c-0.8,0.9-1.7,1.9-2.5,2.8c-1,1.2-1.8,2.6-2.9,3.8c-0.9,1-1.6,1.7-1.8,2.9c0,0.1,0,0.1,0,0.2c0,0.9-0.3,1.7-0.9,2.4
			c0,0-0.1,0.1-0.1,0.1c0,0.1,0,0.2,0,0.2c0,0.4,0.2,0.7,0.5,0.9c0.2,0.5,0.2,0.8,0.3,1.4c0.1,0.6,0.4,1.2,0.6,1.9
			c0.2,1.1,0.5,2.1,0.5,3.2c0,1.8-0.4,3.5,0,5.2c0.4,1.2,0.7,2.4,0.9,3.6c0.1,0.9,0.1,1.8,0.1,2.7c0.4,0,1.2-0.3,1.6-0.4
			c2.1-0.4,4.2-1.1,6.4-1.3c1.8-0.2,3.7-0.1,5.6,0c1.7,0.1,3.7,0.5,5.4,0.2C37.6,87.6,37.3,86,36.9,84.6z"/>
		<path id="XMLID_182_" class="st1" d="M52.7,86.9c0-0.1,0-0.1,0-0.2c0.8-0.3,2.1,0,3,0c1.9,0,4,0.3,5.9,0c1.5-0.2,3-0.3,4.5,0
			c1,0.2,2.2,0.2,3.1,0.5c0.3-0.9-0.1-2,0.1-3c0.3-1.5,0.9-3,1.3-4.5c0.3-1.5,0.9-2.9,1.2-4.3c0.2-0.8,0.4-1.6,0.7-2.4
			c0.4-1.1,0.5-2.3,0.9-3.4c0.3-0.9,0.7-1.7,0.9-2.6c0.1-0.8,0.4-1.3,0.6-2c0.2-0.6,0.4-1.3,0.5-1.9c0.1-0.5,0-1,0.1-1.5
			c0.1-0.4,0.2-0.4,0.1-0.8c-0.1-0.3-0.2-0.5-0.3-0.7c-0.3-0.7-0.7-1.1-1.2-1.7c-0.5-0.5-0.9-1.2-1.4-1.7c-0.5-0.5-1.1-1-1.6-1.5
			c-1.1-1-2.3-1.9-3.4-2.9c-0.9-0.8-2-1.5-3-2.2c-0.5-0.4-0.9-0.9-1.5-1.2c-0.6-0.3-1-0.7-1.5-1c-0.9-0.6-1.6-1.5-2.5-2.2
			c-0.6-0.5-1.2-0.7-1.9-1c-0.4-0.2-0.6-0.4-1-0.6c-0.5-0.3-0.6-0.6-1-1c-0.3-0.3-0.7-0.5-1.1-0.7c-0.5-0.4-0.5-0.6-1-0.2
			c-0.7,0.6-1.2,1.9-1.6,2.7c-0.3,0.6-0.8,1.4-0.9,2c-0.1,0.6-0.2,1.3-0.3,2c-0.3,1.4-0.9,2.8-1.3,4.2c-0.4,1.3-1,2.5-1.3,3.8
			c-0.2,1,0,1,0.8,1.3c1.6,0.6,3,1.6,4.6,2c0.9,0.2,1.9,0.3,2.8,0.7c0.3,0.2,1.1,0.5,1.1,0.9c-1.2,0.4-1.8,3.6-2,4.5
			c-0.5,1.8-1,3.7-1.5,5.5c-0.5,1.7-0.8,3.4-1.2,5c-0.7,2.5-1.1,5.1-1.4,7.7c-0.1,0.9,0,1.8-0.3,2.7c-0.1,0.4-0.4,0.8-0.5,1.3
			c0.2,0.1,0.5,0.2,0.7,0.3"/>
		<path id="XMLID_197_" class="st1" d="M26.4,31.4c-0.1,0.4,0.3,1.4,0.4,1.8c0.3,0.6,0.5,1.2,0.8,1.7c0.6,1.2,0.9,2.5,1.4,3.8
			c0.2,0.7,0.7,1.3,0.9,2c0.2,0.5,0.5,0.8,0.7,1.4c0.2,0.6,0.7,1.1,0.9,1.7c0.1,0.3,0.1,0.6,0.2,0.9c0.1,0.2,0.4,0.5,0.5,0.7
			c0.1,0.2,0,0.5,0.1,0.7c0.1,0.3,0.5,0.7,0.6,1c0.2,0.4,0.4,0.8,0.6,1.2c0.4,0.9,0.7,1.8,1,2.7c0.1,0.3,0.4,0.7,0.5,1
			c0.2,0.5,0.5,1,0.7,1.5c0.1,0.2,0.1,0.5,0.2,0.7c0.1,0.2,0.2,0.4,0.3,0.6c0.1,0.2,0.1,0.4,0.2,0.6c0.2,0.3,0.3,0.6,0.4,0.9
			c0.3,0,0.3-0.3,0.5-0.4c0.2-0.1,0.5,0,0.7,0c0.4-0.1,0.6-0.4,1-0.5c0.1,0,0.5-0.2,0.5-0.2c0.5-0.1,0.9-0.3,1.4-0.3
			c0.6,0,1.1-0.3,1.6-0.5c0.4-0.1,1-0.1,1.2-0.5c0.1-0.2,0-0.8,0-1c0-0.3,0.1-0.5,0.2-0.7c0.1-0.5,0-1,0.1-1.5
			c0.1-0.4,0.2-0.6,0.2-1c0-0.6,0-1,0.2-1.6c0.1-0.5,0.3-0.8,0.3-1.3c0-1.1,0.1-1.9,0.6-2.9c0.4-0.8,0.6-1.7,0.8-2.6
			c0.2-1,0.4-2,0.6-3c0.2-1.1,0.6-2.1,0.9-3.2c0.3-1.4,0.1-2.9,0.5-4.2c0.2-0.8,0.5-1.6,0.6-2.4c0.1-0.7-0.1-1.4,0-2
			c0.1-0.6,0.7-1.2,0.4-1.8c-0.3,0-0.4,0.2-0.7,0.3c-0.4,0.2-0.5,0.1-1,0.2c-0.5,0-1,0.3-1.5,0.2c-0.5-0.1-0.9-0.2-1.4-0.2
			c-0.7,0-1.4,0.2-2.1,0.3c-0.5,0-1-0.1-1.5-0.2c-1.2-0.2-2.4,0.1-3.6,0.3c-1.1,0.2-2,0.3-3.1,0.6c-0.7,0.2-1.5,0.3-2.2,0.4
			c-0.7,0.2-1.2,0.6-1.9,0.8c-1,0.4-2.1,0.4-3.2,0.3c0.2,0.1,0.3,0.1,0.4,0.3"/>
		<path id="XMLID_200_" class="st1" d="M30.4,97.4c0-1,1.8-0.8,2.4-0.8c1.5,0,3,0,4.6,0c1.4,0,2.9,0,4.3,0c1.9,0,3.7-0.4,5.5-0.5
			c1.4-0.1,2.8,0.1,4.2-0.2c0.7-0.1,1.4,0,2-0.1c0.8-0.1,1.3-0.2,2.1-0.2c0.9,0,1.8,0.1,2.6,0c0.8,0,1.6-0.5,2.4-0.5
			c-0.3,0.3-0.4,0.7-0.6,1.1c-0.3,0.5-0.8,0.7-1,1.2c-0.4,0.9-0.9,1.6-1.3,2.5c-0.2,0.4-0.3,0.8-0.4,1.2c-0.1,0.5-0.4,0.8-0.5,1.3
			c-0.6,1.6-0.9,3.5-1.6,5.1c-0.1,0.3-0.4,0.6-0.5,0.9c-0.1,0.3,0,0.6-0.1,0.9c-0.1,0.5,0,1.1-0.2,1.6c-0.6-0.2-1.1-0.2-1.8-0.2
			c-0.7,0-1.4-0.1-2.1,0c-0.8,0.1-1.5,0.5-2.4,0.5c-2.2,0-4.3,0.5-6.4,0.5c-1.4,0-2.7,0.2-4.1,0.2c-0.4,0-0.8,0-1.3,0
			c-0.5,0-1,0.5-1.5,0.5c-0.1-0.4,0-1-0.1-1.4c-0.2-1.2-0.9-2-1.4-3c-0.4-0.8-0.5-1.8-0.9-2.6c-0.5-1-0.9-1.9-1.2-3.1
			c-0.3-1-0.5-1.9-0.9-2.9c-0.2-0.6-0.2-0.9-0.3-1.4c-0.1-0.5-0.4-1.2-0.7-1.7c0.2,0.3,0.4,0.5,0.7,0.7"/>
		<path id="XMLID_201_" class="st1" d="M26.7,32.4c-0.1-0.1-0.1-0.3-0.2-0.4c-0.1-0.1-0.2-0.2-0.2-0.4c0-0.1-0.1-0.1-0.1-0.2
			c0-0.1-0.1-0.1-0.2-0.1c-0.1-0.2-0.3-0.3-0.4-0.5c0,0-0.1-0.1-0.1-0.1c0-0.1-0.1-0.1-0.1-0.2c0-0.1-0.1-0.1-0.1-0.2
			c-0.1-0.1-0.1-0.2-0.2-0.3c-0.1-0.1-0.2-0.1-0.2-0.2c-0.1-0.1-0.1-0.2-0.1-0.3c-0.1-0.1-0.2-0.2-0.2-0.3c-0.1-0.1-0.2-0.2-0.2-0.3
			c0,0-0.1,0-0.1-0.1c-0.1-0.1-0.1-0.1-0.2-0.2c-0.1-0.2-0.3-0.3-0.3-0.5c-0.1-0.2-0.1-0.4-0.2-0.6c0-0.1-0.1-0.2-0.1-0.3
			c0-0.1-0.1-0.1-0.1-0.2c0-0.1-0.1-0.3-0.1-0.4c0-0.1-0.1-0.1-0.1-0.2c0,0,0.1-0.1,0.1-0.1c0.1,0,0.2,0,0.3,0c0.1,0,0.2,0,0.3,0
			c0.1,0,0.3,0,0.4,0c0.1,0,0.2,0,0.3,0c0.1,0,0.2,0,0.4,0c0.2,0,0.4,0,0.6,0c0.2,0,0.4,0,0.6,0c0.4,0,0.8,0.2,1.1,0.4
			c0.2,0.1,0.5,0.1,0.7,0.1c0.1,0,0.2,0,0.3,0c0.1,0,0.2,0,0.2,0c0.5,0,0.9,0.1,1.4-0.1c0.1-0.1,0.3-0.2,0.4-0.2
			c0.1-0.1,0.3-0.1,0.5-0.1c0.1,0,0.3-0.1,0.4-0.1c0.1,0,0.2,0,0.2-0.1c0,0,0.1-0.1,0.1-0.1c0.1,0,0.2,0,0.3-0.1
			c0.1,0,0.1-0.1,0.2-0.1c0,0,0.2,0,0.3,0c-0.1,0-0.1,0-0.2-0.1"/>
	</g>
</g>
</svg>
