<?xml version="1.0" encoding="utf-8"?>
<!-- Generator: Adobe Illustrator 19.0.0, SVG Export Plug-In . SVG Version: 6.00 Build 0)  -->
<svg version="1.1" id="Layer_1" xmlns="http://www.w3.org/2000/svg" xmlns:xlink="http://www.w3.org/1999/xlink" x="0px" y="0px"
	 viewBox="0 0 90 135" style="enable-background:new 0 0 90 135;" xml:space="preserve">
<style type="text/css">
	.st0{fill:#FFFFFF;stroke:#000000;stroke-miterlimit:10;}
	.st1{fill:none;stroke:#000000;stroke-miterlimit:10;}
	.st2{opacity:0.51;}
	.st3{fill:#ED1C24;}
	.st4{fill:none;}
	.st5{font-family:'MosaicoSCSC';}
	.st6{font-size:9px;}
	.st7{font-size:12px;}
</style>
<path id="XMLID_15_" class="st0" d="M78,0H12C5.4,0,0,5.4,0,12v111c0,6.6,5.4,12,12,12h66c6.6,0,12-5.4,12-12V12C90,5.4,84.6,0,78,0
	z"/>
<path id="XMLID_92_" class="st1" d="M73,24.6c-2.8-4.1-6.1-7.9-9.9-11.2c2-0.9,3.8-2.2,5.3-3.8c0.4-0.4,0.7-0.8,1.2-1
	c0.4-0.2,0.9-0.2,1.4-0.2c2.5,0,5.1-0.1,7.6-0.1c0.6,0,1.3,0,1.8,0.2c0.4,0.2,0.8,0.5,1.2,0.8c1.8,1.6,3.7,3.2,5.5,4.8
	c-5.5,3.1-10.6,7.1-14.9,11.8c1.3-0.9,2.4-1.9,3.4-3.1"/>
<path id="XMLID_53_" class="st1" d="M43.8,88.1c-2-8.1-3.3-17.2-6.9-24.7C33.6,56.8,26,52.5,28,44.2c1.6-6.6,7.5-14.9,14.5-16.2
	c7.4-1.3,14.2,3.1,17.7,9.4c4.6,8.3,3.8,18.2,2.3,27.2c1.5-1.5,3.5-3.3,5.8-2.8C69,62,71,63,71,65c-1,6-8,8-12,12
	c6,19,10,38,15.9,57.3"/>
<path id="XMLID_94_" class="st1" d="M40.9,77.1c-3.8,1.1-7.6,2.2-11.5,3.3c-3.7,1.1-7.5,2.2-11.1,3.6c-7.1,3-13.5,7.6-18.5,13.3
	c-0.2,0.2-0.4,0.6-0.2,0.8s0.5-0.4,0.2-0.3"/>
<path id="XMLID_95_" class="st1" d="M28.2,52.3c-4.2-5.7-8.9-11.2-14-16.1c-1.8-1.8-4.1-3.7-6.6-3.3c-2.1,0.3-3.7,2-4.5,4
	S2.3,40.9,2.3,43c0,15.8,1.1,31.7,3.2,47.4"/>
<path id="XMLID_96_" class="st1" d="M62.7,74.6c1.7-0.8,3.2-2.1,4.8-3.2C74,66.6,81.6,63.7,89.2,61c-0.2,0.3-0.4,0.7-0.5,1"/>
<path id="XMLID_97_" class="st1" d="M74.8,133.4c1.4-11.6-1.5-23.3-0.2-34.9c0.7-6.5,2.8-12.7,5.4-18.7c1.3-3,4.5-13.3,8.5-13.1
	c0.4,12.5-1.5,25.2-0.9,37.8c0.4,7.8,1,15.9-1.8,23.2"/>
<path id="XMLID_98_" class="st1" d="M70.9,64.2c2.1-0.5,3.1-2.8,3.5-4.9s0.3-4.3,1.2-6.2c-0.6-2.1-1.2-4.2-1.8-6.3
	c-0.4,0.5-0.7,1.1-1.1,1.6c0.6-1.7,0.8-3.6,0.6-5.4c-2-0.4-3.5-2.5-3.1-4.6c-2.5-2.2-4.4-5.1-5.3-8.3c0.3,0.3-0.4,0.7-0.7,0.4
	c-0.3-0.3-0.3-0.8-0.4-1.2c-0.3-1.2-2.2-1.5-2.9-0.5c-0.2-0.9-0.3-1.9-0.5-2.8c-1,1-2.8,0.3-3.6-0.9s-1.2-2.6-2.2-3.6
	s-3-1.2-3.5,0.1c-0.4-0.7-0.8-1.5-1.2-2.2c-0.6,1.9-3.3,2.2-5.2,1.4c-1.9-0.8-3.4-2.3-5.4-2.8S34.8,19,35.2,21c-0.5-0.3-1-0.7-1.5-1
	c-1.3,0.7-2.7,1.4-4,2.1c-0.4-0.5-0.7-1-1.1-1.5c-0.9,0.7-1.6,1.7-2.1,2.8c-0.5-0.4-1.1-0.8-1.6-1.1c-3.5,3.7-6,8.3-7.1,13.3
	c1.8-0.5,3.2,1.5,4,3.2c1.6,3.4,3.2,6.9,4.8,10.3"/>
<path id="XMLID_99_" class="st1" d="M29.2,43.8c1.7-1.8,4.6-2.4,6.8-1.4c2.2,1,3.5,3.2,4.7,5.3c1.5,2.5,2.9,5.1,3.4,7.9
	c0.5,2.9-0.3,6.1-2.6,7.8"/>
<path id="XMLID_100_" class="st1" d="M34.7,52.7c0.2-1.3,1.6-2.3,2.9-2.1c1.3,0.2,2.4,1.5,2.2,2.8c-1.9,1.1-4.3,1.3-6.3,0.5
	c-0.3-0.1-0.6-0.2-0.8-0.4c-0.4-0.5-0.2-1.4,0.3-1.8c0.5-0.4,1.2-0.5,1.9-0.6"/>
<path id="XMLID_101_" class="st1" d="M46.6,51.6c2-2.4,5.2-3.8,8.3-3.6c0.3,0,0.7,0.1,0.9,0.3c0.3,0.4-0.1,1.1-0.5,1.4
	c-1.6,1.4-3.7,2.2-5.7,2.1c-0.7,0-1.4-0.1-1.9-0.6c-0.5-0.5-0.7-1.3-0.2-1.8"/>
<path id="XMLID_102_" class="st1" d="M43,46.3c0.5-0.4,0.6-1.1,0.8-1.7c0.7-2.1,3.2-3.1,5.5-3.5c2.2-0.4,4.5-0.7,6.7-0.7
	c0.4,0,0.8,0,1.2,0.2c0.3,0.2,0.5,0.7,0.2,1"/>
<path id="XMLID_103_" class="st1" d="M33.3,59.1c3.3,0.1,6.7-1,9.3-3.1c0.3-0.2,0.6-0.5,1-0.5c0.3,0,0.6,0.2,0.9,0.3
	c3.4,2.1,7.6,2,11.6,1.9c1.3,0,2.8-0.2,3.3-1.3"/>
<path id="XMLID_104_" class="st1" d="M41.4,63c-0.2,0.9-0.1,1.8,0.3,2.6c1.2-0.2,2.3-0.8,3-1.7c0.8-0.1,1.5-0.7,1.7-1.5
	c0.2,0.2,0.3,0.6,0.3,0.9c1.5,0.1,2.8-1.7,2.2-3.1c0.7,0.4,0,1.8-0.8,1.5c-0.8-0.3-0.3-1.8,0.5-1.6"/>
<path id="XMLID_105_" class="st1" d="M40.8,68.5c1.1-0.7,1.9-1.9,3.1-2.4c2.3-1,5,0.8,7.5,0.3c0.6-0.1,1.4-0.4,1.8,0.1
	c0.3,0.4,0.2,1-0.2,1.4c-0.4,0.3-0.9,0.5-1.4,0.6c-2.4,0.6-4.9,1-7.4,1.4c-0.6,0.1-1.2,0.2-1.7-0.1c-0.5-0.2-1-0.9-0.7-1.4
	c0.3,0.2,0.6,0.4,1,0.5"/>
<path id="XMLID_106_" class="st1" d="M39.4,72.6c1.5,1.8,4,2.9,6.4,2.6c2.4-0.2,4.6-1.7,5.7-3.8"/>
<path id="XMLID_107_" class="st1" d="M37.8,52.1c-0.4,0.3-0.7,0.6-1.1,0.9c0-0.4,0-0.9,0-1.3c0.3-0.1,0.7,0.2,0.7,0.5
	c0,0.3-0.6,0.5-0.7,0.2c-0.1-0.3,0.5-0.6,0.5-0.2c-0.2,0.2-0.6,0.1-0.7-0.2c-0.1-0.3,0-0.6,0.1-0.9c0.2,0.2,0,0.6-0.3,0.6"/>
<path id="XMLID_108_" class="st1" d="M52.4,49.3c-0.4,0.2-0.2,0.8,0.2,0.8s0.4-0.8,0-0.8c0.4,0.2,0.5,0.7,0.2,1
	c-0.4-0.1-0.8-0.4-0.8-0.9c0.4-0.3,0.9,0.5,0.5,0.7C52.4,50.4,52,50.3,52,50C51.9,49.7,52.1,49.5,52.4,49.3c0.1,0.4-0.6,0.7-0.8,0.4
	c-0.2-0.4,0.5-0.8,0.7-0.4c-0.2,0.3-0.5,0.7-0.7,1"/>
<path id="XMLID_109_" class="st1" d="M62.3,66.7c1.1-0.5,2.3-1.1,3.4-1.6c-0.7,1.6-1.7,3.1-2.9,4.5c0.5,0.1,1,0.2,1.5,0.5
	c-0.7,0.9-2,1.3-3.1,0.9"/>
<path id="XMLID_110_" class="st1" d="M59.9,75.4c0.1-0.6,0.9-0.9,1.5-0.9c1.3,0.2,2.1,1.8,1.5,2.9c-0.6,1.1-2.4,1.3-3.3,0.3
	c-0.8-1-0.3-2.7,0.9-3.2"/>
<path id="XMLID_111_" class="st1" d="M43.5,27.5c-2.5-0.9-4.9-2.1-7.5-2.1c-2.6,0-5.5,1.7-5.6,4.3"/>
<path id="XMLID_112_" class="st1" d="M33.7,30.3c-2.6,1-5.2,2.2-6.6,4.6c-1.4,2.4-0.9,6,1.6,7.1"/>
<path id="XMLID_113_" class="st1" d="M26.1,27.5c0.2-0.2-0.2-0.6-0.5-0.6c-1,0-1.8,0.9-2.3,1.8c-1.3,2.1-2.2,4.3-2.8,6.7
	c0.2-0.2,0.4-0.5,0.5-0.7"/>
<path id="XMLID_114_" class="st1" d="M52.3,28.4c-0.7-1.3-2.6-1-4-1.4c-1.8-0.4-3.2-2.1-3.2-3.9c0,0.5-0.1,1.1-0.4,1.6"/>
<path id="XMLID_115_" class="st1" d="M51.6,22.7c0.8,1.7,1.7,3.3,2.8,4.8"/>
<path id="XMLID_116_" class="st1" d="M59.5,31.3c0.3,2.2,0.3,4.5,0.2,6.7"/>
<path id="XMLID_117_" class="st1" d="M65.7,53.7c-0.3-1.7,0.5-3.5,2-4.4c-0.9-1.1-0.4-2.9-0.8-4.3c-0.3-1-1-1.8-1.5-2.7
	c-0.5-0.9-0.7-2.1,0-2.9"/>
<path id="XMLID_119_" class="st1" d="M41.4,87.1c-4.9-1.1-10-1.7-15-1.8c-0.7,0-1.4,0-2.1,0.1"/>
<path id="XMLID_120_" class="st1" d="M46.6,85.7c4.7-0.5,9.4-0.6,14-0.5"/>
<g id="XMLID_161_" class="st2">
	<g id="XMLID_12_">
		<path id="XMLID_18_" class="st3" d="M61,17.5c3.2,0,3.8-2.2,5.5-4.4c-1.4-0.8-2.8-1.6-4.2-2.4c-0.7,2.1-1.5,4-1.8,6.2
			c-0.4,3.1,4.2,4.6,4.8,1.3c0.5-2.5,1.4-5.1,2.2-7.6c-1.2,0.5-2.4,1-3.7,1.5c0.6,0.4-0.3,4.5,1.3,5.8c1.2,1,3,1,3.9-0.5
			c1.4-2.4,1.1-4.6,1-7.2c-0.2-3.2-5-3.2-5,0c0,2.8-0.9,5.3-0.5,8.1c0.3,2,2.9,2.2,4.2,1.1c3.1-2.6,3.2-6.9,3.9-10.6
			c-1.6-0.2-3.3-0.4-4.9-0.7c-0.1,2-0.2,3.9,0.2,5.8c0.4,2,3.7,2.5,4.6,0.6c1.2-2.7,1.2-6.7-1.7-8.5c-1.2-0.8-2.7-0.8-4-0.3
			c-0.6,0.3-1.1,0.7-1.5,1.2c-0.3,0.3-0.5,0.7-0.7,1c-0.9,1-0.6,1.5,0.9,1.4c-1.3,0.7-2.5,1.4-3.8,2.2c1.7,0.8,2.5,2.4,4.5,2.6
			c1.8,0.2,3.5-0.6,4.8-1.7c1.2-1.1,2-3.5,3.7-3.3c1,0.1,1.6,1.8,2.4,2.1c-0.1-0.4-0.2-0.9-0.3-1.3c-0.7,0-1.3-0.3-1.6-0.8
			c-0.1,1-0.3,2-0.4,3c0.5-0.5,3.1-0.2,3.7,0c2.1,0.6,2.7,1.4,1.9,3.8c1.6,0.2,3.3,0.4,4.9,0.7c-0.1-1.1,0-2.3,0.2-3.4
			c-0.8,0.6-1.6,1.2-2.4,1.8c0.2,0.6,0.3,1.2,0.5,1.7c1.4-0.6,2.8-1.2,4.3-1.8c-0.2-0.4-0.4-0.8-0.7-1.2c-0.2,0.8-0.4,1.6-0.6,2.4
			c0.2-0.2,0.4-0.3,0.5-0.5c-1.4-0.6-2.8-1.2-4.3-1.8c0.5,3.5-4.7,4.4-6.1,6.6c-0.3,0.3-0.5,0.6-0.8,0.8c1.2,0.7,1.6,0.5,1.2-0.7
			c0.4-1.2-0.4-2.4,0.4-3.7c-1.6-0.4-3.1-0.8-4.7-1.3c0.1,3.6-1.6,7.1-1.1,10.9c0.3,1.9,1.9,3.1,3.8,2.2c4.9-2.4,5.5-10.5,4.3-15.1
			c-0.4-1.7-3-2.6-4.2-1.1c-2,2.5-2.8,6.3-1.7,9.4c0.7,2,3.5,2.6,4.6,0.6c1.6-3,3.3-8.7-1.2-10.1c-5-1.6-7.2,5.3-7.8,9
			c-0.4,2.1,1.6,4,3.7,2.8c2.5-1.4,5.5-3.9,5.4-7c-0.1-2.1-1.6-3.9-3.9-3.8c-4.9,0.1-8.8,8.4-8,12.6c0.3,1.7,2.4,2.2,3.7,1.5
			c4-2.1,5.6-8,4-12.1c-0.5-1.5-2.2-2.4-3.7-1.5c-4.3,2.5-6.4,9.3-5.5,14c0.4,2.2,3.5,2.3,4.6,0.6c2-3,2.7-8.2,0.8-11.4
			c-1.5-2.6-5-2.9-6.5,0c-1.3,2.6-0.3,6.6,1.9,8.4c1.5,1.2,3.7,2,5.3,3c1.2,0.8,1.7,1.7,3.4,1.6c3.4-0.2,4.9-4.7,7-6.6
			c2.7-2.4,7.9-5.4,9.3-8.9c1.1-2.8-0.7-5-3.4-5.6c-1.7-0.3-3.6,0-5.2,0.4c-3,0.7-4.9,1-8.1,0.5c-3.1-0.5-4.5,4.3-1.3,4.8
			c3.7,0.6,6.3,0.7,9.9-0.2c0.8-0.2,1.7-0.3,2.5-0.5c0.8-0.3,1.2-1.3-0.2-0.2c-1.5,1.2-2.8,2.6-4.3,3.9c-1.4,1.1-3.3,2.2-4.4,3.6
			c-0.5,0.6-2.1,4-1.6,3.8c0.4-0.2-1.1-1.4-2.1-2c-0.5-0.3-1.1-0.4-1.5-0.7c-0.2-0.1-3.1-2.5-2.8-2.6c-0.8-0.2-1.6-0.4-2.4-0.6
			c1.5,1.5,0.6,5.3-0.4,6.8c1.5,0.2,3,0.4,4.6,0.6c-0.5-2.4,1-7.1,3.2-8.3c-1.2-0.5-2.4-1-3.7-1.5c0.7,2,0.4,5.3-1.7,6.5
			c1.2,0.5,2.4,1,3.7,1.5c-0.4-2,5.2-8.1-0.8-4.7c1.2,0.9,2.4,1.9,3.7,2.8c0.2-1.4,1.7-3.4,1.6-4.8c-0.2-2-1.3,1.3-1.8,2.1
			c1.5,0.2,3,0.4,4.6,0.6c-0.4-1.2-0.4-3.4,0.5-4.5c-1.4-0.4-2.8-0.7-4.2-1.1c0.6,2.4,0.8,8.1-2,9.4c1.3,0.7,2.5,1.4,3.8,2.2
			c-0.5-3.8,1.2-7.2,1.1-10.9c0-2.5-3.3-3.4-4.7-1.3c-1.8,2.9-2.3,12.8,3,12.4c2.5-0.2,5.3-3.5,7.1-5c2.3-1.9,5-4.7,4.5-7.9
			c-0.3-2.2-2.5-3.2-4.3-1.8c-0.2,0.2-0.4,0.3-0.5,0.5c-0.7,0.6-0.8,1.6-0.6,2.4c0.2,1.4,0.9,2.4,1.9,3.4c1.6,1.4,4.3,0.5,4.3-1.8
			c0-3.4-2.1-6.4-5.5-6.7c-1-0.1-2.2,0.9-2.4,1.8c-0.4,1.6-0.4,3-0.4,4.7c0,2.8,4.1,3.4,4.9,0.7c1.2-4.1,0.7-7.9-3.7-9.5
			c-3-1.1-7.7-1.5-10.3,0.9c-0.8,0.7-1,2.1-0.4,3c3.3,5.3,15.4,3.8,10.4-3.2c-1.8-2.5-5.2-5.3-8.5-4.4c-1.4,0.4-2.4,1.4-3.4,2.5
			c-2.4,2.7-2.3,2.1-5.2,0.7c-1.5-0.7-4,0.1-3.8,2.2c0.3,2.3,1.3,4.7,4.1,4.7c1,0,1.8-0.3,2.7-1c0.9-0.7,2.5-4.5,1-1.1
			c1.5,0.2,3,0.4,4.6,0.6c-0.3-1.5-0.1-3,0-4.5C73,5.3,68.5,4.6,68,7.4c-0.5,2.7-0.4,6.5-2.6,8.4c1.4,0.4,2.8,0.7,4.2,1.1
			c-0.3-2,0.6-4.7,0.6-6.8c-1.7,0-3.3,0-5,0c0.1,1.4,0.4,3.4-0.3,4.7c1.3-0.2,2.6-0.3,3.9-0.5c-0.3-0.3,0-3.2-0.2-3.8
			c-0.4-1.3-1.1-2-2.2-2.7c-1.4-1-3.2,0.1-3.7,1.5c-0.8,2.4-1.7,5.1-2.2,7.6c1.6,0.4,3.2,0.9,4.8,1.3c0.3-2.2,1.1-4.1,1.8-6.2
			c0.7-2.3-2.6-4.4-4.2-2.4c-0.3,0.4-1.8,3-2,3C57.8,12.5,57.8,17.5,61,17.5L61,17.5z"/>
	</g>
</g>
<path id="XMLID_62_" class="st4" d="M12,0h66c6.6,0,12,5.4,12,12v111c0,6.6-5.4,12-12,12H12c-6.6,0-12-5.4-12-12V12
	C0,5.4,5.4,0,12,0z"/>
<text id="XMLID_16_" transform="matrix(1 0 0 1 0 94.6201)"><tspan x="0" y="0" class="st5 st6"> </tspan><tspan x="0" y="14.4" class="st5 st7">   CONTESSA: </tspan><tspan x="0" y="25.2" class="st5 st6">   Blocks assassination</tspan></text>
</svg>
