<?xml version="1.0" encoding="UTF-8" standalone="no"?>
<!-- Created with Inkscape (http://www.inkscape.org/) -->

<svg
   width="35"
   height="35"
   viewBox="0 0 9.2604164 9.2604167"
   version="1.1"
   id="svg5"
   inkscape:version="1.1.2 (0a00cf5339, 2022-02-04, custom)"
   sodipodi:docname="contessa-icon.svg"
   xmlns:inkscape="http://www.inkscape.org/namespaces/inkscape"
   xmlns:sodipodi="http://sodipodi.sourceforge.net/DTD/sodipodi-0.dtd"
   xmlns="http://www.w3.org/2000/svg"
   xmlns:svg="http://www.w3.org/2000/svg">
  <sodipodi:namedview
     id="namedview7"
     pagecolor="#ffffff"
     bordercolor="#999999"
     borderopacity="1"
     inkscape:pageshadow="0"
     inkscape:pageopacity="0"
     inkscape:pagecheckerboard="true"
     inkscape:document-units="mm"
     showgrid="false"
     showguides="true"
     inkscape:guide-bbox="true"
     inkscape:zoom="22.627418"
     inkscape:cx="11.291611"
     inkscape:cy="14.208427"
     inkscape:window-width="3840"
     inkscape:window-height="2085"
     inkscape:window-x="0"
     inkscape:window-y="0"
     inkscape:window-maximized="1"
     inkscape:current-layer="g1086"
     height="250px"
     units="px" />
  <defs
     id="defs2" />
  <g
     inkscape:label="Layer 1"
     inkscape:groupmode="layer"
     id="layer1">
    <g
       id="g1086"
       transform="matrix(1.0219844,0,0,1.0219844,-67.02635,-68.156676)">
      <g
         id="XMLID_161_-3"
         class="st2"
         style="opacity:1;fill:#ffffff;fill-opacity:1"
         transform="matrix(0.26458333,0,0,0.26458333,50.237451,66.758344)">
        <g
           id="XMLID_12_-6"
           style="fill:#ffffff;fill-opacity:1">
          <path
             id="XMLID_18_-7-7"
             class="st3"
             d="m 61,17.5 c 3.2,0 3.8,-2.2 5.5,-4.4 -1.4,-0.8 -2.8,-1.6 -4.2,-2.4 -0.7,2.1 -1.5,4 -1.8,6.2 -0.4,3.1 4.2,4.6 4.8,1.3 0.5,-2.5 1.4,-5.1 2.2,-7.6 -1.2,0.5 -2.4,1 -3.7,1.5 0.6,0.4 -0.3,4.5 1.3,5.8 1.2,1 3,1 3.9,-0.5 1.4,-2.4 1.1,-4.6 1,-7.2 -0.2,-3.2 -5,-3.2 -5,0 0,2.8 -0.9,5.3 -0.5,8.1 0.3,2 2.9,2.2 4.2,1.1 3.1,-2.6 3.2,-6.9 3.9,-10.6 C 71,8.6 69.3,8.4 67.7,8.1 c -0.1,2 -0.2,3.9 0.2,5.8 0.4,2 3.7,2.5 4.6,0.6 C 73.7,11.8 73.7,7.8 70.8,6 69.6,5.2 68.1,5.2 66.8,5.7 66.2,6 65.7,6.4 65.3,6.9 c -0.3,0.3 -0.5,0.7 -0.7,1 -0.9,1 -0.6,1.5 0.9,1.4 -1.3,0.7 -2.5,1.4 -3.8,2.2 1.7,0.8 2.5,2.4 4.5,2.6 1.8,0.2 3.5,-0.6 4.8,-1.7 1.2,-1.1 2,-3.5 3.7,-3.3 1,0.1 1.6,1.8 2.4,2.1 -0.1,-0.4 -0.2,-0.9 -0.3,-1.3 -0.7,0 -1.3,-0.3 -1.6,-0.8 -0.1,1 -0.3,2 -0.4,3 0.5,-0.5 3.1,-0.2 3.7,0 2.1,0.6 2.7,1.4 1.9,3.8 1.6,0.2 3.3,0.4 4.9,0.7 -0.1,-1.1 0,-2.3 0.2,-3.4 -0.8,0.6 -1.6,1.2 -2.4,1.8 0.2,0.6 0.3,1.2 0.5,1.7 1.4,-0.6 2.8,-1.2 4.3,-1.8 -0.2,-0.4 -0.4,-0.8 -0.7,-1.2 -0.2,0.8 -0.4,1.6 -0.6,2.4 0.2,-0.2 0.4,-0.3 0.5,-0.5 -1.4,-0.6 -2.8,-1.2 -4.3,-1.8 0.5,3.5 -4.7,4.4 -6.1,6.6 -0.3,0.3 -0.5,0.6 -0.8,0.8 1.2,0.7 1.6,0.5 1.2,-0.7 0.4,-1.2 -0.4,-2.4 0.4,-3.7 -1.6,-0.4 -3.1,-0.8 -4.7,-1.3 0.1,3.6 -1.6,7.1 -1.1,10.9 0.3,1.9 1.9,3.1 3.8,2.2 4.9,-2.4 5.5,-10.5 4.3,-15.1 -0.4,-1.7 -3,-2.6 -4.2,-1.1 -2,2.5 -2.8,6.3 -1.7,9.4 0.7,2 3.5,2.6 4.6,0.6 1.6,-3 3.3,-8.7 -1.2,-10.1 -5,-1.6 -7.2,5.3 -7.8,9 -0.4,2.1 1.6,4 3.7,2.8 2.5,-1.4 5.5,-3.9 5.4,-7 -0.1,-2.1 -1.6,-3.9 -3.9,-3.8 -4.9,0.1 -8.8,8.4 -8,12.6 0.3,1.7 2.4,2.2 3.7,1.5 4,-2.1 5.6,-8 4,-12.1 -0.5,-1.5 -2.2,-2.4 -3.7,-1.5 -4.3,2.5 -6.4,9.3 -5.5,14 0.4,2.2 3.5,2.3 4.6,0.6 2,-3 2.7,-8.2 0.8,-11.4 -1.5,-2.6 -5,-2.9 -6.5,0 -1.3,2.6 -0.3,6.6 1.9,8.4 1.5,1.2 3.7,2 5.3,3 1.2,0.8 1.7,1.7 3.4,1.6 3.4,-0.2 4.9,-4.7 7,-6.6 2.7,-2.4 7.9,-5.4 9.3,-8.9 1.1,-2.8 -0.7,-5 -3.4,-5.6 -1.7,-0.3 -3.6,0 -5.2,0.4 -3,0.7 -4.9,1 -8.1,0.5 -3.1,-0.5 -4.5,4.3 -1.3,4.8 3.7,0.6 6.3,0.7 9.9,-0.2 0.8,-0.2 1.7,-0.3 2.5,-0.5 0.8,-0.3 1.2,-1.3 -0.2,-0.2 -1.5,1.2 -2.8,2.6 -4.3,3.9 -1.4,1.1 -3.3,2.2 -4.4,3.6 -0.5,0.6 -2.1,4 -1.6,3.8 0.4,-0.2 -1.1,-1.4 -2.1,-2 -0.5,-0.3 -1.1,-0.4 -1.5,-0.7 -0.2,-0.1 -3.1,-2.5 -2.8,-2.6 -0.8,-0.2 -1.6,-0.4 -2.4,-0.6 1.5,1.5 0.6,5.3 -0.4,6.8 1.5,0.2 3,0.4 4.6,0.6 -0.5,-2.4 1,-7.1 3.2,-8.3 -1.2,-0.5 -2.4,-1 -3.7,-1.5 0.7,2 0.4,5.3 -1.7,6.5 1.2,0.5 2.4,1 3.7,1.5 -0.4,-2 5.2,-8.1 -0.8,-4.7 1.2,0.9 2.4,1.9 3.7,2.8 0.2,-1.4 1.7,-3.4 1.6,-4.8 -0.2,-2 -1.3,1.3 -1.8,2.1 1.5,0.2 3,0.4 4.6,0.6 -0.4,-1.2 -0.4,-3.4 0.5,-4.5 -1.4,-0.4 -2.8,-0.7 -4.2,-1.1 0.6,2.4 0.8,8.1 -2,9.4 1.3,0.7 2.5,1.4 3.8,2.2 -0.5,-3.8 1.2,-7.2 1.1,-10.9 0,-2.5 -3.3,-3.4 -4.7,-1.3 -1.8,2.9 -2.3,12.8 3,12.4 2.5,-0.2 5.3,-3.5 7.1,-5 2.3,-1.9 5,-4.7 4.5,-7.9 -0.3,-2.2 -2.5,-3.2 -4.3,-1.8 -0.2,0.2 -0.4,0.3 -0.5,0.5 -0.7,0.6 -0.8,1.6 -0.6,2.4 0.2,1.4 0.9,2.4 1.9,3.4 1.6,1.4 4.3,0.5 4.3,-1.8 0,-3.4 -2.1,-6.4 -5.5,-6.7 -1,-0.1 -2.2,0.9 -2.4,1.8 -0.4,1.6 -0.4,3 -0.4,4.7 0,2.8 4.1,3.4 4.9,0.7 1.2,-4.1 0.7,-7.9 -3.7,-9.5 -3,-1.1 -7.7,-1.5 -10.3,0.9 -0.8,0.7 -1,2.1 -0.4,3 3.3,5.3 15.4,3.8 10.4,-3.2 C 79.8,5.9 76.4,3.1 73.1,4 71.7,4.4 70.7,5.4 69.7,6.5 67.3,9.2 67.4,8.6 64.5,7.2 63,6.5 60.5,7.3 60.7,9.4 c 0.3,2.3 1.3,4.7 4.1,4.7 1,0 1.8,-0.3 2.7,-1 0.9,-0.7 2.5,-4.5 1,-1.1 1.5,0.2 3,0.4 4.6,0.6 -0.3,-1.5 -0.1,-3 0,-4.5 C 73,5.3 68.5,4.6 68,7.4 c -0.5,2.7 -0.4,6.5 -2.6,8.4 1.4,0.4 2.8,0.7 4.2,1.1 -0.3,-2 0.6,-4.7 0.6,-6.8 -1.7,0 -3.3,0 -5,0 0.1,1.4 0.4,3.4 -0.3,4.7 1.3,-0.2 2.6,-0.3 3.9,-0.5 -0.3,-0.3 0,-3.2 -0.2,-3.8 -0.4,-1.3 -1.1,-2 -2.2,-2.7 -1.4,-1 -3.2,0.1 -3.7,1.5 -0.8,2.4 -1.7,5.1 -2.2,7.6 1.6,0.4 3.2,0.9 4.8,1.3 0.3,-2.2 1.1,-4.1 1.8,-6.2 0.7,-2.3 -2.6,-4.4 -4.2,-2.4 -0.3,0.4 -1.8,3 -2,3 -3.1,-0.1 -3.1,4.9 0.1,4.9 z"
             style="fill:#ffffff;fill-opacity:1" />
        </g>
      </g>
      <path
         id="XMLID_92_"
         class="st1"
         d="m 69.552034,73.267094 c -0.740833,-1.084792 -1.613958,-2.090208 -2.619375,-2.963333 0.529167,-0.238125 1.005417,-0.582084 1.402292,-1.005417 0.105833,-0.105833 0.185208,-0.211667 0.3175,-0.264583 0.105833,-0.05292 0.238125,-0.05292 0.370416,-0.05292 0.661459,0 1.349375,-0.02646 2.010834,-0.02646 0.15875,0 0.343958,0 0.47625,0.05292 0.105833,0.05292 0.211666,0.132292 0.3175,0.211667 0.47625,0.423333 0.978958,0.846667 1.455208,1.27 -1.455208,0.820208 -2.804583,1.878542 -3.942292,3.122083 0.343959,-0.238125 0.635,-0.502708 0.899584,-0.820208"
         style="fill:none;stroke:#000000;stroke-width:0.264583;stroke-miterlimit:10" />
      <g
         id="XMLID_161_"
         class="st2"
         style="opacity:0.51;fill:#ed1c24;fill-opacity:1"
         transform="matrix(0.26458333,0,0,0.26458333,50.237451,66.758344)">
        <g
           id="XMLID_12_"
           style="fill:#ed1c24;fill-opacity:1">
          <path
             id="XMLID_18_-7"
             class="st3"
             d="m 61,17.5 c 3.2,0 3.8,-2.2 5.5,-4.4 -1.4,-0.8 -2.8,-1.6 -4.2,-2.4 -0.7,2.1 -1.5,4 -1.8,6.2 -0.4,3.1 4.2,4.6 4.8,1.3 0.5,-2.5 1.4,-5.1 2.2,-7.6 -1.2,0.5 -2.4,1 -3.7,1.5 0.6,0.4 -0.3,4.5 1.3,5.8 1.2,1 3,1 3.9,-0.5 1.4,-2.4 1.1,-4.6 1,-7.2 -0.2,-3.2 -5,-3.2 -5,0 0,2.8 -0.9,5.3 -0.5,8.1 0.3,2 2.9,2.2 4.2,1.1 3.1,-2.6 3.2,-6.9 3.9,-10.6 C 71,8.6 69.3,8.4 67.7,8.1 c -0.1,2 -0.2,3.9 0.2,5.8 0.4,2 3.7,2.5 4.6,0.6 C 73.7,11.8 73.7,7.8 70.8,6 69.6,5.2 68.1,5.2 66.8,5.7 66.2,6 65.7,6.4 65.3,6.9 c -0.3,0.3 -0.5,0.7 -0.7,1 -0.9,1 -0.6,1.5 0.9,1.4 -1.3,0.7 -2.5,1.4 -3.8,2.2 1.7,0.8 2.5,2.4 4.5,2.6 1.8,0.2 3.5,-0.6 4.8,-1.7 1.2,-1.1 2,-3.5 3.7,-3.3 1,0.1 1.6,1.8 2.4,2.1 -0.1,-0.4 -0.2,-0.9 -0.3,-1.3 -0.7,0 -1.3,-0.3 -1.6,-0.8 -0.1,1 -0.3,2 -0.4,3 0.5,-0.5 3.1,-0.2 3.7,0 2.1,0.6 2.7,1.4 1.9,3.8 1.6,0.2 3.3,0.4 4.9,0.7 -0.1,-1.1 0,-2.3 0.2,-3.4 -0.8,0.6 -1.6,1.2 -2.4,1.8 0.2,0.6 0.3,1.2 0.5,1.7 1.4,-0.6 2.8,-1.2 4.3,-1.8 -0.2,-0.4 -0.4,-0.8 -0.7,-1.2 -0.2,0.8 -0.4,1.6 -0.6,2.4 0.2,-0.2 0.4,-0.3 0.5,-0.5 -1.4,-0.6 -2.8,-1.2 -4.3,-1.8 0.5,3.5 -4.7,4.4 -6.1,6.6 -0.3,0.3 -0.5,0.6 -0.8,0.8 1.2,0.7 1.6,0.5 1.2,-0.7 0.4,-1.2 -0.4,-2.4 0.4,-3.7 -1.6,-0.4 -3.1,-0.8 -4.7,-1.3 0.1,3.6 -1.6,7.1 -1.1,10.9 0.3,1.9 1.9,3.1 3.8,2.2 4.9,-2.4 5.5,-10.5 4.3,-15.1 -0.4,-1.7 -3,-2.6 -4.2,-1.1 -2,2.5 -2.8,6.3 -1.7,9.4 0.7,2 3.5,2.6 4.6,0.6 1.6,-3 3.3,-8.7 -1.2,-10.1 -5,-1.6 -7.2,5.3 -7.8,9 -0.4,2.1 1.6,4 3.7,2.8 2.5,-1.4 5.5,-3.9 5.4,-7 -0.1,-2.1 -1.6,-3.9 -3.9,-3.8 -4.9,0.1 -8.8,8.4 -8,12.6 0.3,1.7 2.4,2.2 3.7,1.5 4,-2.1 5.6,-8 4,-12.1 -0.5,-1.5 -2.2,-2.4 -3.7,-1.5 -4.3,2.5 -6.4,9.3 -5.5,14 0.4,2.2 3.5,2.3 4.6,0.6 2,-3 2.7,-8.2 0.8,-11.4 -1.5,-2.6 -5,-2.9 -6.5,0 -1.3,2.6 -0.3,6.6 1.9,8.4 1.5,1.2 3.7,2 5.3,3 1.2,0.8 1.7,1.7 3.4,1.6 3.4,-0.2 4.9,-4.7 7,-6.6 2.7,-2.4 7.9,-5.4 9.3,-8.9 1.1,-2.8 -0.7,-5 -3.4,-5.6 -1.7,-0.3 -3.6,0 -5.2,0.4 -3,0.7 -4.9,1 -8.1,0.5 -3.1,-0.5 -4.5,4.3 -1.3,4.8 3.7,0.6 6.3,0.7 9.9,-0.2 0.8,-0.2 1.7,-0.3 2.5,-0.5 0.8,-0.3 1.2,-1.3 -0.2,-0.2 -1.5,1.2 -2.8,2.6 -4.3,3.9 -1.4,1.1 -3.3,2.2 -4.4,3.6 -0.5,0.6 -2.1,4 -1.6,3.8 0.4,-0.2 -1.1,-1.4 -2.1,-2 -0.5,-0.3 -1.1,-0.4 -1.5,-0.7 -0.2,-0.1 -3.1,-2.5 -2.8,-2.6 -0.8,-0.2 -1.6,-0.4 -2.4,-0.6 1.5,1.5 0.6,5.3 -0.4,6.8 1.5,0.2 3,0.4 4.6,0.6 -0.5,-2.4 1,-7.1 3.2,-8.3 -1.2,-0.5 -2.4,-1 -3.7,-1.5 0.7,2 0.4,5.3 -1.7,6.5 1.2,0.5 2.4,1 3.7,1.5 -0.4,-2 5.2,-8.1 -0.8,-4.7 1.2,0.9 2.4,1.9 3.7,2.8 0.2,-1.4 1.7,-3.4 1.6,-4.8 -0.2,-2 -1.3,1.3 -1.8,2.1 1.5,0.2 3,0.4 4.6,0.6 -0.4,-1.2 -0.4,-3.4 0.5,-4.5 -1.4,-0.4 -2.8,-0.7 -4.2,-1.1 0.6,2.4 0.8,8.1 -2,9.4 1.3,0.7 2.5,1.4 3.8,2.2 -0.5,-3.8 1.2,-7.2 1.1,-10.9 0,-2.5 -3.3,-3.4 -4.7,-1.3 -1.8,2.9 -2.3,12.8 3,12.4 2.5,-0.2 5.3,-3.5 7.1,-5 2.3,-1.9 5,-4.7 4.5,-7.9 -0.3,-2.2 -2.5,-3.2 -4.3,-1.8 -0.2,0.2 -0.4,0.3 -0.5,0.5 -0.7,0.6 -0.8,1.6 -0.6,2.4 0.2,1.4 0.9,2.4 1.9,3.4 1.6,1.4 4.3,0.5 4.3,-1.8 0,-3.4 -2.1,-6.4 -5.5,-6.7 -1,-0.1 -2.2,0.9 -2.4,1.8 -0.4,1.6 -0.4,3 -0.4,4.7 0,2.8 4.1,3.4 4.9,0.7 1.2,-4.1 0.7,-7.9 -3.7,-9.5 -3,-1.1 -7.7,-1.5 -10.3,0.9 -0.8,0.7 -1,2.1 -0.4,3 3.3,5.3 15.4,3.8 10.4,-3.2 C 79.8,5.9 76.4,3.1 73.1,4 71.7,4.4 70.7,5.4 69.7,6.5 67.3,9.2 67.4,8.6 64.5,7.2 63,6.5 60.5,7.3 60.7,9.4 c 0.3,2.3 1.3,4.7 4.1,4.7 1,0 1.8,-0.3 2.7,-1 0.9,-0.7 2.5,-4.5 1,-1.1 1.5,0.2 3,0.4 4.6,0.6 -0.3,-1.5 -0.1,-3 0,-4.5 C 73,5.3 68.5,4.6 68,7.4 c -0.5,2.7 -0.4,6.5 -2.6,8.4 1.4,0.4 2.8,0.7 4.2,1.1 -0.3,-2 0.6,-4.7 0.6,-6.8 -1.7,0 -3.3,0 -5,0 0.1,1.4 0.4,3.4 -0.3,4.7 1.3,-0.2 2.6,-0.3 3.9,-0.5 -0.3,-0.3 0,-3.2 -0.2,-3.8 -0.4,-1.3 -1.1,-2 -2.2,-2.7 -1.4,-1 -3.2,0.1 -3.7,1.5 -0.8,2.4 -1.7,5.1 -2.2,7.6 1.6,0.4 3.2,0.9 4.8,1.3 0.3,-2.2 1.1,-4.1 1.8,-6.2 0.7,-2.3 -2.6,-4.4 -4.2,-2.4 -0.3,0.4 -1.8,3 -2,3 -3.1,-0.1 -3.1,4.9 0.1,4.9 z"
             style="fill:#ed1c24;fill-opacity:1" />
        </g>
      </g>
    </g>
  </g>
</svg>
