<?xml version="1.0" encoding="UTF-8" standalone="no"?>
<!-- Generator: Adobe Illustrator 19.0.0, SVG Export Plug-In . SVG Version: 6.00 Build 0)  -->

<svg
   version="1.1"
   id="Layer_1"
   x="0px"
   y="0px"
   viewBox="0 0 90 135"
   style="enable-background:new 0 0 90 135;"
   xml:space="preserve"
   sodipodi:docname="contessa00.svg"
   inkscape:version="1.2.2 (b0a8486541, 2022-12-01)"
   xmlns:inkscape="http://www.inkscape.org/namespaces/inkscape"
   xmlns:sodipodi="http://sodipodi.sourceforge.net/DTD/sodipodi-0.dtd"
   xmlns="http://www.w3.org/2000/svg"
   xmlns:svg="http://www.w3.org/2000/svg"><defs
   id="defs1888"><rect
     x="6.5864374"
     y="110.90425"
     width="81.448871"
     height="36.742544"
     id="rect2097" /></defs><sodipodi:namedview
   id="namedview1886"
   pagecolor="#ffffff"
   bordercolor="#999999"
   borderopacity="1"
   inkscape:showpageshadow="0"
   inkscape:pageopacity="0"
   inkscape:pagecheckerboard="0"
   inkscape:deskcolor="#d1d1d1"
   showgrid="false"
   inkscape:zoom="7.6074074"
   inkscape:cx="44.956183"
   inkscape:cy="39.106621"
   inkscape:window-width="3840"
   inkscape:window-height="2077"
   inkscape:window-x="0"
   inkscape:window-y="0"
   inkscape:window-maximized="1"
   inkscape:current-layer="text2095" />
<style
   type="text/css"
   id="style1843">
	.st0{fill:#FFFFFF;stroke:#000000;stroke-miterlimit:10;}
	.st1{fill:none;stroke:#000000;stroke-miterlimit:10;}
	.st2{opacity:0.51;}
	.st3{fill:#ED1C24;}
	.st4{fill:none;}
	.st5{font-family:'MosaicoSCSC';}
	.st6{font-size:9px;}
	.st7{font-size:12px;}
</style>

<rect
   style="fill:#ffffff;stroke-width:7.07525;stroke-miterlimit:10"
   id="rect2163"
   width="90"
   height="135"
   x="0"
   y="0" /><path
   id="XMLID_92_"
   class="st1"
   d="m 71,22.6 c -2.8,-4.1 -6.1,-7.9 -9.9,-11.2 2,-0.9 3.8,-2.2 5.3,-3.8 0.4,-0.4 0.7,-0.8 1.2,-1 0.4,-0.2 0.9,-0.2 1.4,-0.2 2.5,0 5.1,-0.1 7.6,-0.1 0.6,0 1.3,0 1.8,0.2 0.4,0.2 0.8,0.5 1.2,0.8 1.8,1.6 3.7,3.2 5.5,4.8 -5.5,3.1 -10.6,7.1 -14.9,11.8 1.3,-0.9 2.4,-1.9 3.4,-3.1" />
<path
   id="XMLID_53_"
   class="st1"
   d="M43.8,88.1c-2-8.1-3.3-17.2-6.9-24.7C33.6,56.8,26,52.5,28,44.2c1.6-6.6,7.5-14.9,14.5-16.2  c7.4-1.3,14.2,3.1,17.7,9.4c4.6,8.3,3.8,18.2,2.3,27.2c1.5-1.5,3.5-3.3,5.8-2.8C69,62,71,63,71,65c-1,6-8,8-12,12  c6,19,10,38,15.9,57.3" />
<path
   id="XMLID_94_"
   class="st1"
   d="M40.9,77.1c-3.8,1.1-7.6,2.2-11.5,3.3c-3.7,1.1-7.5,2.2-11.1,3.6c-7.1,3-13.5,7.6-18.5,13.3  c-0.2,0.2-0.4,0.6-0.2,0.8s0.5-0.4,0.2-0.3" />
<path
   id="XMLID_95_"
   class="st1"
   d="M28.2,52.3c-4.2-5.7-8.9-11.2-14-16.1c-1.8-1.8-4.1-3.7-6.6-3.3c-2.1,0.3-3.7,2-4.5,4  S2.3,40.9,2.3,43c0,15.8,1.1,31.7,3.2,47.4" />
<path
   id="XMLID_96_"
   class="st1"
   d="M62.7,74.6c1.7-0.8,3.2-2.1,4.8-3.2C74,66.6,81.6,63.7,89.2,61c-0.2,0.3-0.4,0.7-0.5,1" />
<path
   id="XMLID_97_"
   class="st1"
   d="M74.8,133.4c1.4-11.6-1.5-23.3-0.2-34.9c0.7-6.5,2.8-12.7,5.4-18.7c1.3-3,4.5-13.3,8.5-13.1  c0.4,12.5-1.5,25.2-0.9,37.8c0.4,7.8,1,15.9-1.8,23.2" />
<path
   id="XMLID_98_"
   class="st1"
   d="M70.9,64.2c2.1-0.5,3.1-2.8,3.5-4.9s0.3-4.3,1.2-6.2c-0.6-2.1-1.2-4.2-1.8-6.3  c-0.4,0.5-0.7,1.1-1.1,1.6c0.6-1.7,0.8-3.6,0.6-5.4c-2-0.4-3.5-2.5-3.1-4.6c-2.5-2.2-4.4-5.1-5.3-8.3c0.3,0.3-0.4,0.7-0.7,0.4  c-0.3-0.3-0.3-0.8-0.4-1.2c-0.3-1.2-2.2-1.5-2.9-0.5c-0.2-0.9-0.3-1.9-0.5-2.8c-1,1-2.8,0.3-3.6-0.9s-1.2-2.6-2.2-3.6  s-3-1.2-3.5,0.1c-0.4-0.7-0.8-1.5-1.2-2.2c-0.6,1.9-3.3,2.2-5.2,1.4c-1.9-0.8-3.4-2.3-5.4-2.8S34.8,19,35.2,21c-0.5-0.3-1-0.7-1.5-1  c-1.3,0.7-2.7,1.4-4,2.1c-0.4-0.5-0.7-1-1.1-1.5c-0.9,0.7-1.6,1.7-2.1,2.8c-0.5-0.4-1.1-0.8-1.6-1.1c-3.5,3.7-6,8.3-7.1,13.3  c1.8-0.5,3.2,1.5,4,3.2c1.6,3.4,3.2,6.9,4.8,10.3" />
<path
   id="XMLID_99_"
   class="st1"
   d="M29.2,43.8c1.7-1.8,4.6-2.4,6.8-1.4c2.2,1,3.5,3.2,4.7,5.3c1.5,2.5,2.9,5.1,3.4,7.9  c0.5,2.9-0.3,6.1-2.6,7.8" />
<path
   id="XMLID_100_"
   class="st1"
   d="M34.7,52.7c0.2-1.3,1.6-2.3,2.9-2.1c1.3,0.2,2.4,1.5,2.2,2.8c-1.9,1.1-4.3,1.3-6.3,0.5  c-0.3-0.1-0.6-0.2-0.8-0.4c-0.4-0.5-0.2-1.4,0.3-1.8c0.5-0.4,1.2-0.5,1.9-0.6" />
<path
   id="XMLID_101_"
   class="st1"
   d="M46.6,51.6c2-2.4,5.2-3.8,8.3-3.6c0.3,0,0.7,0.1,0.9,0.3c0.3,0.4-0.1,1.1-0.5,1.4  c-1.6,1.4-3.7,2.2-5.7,2.1c-0.7,0-1.4-0.1-1.9-0.6c-0.5-0.5-0.7-1.3-0.2-1.8" />
<path
   id="XMLID_102_"
   class="st1"
   d="M43,46.3c0.5-0.4,0.6-1.1,0.8-1.7c0.7-2.1,3.2-3.1,5.5-3.5c2.2-0.4,4.5-0.7,6.7-0.7  c0.4,0,0.8,0,1.2,0.2c0.3,0.2,0.5,0.7,0.2,1" />
<path
   id="XMLID_103_"
   class="st1"
   d="M33.3,59.1c3.3,0.1,6.7-1,9.3-3.1c0.3-0.2,0.6-0.5,1-0.5c0.3,0,0.6,0.2,0.9,0.3  c3.4,2.1,7.6,2,11.6,1.9c1.3,0,2.8-0.2,3.3-1.3" />
<path
   id="XMLID_104_"
   class="st1"
   d="M41.4,63c-0.2,0.9-0.1,1.8,0.3,2.6c1.2-0.2,2.3-0.8,3-1.7c0.8-0.1,1.5-0.7,1.7-1.5  c0.2,0.2,0.3,0.6,0.3,0.9c1.5,0.1,2.8-1.7,2.2-3.1c0.7,0.4,0,1.8-0.8,1.5c-0.8-0.3-0.3-1.8,0.5-1.6" />
<path
   id="XMLID_105_"
   class="st1"
   d="M40.8,68.5c1.1-0.7,1.9-1.9,3.1-2.4c2.3-1,5,0.8,7.5,0.3c0.6-0.1,1.4-0.4,1.8,0.1  c0.3,0.4,0.2,1-0.2,1.4c-0.4,0.3-0.9,0.5-1.4,0.6c-2.4,0.6-4.9,1-7.4,1.4c-0.6,0.1-1.2,0.2-1.7-0.1c-0.5-0.2-1-0.9-0.7-1.4  c0.3,0.2,0.6,0.4,1,0.5" />
<path
   id="XMLID_106_"
   class="st1"
   d="M39.4,72.6c1.5,1.8,4,2.9,6.4,2.6c2.4-0.2,4.6-1.7,5.7-3.8" />
<path
   id="XMLID_107_"
   class="st1"
   d="M37.8,52.1c-0.4,0.3-0.7,0.6-1.1,0.9c0-0.4,0-0.9,0-1.3c0.3-0.1,0.7,0.2,0.7,0.5  c0,0.3-0.6,0.5-0.7,0.2c-0.1-0.3,0.5-0.6,0.5-0.2c-0.2,0.2-0.6,0.1-0.7-0.2c-0.1-0.3,0-0.6,0.1-0.9c0.2,0.2,0,0.6-0.3,0.6" />
<path
   id="XMLID_108_"
   class="st1"
   d="M52.4,49.3c-0.4,0.2-0.2,0.8,0.2,0.8s0.4-0.8,0-0.8c0.4,0.2,0.5,0.7,0.2,1  c-0.4-0.1-0.8-0.4-0.8-0.9c0.4-0.3,0.9,0.5,0.5,0.7C52.4,50.4,52,50.3,52,50C51.9,49.7,52.1,49.5,52.4,49.3c0.1,0.4-0.6,0.7-0.8,0.4  c-0.2-0.4,0.5-0.8,0.7-0.4c-0.2,0.3-0.5,0.7-0.7,1" />
<path
   id="XMLID_109_"
   class="st1"
   d="M62.3,66.7c1.1-0.5,2.3-1.1,3.4-1.6c-0.7,1.6-1.7,3.1-2.9,4.5c0.5,0.1,1,0.2,1.5,0.5  c-0.7,0.9-2,1.3-3.1,0.9" />
<path
   id="XMLID_110_"
   class="st1"
   d="M59.9,75.4c0.1-0.6,0.9-0.9,1.5-0.9c1.3,0.2,2.1,1.8,1.5,2.9c-0.6,1.1-2.4,1.3-3.3,0.3  c-0.8-1-0.3-2.7,0.9-3.2" />
<path
   id="XMLID_111_"
   class="st1"
   d="M43.5,27.5c-2.5-0.9-4.9-2.1-7.5-2.1c-2.6,0-5.5,1.7-5.6,4.3" />
<path
   id="XMLID_112_"
   class="st1"
   d="M33.7,30.3c-2.6,1-5.2,2.2-6.6,4.6c-1.4,2.4-0.9,6,1.6,7.1" />
<path
   id="XMLID_113_"
   class="st1"
   d="M26.1,27.5c0.2-0.2-0.2-0.6-0.5-0.6c-1,0-1.8,0.9-2.3,1.8c-1.3,2.1-2.2,4.3-2.8,6.7  c0.2-0.2,0.4-0.5,0.5-0.7" />
<path
   id="XMLID_114_"
   class="st1"
   d="M52.3,28.4c-0.7-1.3-2.6-1-4-1.4c-1.8-0.4-3.2-2.1-3.2-3.9c0,0.5-0.1,1.1-0.4,1.6" />
<path
   id="XMLID_115_"
   class="st1"
   d="M51.6,22.7c0.8,1.7,1.7,3.3,2.8,4.8" />
<path
   id="XMLID_116_"
   class="st1"
   d="M59.5,31.3c0.3,2.2,0.3,4.5,0.2,6.7" />
<path
   id="XMLID_117_"
   class="st1"
   d="M65.7,53.7c-0.3-1.7,0.5-3.5,2-4.4c-0.9-1.1-0.4-2.9-0.8-4.3c-0.3-1-1-1.8-1.5-2.7  c-0.5-0.9-0.7-2.1,0-2.9" />
<path
   id="XMLID_119_"
   class="st1"
   d="M41.4,87.1c-4.9-1.1-10-1.7-15-1.8c-0.7,0-1.4,0-2.1,0.1" />
<path
   id="XMLID_120_"
   class="st1"
   d="M46.6,85.7c4.7-0.5,9.4-0.6,14-0.5" />
<g
   id="XMLID_161_"
   class="st2"
   transform="translate(-2.5813389,-1.9798013)">
	<g
   id="XMLID_12_">
		<path
   id="XMLID_18_"
   class="st3"
   d="m 61,17.5 c 3.2,0 3.8,-2.2 5.5,-4.4 -1.4,-0.8 -2.8,-1.6 -4.2,-2.4 -0.7,2.1 -1.5,4 -1.8,6.2 -0.4,3.1 4.2,4.6 4.8,1.3 0.5,-2.5 1.4,-5.1 2.2,-7.6 -1.2,0.5 -2.4,1 -3.7,1.5 0.6,0.4 -0.3,4.5 1.3,5.8 1.2,1 3,1 3.9,-0.5 1.4,-2.4 1.1,-4.6 1,-7.2 -0.2,-3.2 -5,-3.2 -5,0 0,2.8 -0.9,5.3 -0.5,8.1 0.3,2 2.9,2.2 4.2,1.1 3.1,-2.6 3.2,-6.9 3.9,-10.6 C 71,8.6 69.3,8.4 67.7,8.1 c -0.1,2 -0.2,3.9 0.2,5.8 0.4,2 3.7,2.5 4.6,0.6 C 73.7,11.8 73.7,7.8 70.8,6 69.6,5.2 68.1,5.2 66.8,5.7 66.2,6 65.7,6.4 65.3,6.9 c -0.3,0.3 -0.5,0.7 -0.7,1 -0.9,1 -0.6,1.5 0.9,1.4 -1.3,0.7 -2.5,1.4 -3.8,2.2 1.7,0.8 2.5,2.4 4.5,2.6 1.8,0.2 3.5,-0.6 4.8,-1.7 1.2,-1.1 2,-3.5 3.7,-3.3 1,0.1 1.6,1.8 2.4,2.1 -0.1,-0.4 -0.2,-0.9 -0.3,-1.3 -0.7,0 -1.3,-0.3 -1.6,-0.8 -0.1,1 -0.3,2 -0.4,3 0.5,-0.5 3.1,-0.2 3.7,0 2.1,0.6 2.7,1.4 1.9,3.8 1.6,0.2 3.3,0.4 4.9,0.7 -0.1,-1.1 0,-2.3 0.2,-3.4 -0.8,0.6 -1.6,1.2 -2.4,1.8 0.2,0.6 0.3,1.2 0.5,1.7 1.4,-0.6 2.8,-1.2 4.3,-1.8 -0.2,-0.4 -0.4,-0.8 -0.7,-1.2 -0.2,0.8 -0.4,1.6 -0.6,2.4 0.2,-0.2 0.4,-0.3 0.5,-0.5 -1.4,-0.6 -2.8,-1.2 -4.3,-1.8 0.5,3.5 -4.7,4.4 -6.1,6.6 -0.3,0.3 -0.5,0.6 -0.8,0.8 1.2,0.7 1.6,0.5 1.2,-0.7 0.4,-1.2 -0.4,-2.4 0.4,-3.7 -1.6,-0.4 -3.1,-0.8 -4.7,-1.3 0.1,3.6 -1.6,7.1 -1.1,10.9 0.3,1.9 1.9,3.1 3.8,2.2 4.9,-2.4 5.5,-10.5 4.3,-15.1 -0.4,-1.7 -3,-2.6 -4.2,-1.1 -2,2.5 -2.8,6.3 -1.7,9.4 0.7,2 3.5,2.6 4.6,0.6 1.6,-3 3.3,-8.7 -1.2,-10.1 -5,-1.6 -7.2,5.3 -7.8,9 -0.4,2.1 1.6,4 3.7,2.8 2.5,-1.4 5.5,-3.9 5.4,-7 -0.1,-2.1 -1.6,-3.9 -3.9,-3.8 -4.9,0.1 -8.8,8.4 -8,12.6 0.3,1.7 2.4,2.2 3.7,1.5 4,-2.1 5.6,-8 4,-12.1 -0.5,-1.5 -2.2,-2.4 -3.7,-1.5 -4.3,2.5 -6.4,9.3 -5.5,14 0.4,2.2 3.5,2.3 4.6,0.6 2,-3 2.7,-8.2 0.8,-11.4 -1.5,-2.6 -5,-2.9 -6.5,0 -1.3,2.6 -0.3,6.6 1.9,8.4 1.5,1.2 3.7,2 5.3,3 1.2,0.8 1.7,1.7 3.4,1.6 3.4,-0.2 4.9,-4.7 7,-6.6 2.7,-2.4 7.9,-5.4 9.3,-8.9 1.1,-2.8 -0.7,-5 -3.4,-5.6 -1.7,-0.3 -3.6,0 -5.2,0.4 -3,0.7 -4.9,1 -8.1,0.5 -3.1,-0.5 -4.5,4.3 -1.3,4.8 3.7,0.6 6.3,0.7 9.9,-0.2 0.8,-0.2 1.7,-0.3 2.5,-0.5 0.8,-0.3 1.2,-1.3 -0.2,-0.2 -1.5,1.2 -2.8,2.6 -4.3,3.9 -1.4,1.1 -3.3,2.2 -4.4,3.6 -0.5,0.6 -2.1,4 -1.6,3.8 0.4,-0.2 -1.1,-1.4 -2.1,-2 -0.5,-0.3 -1.1,-0.4 -1.5,-0.7 -0.2,-0.1 -3.1,-2.5 -2.8,-2.6 -0.8,-0.2 -1.6,-0.4 -2.4,-0.6 1.5,1.5 0.6,5.3 -0.4,6.8 1.5,0.2 3,0.4 4.6,0.6 -0.5,-2.4 1,-7.1 3.2,-8.3 -1.2,-0.5 -2.4,-1 -3.7,-1.5 0.7,2 0.4,5.3 -1.7,6.5 1.2,0.5 2.4,1 3.7,1.5 -0.4,-2 5.2,-8.1 -0.8,-4.7 1.2,0.9 2.4,1.9 3.7,2.8 0.2,-1.4 1.7,-3.4 1.6,-4.8 -0.2,-2 -1.3,1.3 -1.8,2.1 1.5,0.2 3,0.4 4.6,0.6 -0.4,-1.2 -0.4,-3.4 0.5,-4.5 -1.4,-0.4 -2.8,-0.7 -4.2,-1.1 0.6,2.4 0.8,8.1 -2,9.4 1.3,0.7 2.5,1.4 3.8,2.2 -0.5,-3.8 1.2,-7.2 1.1,-10.9 0,-2.5 -3.3,-3.4 -4.7,-1.3 -1.8,2.9 -2.3,12.8 3,12.4 2.5,-0.2 5.3,-3.5 7.1,-5 2.3,-1.9 5,-4.7 4.5,-7.9 -0.3,-2.2 -2.5,-3.2 -4.3,-1.8 -0.2,0.2 -0.4,0.3 -0.5,0.5 -0.7,0.6 -0.8,1.6 -0.6,2.4 0.2,1.4 0.9,2.4 1.9,3.4 1.6,1.4 4.3,0.5 4.3,-1.8 0,-3.4 -2.1,-6.4 -5.5,-6.7 -1,-0.1 -2.2,0.9 -2.4,1.8 -0.4,1.6 -0.4,3 -0.4,4.7 0,2.8 4.1,3.4 4.9,0.7 1.2,-4.1 0.7,-7.9 -3.7,-9.5 -3,-1.1 -7.7,-1.5 -10.3,0.9 -0.8,0.7 -1,2.1 -0.4,3 3.3,5.3 15.4,3.8 10.4,-3.2 C 79.8,5.9 76.4,3.1 73.1,4 71.7,4.4 70.7,5.4 69.7,6.5 67.3,9.2 67.4,8.6 64.5,7.2 63,6.5 60.5,7.3 60.7,9.4 c 0.3,2.3 1.3,4.7 4.1,4.7 1,0 1.8,-0.3 2.7,-1 0.9,-0.7 2.5,-4.5 1,-1.1 1.5,0.2 3,0.4 4.6,0.6 -0.3,-1.5 -0.1,-3 0,-4.5 C 73,5.3 68.5,4.6 68,7.4 c -0.5,2.7 -0.4,6.5 -2.6,8.4 1.4,0.4 2.8,0.7 4.2,1.1 -0.3,-2 0.6,-4.7 0.6,-6.8 -1.7,0 -3.3,0 -5,0 0.1,1.4 0.4,3.4 -0.3,4.7 1.3,-0.2 2.6,-0.3 3.9,-0.5 -0.3,-0.3 0,-3.2 -0.2,-3.8 -0.4,-1.3 -1.1,-2 -2.2,-2.7 -1.4,-1 -3.2,0.1 -3.7,1.5 -0.8,2.4 -1.7,5.1 -2.2,7.6 1.6,0.4 3.2,0.9 4.8,1.3 0.3,-2.2 1.1,-4.1 1.8,-6.2 0.7,-2.3 -2.6,-4.4 -4.2,-2.4 -0.3,0.4 -1.8,3 -2,3 -3.1,-0.1 -3.1,4.9 0.1,4.9 z" />
	</g>
</g>
<path
   id="XMLID_62_"
   class="st4"
   d="M12,0h66c6.6,0,12,5.4,12,12v111c0,6.6-5.4,12-12,12H12c-6.6,0-12-5.4-12-12V12  C0,5.4,5.4,0,12,0z" />

<rect
   style="fill:#000000;stroke-width:6.94299;stroke-miterlimit:10"
   id="rect1900"
   width="90"
   height="20"
   x="0"
   y="110" /><g
   aria-label="CONTESSA"
   transform="translate(3.9707906,1.3543299)"
   id="text2095"
   style="font-style:italic;font-weight:bold;font-size:13.3333px;font-family:'Times New Roman';-inkscape-font-specification:'Times New Roman,  Bold Italic';white-space:pre"><path
     d="m 16.195288,113.65218 -0.65104,2.80598 h -0.253905 q -0.04557,-1.14583 -0.566405,-1.70572 -0.514322,-0.56641 -1.347653,-0.56641 -0.898435,0 -1.79036,0.76823 -0.891925,0.76823 -1.510413,2.35026 -0.5013008,1.28254 -0.5013008,2.53254 0,1.11979 0.5468738,1.71224 0.553384,0.58593 1.510413,0.58593 0.774737,0 1.412757,-0.33854 0.638019,-0.33854 1.289059,-1.10026 h 0.312499 q -0.80729,1.21094 -1.63411,1.69922 -0.820311,0.48828 -2.011714,0.48828 -1.5950482,0 -2.5716082,-0.96354 -0.9700497,-0.97005 -0.9700497,-2.52604 0,-1.45833 0.7747377,-2.77994 0.7747376,-1.32812 2.2265572,-2.14192 1.458329,-0.82031 2.897128,-0.82031 0.546873,0 1.360673,0.23437 0.416666,0.11719 0.579426,0.11719 0.32552,0 0.65755,-0.35156 z"
     style="fill:#ffffff"
     id="path2667" /><path
     d="m 19.229135,122.89044 q -1.067706,0 -1.725256,-0.4362 -0.657551,-0.4362 -0.989581,-1.1914 -0.32552,-0.75521 -0.32552,-1.47135 0,-1.44531 0.826821,-2.91015 0.82682,-1.47135 2.226556,-2.35026 1.406247,-0.88541 2.773431,-0.88541 0.800779,0 1.516923,0.40364 0.722655,0.40365 1.119789,1.1263 0.403645,0.72266 0.403645,1.45833 0,1.64714 -1.048175,3.30729 -1.048174,1.65364 -2.356765,2.39582 -0.98958,0.55339 -2.421868,0.55339 z m 2.571608,-8.71092 q -0.514322,0 -0.878904,0.1888 -0.358072,0.1823 -0.748696,0.61849 -0.390624,0.4362 -0.794269,1.25 -0.403645,0.80729 -0.761717,2.20051 -0.351562,1.39323 -0.351562,2.32422 0,0.79427 0.345052,1.20442 0.345051,0.40365 0.885414,0.40365 0.716144,0 1.217445,-0.47526 0.996091,-0.94401 1.62109,-2.76692 0.631508,-1.82943 0.631508,-3.2552 0,-0.89193 -0.33854,-1.28906 -0.332031,-0.40365 -0.826821,-0.40365 z"
     style="fill:#ffffff"
     id="path2669" /><path
     d="m 29.860617,113.854 2.760409,5.8854 1.243487,-4.27082 q 0.09766,-0.35156 0.09766,-0.625 0,-0.32552 -0.208333,-0.52083 -0.201822,-0.19531 -0.703123,-0.22786 l 0.07161,-0.24089 h 2.799472 l -0.0651,0.24089 q -0.533852,0.0326 -0.885414,0.29948 -0.345051,0.26692 -0.585936,1.07421 l -2.154943,7.31118 h -0.247395 l -3.541657,-7.52602 -1.712236,5.86587 q -0.08463,0.30599 -0.08463,0.54687 0,0.35156 0.227864,0.56641 0.234374,0.20833 0.742186,0.20833 l -0.05859,0.24089 h -2.877597 l 0.05859,-0.24089 q 0.371093,0 0.527342,-0.0651 0.273437,-0.10417 0.533853,-0.39714 0.260416,-0.29948 0.423176,-0.85937 l 1.868485,-6.41274 q -0.345051,-0.38412 -0.579426,-0.4948 -0.234374,-0.11067 -0.703123,-0.11718 l 0.07161,-0.24089 z"
     style="fill:#ffffff"
     id="path2671" /><path
     d="m 36.872319,113.854 h 7.102847 l -0.670571,2.3763 H 43.07022 q 0.01302,-0.1888 0.01302,-0.33203 0,-0.67708 -0.397134,-1.04818 -0.397135,-0.3776 -1.341143,-0.42968 l -1.966141,6.64712 q -0.16276,0.55338 -0.16276,0.82031 0,0.24739 0.201823,0.39713 0.201822,0.14323 0.82031,0.15625 l -0.05859,0.24089 h -4.3815 l 0.07813,-0.24089 q 0.670571,0 0.97656,-0.24739 0.305989,-0.25391 0.559894,-1.1263 l 1.966141,-6.64712 q -1.015622,0.0326 -1.699214,0.4427 -0.683592,0.41016 -1.249997,1.36719 h -0.253906 z"
     style="fill:#ffffff"
     id="path2673" /><path
     d="m 47.920466,114.34228 -0.98307,3.42447 h 0.299478 q 1.184893,0 1.725256,-0.3125 0.546874,-0.31249 0.924477,-1.10676 h 0.240885 l -0.989581,3.43749 h -0.227864 q 0.05859,-0.34505 0.05859,-0.5599 0,-0.35807 -0.214844,-0.58593 -0.208332,-0.22787 -0.546873,-0.32552 -0.221354,-0.0651 -0.917967,-0.0651 h -0.507811 l -0.846352,2.96224 q -0.110677,0.39062 -0.110677,0.57942 0,0.14974 0.143229,0.24089 0.208333,0.1302 0.787758,0.1302 1.113279,0 2.096349,-0.46875 0.983071,-0.47525 1.764319,-1.43228 h 0.266926 l -0.917966,2.42187 h -7.552064 l 0.07812,-0.24089 q 0.664061,0 0.97005,-0.24739 0.305989,-0.25391 0.553384,-1.10677 l 1.660152,-5.68358 q 0.136718,-0.47526 0.136718,-0.7487 0,-0.24739 -0.17578,-0.3776 -0.175781,-0.13672 -0.80078,-0.18229 l 0.07162,-0.24089 h 7.037742 l -0.566404,2.20703 h -0.234375 q -0.02604,-0.65104 -0.201822,-0.91797 -0.273437,-0.41666 -0.729165,-0.60547 -0.449218,-0.19531 -1.46484,-0.19531 z"
     style="fill:#ffffff"
     id="path2675" /><path
     d="m 59.554552,113.65218 -0.735675,2.99478 h -0.214843 q -0.07162,-0.70312 -0.253906,-1.12629 -0.273437,-0.61198 -0.729165,-0.94401 -0.449217,-0.33203 -0.97656,-0.33203 -0.507811,0 -0.891925,0.39062 -0.377603,0.38411 -0.377603,0.87239 0,0.48177 0.260416,0.95052 0.266927,0.46224 1.249997,1.39974 0.787758,0.7487 1.054685,1.28906 0.273437,0.54036 0.273437,1.17187 0,0.70963 -0.377604,1.30859 -0.377603,0.59896 -1.100257,0.93099 -0.716144,0.32552 -1.6276,0.32552 -0.559895,0 -1.412757,-0.16927 -0.846352,-0.16276 -1.126299,-0.16276 -0.221354,0 -0.397135,0.0716 -0.175781,0.0651 -0.436197,0.26042 h -0.253905 l 0.787758,-3.36588 h 0.247395 q 0.08464,0.88542 0.358073,1.51041 0.273436,0.61849 0.781248,0.97005 0.507811,0.34505 1.158851,0.34505 0.644529,0 1.074216,-0.42317 0.436197,-0.42969 0.436197,-1.0026 0,-0.48828 -0.247396,-0.9375 -0.240884,-0.44922 -1.113278,-1.30859 -0.865883,-0.85937 -1.197914,-1.53646 -0.240884,-0.5013 -0.240884,-1.0677 0,-0.98307 0.774737,-1.69922 0.774738,-0.71614 2.024735,-0.71614 0.566404,0 1.490881,0.25391 0.540363,0.14974 0.761717,0.14974 0.188802,0 0.338541,-0.0781 0.149739,-0.0846 0.351562,-0.32552 z"
     style="fill:#ffffff"
     id="path2677" /><path
     d="m 66.969896,113.65218 -0.735675,2.99478 h -0.214843 q -0.07161,-0.70312 -0.253906,-1.12629 -0.273436,-0.61198 -0.729164,-0.94401 -0.449218,-0.33203 -0.976561,-0.33203 -0.507811,0 -0.891924,0.39062 -0.377604,0.38411 -0.377604,0.87239 0,0.48177 0.260416,0.95052 0.266927,0.46224 1.249997,1.39974 0.787759,0.7487 1.054685,1.28906 0.273437,0.54036 0.273437,1.17187 0,0.70963 -0.377603,1.30859 -0.377604,0.59896 -1.100258,0.93099 -0.716144,0.32552 -1.6276,0.32552 -0.559894,0 -1.412757,-0.16927 -0.846352,-0.16276 -1.126299,-0.16276 -0.221354,0 -0.397134,0.0716 -0.175781,0.0651 -0.436197,0.26042 H 58.897 l 0.787759,-3.36588 h 0.247395 q 0.08464,0.88542 0.358072,1.51041 0.273437,0.61849 0.781248,0.97005 0.507811,0.34505 1.158851,0.34505 0.64453,0 1.074216,-0.42317 0.436197,-0.42969 0.436197,-1.0026 0,-0.48828 -0.247395,-0.9375 -0.240885,-0.44922 -1.113279,-1.30859 -0.865883,-0.85937 -1.197913,-1.53646 -0.240885,-0.5013 -0.240885,-1.0677 0,-0.98307 0.774737,-1.69922 0.774738,-0.71614 2.024735,-0.71614 0.566405,0 1.490882,0.25391 0.540363,0.14974 0.761716,0.14974 0.188802,0 0.338541,-0.0781 0.149739,-0.0846 0.351562,-0.32552 z"
     style="fill:#ffffff"
     id="path2679" /><path
     d="M 72.008948,119.83706 H 69.27458 l -0.546873,0.67708 -0.624999,0.7487 q -0.182291,0.24088 -0.266926,0.4362 -0.0651,0.14973 -0.0651,0.29947 0,0.15625 0.16276,0.29297 0.16927,0.13021 0.553384,0.14974 v 0.24089 H 65.85011 l 0.0651,-0.24089 q 0.351561,-0.0586 0.624998,-0.24739 0.364583,-0.26042 1.048175,-1.07422 l 6.256494,-7.46743 h 0.292968 l -0.292968,7.22654 q -0.01953,0.56641 -0.01953,0.6836 0,0.4427 0.175781,0.64453 0.182291,0.20182 0.598957,0.23437 l -0.0651,0.24089 h -3.821605 l 0.07161,-0.24089 q 0.566405,-0.0521 0.65104,-0.0911 0.182291,-0.0911 0.332031,-0.37761 0.149739,-0.29297 0.182291,-1.00911 z m 0,-0.53385 0.169271,-2.8776 -2.454421,2.8776 z"
     style="fill:#ffffff"
     id="path2681" /></g><rect
   style="fill:#ffffff;stroke-width:6.94299;stroke-miterlimit:10"
   id="rect2161"
   width="15.283887"
   height="19.155596"
   x="0.85492784"
   y="1.5549051" /></svg>
