<?xml version="1.0" encoding="utf-8"?>
<!-- Generator: Adobe Illustrator 19.0.0, SVG Export Plug-In . SVG Version: 6.00 Build 0)  -->
<svg version="1.1" id="Layer_1" xmlns="http://www.w3.org/2000/svg" xmlns:xlink="http://www.w3.org/1999/xlink" x="0px" y="0px"
	 viewBox="0 0 90 135" style="enable-background:new 0 0 90 135;" xml:space="preserve">
<style type="text/css">
	.st0{fill:#FFFFFF;stroke:#000000;stroke-miterlimit:10;}
	.st1{fill:none;}
	.st2{font-family:'MosaicoSCSC';}
	.st3{font-size:9px;}
	.st4{font-size:12px;}
	.st5{fill:none;stroke:#000000;stroke-miterlimit:10;}
	.st6{opacity:0.51;}
	.st7{fill:#ED1969;}
</style>
<path id="XMLID_7_" class="st0" d="M78,0H12C5.4,0,0,5.4,0,12v111c0,6.6,5.4,12,12,12h66c6.6,0,12-5.4,12-12V12C90,5.4,84.6,0,78,0z
	"/>
<path id="XMLID_82_" class="st1" d="M12,0h66c6.6,0,12,5.4,12,12v111c0,6.6-5.4,12-12,12H12c-6.6,0-12-5.4-12-12V12
	C0,5.4,5.4,0,12,0z"/>
<text id="XMLID_8_" transform="matrix(1 0 0 1 0 94.6201)"><tspan x="0" y="0" class="st2 st3"> </tspan><tspan x="0" y="14.4" class="st2 st4">   DUKE: </tspan><tspan x="0" y="25.2" class="st2 st3">    Take 3 coins from the treasury</tspan><tspan x="2.7" y="36" class="st2 st3">   Blocks foreign aid</tspan></text>
<path id="XMLID_25_" class="st5" d="M34.9,35.5c-0.3-0.4-1-0.3-1.5-0.1c-1.7,0.5-3.6,0.7-5.4,0.7c0,0.2,0,0.4,0.1,0.5"/>
<path id="XMLID_26_" class="st5" d="M47,34.6c3.4-0.8,7,0.2,10.5-0.3c-0.2-0.1-0.5,0.2-0.3,0.4"/>
<path id="XMLID_27_" class="st5" d="M55.8,32.3c1-0.2,1.4-1.4,1.3-2.4c-0.1-1-0.7-1.9-1-2.8c-0.4-1.3-0.4-2.7-0.1-4
	c0.2-0.5,0.4-1.1,0.4-1.6c0-0.6-0.4-1.2-0.8-1.6c-1.5-1.6-4-1.8-6.2-1.8c-8,0.1-16,1.4-23.6,4c-1.3,0.4-2.6,0.9-3.9,1.6
	c-3.1,1.7-5.5,4.5-7.4,7.4c-1.3,1.9-2.4,4-3.1,6.2c-1.2,3.9-1,8-1.4,12c-0.4,4.4-1.4,8.9-0.4,13.2c0.6,2.5,1.9,4.8,3.2,7.1
	c2,3.2,4.1,6.2,6.5,9.1"/>
<path id="XMLID_28_" class="st5" d="M52.3,41.9c0.9,0,1.8,0.1,2.7,0.2c0.4,0.1,0.8,0.2,1,0.4c1.1,1.1-1.7,1.3-2.2,1.5
	c-2.2,0.6-1.5,2.5-0.4,4c0.7,0.9,1.5,1.8,1.9,2.9c0.1,0.2,0.1,0.4,0.1,0.6c-0.1,0.3-0.4,0.5-0.6,0.6c-0.7,0.4-1.4,0.7-2.1,0.9
	c-0.4,0.1-0.9,0.3-1.2,0.6c-0.3,0.3-0.3,1,0.1,1.1"/>
<path id="XMLID_29_" class="st5" d="M33.4,41.2c0.1-0.2-0.2-0.3-0.4-0.3c-2-0.1-4.1,0-6.1,0.3c0.2,0,0.3,0,0.5,0"/>
<path id="XMLID_30_" class="st5" d="M53.9,38.8c-2,0.2-4.1,0.4-6.1,0.6c-0.2,0-0.5,0.1-0.7,0.3"/>
<path id="XMLID_31_" class="st5" d="M38.2,61.6c-0.2-0.1-0.2-0.4-0.1-0.5c1.2,3.5,4.6,6.1,8.2,6.4c1.2,0.1,2.6-0.1,3.4-0.9
	c0.3-0.3,0.6-0.8,0.8-1.2c0.8-1.5,1.3-3.2,1.6-4.9"/>
<path id="XMLID_37_" class="st5" d="M55.5,60.4c2.6,2.3,2.9,6.4,1.8,9.7c-0.5,1.5-1.2,3-2.4,4.1c-1.1,1-2.4,1.5-3.8,2
	c-5.3,1.9-10.8,3-16.4,3.2c-1.2,0.1-2.4,0.1-3.3,0.9c-0.3,0.3-0.5,0.7-0.8,0.9c-0.9,0.9-2.4,0.7-3.6,0.2c-1.6-0.7-3-2-4.8-2.5
	c-1.6-0.4-3.3,0-4.8-0.6c-0.3-0.1-0.6-0.2-0.6-0.5s0.5-0.4,0.5-0.2"/>
<path id="XMLID_38_" class="st5" d="M41.3,45.4c1.7,1.8,3.1,3.8,4.2,6c0.1,0.2,0.2,0.4,0.1,0.6c-0.1,0.1-0.3,0.2-0.4,0.2
	c-1.2,0.3-2.4,0.5-3.6,0.6c0,0.3-0.1,0.5-0.3,0.6"/>
<path id="XMLID_39_" class="st5" d="M55,18.9c3.7-0.3,7.3-1.3,10.6-3c0.6-0.3,1.3-0.7,1.5-1.4c0.2-0.7-0.2-1.5-0.9-1.9
	c-0.6-0.4-1.4-0.5-2.1-0.6c-12.9-1.9-26,0-38.6,3.5c-1.9,0.5-4.2,1.9-6,0.8c-2-1.2-2.8-4.4-2.1-6.5c0.7-2.5,3.3-4.4,5.9-4.3
	c1.7,0,3.4,0.8,5.1,0.6c0.3,0,0.6-0.1,0.7-0.4c0.1-0.2,0.1-0.4,0.1-0.6c0.2-1.6,1.5-2.8,3.1-3.4c1.5-0.5,3.1-0.5,4.7-0.4
	c4.5,0.3,9.3,1,12.7,4.1c1.7,1.5,2.9,3.6,3.4,5.8"/>
<path id="XMLID_40_" class="st5" d="M12.8,33.1c0.3,0.2-0.2,0.6-0.5,0.5c-1.6,0-3.3,0-4.9-0.5c-1.6-0.4-3.1-1.3-3.9-2.7
	c-1-1.7-0.9-3.8-0.1-5.6c0.8-1.8,2.2-3.2,3.8-4.3c3.5-2.7,7.8-4.3,12.2-4.6"/>
<path id="XMLID_41_" class="st5" d="M55.5,42.5c0-0.1,0-0.1,0-0.2"/>
<path id="XMLID_42_" class="st5" d="M18.9,42.8c-0.4-1.4-2-2.1-3.4-2.5c-1.1-0.3-2.3-0.5-3.2,0.1c-1,0.7-1.2,2-1.3,3.2
	c-0.1,1-0.1,2,0.2,2.9c0.4,0.9,1.1,1.7,1.6,2.5c1.1,1.8,1,3.9,1.5,6c0.4,2,1.6,4.2,3.7,4.4c1.5,0.2,3.1-1,3.3-2.6
	c0.2-1.7-0.9-3.3-0.5-4.9"/>
<path id="XMLID_43_" class="st5" d="M18.3,78.3c-0.1-0.6-0.9-0.6-1.5-0.5c-1.5,0.3-2.9,0.8-4.3,1.5c-1.1,0.5-2.2,1.1-3.2,1.8
	c-0.7,0.4-1.4,0.8-2.2,1.3c-2.6,1.5-5.2,3-7,5.4c0.3-0.3,0.5-0.6,0.8-1"/>
<path id="XMLID_44_" class="st5" d="M89.7,81.3c-1.7-1.7-4.1-2.4-6.5-3c-5.3-1.4-10.6-2.7-16-4.1c-3.6-0.9-7.5-1.9-11.1-0.8
	c-0.3,0.1-0.6,0.3-0.5,0.5s0.6-0.1,0.3-0.1"/>
<path id="XMLID_45_" class="st5" d="M6.3,82.8c1.3,2.3,2.6,4.6,3.3,7.2c0.3,1.3,0.5,2.6,0.7,3.9c0.2,2,0.4,4-0.1,5.9
	c0.2,0.3,0.5,0.4,0.8,0.3"/>
<path id="XMLID_46_" class="st5" d="M14.6,79.3c2.4,9.6,9.2,17.5,16.4,24.3c2.4,2.3,4.9,4.5,7.5,6.6"/>
<path id="XMLID_5_" class="st5" d="M36.4,112.8C42,104,47,94,56,87c5-3,10,2,14.2,4.4"/>
<path id="XMLID_48_" class="st5" d="M73.2,93c-1.3,1.6-1.6,3.7-2.3,5.7c-0.6,1.7-1.4,3.4-2.3,5c-2,3.7-3.9,7.4-5.9,11.1"/>
<path id="XMLID_47_" class="st5" d="M88.9,80.7C88,88,85,94,84.1,99.5"/>
<path id="XMLID_50_" class="st5" d="M78,104.4c-2.5,0.5-4.7-1-6.9-2.1"/>
<path id="XMLID_91_" class="st5" d="M72.5,21c0.8-5.5,3-10.8,6.3-15.2c-0.3,4.3,0.8,8.7,3,12.5c-2.6-0.1-5.3-0.1-7.7-0.9
	c-2.5-0.8-4.9-2.3-6-4.7c5.4-1.6,10.9-3.1,16.4-4.3c-4.7,2-6.7,7.7-10.7,10.7c0.5-0.5,1-1,1.5-1.5"/>
<g id="XMLID_118_" class="st6">
	<g id="XMLID_16_">
		<path id="XMLID_20_" class="st7" d="M72.6,13.9c-0.1,0.1-0.2,0.3-0.4,0.4c0.3,0.5,0.6,0.9,0.9,1.4c0.1,0,0.6-0.5,0.7-0.6
			c0.5-0.4,0.9-0.9,1.3-1.4c0.8-0.9,1.3-0.9,2.4-1.1c2.6-0.4,4.8-1.8,5-4.7c0.1-1.5-1.7-3-3.2-2.4c-3.3,1.2-4.8,5.2-5.4,8.4
			c-0.9,4.7,5.8,6.4,7.7,2.3c0.4-0.8,0.5-1.8,0-2.5c-0.2-0.2-0.3-0.5-0.5-0.7c-1.9-2.6-6.2-0.1-4.3,2.5c0.2,0.2,0.3,0.5,0.5,0.7
			c0-0.8,0-1.7,0-2.5c-0.1,0.1,0.2-0.1,0.2-0.1c0.8,1.6,1.2,2,1.4,1.1c0-0.1,0.1-0.3,0.1-0.4c0.2-0.5,0.3-1.1,0.5-1.6
			c0.2-0.5,0.3-0.9,0.6-1.4c0.1-0.3,0.3-0.5,0.5-0.8c0.1-0.2,0.6-0.4,0.1-0.2c-1.1-0.8-2.1-1.6-3.2-2.4c0.1-1,0.3-0.3-0.2-0.4
			c-0.3,0-0.8,0.2-1.1,0.2c-1,0.2-1.9,0.3-2.8,0.8c-1.5,0.8-2.8,2.5-4,3.7c-1.7,1.8-1.3,4.3,0.5,5.9c2.1,1.9,4.5,1.1,6.2-0.8
			C78.2,15,74.7,11.5,72.6,13.9L72.6,13.9z"/>
	</g>
</g>
<path id="XMLID_1_" class="st5" d="M70.1,91.3c0.2,0.1,0.5,0.3,0.7,0.3c0.3,0.1,0.5,0.2,0.7,0.3c0.3,0.1,0.6,0.3,0.8,0.5
	c0.1,0.1,0.1,0.1,0.2,0.2c0.1,0.1,0.1,0.1,0.2,0.2c0,0,0.1,0.1,0.1,0.1c0.1,0,0.1,0.1,0.2,0.1c0.1,0,0.1,0,0.1,0.1c0,0,0.1,0,0.1,0"
	/>
<path id="XMLID_22_" class="st5" d="M71.2,102.3c-0.1-0.1-0.2-0.2-0.3-0.2c-0.3-0.1-0.6-0.3-0.8-0.4c-0.1,0-0.1-0.1-0.2-0.1
	c-0.1,0-0.2-0.1-0.3-0.2"/>
<path id="XMLID_49_" class="st5" d="M77.8,104.4c0.1-0.1,0.1-0.1,0.2-0.1c0.1,0,0.2-0.1,0.3-0.1c0.1,0,0.3-0.1,0.4-0.1
	c0.1,0,0.3,0,0.4,0c0.1,0,0.3,0,0.4,0c0.2,0,0.3,0,0.5,0c0.1,0,0.2,0,0.3,0c0.1,0,0.3,0,0.4,0c0.1,0,0.3,0,0.4,0c0.1,0,0.2,0,0.2,0
	c0.1,0,0.1,0,0.2,0c0,0,0.1,0,0.1,0c0.1,0,0.1-0.1,0.1-0.1c0.1,0,0.2-0.1,0.3-0.1c0.2-0.1,0.5-0.2,0.7-0.4c0.1-0.1,0.2-0.1,0.3-0.2
	c0,0,0.1-0.1,0.1-0.1c0.1-0.1,0.2-0.2,0.2-0.4c0-0.1,0-0.1,0.1-0.2c0-0.1,0.1-0.1,0.1-0.2c0.1-0.2,0.1-0.4,0.2-0.7
	c0-0.1,0-0.2,0-0.3c0-0.1,0-0.2,0-0.3c0-0.2,0-0.3,0.1-0.5c0-0.1,0.1-0.2,0.1-0.2c0,0,0-0.1,0-0.1c0-0.1,0-0.1,0.1-0.2
	c0-0.1,0.1-0.2,0.1-0.4c0-0.1,0-0.2,0.1-0.2c0,0,0-0.1,0-0.1c0,0,0,0,0-0.1c0-0.1,0.1-0.1,0.1-0.2"/>
</svg>
