<?xml version="1.0" encoding="UTF-8" standalone="no"?>
<!-- Generator: Adobe Illustrator 19.0.0, SVG Export Plug-In . SVG Version: 6.00 Build 0)  -->

<svg
   version="1.1"
   id="Layer_1"
   x="0px"
   y="0px"
   viewBox="0 0 90 135"
   style="enable-background:new 0 0 90 135;"
   xml:space="preserve"
   sodipodi:docname="duke00.svg"
   inkscape:version="1.2.2 (b0a8486541, 2022-12-01)"
   xmlns:inkscape="http://www.inkscape.org/namespaces/inkscape"
   xmlns:sodipodi="http://sodipodi.sourceforge.net/DTD/sodipodi-0.dtd"
   xmlns="http://www.w3.org/2000/svg"
   xmlns:svg="http://www.w3.org/2000/svg"><defs
   id="defs1307" /><sodipodi:namedview
   id="namedview1305"
   pagecolor="#ffffff"
   bordercolor="#999999"
   borderopacity="1"
   inkscape:showpageshadow="0"
   inkscape:pageopacity="0"
   inkscape:pagecheckerboard="0"
   inkscape:deskcolor="#d1d1d1"
   showgrid="false"
   showguides="true"
   inkscape:zoom="8"
   inkscape:cx="72.25"
   inkscape:cy="66.9375"
   inkscape:window-width="3840"
   inkscape:window-height="2077"
   inkscape:window-x="0"
   inkscape:window-y="0"
   inkscape:window-maximized="1"
   inkscape:current-layer="XMLID_8_" />
<style
   type="text/css"
   id="style1263">
	.st0{fill:#FFFFFF;stroke:#000000;stroke-miterlimit:10;}
	.st1{fill:none;}
	.st2{font-family:'MosaicoSCSC';}
	.st3{font-size:9px;}
	.st4{font-size:12px;}
	.st5{fill:none;stroke:#000000;stroke-miterlimit:10;}
	.st6{opacity:0.51;}
	.st7{fill:#ED1969;}
</style>

<rect
   style="fill:#ffffff;stroke-width:6.98216;stroke-miterlimit:10"
   id="rect1361"
   width="90"
   height="135"
   x="0"
   y="0" /><rect
   style="fill:#000000;stroke-width:7.00916;stroke-miterlimit:10"
   id="rect478"
   width="90"
   height="20"
   x="0"
   y="110" /><path
   id="XMLID_82_"
   class="st1"
   d="M12,0h66c6.6,0,12,5.4,12,12v111c0,6.6-5.4,12-12,12H12c-6.6,0-12-5.4-12-12V12  C0,5.4,5.4,0,12,0z" />

<path
   id="XMLID_25_"
   class="st5"
   d="M34.9,35.5c-0.3-0.4-1-0.3-1.5-0.1c-1.7,0.5-3.6,0.7-5.4,0.7c0,0.2,0,0.4,0.1,0.5" />
<path
   id="XMLID_26_"
   class="st5"
   d="M47,34.6c3.4-0.8,7,0.2,10.5-0.3c-0.2-0.1-0.5,0.2-0.3,0.4" />
<path
   id="XMLID_27_"
   class="st5"
   d="M55.8,32.3c1-0.2,1.4-1.4,1.3-2.4c-0.1-1-0.7-1.9-1-2.8c-0.4-1.3-0.4-2.7-0.1-4  c0.2-0.5,0.4-1.1,0.4-1.6c0-0.6-0.4-1.2-0.8-1.6c-1.5-1.6-4-1.8-6.2-1.8c-8,0.1-16,1.4-23.6,4c-1.3,0.4-2.6,0.9-3.9,1.6  c-3.1,1.7-5.5,4.5-7.4,7.4c-1.3,1.9-2.4,4-3.1,6.2c-1.2,3.9-1,8-1.4,12c-0.4,4.4-1.4,8.9-0.4,13.2c0.6,2.5,1.9,4.8,3.2,7.1  c2,3.2,4.1,6.2,6.5,9.1" />
<path
   id="XMLID_28_"
   class="st5"
   d="M52.3,41.9c0.9,0,1.8,0.1,2.7,0.2c0.4,0.1,0.8,0.2,1,0.4c1.1,1.1-1.7,1.3-2.2,1.5  c-2.2,0.6-1.5,2.5-0.4,4c0.7,0.9,1.5,1.8,1.9,2.9c0.1,0.2,0.1,0.4,0.1,0.6c-0.1,0.3-0.4,0.5-0.6,0.6c-0.7,0.4-1.4,0.7-2.1,0.9  c-0.4,0.1-0.9,0.3-1.2,0.6c-0.3,0.3-0.3,1,0.1,1.1" />
<path
   id="XMLID_29_"
   class="st5"
   d="M33.4,41.2c0.1-0.2-0.2-0.3-0.4-0.3c-2-0.1-4.1,0-6.1,0.3c0.2,0,0.3,0,0.5,0" />
<path
   id="XMLID_30_"
   class="st5"
   d="M53.9,38.8c-2,0.2-4.1,0.4-6.1,0.6c-0.2,0-0.5,0.1-0.7,0.3" />
<path
   id="XMLID_31_"
   class="st5"
   d="M38.2,61.6c-0.2-0.1-0.2-0.4-0.1-0.5c1.2,3.5,4.6,6.1,8.2,6.4c1.2,0.1,2.6-0.1,3.4-0.9  c0.3-0.3,0.6-0.8,0.8-1.2c0.8-1.5,1.3-3.2,1.6-4.9" />
<path
   id="XMLID_37_"
   class="st5"
   d="M55.5,60.4c2.6,2.3,2.9,6.4,1.8,9.7c-0.5,1.5-1.2,3-2.4,4.1c-1.1,1-2.4,1.5-3.8,2  c-5.3,1.9-10.8,3-16.4,3.2c-1.2,0.1-2.4,0.1-3.3,0.9c-0.3,0.3-0.5,0.7-0.8,0.9c-0.9,0.9-2.4,0.7-3.6,0.2c-1.6-0.7-3-2-4.8-2.5  c-1.6-0.4-3.3,0-4.8-0.6c-0.3-0.1-0.6-0.2-0.6-0.5s0.5-0.4,0.5-0.2" />
<path
   id="XMLID_38_"
   class="st5"
   d="M41.3,45.4c1.7,1.8,3.1,3.8,4.2,6c0.1,0.2,0.2,0.4,0.1,0.6c-0.1,0.1-0.3,0.2-0.4,0.2  c-1.2,0.3-2.4,0.5-3.6,0.6c0,0.3-0.1,0.5-0.3,0.6" />
<path
   id="XMLID_39_"
   class="st5"
   d="M55,18.9c3.7-0.3,7.3-1.3,10.6-3c0.6-0.3,1.3-0.7,1.5-1.4c0.2-0.7-0.2-1.5-0.9-1.9  c-0.6-0.4-1.4-0.5-2.1-0.6c-12.9-1.9-26,0-38.6,3.5c-1.9,0.5-4.2,1.9-6,0.8c-2-1.2-2.8-4.4-2.1-6.5c0.7-2.5,3.3-4.4,5.9-4.3  c1.7,0,3.4,0.8,5.1,0.6c0.3,0,0.6-0.1,0.7-0.4c0.1-0.2,0.1-0.4,0.1-0.6c0.2-1.6,1.5-2.8,3.1-3.4c1.5-0.5,3.1-0.5,4.7-0.4  c4.5,0.3,9.3,1,12.7,4.1c1.7,1.5,2.9,3.6,3.4,5.8" />
<path
   id="XMLID_40_"
   class="st5"
   d="M12.8,33.1c0.3,0.2-0.2,0.6-0.5,0.5c-1.6,0-3.3,0-4.9-0.5c-1.6-0.4-3.1-1.3-3.9-2.7  c-1-1.7-0.9-3.8-0.1-5.6c0.8-1.8,2.2-3.2,3.8-4.3c3.5-2.7,7.8-4.3,12.2-4.6" />
<path
   id="XMLID_41_"
   class="st5"
   d="M55.5,42.5c0-0.1,0-0.1,0-0.2" />
<path
   id="XMLID_42_"
   class="st5"
   d="M18.9,42.8c-0.4-1.4-2-2.1-3.4-2.5c-1.1-0.3-2.3-0.5-3.2,0.1c-1,0.7-1.2,2-1.3,3.2  c-0.1,1-0.1,2,0.2,2.9c0.4,0.9,1.1,1.7,1.6,2.5c1.1,1.8,1,3.9,1.5,6c0.4,2,1.6,4.2,3.7,4.4c1.5,0.2,3.1-1,3.3-2.6  c0.2-1.7-0.9-3.3-0.5-4.9" />
<path
   id="XMLID_43_"
   class="st5"
   d="m 18.311158,78.292258 c -0.09583,-0.601056 -0.862517,-0.601056 -1.437529,-0.50088 -1.437529,0.300528 -2.779222,0.801408 -4.120916,1.502639 -1.054187,0.50088 -2.108375,1.101935 -3.0667275,1.803167 -0.6708467,0.400703 -1.3416935,0.801407 -2.1083754,1.302287 -2.4917165,1.502639 -4.983433,3.005277 -6.70846745,5.4095 0.28750575,-0.300528 0.47917625,-0.601056 0.76668195,-1.00176"
   style="stroke-width:0.979816" />
<path
   id="XMLID_44_"
   class="st5"
   d="M89.7,81.3c-1.7-1.7-4.1-2.4-6.5-3c-5.3-1.4-10.6-2.7-16-4.1c-3.6-0.9-7.5-1.9-11.1-0.8  c-0.3,0.1-0.6,0.3-0.5,0.5s0.6-0.1,0.3-0.1" />
<path
   id="XMLID_45_"
   class="st5"
   d="M6.3,82.8c1.3,2.3,2.6,4.6,3.3,7.2c0.3,1.3,0.5,2.6,0.7,3.9c0.2,2,0.4,4-0.1,5.9  c0.2,0.3,0.5,0.4,0.8,0.3" />
<path
   id="XMLID_46_"
   class="st5"
   d="M14.6,79.3c2.4,9.6,9.2,17.5,16.4,24.3c2.4,2.3,4.9,4.5,7.5,6.6" />
<path
   id="XMLID_5_"
   class="st5"
   d="M36.4,112.8C42,104,47,94,56,87c5-3,10,2,14.2,4.4" />
<path
   id="XMLID_48_"
   class="st5"
   d="M73.2,93c-1.3,1.6-1.6,3.7-2.3,5.7c-0.6,1.7-1.4,3.4-2.3,5c-2,3.7-3.9,7.4-5.9,11.1" />
<path
   id="XMLID_47_"
   class="st5"
   d="M88.9,80.7C88,88,85,94,84.1,99.5" />
<path
   id="XMLID_50_"
   class="st5"
   d="M78,104.4c-2.5,0.5-4.7-1-6.9-2.1" />
<path
   id="XMLID_91_"
   class="st5"
   d="M72.5,21c0.8-5.5,3-10.8,6.3-15.2c-0.3,4.3,0.8,8.7,3,12.5c-2.6-0.1-5.3-0.1-7.7-0.9  c-2.5-0.8-4.9-2.3-6-4.7c5.4-1.6,10.9-3.1,16.4-4.3c-4.7,2-6.7,7.7-10.7,10.7c0.5-0.5,1-1,1.5-1.5" />
<g
   id="XMLID_118_"
   class="st6">
	<g
   id="XMLID_16_">
		<path
   id="XMLID_20_"
   class="st7"
   d="M72.6,13.9c-0.1,0.1-0.2,0.3-0.4,0.4c0.3,0.5,0.6,0.9,0.9,1.4c0.1,0,0.6-0.5,0.7-0.6    c0.5-0.4,0.9-0.9,1.3-1.4c0.8-0.9,1.3-0.9,2.4-1.1c2.6-0.4,4.8-1.8,5-4.7c0.1-1.5-1.7-3-3.2-2.4c-3.3,1.2-4.8,5.2-5.4,8.4    c-0.9,4.7,5.8,6.4,7.7,2.3c0.4-0.8,0.5-1.8,0-2.5c-0.2-0.2-0.3-0.5-0.5-0.7c-1.9-2.6-6.2-0.1-4.3,2.5c0.2,0.2,0.3,0.5,0.5,0.7    c0-0.8,0-1.7,0-2.5c-0.1,0.1,0.2-0.1,0.2-0.1c0.8,1.6,1.2,2,1.4,1.1c0-0.1,0.1-0.3,0.1-0.4c0.2-0.5,0.3-1.1,0.5-1.6    c0.2-0.5,0.3-0.9,0.6-1.4c0.1-0.3,0.3-0.5,0.5-0.8c0.1-0.2,0.6-0.4,0.1-0.2c-1.1-0.8-2.1-1.6-3.2-2.4c0.1-1,0.3-0.3-0.2-0.4    c-0.3,0-0.8,0.2-1.1,0.2c-1,0.2-1.9,0.3-2.8,0.8c-1.5,0.8-2.8,2.5-4,3.7c-1.7,1.8-1.3,4.3,0.5,5.9c2.1,1.9,4.5,1.1,6.2-0.8    C78.2,15,74.7,11.5,72.6,13.9L72.6,13.9z" />
	</g>
</g>
<path
   id="XMLID_1_"
   class="st5"
   d="M70.1,91.3c0.2,0.1,0.5,0.3,0.7,0.3c0.3,0.1,0.5,0.2,0.7,0.3c0.3,0.1,0.6,0.3,0.8,0.5  c0.1,0.1,0.1,0.1,0.2,0.2c0.1,0.1,0.1,0.1,0.2,0.2c0,0,0.1,0.1,0.1,0.1c0.1,0,0.1,0.1,0.2,0.1c0.1,0,0.1,0,0.1,0.1c0,0,0.1,0,0.1,0" />
<path
   id="XMLID_22_"
   class="st5"
   d="M71.2,102.3c-0.1-0.1-0.2-0.2-0.3-0.2c-0.3-0.1-0.6-0.3-0.8-0.4c-0.1,0-0.1-0.1-0.2-0.1  c-0.1,0-0.2-0.1-0.3-0.2" />
<path
   id="XMLID_49_"
   class="st5"
   d="M77.8,104.4c0.1-0.1,0.1-0.1,0.2-0.1c0.1,0,0.2-0.1,0.3-0.1c0.1,0,0.3-0.1,0.4-0.1  c0.1,0,0.3,0,0.4,0c0.1,0,0.3,0,0.4,0c0.2,0,0.3,0,0.5,0c0.1,0,0.2,0,0.3,0c0.1,0,0.3,0,0.4,0c0.1,0,0.3,0,0.4,0c0.1,0,0.2,0,0.2,0  c0.1,0,0.1,0,0.2,0c0,0,0.1,0,0.1,0c0.1,0,0.1-0.1,0.1-0.1c0.1,0,0.2-0.1,0.3-0.1c0.2-0.1,0.5-0.2,0.7-0.4c0.1-0.1,0.2-0.1,0.3-0.2  c0,0,0.1-0.1,0.1-0.1c0.1-0.1,0.2-0.2,0.2-0.4c0-0.1,0-0.1,0.1-0.2c0-0.1,0.1-0.1,0.1-0.2c0.1-0.2,0.1-0.4,0.2-0.7  c0-0.1,0-0.2,0-0.3c0-0.1,0-0.2,0-0.3c0-0.2,0-0.3,0.1-0.5c0-0.1,0.1-0.2,0.1-0.2c0,0,0-0.1,0-0.1c0-0.1,0-0.1,0.1-0.2  c0-0.1,0.1-0.2,0.1-0.4c0-0.1,0-0.2,0.1-0.2c0,0,0-0.1,0-0.1c0,0,0,0,0-0.1c0-0.1,0.1-0.1,0.1-0.2" />
<g
   aria-label="DUKE"
   id="XMLID_8_"
   style="font-size:13.3333px"><path
     d="m 26.152391,123.8281 0.07813,-0.24088 q 0.638019,0 0.963539,-0.26042 0.332031,-0.26693 0.546874,-0.98958 l 1.601558,-5.56639 q 0.15625,-0.54688 0.15625,-0.89844 0,-0.29948 -0.182291,-0.4427 -0.182291,-0.14323 -0.930987,-0.18881 L 28.463583,115 h 3.020826 q 2.389317,0 3.444002,0.97005 1.061195,0.96354 1.061195,2.70833 0,1.23046 -0.48828,2.06379 -0.957029,1.6276 -2.27213,2.35677 -1.3151,0.72916 -3.378897,0.72916 z m 5.514309,-8.30727 -1.940099,6.69269 q -0.136718,0.46224 -0.136718,0.66406 0,0.18229 0.149739,0.29297 0.195312,0.14974 0.579426,0.14974 0.917966,0 1.64062,-0.57291 0.924477,-0.73568 1.406247,-1.97917 0.48828,-1.24348 0.48828,-2.46744 0,-0.88541 -0.279947,-1.54296 -0.279948,-0.65755 -0.865884,-1.0026 -0.410155,-0.23438 -1.041664,-0.23438 z"
     style="font-style:italic;font-weight:bold;font-family:'Times New Roman';-inkscape-font-specification:'Times New Roman,  Bold Italic';fill:#ffffff"
     id="path2459" /><path
     d="m 44.055992,115 h 2.988273 l -0.05859,0.24088 q -0.514322,0.0391 -0.794269,0.2474 -0.449218,0.33203 -0.670571,1.09375 l -1.171872,4.04947 q -0.546874,1.89452 -1.484372,2.64973 -0.937497,0.74869 -2.382806,0.74869 -0.820311,0 -1.445309,-0.23437 -0.624998,-0.23437 -0.917966,-0.52734 -0.292968,-0.29297 -0.449218,-0.72266 -0.15625,-0.43619 -0.15625,-0.72916 0,-0.46224 0.260416,-1.36719 l 1.119789,-3.86717 q 0.149739,-0.52084 0.149739,-0.77474 0,-0.2474 -0.188801,-0.38411 -0.182291,-0.13672 -0.859373,-0.1823 L 38.066423,115 h 4.401031 l -0.07813,0.24088 q -0.638019,0 -0.97656,0.27344 -0.33203,0.27344 -0.559894,1.06771 l -1.1263,3.86717 q -0.279947,0.97005 -0.279947,1.55599 0,0.53385 0.429687,0.93099 0.429686,0.39713 1.197913,0.39713 0.703123,0 1.191403,-0.2539 0.494791,-0.26042 0.820311,-0.72266 0.429686,-0.61849 0.768227,-1.77083 l 1.152341,-4.00389 q 0.09766,-0.34505 0.09766,-0.57292 0,-0.40364 -0.286458,-0.61849 -0.201822,-0.14974 -0.833331,-0.14974 z"
     style="font-style:italic;font-weight:bold;font-family:'Times New Roman';-inkscape-font-specification:'Times New Roman,  Bold Italic';fill:#ffffff"
     id="path2456" /><path
     d="m 54.068987,123.8281 h -3.821605 l 0.07161,-0.24088 q 0.377603,-0.0326 0.559894,-0.21485 0.182292,-0.1888 0.182292,-0.46223 0,-0.29297 -0.201823,-0.93099 l -0.937497,-3.00781 -0.930988,3.22265 q -0.156249,0.54036 -0.156249,0.78125 0,0.27344 0.214843,0.44271 0.214843,0.16276 0.774738,0.16927 l -0.07161,0.24088 h -4.290354 l 0.07162,-0.24088 q 0.514322,-0.013 0.768227,-0.13672 0.253906,-0.1237 0.403645,-0.38411 0.149739,-0.26042 0.358072,-0.9961 l 1.484371,-5.1367 q 0.253906,-0.88542 0.253906,-1.1263 0,-0.22135 -0.208333,-0.38411 -0.201822,-0.16276 -0.774738,-0.1823 L 47.890617,115 h 4.153635 l -0.07161,0.24088 q -0.416666,0 -0.63802,0.1237 -0.292968,0.16927 -0.475259,0.49479 -0.123697,0.21485 -0.338541,0.99609 l -0.598956,2.10937 2.298171,-2.10937 q 0.670571,-0.61848 0.748696,-0.74218 0.104166,-0.16276 0.104166,-0.34505 0,-0.19532 -0.143228,-0.33854 -0.136719,-0.14323 -0.48177,-0.18881 L 52.519511,115 h 3.326815 l -0.07161,0.24088 q -0.384113,0.0326 -0.624998,0.11068 -0.31901,0.10417 -0.729165,0.35807 -0.410155,0.2474 -0.833331,0.58594 l -0.605467,0.55989 -1.399736,1.25651 1.041664,3.2552 q 0.507811,1.60807 0.787758,1.90104 0.279947,0.29297 0.729165,0.31901 z"
     style="font-style:italic;font-weight:bold;font-family:'Times New Roman';-inkscape-font-specification:'Times New Roman,  Bold Italic';fill:#ffffff"
     id="path2453" /><path
     d="m 59.824181,115.48828 -0.98307,3.42447 h 0.299478 q 1.184893,0 1.725256,-0.3125 0.546874,-0.3125 0.924477,-1.10677 h 0.240885 l -0.989581,3.43749 h -0.227864 q 0.05859,-0.34505 0.05859,-0.55989 0,-0.35807 -0.214844,-0.58594 -0.208332,-0.22786 -0.546873,-0.32552 -0.221354,-0.0651 -0.917967,-0.0651 h -0.507811 l -0.846352,2.96223 q -0.110677,0.39063 -0.110677,0.57943 0,0.14974 0.143229,0.24088 0.208333,0.13021 0.787759,0.13021 1.113278,0 2.096348,-0.46875 0.983071,-0.47526 1.764319,-1.43229 h 0.266926 l -0.917966,2.42187 h -7.552064 l 0.07812,-0.24088 q 0.664061,0 0.97005,-0.2474 0.305989,-0.2539 0.553384,-1.10677 l 1.660152,-5.68358 q 0.136719,-0.47525 0.136719,-0.74869 0,-0.2474 -0.175781,-0.3776 -0.175781,-0.13672 -0.800779,-0.1823 L 56.809866,115 h 7.037743 l -0.566405,2.20703 h -0.234375 q -0.02604,-0.65104 -0.201822,-0.91797 -0.273437,-0.41667 -0.729165,-0.60547 -0.449218,-0.19531 -1.46484,-0.19531 z"
     style="font-style:italic;font-weight:bold;font-family:'Times New Roman';-inkscape-font-specification:'Times New Roman,  Bold Italic';fill:#ffffff"
     id="path2450" /></g></svg>
