<?xml version="1.0" encoding="UTF-8" standalone="no"?>
<!-- Created with Inkscape (http://www.inkscape.org/) -->

<svg
   width="35"
   height="35"
   viewBox="0 0 9.2604162 9.2604162"
   version="1.1"
   id="svg5"
   inkscape:version="1.1.2 (0a00cf5339, 2022-02-04, custom)"
   sodipodi:docname="duke-icon.svg"
   xmlns:inkscape="http://www.inkscape.org/namespaces/inkscape"
   xmlns:sodipodi="http://sodipodi.sourceforge.net/DTD/sodipodi-0.dtd"
   xmlns="http://www.w3.org/2000/svg"
   xmlns:svg="http://www.w3.org/2000/svg">
  <sodipodi:namedview
     id="namedview7"
     pagecolor="#ffffff"
     bordercolor="#999999"
     borderopacity="1"
     inkscape:pageshadow="0"
     inkscape:pageopacity="0"
     inkscape:pagecheckerboard="true"
     inkscape:document-units="mm"
     showgrid="false"
     showguides="true"
     inkscape:guide-bbox="true"
     inkscape:zoom="16"
     inkscape:cx="28.28125"
     inkscape:cy="7.09375"
     inkscape:window-width="3840"
     inkscape:window-height="2085"
     inkscape:window-x="0"
     inkscape:window-y="0"
     inkscape:window-maximized="1"
     inkscape:current-layer="layer1"
     height="250px"
     units="px" />
  <defs
     id="defs2" />
  <g
     inkscape:label="Layer 1"
     inkscape:groupmode="layer"
     id="layer1">
    <g
       id="XMLID_16_-5"
       style="opacity:1;fill:#ffffff;fill-opacity:1;stroke-width:3.77966;stroke-miterlimit:10;stroke-dasharray:none"
       transform="matrix(0.48602214,0,0,0.48602214,-21.517196,-5.4498534)">
      <path
         id="XMLID_20_-3"
         class="st7"
         d="m 50.512251,21.903414 c -0.1,0.1 -0.2,0.3 -0.4,0.4 0.3,0.5 0.6,0.9 0.9,1.4 0.1,0 0.6,-0.5 0.7,-0.6 0.5,-0.4 0.9,-0.9 1.3,-1.4 0.8,-0.9 1.3,-0.9 2.4,-1.1 2.6,-0.4 4.8,-1.8 5,-4.7 0.1,-1.5 -1.7,-3 -3.2,-2.4 -3.3,1.2 -4.8,5.2 -5.4,8.4 -0.9,4.7 5.8,6.4 7.7,2.3 0.4,-0.8 0.5,-1.8 0,-2.5 -0.2,-0.2 -0.3,-0.5 -0.5,-0.7 -1.9,-2.6 -6.2,-0.1 -4.3,2.5 0.2,0.2 0.3,0.5 0.5,0.7 0,-0.8 0,-1.7 0,-2.5 -0.1,0.1 0.2,-0.1 0.2,-0.1 0.8,1.6 1.2,2 1.4,1.1 0,-0.1 0.1,-0.3 0.1,-0.4 0.2,-0.5 0.3,-1.1 0.5,-1.6 0.2,-0.5 0.3,-0.9 0.6,-1.4 0.1,-0.3 0.3,-0.5 0.5,-0.8 0.1,-0.2 0.6,-0.4 0.1,-0.2 -1.1,-0.8 -2.1,-1.6 -3.2,-2.4 0.1,-1 0.3,-0.3 -0.2,-0.4 -0.3,0 -0.8,0.2 -1.1,0.2 -1,0.2 -1.9,0.3 -2.8,0.8 -1.5,0.8 -2.8,2.5 -4,3.7 -1.7,1.8 -1.3,4.3 0.5,5.9 2.1,1.9 4.5,1.1 6.2,-0.8 2.1,-2.3 -1.4,-5.8 -3.5,-3.4 z"
         style="fill:#ffffff;fill-opacity:1;stroke-width:3.77966;stroke-miterlimit:10;stroke-dasharray:none" />
    </g>
    <g
       id="g419"
       transform="matrix(1.8369341,0,0,1.8369341,-37.373421,8.807004)">
      <g
         id="XMLID_118_"
         class="st6"
         style="opacity:0.51;fill:#ed1969;fill-opacity:1"
         transform="matrix(0.26458333,0,0,0.26458333,2.787846,-5.6436543)">
        <g
           id="XMLID_16_"
           style="fill:#ed1969;fill-opacity:1">
          <path
             id="XMLID_20_"
             class="st7"
             d="m 72.6,13.9 c -0.1,0.1 -0.2,0.3 -0.4,0.4 0.3,0.5 0.6,0.9 0.9,1.4 0.1,0 0.6,-0.5 0.7,-0.6 0.5,-0.4 0.9,-0.9 1.3,-1.4 0.8,-0.9 1.3,-0.9 2.4,-1.1 2.6,-0.4 4.8,-1.8 5,-4.7 0.1,-1.5 -1.7,-3 -3.2,-2.4 -3.3,1.2 -4.8,5.2 -5.4,8.4 -0.9,4.7 5.8,6.4 7.7,2.3 0.4,-0.8 0.5,-1.8 0,-2.5 -0.2,-0.2 -0.3,-0.5 -0.5,-0.7 -1.9,-2.6 -6.2,-0.1 -4.3,2.5 0.2,0.2 0.3,0.5 0.5,0.7 0,-0.8 0,-1.7 0,-2.5 -0.1,0.1 0.2,-0.1 0.2,-0.1 0.8,1.6 1.2,2 1.4,1.1 0,-0.1 0.1,-0.3 0.1,-0.4 0.2,-0.5 0.3,-1.1 0.5,-1.6 0.2,-0.5 0.3,-0.9 0.6,-1.4 0.1,-0.3 0.3,-0.5 0.5,-0.8 0.1,-0.2 0.6,-0.4 0.1,-0.2 -1.1,-0.8 -2.1,-1.6 -3.2,-2.4 0.1,-1 0.3,-0.3 -0.2,-0.4 -0.3,0 -0.8,0.2 -1.1,0.2 -1,0.2 -1.9,0.3 -2.8,0.8 -1.5,0.8 -2.8,2.5 -4,3.7 -1.7,1.8 -1.3,4.3 0.5,5.9 2.1,1.9 4.5,1.1 6.2,-0.8 2.1,-2.3 -1.4,-5.8 -3.5,-3.4 z"
             style="fill:#ed1969;fill-opacity:1" />
        </g>
      </g>
      <path
         id="XMLID_91_"
         class="st5"
         d="m 21.970137,-0.08740427 c 0.211667,-1.45521003 0.79375,-2.85750003 1.666875,-4.02167003 -0.07937,1.13771 0.211667,2.30188 0.79375,3.30729003 -0.687916,-0.0264 -1.402291,-0.0264 -2.037291,-0.23812003 -0.661459,-0.21167 -1.296459,-0.60854 -1.5875,-1.24354 1.42875,-0.42334 2.883958,-0.82021 4.339166,-1.13771 -1.243541,0.52917 -1.772708,2.03729 -2.831041,2.83104003 0.132291,-0.13229 0.264583,-0.26458 0.396875,-0.39687"
         style="fill:none;stroke:#000000;stroke-width:0.264583;stroke-miterlimit:10" />
    </g>
  </g>
</svg>
