<?xml version="1.0" encoding="utf-8"?>
<!-- Generator: Adobe Illustrator 19.0.0, SVG Export Plug-In . SVG Version: 6.00 Build 0)  -->
<svg version="1.1" id="Layer_1" xmlns="http://www.w3.org/2000/svg" xmlns:xlink="http://www.w3.org/1999/xlink" x="0px" y="0px"
	 viewBox="0 0 460 200" style="enable-background:new 0 0 460 200;" xml:space="preserve">
<style type="text/css">
	.st0{fill:#FFFFFF;stroke:#000000;stroke-miterlimit:10;}
	.st1{fill:none;stroke:#000000;stroke-miterlimit:10;}
	.st2{font-family:'BrandonGrotesque-Regular';}
	.st3{font-size:18px;}
	.st4{font-size:12px;}
	.st5{font-family:'BrandonGrotesque-Light';}
	.st6{font-size:10px;}
	.st7{font-family:'BrandonGrotesque-Black';}
	.st8{fill:none;stroke:#000000;stroke-width:0.25;stroke-miterlimit:10;}
	.st9{opacity:0.51;}
	.st10{fill:#ED1969;}
	.st11{opacity:0.51;fill:#434343;}
	.st12{fill:#D7D62F;}
	.st13{fill:#00AEEF;}
	.st14{fill:#ED1C24;}
</style>
<path id="XMLID_51_" class="st0" d="M444.2,184.3h-428c-1.6,0-3-1.4-3-3V18c0-1.6,1.3-3,3-3h428c1.7,0,3,1.4,3,3v163.3
	C447.2,182.9,445.8,184.3,444.2,184.3z"/>
<line id="XMLID_55_" class="st1" x1="81.8" y1="51.5" x2="81.8" y2="183.7"/>
<line id="XMLID_56_" class="st1" x1="345.4" y1="51.3" x2="345.4" y2="184.1"/>
<line id="XMLID_57_" class="st1" x1="151" y1="51.4" x2="151" y2="183.9"/>
<line id="XMLID_58_" class="st1" x1="13.5" y1="51.3" x2="447.1" y2="51.3"/>
<text id="XMLID_59_" transform="matrix(1 0 0 1 204.3317 30)"><tspan x="0" y="0" class="st2 st3">PLAY</tspan><tspan x="-92.9" y="12.4" class="st2 st4">Take one action (if 10+ coins, must launch Coup)</tspan></text>
<text id="XMLID_60_" transform="matrix(1 0 0 1 23.3057 68.022)"><tspan x="0" y="0" class="st5 st4">Character</tspan><tspan x="7.1" y="14" class="st5 st6">-------</tspan><tspan x="7.1" y="28" class="st5 st6">-------</tspan><tspan x="7.1" y="42" class="st5 st6">-------</tspan><tspan x="13.2" y="56" class="st5 st6">Duke</tspan><tspan x="7.6" y="70" class="st5 st6">Assassin</tspan><tspan x="-0.2" y="84" class="st5 st6">Ambassador</tspan><tspan x="8.4" y="98" class="st5 st6">Captain</tspan><tspan x="5.5" y="112" class="st5 st6">Contessa</tspan></text>
<text id="XMLID_61_" transform="matrix(1 0 0 1 101.6608 68.022)"><tspan x="0" y="0" class="st5 st4">Action</tspan><tspan x="1.1" y="14" class="st5 st6">Income</tspan><tspan x="-7.1" y="28" class="st5 st6">Foreign Aid</tspan><tspan x="4.8" y="42" class="st5 st6">Coup</tspan><tspan x="9.2" y="56" class="st5 st6">Tax</tspan><tspan x="-6.6" y="70" class="st5 st6">Assassinate</tspan><tspan x="-3.3" y="84" class="st5 st6">Exchange</tspan><tspan x="5.9" y="98" class="st5 st6">Steal</tspan><tspan x="12.5" y="113" class="st7 st6">X</tspan></text>
<text id="XMLID_62_" transform="matrix(1 0 0 1 233.5151 68.022)"><tspan x="0" y="0" class="st5 st4">Effect</tspan><tspan x="-6.4" y="14" class="st5 st6">Take 1 coin</tspan><tspan x="-9.2" y="28" class="st5 st6">Take 2 coins</tspan><tspan x="-71.5" y="42" class="st5 st6">Pay 7 coins (choose player to lose influence)</tspan><tspan x="-9.3" y="56" class="st5 st6">Take 3 coins</tspan><tspan x="-71.8" y="70" class="st5 st6">Pay 3 coins (choose player to lose influence)</tspan><tspan x="-49.5" y="84" class="st5 st6">Exchange cards with Court Deck</tspan><tspan x="-48.8" y="98" class="st5 st6">Take 2 coins from another player</tspan><tspan x="11.3" y="113" class="st7 st6">X</tspan></text>
<text id="XMLID_63_" transform="matrix(1 0 0 1 360.7285 68.0217)"><tspan x="0" y="0" class="st5 st4">Counteraction</tspan><tspan x="31" y="14.5" class="st7 st6">X</tspan><tspan x="31" y="28.5" class="st7 st6">X</tspan><tspan x="31" y="42.5" class="st7 st6">X</tspan><tspan x="-2.5" y="56" class="st5 st6">Blocks Foreign Aid</tspan><tspan x="31" y="71" class="st7 st6">X</tspan><tspan x="4.8" y="84" class="st5 st6">Blocks Stealing</tspan><tspan x="4.8" y="98" class="st5 st6">Blocks Stealing</tspan><tspan x="-5.6" y="112" class="st5 st6">Blocks Assassination</tspan></text>
<line id="XMLID_65_" class="st8" x1="13.2" y1="72.1" x2="447.2" y2="72.1"/>
<line id="XMLID_66_" class="st8" x1="13.3" y1="85.9" x2="447.3" y2="85.9"/>
<line id="XMLID_67_" class="st8" x1="13.2" y1="112.8" x2="447.2" y2="112.8"/>
<line id="XMLID_93_" class="st8" x1="13" y1="128.2" x2="447" y2="128.2"/>
<line id="XMLID_138_" class="st8" x1="13.5" y1="141.9" x2="447.5" y2="141.9"/>
<line id="XMLID_140_" class="st8" x1="13.1" y1="155.4" x2="447.1" y2="155.4"/>
<line id="XMLID_162_" class="st8" x1="13.6" y1="169.9" x2="447.6" y2="169.9"/>
<line id="XMLID_163_" class="st8" x1="13.8" y1="100.2" x2="447.8" y2="100.2"/>
<g id="XMLID_172_" class="st9">
	<g id="XMLID_30_">
		<path id="XMLID_34_" class="st10" d="M16.4,116.5c0.8-0.9,6.7,0,8,0c3.7,0.2,7.4,0.5,11,1c6.7,0.9,13.2-0.5,19.9-0.3
			c6.3,0.1,12.6,0.6,19,0.7c0.8,0,3-0.4,3.6,0.3c0,1,0,2,0,3c0.4,1,0,1.6-1.2,1.7c0.5,0.1,1.1,0.2,1.6,0.4c-0.4-0.8-0.7-1.6-0.6-2.5
			c-0.2-1,0-1.6-0.6-2.5c-1.1-1.6-4.2-1.7-4.6,0.6c-0.3,1.4-0.2,2.4,1,3.4c0.6,0.6,1.6,0.9,2.4,0.6c1.2-0.4,1.8-0.8,2.4-2
			c0.4-0.7,0.5-1.8,0-2.5c-0.1-0.2-0.2-0.3-0.4-0.5c-0.9,1.2-1.9,2.4-2.8,3.7c0.1,0,0.2,0,0.2,0.1c0-1.6,0-3.2,0-4.8
			c-3,0.6-5.4,0-8.4-0.2c-3.1-0.2-6.4,0-9.5,0c-6,0-12,0-18-0.3c-3-0.1-6,0.2-9,0c-2.9-0.2-5.7-1.3-8.6-1.4
			c-3.2-0.1-7.9,0.8-8.6,4.4c1.6,0,3.2,0,4.8,0c-0.2-0.6-0.4-1.2-0.6-1.8c-1.5,0.6-3,1.3-4.6,1.9c0.8,1.3,1.5,3.1,1.7,4.6
			c0.4-0.7,0.8-1.4,1.2-2.2c0,1.2-0.1,2.4-0.1,3.5c-0.7-0.4-1.4-0.8-2.2-1.2c-0.3,0.4-0.4,0.9-0.5,1.4c-0.4,1.9,1.2,3.5,3.1,3.1
			c5.7-1.3,11.8-0.4,17.7-0.6c5.6-0.2,11.1-0.6,16.7,0.1c5,0.6,10,0.7,15,0.7c5.1,0,10.2,0.7,15.3,0.2c2-0.2,3.5-2.7,1.8-4.3
			c-7.3-6.8-21.3-5.5-30.5-4.8c-6.4,0.5-12.8,0.8-19.2,0.8c-2.9,0-5.5-1-8.4-1.4c-2.8-0.4-5.3,0-8-1.1c-3-1.2-4.3,3.6-1.3,4.8
			c1.9,0.8,3.5,1.1,5.5,1.2c2.7,0.1,4.9,0.8,7.6,1.2c5.8,0.9,12,0.1,17.8,0c5.6-0.1,11.2-0.8,16.8-0.8c4.8,0,12.4,0.3,16.1,3.8
			c0.6-1.4,1.2-2.8,1.8-4.3c-10.6,0.9-21.6-0.5-32.1-1.2c-5.7-0.4-11.6,0.2-17.3,0.3c-5.5,0.1-11.1-0.4-16.5,0.8
			c1,1,2.1,2.1,3.1,3.1c0.5-2,0.8-3.4,0-5.2c-0.3-0.7-1.4-1.3-2.2-1.2c-6,0.3-2.9,9.3,2.6,5.8c0.7-0.4,1.3-1.3,1.2-2.2
			c-0.3-2.5-1.1-5-2.4-7.2c-1.4-2.4-5.5-0.8-4.6,1.9c0.2,0.6,0.4,1.2,0.6,1.8c0.7,2.2,4.3,2.5,4.8,0c0.3-1.7,12.3,0.7,14.1,0.8
			c5.1,0.1,10.2,0.2,15.3,0.2c5.2,0,10.4,0.1,15.6,0c4.6,0,8.9,0.9,13.5,0c2.6-0.5,2.2-4.1,0-4.8c-0.1,0-0.2,0-0.2-0.1
			c-2-0.6-4.1,1.9-2.8,3.7c0.1,0.2,0.2,0.3,0.4,0.5c0-0.8,0-1.7,0-2.5c0.2-0.1,0.4-0.2,0.6-0.3c0.8,0.2,1.6,0.4,2.4,0.6
			c-0.1-0.1-0.3-0.2-0.4-0.4c0.2,0.8,0.4,1.6,0.6,2.4c0-0.2,0.1-0.4,0.1-0.6c-1.5,0.2-3,0.4-4.6,0.6c1.3,1.8,0.1,5.3,3,6.7
			c2.4,1.2,6.1-0.6,7-3.1c0.8-2.3,0.9-8-0.8-10c-2.4-2.9-9.2-1.6-12.5-1.8c-5-0.3-10-0.4-15-0.5c-4.9-0.1-9.8,1-14.7,0.8
			c-5.6-0.2-11.1-1.4-16.8-1.5c-2.9-0.1-7.8-1-10,1.5C10.8,115.4,14.3,118.9,16.4,116.5L16.4,116.5z"/>
	</g>
</g>
<path id="XMLID_239_" class="st11" d="M81,132.7c2.2-1.3,0.9-5.2-2-4.5c-0.5,0.1-1.1,0.2-1.6,0.4c-0.4-0.3-0.9-0.5-1.5-0.6
	c-0.7,0-1.2,0-1.7,0.2c-0.2,0-0.3,0-0.5,0.1c-8.4-0.9-16.8-1.1-25.3-0.5c-0.5,0-1,0.3-1.5,0.6c-10-0.5-19.9-1.1-29.9,0
	c-1.5-0.5-3.5,0.2-3.4,2.2c0,2.7,0,5.5,0,8.2c0,0.8,0.5,1.8,1.2,2.2c6,2.7,12.6,1.9,19.1,1.7c8.1-0.3,16.2-0.6,24.4-0.4
	c6.1,0.1,14.5,2.4,20.3,0.1C83.9,140.5,80.5,136.5,81,132.7z"/>
<g id="XMLID_173_" class="st9">
	<g id="XMLID_24_">
		<path id="XMLID_28_" class="st12" d="M16.6,148.4c0.2,0,0.4-0.1,0.6-0.1c0.8-0.2,1.5-1,1.7-1.7c0.7-2.3-0.5-3.3-2.1-4.6
			c-0.2,1.3-0.3,2.6-0.5,3.9c1.3-0.7,5.8,0.1,7.3,0.1c3.6,0,7.2-0.4,10.8-0.5c5.4-0.1,10.4,0.7,15.7,1.2c5.1,0.5,10.1,1.2,15.2,1.1
			c3.3,0,6.4-1.3,9.7-1.3c2.7,0,2.3-0.4,2.7,2c0.2,1.1,0.2,2.2,0.2,3.2c0,0.2,0.1,0.4,0.1,0.7c1.1-1,1-1.4-0.4-1.1
			c-1-0.7-3.3-0.4-4.5-0.5c-2.8-0.2-5.6-0.1-8.4-0.1c-6.2,0-12.6-0.2-18.8,0.1c-5.6,0.3-10.9,0.3-16.5,0c-2.7-0.2-5.5-0.2-8.2-0.3
			c-0.9,0-2,0.1-2.9,0.1c-1.9-0.2-1.8,0.7-1.6-1.5c-0.4,0.7-0.8,1.4-1.2,2.2c3.7-2.4,11.5-1,15.6-0.5c2.8,0.4,3.5-4.5,0.7-4.9
			c-3.3-0.5-8-2.3-11.1-0.3c-2.1,1.4-3.3,4.5-1.5,6.5c2.2,2.5,7.2,1.8,10.1,1.7c3.6-0.1,7.3-0.7,10.4-2.6c1.4-0.8,1.7-2.8,0.5-3.9
			c-2.1-2-5-1.7-7.8-1.8c-2,0-5.1-0.7-6.8,0.6c-1.5,1.1-1.7,3.3,0,4.3c3.7,2.3,8.4,2.5,12.6,2.6c4.6,0,9.1,0.4,13.7,0
			c2.7-0.3,3.5-4,0.7-4.9c-6.8-2.3-15-2.3-22.1-2.3c-3.2,0-3.2,5,0,5c5.5,0.1,11.1,0.2,16.6,0.5c3.5,0.2,8.2,0.6,11.3-1.3
			c1.9-1.2,1.4-3.9-0.6-4.6c-3.6-1.3-8.4-1.2-12.2-1.4c-4.6-0.2-9.2-0.4-13.7-0.7c0,1.7,0,3.3,0,5c8.3,0.2,16.8,1.8,25,2.5
			c6.9,0.6,13.7,1,20.7,1.3c2.4,0.1,3.5-3.6,1.3-4.7c-3.5-1.7-8-2.7-11.9-2.3c-1.7,0.1-3.3,2.1-2.2,3.8c2.3,3.3,9.1,2.6,12.2,0.9
			c1.3-0.7,1.8-2.9,0.5-3.9c-3.2-2.5-8.9-2.5-12.7-3.3c-2.2-0.5-4.5-1-6.8-1.3c-3-0.4-4.9,0.7-7.8,0.9c0.4,1.6,0.8,3.1,1.3,4.7
			c0.8-0.6,3-0.1,3.9-0.1c2.2,0,4.5-0.1,6.8,0c3.3,0.1,7.4-0.4,10.6,0.2c-0.5-1.2-1-2.4-1.5-3.7c-0.2,0.2-0.4,0.3-0.6,0.5
			c-2.9,1.5-0.3,5.8,2.5,4.3c1.3-0.7,1.7-1.1,2.4-2.3c0.8-1.3,0.1-3.3-1.5-3.7c-4-0.8-8.7-0.3-12.8-0.4c-3.3-0.1-9.4-1.2-12.3,0.8
			c-1.9,1.3-1.4,4.8,1.3,4.7c2-0.1,3.8-1,5.8-1c2.2,0.1,4.5,0.7,6.7,1.2c1.8,0.3,3.6,0.7,5.5,1.1c1.4,0.3,4.8,0.2,5.8,1
			c0.2-1.3,0.3-2.6,0.5-3.9c-0.6,0.3-5.7,0.4-5.4,0.9c-0.7,1.3-1.4,2.5-2.2,3.8c2.9-0.2,6.8,0.4,9.4,1.6c0.4-1.6,0.8-3.1,1.3-4.7
			c-7-0.3-13.9-0.7-20.9-1.3c-8.3-0.6-16.6-2.3-24.9-2.5c-3.2-0.1-3.2,4.8,0,5c4.1,0.3,8.2,0.5,12.3,0.7c3.9,0.2,8.5-0.2,12.2,1.2
			c-0.2-1.5-0.4-3-0.6-4.6c-3,1.8-8.3,0.6-11.6,0.4c-4.6-0.2-9.2-0.2-13.8-0.3c0,1.7,0,3.3,0,5c6.7,0,14.3,0,20.7,2.1
			c0.2-1.6,0.4-3.3,0.7-4.9c-3.4,0.4-6.8,0.2-10.3,0c-4.5-0.3-9.5,0.6-13.5-1.9c0,1.4,0,2.9,0,4.3c0.7-0.5,8-0.1,8.5,0.3
			c0.2-1.3,0.3-2.6,0.5-3.9c-1.7,1-4.2,1.7-6.1,1.9c-1.7,0.2-7.5,0.9-8.6-0.5c0.2,0.8,0.4,1.6,0.6,2.4c0.6-2.1,5.9-0.2,7.3,0
			c0.2-1.6,0.4-3.3,0.7-4.9c-4.9-0.6-11.9-1.6-16.7,0.4c-3.4,1.4-3.7,6.7-0.7,8.9c1.9,1.3,4.3,0.5,6.4,0.5c3.3-0.1,6.8,0.2,10.1,0.4
			c6.7,0.5,13.3-0.2,20-0.1c7.6,0.1,15.3-0.5,22.8,0.1c3.9,0.3,9.7,1.9,10.1-3.7c0.2-4.1,0.3-9.9-4.6-10.7
			c-3.6-0.6-7.1,0.6-10.6,1.1c-3.7,0.6-7.6,0.2-11.2-0.3c-6.5-1-13.2-1.8-19.8-1.8c-4.7,0-9.4,0.5-14.2,0.5c-2.5,0-6.6-0.8-8.9,0.6
			c-1.3,0.7-1.8,2.9-0.5,3.9c1.7,1.3,0.5,0.8,0.8-0.3c0.6-0.6,1.2-1.2,1.7-1.7c-0.2,0-0.4,0.1-0.6,0.1
			C12.1,144.2,13.4,149,16.6,148.4L16.6,148.4z"/>
	</g>
</g>
<g id="XMLID_237_" class="st9">
	<g id="XMLID_18_">
		<path id="XMLID_22_" class="st13" d="M21.1,166.7c4.7-1.3,10.2,0.2,15.1-0.5c-0.8-0.2-1.6-0.4-2.4-0.6c0.1,0.1,0.2,0.2,0.3,0.3
			c-0.1-1-0.3-2-0.4-3c-1,1.6-9.6,0.4-11.7,0c-1.6-0.3-4.7-0.1-3.5-3.2c0-0.9,0.1-0.9,0.3,0.1c1,0.1,2,0.3,3,0.6
			c6.4,1,13.2-0.7,19.8-0.2c4.3,0.3,8.6,1,12.9,0.8c4-0.2,7.8-0.6,11.8-0.6c3.7,0,8-0.4,11.6,0.7c1.3,0,1.4-0.2,0.2-0.5
			c-0.3,0.9-0.7,1.8-1,2.7c-0.4,1.9,0.1,3,0.3,4.9c0.4-0.7,0.8-1.4,1.2-2.2c-2.3,1.7-8.3-0.7-10.9-1c-3.6-0.4-7.5-0.2-11.2,0
			c-8.4,0.5-17.1,0.4-25.5,0.4c-2.2,0-4.5,0-6.7,0c-1.7,0-4.8,0.6-6.4,0.1c-1.6,0.6-1.7,0.2-0.4-1.2c1.2-0.8,2.4-1.3,3.8-1.7
			c2.6-0.7,5.9-0.6,8.5,0c3,0.7,6,2.1,9.1,2.9c3.4,1,6.5,1.1,10,1.2c2.8,0.1,3.5-4.3,0.7-4.9c-3.7-0.8-10.3-0.3-13.2-2.9
			c0,1.2,0,2.4,0,3.5c2.1-2.6,11.3-0.7,13.8-0.3c4.5,0.7,8.6,2.3,13,3.3c-0.6-0.8-1.2-1.6-1.8-2.4c0,0.2,0,0.3,0,0.5
			c0.4-0.7,0.8-1.4,1.2-2.2c-1.8,1.1-6.3,0.1-8.2,0.1c-2.8,0-5.8,0.3-8.6,0c0.4,1.6,0.8,3.1,1.3,4.7c4.3-2,11.2-1,15.9-1.3
			c2.6-0.1,5.2,0,7.8-0.2c1.3-0.1,2.8,0,4-0.2c1-0.2,2.4,0.1,1.2-0.6c-0.4-0.7-0.8-1.4-1.2-2.2c0.1,4.6-9.1,2.6-12,2.3
			c0.8,0.6,1.6,1.2,2.4,1.8c-0.1-0.2-0.1-0.4-0.2-0.6c-0.4,0.9-0.8,1.9-1.1,2.8c3.2-2.3,8.3-1.3,11.9-2.3c3.6-0.9,2.5-3.2,3.9-6
			c1.4-2.9-2.9-5.4-4.3-2.5c-0.9,1.9-1.1,3.5-1.4,5.5c0.4-0.7,0.8-1.4,1.2-2.2c-1.5,1.1-5.7,0.9-7.6,1.3c-2.1,0.4-4.5,0.6-6.3,1.9
			c-0.9,0.6-1.5,1.7-1.1,2.8c0.1,0.2,0.1,0.4,0.2,0.6c0.4,1.2,1.2,1.7,2.4,1.8c4,0.5,11.2,2.1,14.6-0.8c2-1.7,3.7-7.1,0.9-8.8
			c-1.9-1.1-4.7,0.1-6.7,0.2c-3.3,0.3-6.7,0.1-10,0.3c-5.6,0.4-11.8-0.6-17.1,1.8c-2.5,1.1-0.9,4.4,1.3,4.7
			c4.9,0.5,10.2,0.2,15.1,0.1c2.6-0.1,5.3-0.4,5.5-3.5c0.1-1-0.8-2.2-1.8-2.4c-6.3-1.4-12.1-3.4-18.6-4c-3.9-0.3-10.3-1.3-13.1,2.3
			c-0.8,1-1.1,2.6,0,3.5c4,3.6,10.5,3.2,15.4,4.2c0.2-1.6,0.4-3.3,0.7-4.9c-4.2-0.1-7.7-0.9-11.7-2c-4-1.2-7.6-2.6-11.9-2.4
			c-5.1,0.2-16.2,2.7-13.3,10.3c1,2.6,3.5,2.9,5.9,3c5.9,0.2,11.9,0,17.8,0c9.4,0,18.8-0.6,28.2-0.5c4,0,17.5,4.6,18.5-1.8
			c0.4-2.2,0.2-4.6,0.6-6.9c0.2-1.2,0.2-2.4-0.3-3.5c-1.5-2.8-4.4-1.7-6.9-2c-9.6-1-19.3,0.8-28.9-0.1c-4-0.4-8-0.9-11.9-0.8
			c-5.1,0.2-9.8,0.8-14.8,0.1c-2.9-0.4-5.4-0.5-6.4,2.7c-0.9,2.9-0.6,6.9,2.1,8.8c2.8,1.9,8,2.1,11.3,2.1c3.5,0,8.9,0.3,10.9-3.2
			c0.6-1,0.4-2.2-0.4-3c-1.7-1.7-4.5-0.7-6.6-0.7c-3.8,0-7.5-0.7-11.3,0.3C16.6,162.7,18,167.5,21.1,166.7L21.1,166.7z"/>
	</g>
</g>
<g id="XMLID_246_" class="st9">
	<g id="XMLID_12_">
		<path id="XMLID_16_" class="st14" d="M17.9,176.2c0.1,0.1,1-2.7,1-3c0-0.9-0.3-1.9-0.8-2.6c0,0.8,0,1.7,0,2.5
			c-1.7,3,8.1,1,8.8,0.9c2.5-0.4,5.1,0.3,7.7,0.4c7,0.3,13.7,0.4,20.6,0.1c3.7-0.2,7.5-0.3,11.2-0.5c3.8-0.2,8.2,1.3,12,0.5
			c0.5,0,1,0,1.5,0c-1-1.4-1.5-1.5-1.5-0.2c-0.3,0.4-0.8,3.9-1,4.7c-0.5,2.3-0.5,4.4,1.5,5.9c0-1.2,0-2.4,0-3.5
			c-0.8,0.8-6.3,0.2-7.5,0.2c-3.2,0.2-6.4,0.4-9.7,0.3c-6.3-0.2-12.6-0.5-18.9-0.9c-5.8-0.4-11.5,0.4-17.3,0.4c-1.2,0-8,0.8-7.4-1.3
			c0.5-1.8,4.5-1,6-1.5c2.1-0.8,2.3-3.2,0.6-4.6c-5.1-3.8-13.9,4.4-8.7,8.6c5.3,4.3,16.1,0,13.8-7.6c-1.9-6.3-12.2-4.4-13,1.8
			c-1,7.9,13.9,5.9,17.9,3.4c1.8-1.1,3.6-4.7,2.8-6.8c-1.2-3.3-4.9-1.7-6.9-0.4c-1.9,1.2-4.5,3.7-4.1,6.3c0.5,3.1,4.2,3.7,6.9,3.4
			c2.9-0.3,6.9-1.2,8.3-4.1c1.6-3.5-0.7-6.8-4-8.1c-5.8-2.3-12.1,5.1-7.5,10c3.2,3.5,10.8,2.2,15,1.8c4-0.3,7.8-0.9,8.4-5.5
			c1.3-9.5-13.2-3-14.6,2.8c-0.3,1.3,0.4,2.7,1.7,3.1c3.6,1,14.7-0.8,11.6-6.8c-2.3-4.6-13.1-5.8-15.2-0.7c-0.6,1.3,0.6,2.6,1.7,3.1
			c4.3,1.7,11.7,0.1,16.2-0.3c6.3-0.6,12.7,0.4,19-0.3c0.1,0,4-0.8,4.3-0.6c-1.2-0.3-1.8,0.3-1.8,1.8c-0.6,0.3-1.3,0.2-1.9-0.4
			c-2.7-0.6-5.1-1.7-7.9-2c-6.9-0.7-12.3,1.5-18.7,3.5c1.1,0.8,2.1,1.6,3.2,2.4c-0.1,1,7.2,0.1,7.9,0.1c3.3,0.1,6.4,0.9,9.7,1.1
			c1.5,0.1,2.9,0.1,4.2-0.6c0.8-0.5,1.4-1.3,2-2c0.8-0.8,1.8-1.4,1.4-1.9c2.2,2.3,5.7-1.2,3.5-3.5c-2-2.1-4.1-2-6.4-0.3
			c-1.2,0.9-2.1,2.6-3.4,3.2c-1.9,0.8-4.9-0.3-6.8-0.6c-4-0.6-16.8-2-17.2,4.5c-0.1,1.6,1.7,2.9,3.2,2.4c3.7-1.1,7.3-2.8,11.1-3.5
			c5.2-0.9,9.4,1.1,14.3,2.4c2.7,0.7,4.3,0.5,5.8-1.9c1.2-1.9,2.5-5.5,1.4-7.7c-1-2.1-3-2.2-5-1.9c-4.7,0.5-9.1,0.2-13.7,0.4
			c-4.1,0.2-8.2,0.6-12.2,0.8c-3,0.1-8,1.2-10.7,0c0.6,1,1.2,2.1,1.7,3.1c-0.3,0.7,4.8,1.5,4.8,1.1c0,0-3.7,0.5-4.6,0.3
			c0.6,1,1.2,2.1,1.7,3.1c0.5-2.1,4.4-4.7,6.6-4c-0.6-0.6-1.2-1.2-1.7-1.7c0.9,2.5-5.4,2.1-6.7,2.1c-1.8,0-5.9,0.8-7-0.7
			c-1.3-1.7,1.5-1.6,1.8-0.8c0.5,1.2-0.3,0.8-1.3,1.2c-0.6,0.3-2.1,0.8-2.8,0.8c-2.5,0.2,2.3-1.5,1.9-1.6c-0.6-0.6-1.2-1.2-1.7-1.7
			c-0.2-1.2-0.3,1.1-0.5,1.2c-0.6,0.2-1.4,0.3-2.1,0.4c-2.1,0.4-5.2,1.5-7.3,0.8c1.5,0.5-3.9-0.8-0.1-0.5c1.2,0.1,2.5-1.6,1.1,0.9
			c-0.8,1.4-1.4,1.6-3,1.2c-2.5-0.5,1.8-0.2,1.3-0.5c0.2-1.5,0.4-3,0.6-4.6c-2.7,1-6.2-0.2-8.4,2.4c-1.4,1.6-1.9,4.6-1.3,6.6
			c0.9,3.1,3.9,3.6,6.7,3.7c4.8,0.1,9.6,0,14.3-0.3c8.7-0.6,17.6,0.3,26.3,0.7c4.6,0.2,9.1,0,13.6-0.2c2.7-0.1,6.3,0.5,8.4-1.6
			c0.9-0.9,1.1-2.7,0-3.5c-0.9-0.7,1.3-6.8,1.1-8.3c-0.3-2.5-1.6-3.3-4-3.5c-8.6-0.6-17.3-0.6-26,0.1c-7.5,0.6-15.2,0.2-22.7-0.6
			c-3.9-0.4-7.6,1-11.3,0.4c-2.1-0.3-4.4-1.1-5.7,1.2c-0.4,0.8-0.5,1.8,0,2.5c0.2,0.3-0.9,2.9-0.8,3.4c0.1,1.4,0.6,2.1,1.4,3.2
			C16.4,182.3,19.9,178.7,17.9,176.2L17.9,176.2z"/>
	</g>
</g>
</svg>
