<?xml version="1.0" encoding="UTF-8" standalone="no"?>
<!-- Created with Inkscape (http://www.inkscape.org/) -->

<svg
   width="800"
   height="300"
   viewBox="0 0 211.66666 79.375"
   version="1.1"
   id="svg5"
   inkscape:version="1.1.2 (0a00cf5339, 2022-02-04, custom)"
   sodipodi:docname="splash.svg"
   xmlns:inkscape="http://www.inkscape.org/namespaces/inkscape"
   xmlns:sodipodi="http://sodipodi.sourceforge.net/DTD/sodipodi-0.dtd"
   xmlns="http://www.w3.org/2000/svg"
   xmlns:svg="http://www.w3.org/2000/svg">
  <sodipodi:namedview
     id="namedview7"
     pagecolor="#ffffff"
     bordercolor="#999999"
     borderopacity="1"
     inkscape:pageshadow="0"
     inkscape:pageopacity="0"
     inkscape:pagecheckerboard="0"
     inkscape:document-units="mm"
     showgrid="false"
     showguides="true"
     inkscape:guide-bbox="true"
     inkscape:zoom="2"
     inkscape:cx="107"
     inkscape:cy="10.75"
     inkscape:window-width="3840"
     inkscape:window-height="2085"
     inkscape:window-x="0"
     inkscape:window-y="0"
     inkscape:window-maximized="1"
     inkscape:current-layer="g1395"
     height="250px"
     units="px" />
  <defs
     id="defs2" />
  <g
     inkscape:label="Layer 1"
     inkscape:groupmode="layer"
     id="layer1">
    <g
       id="g419"
       transform="matrix(1.8369341,0,0,1.8369341,-3.4847386,15.311386)">
      <path
         id="XMLID_25_"
         class="st5"
         d="m 12.021804,3.7490557 c -0.07938,-0.10584 -0.264583,-0.0794 -0.396875,-0.0265 -0.449791,0.13229 -0.9525,0.18521 -1.42875,0.18521 0,0.0529 0,0.10583 0.02646,0.13229"
         style="fill:none;stroke:#000000;stroke-width:0.264583;stroke-miterlimit:10" />
      <path
         id="XMLID_26_"
         class="st5"
         d="m 15.223263,3.5109257 c 0.899583,-0.21166 1.852083,0.0529 2.778124,-0.0794 -0.05292,-0.0265 -0.132291,0.0529 -0.07937,0.10583"
         style="fill:none;stroke:#000000;stroke-width:0.264583;stroke-miterlimit:10" />
      <path
         id="XMLID_27_"
         class="st5"
         d="m 17.551596,2.9023857 c 0.264583,-0.0529 0.370416,-0.37042 0.343958,-0.635 -0.02646,-0.26458 -0.185208,-0.50271 -0.264583,-0.74083 -0.105834,-0.34396 -0.105834,-0.71437997 -0.02646,-1.05833997 0.05292,-0.13229 0.105834,-0.29104 0.105834,-0.42333 0,-0.15875 -0.105834,-0.3175 -0.211667,-0.42333 -0.396875,-0.42334 -1.058333,-0.47625 -1.640416,-0.47625 -2.116667,0.0265 -4.233334,0.37041 -6.244167,1.05833 -0.343958,0.10583 -0.687917,0.23813 -1.031875,0.42333 C 7.762012,1.0767657 7.127012,1.8175957 6.624303,2.5848857 c -0.343958,0.50271 -0.635,1.05833 -0.820208,1.64042 -0.3175,1.03187 -0.264583,2.11666 -0.370417,3.175 -0.105833,1.16416 -0.370416,2.35479 -0.105833,3.4925003 0.15875,0.66146 0.502708,1.27 0.846667,1.87854 0.529166,0.84667 1.084791,1.64042 1.719791,2.40771"
         style="fill:none;stroke:#000000;stroke-width:0.264583;stroke-miterlimit:10" />
      <path
         id="XMLID_28_"
         class="st5"
         d="m 16.625554,5.4423857 c 0.238125,0 0.47625,0.0265 0.714375,0.0529 0.105833,0.0265 0.211667,0.0529 0.264583,0.10583 0.291042,0.29104 -0.449791,0.34396 -0.582083,0.39688 -0.582083,0.15875 -0.396875,0.66145 -0.105833,1.05833 0.185208,0.23812 0.396875,0.47625 0.502708,0.76729 0.02646,0.0529 0.02646,0.10583 0.02646,0.15875 -0.02646,0.0794 -0.105833,0.13229 -0.15875,0.15875 -0.185208,0.10583 -0.370416,0.18521 -0.555625,0.23813 -0.105833,0.0265 -0.238125,0.0794 -0.3175,0.15875 -0.07937,0.0794 -0.07937,0.26458 0.02646,0.29104"
         style="fill:none;stroke:#000000;stroke-width:0.264583;stroke-miterlimit:10" />
      <path
         id="XMLID_29_"
         class="st5"
         d="m 11.624929,5.2571757 c 0.02646,-0.0529 -0.05292,-0.0794 -0.105833,-0.0794 -0.529167,-0.0265 -1.084792,0 -1.613958,0.0794 0.05292,0 0.07937,0 0.132291,0"
         style="fill:none;stroke:#000000;stroke-width:0.264583;stroke-miterlimit:10" />
      <path
         id="XMLID_30_"
         class="st5"
         d="m 17.048887,4.6221757 c -0.529166,0.0529 -1.084791,0.10584 -1.613958,0.15875 -0.05292,0 -0.132291,0.0265 -0.185208,0.0794"
         style="fill:none;stroke:#000000;stroke-width:0.264583;stroke-miterlimit:10" />
      <path
         id="XMLID_31_"
         class="st5"
         d="m 12.894929,10.654676 c -0.05292,-0.0265 -0.05292,-0.10583 -0.02646,-0.13229 0.3175,0.92604 1.217083,1.61396 2.169583,1.69333 0.3175,0.0265 0.687917,-0.0265 0.899584,-0.23812 0.07937,-0.0794 0.158749,-0.21167 0.211666,-0.3175 0.211667,-0.39688 0.343958,-0.84667 0.423333,-1.29646"
         style="fill:none;stroke:#000000;stroke-width:0.264583;stroke-miterlimit:10" />
      <path
         id="XMLID_37_"
         class="st5"
         d="m 17.472221,10.337176 c 0.687916,0.60854 0.767291,1.69334 0.47625,2.56646 -0.132292,0.39688 -0.3175,0.79375 -0.635,1.08479 -0.291042,0.26459 -0.635,0.39688 -1.005417,0.52917 -1.402291,0.50271 -2.8575,0.79375 -4.339166,0.84667 -0.3175,0.0265 -0.635,0.0265 -0.873125,0.23812 -0.07937,0.0794 -0.132292,0.18521 -0.211667,0.23813 -0.238125,0.23812 -0.635,0.1852 -0.9525,0.0529 -0.423333,-0.18521 -0.79375,-0.52916 -1.27,-0.66146 -0.423333,-0.10583 -0.873125,0 -1.27,-0.15875 -0.07937,-0.0264 -0.15875,-0.0529 -0.15875,-0.13229 0,-0.0794 0.132292,-0.10583 0.132292,-0.0529"
         style="fill:none;stroke:#000000;stroke-width:0.264583;stroke-miterlimit:10" />
      <path
         id="XMLID_38_"
         class="st5"
         d="m 13.715138,6.3684257 c 0.449791,0.47625 0.820208,1.00542 1.11125,1.5875 0.02646,0.0529 0.05292,0.10584 0.02646,0.15875 -0.02646,0.0265 -0.07937,0.0529 -0.105833,0.0529 -0.3175,0.0794 -0.635,0.13229 -0.9525,0.15875 0,0.0794 -0.02646,0.13229 -0.07937,0.15875"
         style="fill:none;stroke:#000000;stroke-width:0.264583;stroke-miterlimit:10" />
      <path
         id="XMLID_39_"
         class="st5"
         d="m 17.339929,-0.64303427 c 0.978958,-0.0794 1.931458,-0.34395 2.804583,-0.79375003 0.15875,-0.0794 0.343959,-0.1852 0.396875,-0.37041 0.05292,-0.18521 -0.05292,-0.39688 -0.238125,-0.50271 -0.15875,-0.10583 -0.370416,-0.13229 -0.555625,-0.15875 -3.413125,-0.50271 -6.879166,0 -10.212916,0.92604 -0.502708,0.13229 -1.11125,0.50271 -1.5875,0.21167 -0.529167,-0.3175 -0.740833,-1.16417 -0.555625,-1.71979 0.185208,-0.66146 0.873125,-1.16417 1.561042,-1.13771 0.449791,0 0.899583,0.21166 1.349375,0.15875 0.07937,0 0.15875,-0.0265 0.185208,-0.10584 0.02646,-0.0529 0.02646,-0.10583 0.02646,-0.15875 0.05292,-0.42333 0.396875,-0.74083 0.820209,-0.89958 0.396875,-0.13229 0.820208,-0.13229 1.243541,-0.10583 1.190625,0.0794 2.460625,0.26458 3.360209,1.08479 0.449791,0.39687 0.767291,0.9525 0.899583,1.53458"
         style="fill:none;stroke:#000000;stroke-width:0.264583;stroke-miterlimit:10" />
      <path
         id="XMLID_40_"
         class="st5"
         d="m 6.174513,3.1140557 c 0.07938,0.0529 -0.05292,0.15875 -0.132292,0.13229 -0.423333,0 -0.873125,0 -1.296458,-0.13229 -0.423334,-0.10584 -0.820209,-0.34396 -1.031875,-0.71438 -0.264584,-0.44979 -0.238125,-1.00541 -0.02646,-1.48165997 0.211667,-0.47625 0.582084,-0.84667 1.005417,-1.13771 0.926042,-0.71438 2.06375,-1.13771003 3.227917,-1.21709003"
         style="fill:none;stroke:#000000;stroke-width:0.264583;stroke-miterlimit:10" />
      <path
         id="XMLID_41_"
         class="st5"
         d="m 17.472221,5.6011357 c 0,-0.0265 0,-0.0265 0,-0.0529"
         style="fill:none;stroke:#000000;stroke-width:0.264583;stroke-miterlimit:10" />
      <path
         id="XMLID_42_"
         class="st5"
         d="m 7.788471,5.6805157 c -0.105833,-0.37042 -0.529167,-0.55563 -0.899583,-0.66146 -0.291042,-0.0794 -0.608542,-0.13229 -0.846667,0.0265 -0.264583,0.1852 -0.3175,0.52916 -0.343958,0.84666 -0.02646,0.26459 -0.02646,0.52917 0.05292,0.76729 0.105834,0.23813 0.291042,0.4498 0.423334,0.66146 0.291041,0.47625 0.264583,1.03188 0.396875,1.5875 0.105833,0.52917 0.423333,1.1112503 0.978958,1.1641703 0.396875,0.0529 0.820208,-0.2645803 0.873125,-0.6879203 0.05292,-0.44979 -0.238125,-0.87312 -0.132292,-1.29646"
         style="fill:none;stroke:#000000;stroke-width:0.264583;stroke-miterlimit:10" />
      <path
         id="XMLID_43_"
         class="st5"
         d="m 7.629721,15.073216 c -0.02646,-0.15875 -0.238125,-0.15875 -0.396875,-0.13229 -0.396875,0.0794 -0.767292,0.21167 -1.137708,0.39688 -0.291042,0.13229 -0.582084,0.29104 -0.846667,0.47625 -0.185208,0.10583 -0.370417,0.21166 -0.582083,0.34396 -0.687917,0.39687 -1.375834,0.79375 -1.852084,1.42875 0.07937,-0.0794 0.132292,-0.15875 0.211667,-0.26459"
         style="fill:none;stroke:#000000;stroke-width:0.264583;stroke-miterlimit:10" />
      <path
         id="XMLID_44_"
         class="st5"
         d="m 26.520971,15.866966 c -0.449792,-0.44979 -1.084792,-0.635 -1.719792,-0.79375 -1.402292,-0.37041 -2.804583,-0.71437 -4.233333,-1.08479 -0.9525,-0.23812 -1.984375,-0.50271 -2.936875,-0.21166 -0.07937,0.0265 -0.15875,0.0794 -0.132292,0.13229 0.02646,0.0529 0.15875,-0.0265 0.07937,-0.0265"
         style="fill:none;stroke:#000000;stroke-width:0.264583;stroke-miterlimit:10" />
      <path
         id="XMLID_45_"
         class="st5"
         d="m 4.454721,16.263846 c 0.343958,0.60854 0.687917,1.21708 0.873125,1.905 0.07937,0.34396 0.132292,0.68792 0.185208,1.03187 0.05292,0.52917 0.105834,1.05834 -0.02646,1.56105 0.05292,0.0794 0.132292,0.10583 0.211667,0.0794"
         style="fill:none;stroke:#000000;stroke-width:0.264583;stroke-miterlimit:10" />
      <path
         id="XMLID_46_"
         class="st5"
         d="m 6.650763,15.337806 c 0.635,2.54 2.434166,4.63021 4.339166,6.42937 0.635,0.60854 1.296459,1.19063 1.984375,1.74625"
         style="fill:none;stroke:#000000;stroke-width:0.264583;stroke-miterlimit:10" />
      <path
         id="XMLID_5_"
         class="st5"
         d="m 12.418679,24.201346 c 1.481667,-2.32833 2.804584,-4.97417 5.185833,-6.82625 1.322917,-0.79375 2.645834,0.52917 3.757084,1.16417"
         style="fill:none;stroke:#000000;stroke-width:0.264583;stroke-miterlimit:10" />
      <path
         id="XMLID_48_"
         class="st5"
         d="m 22.155346,18.962596 c -0.343959,0.42333 -0.423334,0.97896 -0.608542,1.50812 -0.15875,0.4498 -0.370417,0.89959 -0.608542,1.32292 -0.529166,0.97896 -1.031875,1.95792 -1.561041,2.93688"
         style="fill:none;stroke:#000000;stroke-width:0.264583;stroke-miterlimit:10" />
      <path
         id="XMLID_47_"
         class="st5"
         d="m 26.309304,15.708216 c -0.238125,1.93146 -1.031875,3.51896 -1.27,4.97417"
         style="fill:none;stroke:#000000;stroke-width:0.264583;stroke-miterlimit:10" />
      <path
         id="XMLID_50_"
         class="st5"
         d="m 23.425346,21.978846 c -0.661459,0.13229 -1.243542,-0.26458 -1.825625,-0.55563"
         style="fill:none;stroke:#000000;stroke-width:0.264583;stroke-miterlimit:10" />
      <path
         id="XMLID_91_"
         class="st5"
         d="m 21.970137,-0.08740427 c 0.211667,-1.45521003 0.79375,-2.85750003 1.666875,-4.02167003 -0.07937,1.13771 0.211667,2.30188 0.79375,3.30729003 -0.687916,-0.0264 -1.402291,-0.0264 -2.037291,-0.23812003 -0.661459,-0.21167 -1.296459,-0.60854 -1.5875,-1.24354 1.42875,-0.42334 2.883958,-0.82021 4.339166,-1.13771 -1.243541,0.52917 -1.772708,2.03729 -2.831041,2.83104003 0.132291,-0.13229 0.264583,-0.26458 0.396875,-0.39687"
         style="fill:none;stroke:#000000;stroke-width:0.264583;stroke-miterlimit:10" />
      <g
         id="XMLID_118_"
         class="st6"
         style="opacity:0.51;fill:#ed1969;fill-opacity:1"
         transform="matrix(0.26458333,0,0,0.26458333,2.787846,-5.6436543)">
        <g
           id="XMLID_16_"
           style="fill:#ed1969;fill-opacity:1">
          <path
             id="XMLID_20_"
             class="st7"
             d="m 72.6,13.9 c -0.1,0.1 -0.2,0.3 -0.4,0.4 0.3,0.5 0.6,0.9 0.9,1.4 0.1,0 0.6,-0.5 0.7,-0.6 0.5,-0.4 0.9,-0.9 1.3,-1.4 0.8,-0.9 1.3,-0.9 2.4,-1.1 2.6,-0.4 4.8,-1.8 5,-4.7 0.1,-1.5 -1.7,-3 -3.2,-2.4 -3.3,1.2 -4.8,5.2 -5.4,8.4 -0.9,4.7 5.8,6.4 7.7,2.3 0.4,-0.8 0.5,-1.8 0,-2.5 -0.2,-0.2 -0.3,-0.5 -0.5,-0.7 -1.9,-2.6 -6.2,-0.1 -4.3,2.5 0.2,0.2 0.3,0.5 0.5,0.7 0,-0.8 0,-1.7 0,-2.5 -0.1,0.1 0.2,-0.1 0.2,-0.1 0.8,1.6 1.2,2 1.4,1.1 0,-0.1 0.1,-0.3 0.1,-0.4 0.2,-0.5 0.3,-1.1 0.5,-1.6 0.2,-0.5 0.3,-0.9 0.6,-1.4 0.1,-0.3 0.3,-0.5 0.5,-0.8 0.1,-0.2 0.6,-0.4 0.1,-0.2 -1.1,-0.8 -2.1,-1.6 -3.2,-2.4 0.1,-1 0.3,-0.3 -0.2,-0.4 -0.3,0 -0.8,0.2 -1.1,0.2 -1,0.2 -1.9,0.3 -2.8,0.8 -1.5,0.8 -2.8,2.5 -4,3.7 -1.7,1.8 -1.3,4.3 0.5,5.9 2.1,1.9 4.5,1.1 6.2,-0.8 2.1,-2.3 -1.4,-5.8 -3.5,-3.4 z"
             style="fill:#ed1969;fill-opacity:1" />
        </g>
      </g>
      <path
         id="XMLID_1_"
         class="st5"
         d="m 21.335137,18.512806 c 0.05292,0.0265 0.132292,0.0794 0.185209,0.0794 0.07937,0.0265 0.132291,0.0529 0.185208,0.0794 0.07937,0.0265 0.15875,0.0794 0.211667,0.13229 0.02646,0.0265 0.02646,0.0265 0.05292,0.0529 0.02646,0.0264 0.02646,0.0264 0.05292,0.0529 0,0 0.02646,0.0265 0.02646,0.0265 0.02646,0 0.02646,0.0265 0.05292,0.0265 0.02646,0 0.02646,0 0.02646,0.0265 0,0 0.02646,0 0.02646,0"
         style="fill:none;stroke:#000000;stroke-width:0.264583;stroke-miterlimit:10" />
      <path
         id="XMLID_22_"
         class="st5"
         d="m 21.626179,21.423216 c -0.02646,-0.0265 -0.05292,-0.0529 -0.07937,-0.0529 -0.07937,-0.0265 -0.15875,-0.0794 -0.211667,-0.10584 -0.02646,0 -0.02646,-0.0265 -0.05292,-0.0265 -0.02646,0 -0.05292,-0.0265 -0.07937,-0.0529"
         style="fill:none;stroke:#000000;stroke-width:0.264583;stroke-miterlimit:10" />
      <path
         id="XMLID_49_"
         class="st5"
         d="m 23.372429,21.978846 c 0.02646,-0.0265 0.02646,-0.0265 0.05292,-0.0265 0.02646,0 0.05292,-0.0265 0.07938,-0.0265 0.02646,0 0.07937,-0.0265 0.105833,-0.0265 0.02646,0 0.07937,0 0.105833,0 0.02646,0 0.07938,0 0.105834,0 0.05292,0 0.07937,0 0.132291,0 0.02646,0 0.05292,0 0.07937,0 0.02646,0 0.07937,0 0.105834,0 0.02646,0 0.07937,0 0.105833,0 0.02646,0 0.05292,0 0.05292,0 0.02646,0 0.02646,0 0.05292,0 0,0 0.02646,0 0.02646,0 0.02646,0 0.02646,-0.0265 0.02646,-0.0265 0.02646,0 0.05292,-0.0265 0.07937,-0.0265 0.05292,-0.0265 0.132292,-0.0529 0.185208,-0.10584 0.02646,-0.0265 0.05292,-0.0265 0.07937,-0.0529 0,0 0.02646,-0.0265 0.02646,-0.0265 0.02646,-0.0265 0.05292,-0.0529 0.05292,-0.10583 0,-0.0265 0,-0.0265 0.02646,-0.0529 0,-0.0265 0.02646,-0.0265 0.02646,-0.0529 0.02646,-0.0529 0.02646,-0.10583 0.05292,-0.18521 0,-0.0265 0,-0.0529 0,-0.0794 0,-0.0265 0,-0.0529 0,-0.0794 0,-0.0529 0,-0.0794 0.02646,-0.13229 0,-0.0265 0.02646,-0.0529 0.02646,-0.0529 0,0 0,-0.0265 0,-0.0265 0,-0.0265 0,-0.0265 0.02646,-0.0529 0,-0.0265 0.02646,-0.0529 0.02646,-0.10583 0,-0.0265 0,-0.0529 0.02646,-0.0529 0,0 0,-0.0265 0,-0.0265 0,0 0,0 0,-0.0265 0,-0.0264 0.02646,-0.0264 0.02646,-0.0529"
         style="fill:none;stroke:#000000;stroke-width:0.264583;stroke-miterlimit:10" />
    </g>
    <g
       id="g389"
       transform="matrix(1.8369341,0,0,1.8369341,-77.182413,-67.91107)">
      <path
         id="XMLID_84_"
         class="st1"
         d="m 82.277778,43.736009 c -0.291041,-0.449792 -0.211666,-1.084792 0.07937,-1.508125 0.291042,-0.423334 0.767292,-0.740834 1.27,-0.9525 0.423334,-0.185209 0.899584,-0.343959 1.349375,-0.449792 0.291042,-0.05292 0.582084,-0.105833 0.873125,-0.05292 0.687917,0.105834 1.190625,0.714375 1.508125,1.349375 0.3175,0.635 0.529167,1.349375 0.582084,2.06375 -0.343959,0.02646 -0.687917,0.05292 -1.031875,0.105834 -0.05292,0 -0.132292,0 -0.15875,0.05292 -0.105834,0.07937 -0.05292,0.238125 0,0.370417 0.211666,0.449792 0.449791,0.899583 0.661458,1.349375 0.07937,0.132292 0.132292,0.343958 0.02646,0.449792 -0.05292,0.05292 -0.15875,0.05292 -0.238125,0.05292 -0.9525,0.05292 -1.931458,0.07937 -2.883958,0.132292 0,-0.926042 0,-1.878542 0,-2.804583 -0.3175,0.105833 -0.661458,0.238125 -0.978958,0.343958 -0.185209,0.05292 -0.449792,0.07937 -0.449792,-0.105833"
         style="fill:none;stroke:#000000;stroke-width:0.264583;stroke-miterlimit:10" />
      <path
         id="XMLID_85_"
         class="st1"
         d="m 83.600695,42.386634 c -0.05292,-0.264584 0.211667,-0.555625 0.47625,-0.555625 0.291042,0 0.529167,0.3175 0.449792,0.582083 -0.05292,0.264583 -0.370417,0.449792 -0.608542,0.291042 -0.238125,-0.132292 -0.185208,-0.555625 0.05292,-0.608542"
         style="fill:none;stroke:#000000;stroke-width:0.264583;stroke-miterlimit:10" />
      <path
         id="XMLID_86_"
         class="st1"
         d="m 85.849653,42.360175 c -0.132291,-0.132291 0.105834,-0.396875 0.291042,-0.343958 0.185208,0.05292 0.291042,0.291042 0.3175,0.47625 0.02646,0.211667 0.02646,0.47625 -0.15875,0.608542 -0.185208,0.15875 -0.47625,0.105833 -0.661458,-0.05292 -0.185209,-0.15875 -0.264584,-0.396875 -0.343959,-0.635 -0.05292,-0.211667 -0.105833,-0.423333 -0.02646,-0.608542 0.07937,-0.185208 0.3175,-0.343958 0.502708,-0.264583"
         style="fill:none;stroke:#000000;stroke-width:0.264583;stroke-miterlimit:10" />
      <path
         id="XMLID_87_"
         class="st1"
         d="m 85.055903,45.191217 c -0.05292,0.47625 -0.02646,0.9525 0.05292,1.42875"
         style="fill:none;stroke:#000000;stroke-width:0.264583;stroke-miterlimit:10" />
      <path
         id="XMLID_88_"
         class="st1"
         d="m 85.74382,45.191217 c -0.15875,0.47625 -0.132292,1.031875 0.07937,1.508125"
         style="fill:none;stroke:#000000;stroke-width:0.264583;stroke-miterlimit:10" />
      <path
         id="XMLID_89_"
         class="st1"
         d="m 86.405278,45.111842 c 0.02646,0.608542 0.132292,1.190625 0.3175,1.772708"
         style="fill:none;stroke:#000000;stroke-width:0.264583;stroke-miterlimit:10" />
      <path
         id="XMLID_9_"
         class="st1"
         d="m 66.640904,61.17205 c 2.460625,-0.529167 4.92125,-1.084792 7.381875,-1.613958 -0.238125,-0.687917 0.291041,-1.402292 0,-2.090209 -0.185209,-0.449791 -0.740834,-0.687916 -0.635,-1.243541 0.211666,-0.9525 1.825625,-1.005417 2.54,-0.846667 -0.370417,1.349375 -0.291042,2.54 0.873125,3.439583 1.190625,0.926042 1.905,2.010834 2.672291,3.280834 0.211667,-1.164167 0.238125,-3.01625 1.5875,-3.545417 1.322917,-0.15875 2.645833,-0.9525 2.963333,-2.460625 0.899584,0.555625 -0.264583,0.608542 0,0 0.238125,0.449792 0.767292,1.243542 0.767292,1.772708 -0.264583,1.058334 -1.322917,1.5875 -2.116667,2.38125 -0.264583,0.529167 -0.79375,1.058334 0.264584,1.5875 2.116666,0.79375 5.027083,-0.529166 6.746875,1.42875"
         style="fill:none;stroke:#000000;stroke-width:0.264583;stroke-miterlimit:10" />
      <path
         id="XMLID_23_"
         class="st1"
         d="m 83.812362,56.277258 c 0.714375,-1.084791 0.978958,-2.434166 0.767291,-3.730624 -0.05292,-0.238125 -0.105833,-0.47625 0,-0.687917 0.105834,-0.264583 0.396875,-0.370417 0.582084,-0.582083 0.343958,-0.396875 0.211666,-1.005417 0.02646,-1.481667 -0.582083,-1.402292 -1.799167,-2.487083 -3.175,-3.122083 -1.375833,-0.635 -2.936875,-0.846667 -4.445,-0.79375 -0.343958,0 -0.687916,0.02646 -1.005416,0.132291 -0.926042,0.238125 -1.666875,0.9525 -2.169584,1.772709 -0.185208,0.3175 -0.396875,0.687916 -0.396875,1.058333 0,0.343958 0.132292,0.661458 0.291042,0.978958 0.423333,0.926042 0.846667,1.852084 1.27,2.778125 -0.238125,-0.264583 -0.47625,-0.529166 -0.79375,-0.608541 -0.343958,-0.07937 -0.767292,0.07937 -0.79375,0.423333 -0.02646,0.211667 0.105833,0.423333 0.264583,0.608541 0.291042,0.370417 0.582084,0.740834 0.846667,1.137709 0.185208,0.238125 0.396875,0.47625 0.661458,0.47625 0.291042,0 0.47625,-0.47625 0.185209,-0.555625 0.05292,0.529166 -0.02646,1.058333 -0.238125,1.534583 0.105833,-0.105833 0.185208,-0.238125 0.291041,-0.343958"
         style="fill:none;stroke:#000000;stroke-width:0.264583;stroke-miterlimit:10" />
      <path
         id="XMLID_24_"
         class="st1"
         d="m 84.31507,52.043925 c 0.02646,-0.185208 -0.185208,-0.291041 -0.343958,-0.370416 -0.767292,-0.3175 -1.534584,-0.635 -2.301875,-0.899584 -0.555625,-0.211666 -1.137709,-0.396875 -1.719792,-0.423333 -1.5875,-0.105833 -3.042708,0.79375 -4.365625,1.693333 0.02646,-0.132291 0.132292,-0.264583 0.264584,-0.291041"
         style="fill:none;stroke:#000000;stroke-width:0.264583;stroke-miterlimit:10" />
      <path
         id="XMLID_144_"
         class="st1"
         d="m 77.885695,45.93205 c 0.07937,-0.396875 -0.02646,-0.820208 -0.238125,-1.137708 -0.105833,-0.15875 -0.238125,-0.291042 -0.343958,-0.423333 -0.15875,-0.15875 -0.3175,-0.3175 -0.529167,-0.396875 -0.15875,-0.05292 -0.291041,-0.02646 -0.449791,-0.05292 -0.555625,-0.05292 -1.005417,-0.529167 -1.058334,-1.084792 -0.05292,-0.555625 0.343959,-1.11125 0.873125,-1.243541 0.370417,-0.105834 0.767292,-0.02646 1.164167,0.07937 1.084792,0.238125 2.169583,0.47625 3.227916,0.714375 0.07937,0.02646 0.185209,0.05292 0.238125,0.07937 0.211667,0.15875 0.132292,0.555625 -0.105833,0.687916 -0.238125,0.132292 -0.529167,0.105834 -0.79375,0.05292 -0.264583,-0.05292 -0.529166,-0.132292 -0.820208,-0.07937 0.3175,0.767292 0.529167,1.561042 0.635,2.38125 0,0.105833 0.02646,0.238125 0.07937,0.343958 0.05292,0.105834 0.211666,0.15875 0.3175,0.105834"
         style="fill:none;stroke:#000000;stroke-width:0.264583;stroke-miterlimit:10" />
      <path
         id="XMLID_145_"
         class="st1"
         d="m 80.743195,51.885175 c -0.370417,-0.3175 -0.9525,-0.343958 -1.375833,-0.105833 -0.211667,0.132292 -0.396875,0.396875 -0.3175,0.661458 0.47625,-0.15875 0.9525,-0.3175 1.42875,-0.449791 0.105833,-0.02646 0.3175,0 0.264583,0.132291"
         style="fill:none;stroke:#000000;stroke-width:0.264583;stroke-miterlimit:10" />
      <path
         id="XMLID_146_"
         class="st1"
         d="m 83.574237,52.546634 c 0.185208,-0.105834 0.449791,-0.02646 0.608541,0.105833 0.15875,0.15875 0.264584,0.370416 0.343959,0.555625 -0.396875,0.07937 -0.820209,0.15875 -1.217084,0.07937 -0.396875,-0.07937 -0.79375,-0.370417 -0.846666,-0.767292 0.370416,0.02646 0.740833,0.05292 1.137708,0.07937 0.105833,0 0.238125,0.105834 0.15875,0.185209"
         style="fill:none;stroke:#000000;stroke-width:0.264583;stroke-miterlimit:10" />
      <path
         id="XMLID_147_"
         class="st1"
         d="m 83.04507,56.5683 c 0.02646,-0.3175 0.02646,-0.635 0.05292,-0.9525 0,-0.05292 0,-0.132292 -0.02646,-0.185208 -0.02646,-0.05292 -0.07937,-0.07937 -0.132291,-0.105834 -1.058334,-0.555625 -2.487084,-0.291041 -3.307292,0.582084 1.058333,-0.291042 2.196042,0.555625 3.280833,0.291041 -0.02646,0.07938 -0.05292,0.132292 -0.105833,0.211667"
         style="fill:none;stroke:#000000;stroke-width:0.264583;stroke-miterlimit:10" />
      <path
         id="XMLID_148_"
         class="st1"
         d="m 81.060695,54.054758 c 0.05292,0.05292 0.15875,0.02646 0.238125,0 0.264583,-0.07937 0.582083,0.02646 0.740833,0.264584 0.211667,-0.02646 0.291042,-0.291042 0.238125,-0.502709 -0.05292,-0.211666 -0.211666,-0.370416 -0.291041,-0.555625 -0.105834,-0.238125 -0.105834,-0.502708 -0.02646,-0.740833 -0.07937,0.05292 -0.132291,0.211667 -0.07937,0.291042"
         style="fill:none;stroke:#000000;stroke-width:0.264583;stroke-miterlimit:10" />
      <path
         id="XMLID_149_"
         class="st1"
         d="m 79.87007,52.334967 c -0.02646,0.264583 -0.132291,0.502708 -0.291041,0.714375 -0.9525,0.07937 -1.878542,0.15875 -2.831042,0.238125 -0.132292,0 -0.291042,0.02646 -0.423333,-0.02646 -0.132292,-0.05292 -0.264584,-0.185208 -0.238125,-0.3175 0.02646,-0.211666 0.264583,-0.317499 0.47625,-0.343958 0.767291,-0.185208 1.508125,-0.343958 2.275416,-0.529166 0.05292,0 0.105834,-0.02646 0.132292,0 0.02646,0.02646 0.02646,0.105833 -0.02646,0.105833"
         style="fill:none;stroke:#000000;stroke-width:0.264583;stroke-miterlimit:10" />
      <path
         id="XMLID_150_"
         class="st1"
         d="m 77.091945,44.34455 c -0.529166,-0.555625 -0.449791,-1.534583 0.15875,-2.010833 -0.370416,-0.02646 -0.714375,-0.15875 -1.031875,-0.343958 0.423334,0.211666 0.846667,0.370416 1.322917,0.449791 0.343958,0.05292 0.687917,0.07938 0.978958,0.264584 0.291042,0.185208 0.582084,0.502708 0.873125,0.370416 0.07937,0.105834 0.15875,0.238125 0.238125,0.343959"
         style="fill:none;stroke:#000000;stroke-width:0.264583;stroke-miterlimit:10" />
      <path
         id="XMLID_151_"
         class="st1"
         d="m 73.784654,59.478717 c 0.15875,0.9525 0.238125,1.957916 0.05292,2.910416 -0.185208,0.9525 -0.687916,1.878542 -1.455208,2.460625 1.217083,-0.185208 2.487083,0.132292 3.466042,0.873125 0.978958,0.714375 1.666875,1.825625 1.878541,3.042709 1.005417,-1.402292 1.561042,-3.122084 1.561042,-4.868334 0.687916,1.74625 1.905,3.280834 3.466041,4.339167 0.899584,-0.926042 1.852084,-1.799167 2.8575,-2.619375 -0.185208,0.105833 -0.423333,-0.05292 -0.555625,-0.185208 -1.11125,-1.11125 -1.984375,-2.460625 -2.54,-3.942292 0,0.105833 0,0.185208 0,0.291042"
         style="fill:none;stroke:#000000;stroke-width:0.264583;stroke-miterlimit:10" />
      <path
         id="XMLID_152_"
         class="st1"
         d="m 78.652987,62.44205 c -0.132292,-0.238125 0.02646,-0.582083 0.264583,-0.687917 0.238125,-0.105833 0.555625,0.02646 0.740834,0.238125 0.185208,0.211667 0.238124,0.502709 0.211666,0.79375 -0.15875,0.07937 -0.343958,0.07937 -0.502708,0 0.05292,0.264584 0.105833,0.529167 0.15875,0.79375 -0.211667,0.05292 -0.449792,0.02646 -0.635,-0.05292 0,-0.105834 -0.02646,-0.211667 -0.02646,-0.291042 -0.05292,0.07938 -0.07937,0.185208 -0.05292,0.291042 -0.02646,-0.05292 -0.02646,-0.105834 -0.05292,-0.15875 -0.02646,0.07938 -0.07937,0.15875 -0.105833,0.238125 0.02646,-0.211667 -0.370417,-0.211667 -0.396875,-0.423334 0,-0.15875 0.291042,-0.291041 0.211667,-0.423333 -0.132292,0.132292 -0.343959,0.15875 -0.502709,0.05292 -0.105833,-0.370417 0.105834,-0.820209 0.449792,-0.9525 0.05292,0.132291 0.185208,0.238125 0.3175,0.264583"
         style="fill:none;stroke:#000000;stroke-width:0.264583;stroke-miterlimit:10" />
      <path
         id="XMLID_153_"
         class="st1"
         d="m 83.071528,52.811217 c -0.05292,0 0.02646,0.07937 0.02646,0.02646 0,0.07938 -0.05292,0.132292 -0.132292,0.132292 0,-0.105834 0.05292,-0.185208 0.132292,-0.238125"
         style="fill:none;stroke:#000000;stroke-width:0.264583;stroke-miterlimit:10" />
      <path
         id="XMLID_154_"
         class="st1"
         d="m 79.658404,52.017467 c 0.105833,-0.105833 -0.07937,-0.291042 -0.185209,-0.211667 -0.105833,0.07937 0.02646,0.291042 0.15875,0.238125 -0.07937,0 -0.105833,-0.105833 -0.05292,-0.132291 0.05292,-0.02646 0.15875,0 0.132291,0.07937 -0.05292,-0.02646 -0.07937,-0.07937 -0.132291,-0.105834 0.02646,-0.05292 0.02646,-0.07937 0.05292,-0.132291"
         style="fill:none;stroke:#000000;stroke-width:0.264583;stroke-miterlimit:10" />
      <path
         id="XMLID_155_"
         class="st1"
         d="m 75.054654,52.864133 c -0.211667,-0.132291 -0.423334,-0.211666 -0.661459,-0.264583 -0.07937,-0.02646 -0.185208,-0.02646 -0.264583,0.05292 -0.105833,0.105833 0.02646,0.264583 0.15875,0.343958 0.423333,0.3175 0.79375,0.714375 1.084792,1.164167 0,-0.132292 0,-0.264584 0,-0.370417"
         style="fill:none;stroke:#000000;stroke-width:0.264583;stroke-miterlimit:10" />
      <path
         id="XMLID_156_"
         class="st1"
         d="m 76.06007,55.906842 c 0,0.02646 0,0.05292 0,0.07938 0,0.687916 0.608542,1.190625 1.243542,1.42875 0.635,0.238125 1.322917,0.291041 2.010833,0.370416 0.846667,0.105834 1.693333,0.291042 2.513542,0.582084 0.05292,0.02646 0.105833,0.05292 0.07938,0.07937 0,0.05292 -0.105834,0 -0.05292,-0.02646"
         style="fill:none;stroke:#000000;stroke-width:0.264583;stroke-miterlimit:10" />
      <path
         id="XMLID_157_"
         class="st1"
         d="m 79.446737,64.135383 c -0.211667,0.502709 0,1.058334 0.105833,1.5875 0.105834,0.47625 0.132292,0.9525 0.15875,1.455209 0.02646,0.423333 0.05292,0.846666 0.07937,1.296458 0.02646,0.423333 0.05292,0.873125 0,1.296458"
         style="fill:none;stroke:#000000;stroke-width:0.264583;stroke-miterlimit:10" />
      <g
         id="XMLID_158_"
         class="st2"
         style="opacity:0.51"
         transform="matrix(0.26458333,0,0,0.26458333,66.587987,39.634967)">
        <g
           id="XMLID_14_"
           style="fill:#434343;fill-opacity:1">
          <path
             id="XMLID_18_"
             class="st3"
             d="m 66.6,14.3 c -0.2,4.5 3.3,11.5 8.7,10.6 4,-0.7 7.1,-6.9 3.5,-9.9 -4.2,-3.5 -9,2.7 -9.2,6.6 -0.1,2 1.3,3.8 3.5,3.7 2.4,-0.1 3.4,-2.7 3.7,-4.7 0.6,-3.5 -1.1,-13.8 -6.9,-9.6 -4,2.9 -2.5,10.5 3.1,9.7 6.3,-1 6.2,-10.5 3.1,-14.5 C 74.1,3.6 71.3,3.4 68.3,3 65.5,2.6 62.9,1.9 60.7,4.2 57.9,7.1 55.4,17 60.1,19.1 c 6,2.7 8.6,-6 6.8,-10.1 -0.3,-0.8 -1.4,-1.3 -2.2,-1.2 -9.1,0.4 -9.3,15.2 0.9,12.7 4.2,-1 7.3,-3.6 8.3,-7.9 0.8,-3.3 -1,-8.3 -5.2,-7.6 -4.9,0.8 -5,7.6 -4.9,11.4 0,3.7 0.4,8.7 4.8,9.7 6.9,1.6 13.8,-13 8.8,-17.4 -0.8,-0.7 -2,-1 -3,-0.4 -3.7,2.1 -5.8,6 -6.8,10 -0.7,2.7 -1.7,7.4 0.5,9.6 2.7,2.7 6.6,0.1 8.8,-1.9 3.4,-3.1 4.5,-6.7 4.6,-11.2 0.1,-3.1 -0.3,-7.6 -4.2,-8.2 -3.5,-0.5 -4.5,3 -5.2,5.7 -0.9,3.6 -2.1,9.3 -0.6,12.8 1.7,3.9 6.2,3 8.4,0.3 -1.3,-1 -2.6,-2 -3.9,-3 -1,2.1 -2.5,3.9 -3.2,6.2 -0.4,1.2 0.3,2.2 1.1,2.8 3.9,3 8.2,-3.3 8.8,-6.6 0.6,-3.1 -4.3,-4.5 -4.8,-1.3 -0.1,0.6 -1.9,3.3 -1.5,3.6 0.4,0.9 0.8,1.9 1.1,2.8 0.6,-1.8 1.8,-3.3 2.7,-5 1.2,-2.4 -2,-5.3 -3.9,-3 -0.4,0.7 -0.5,0.3 -0.2,-1.3 0,-1.1 0,-2.1 0,-3.2 0.1,-1 1.1,-3.5 1,-4.7 -0.2,-1.9 -0.4,0.1 -0.5,1 -0.4,2 0.2,3.8 -0.8,5.7 -0.4,0.8 -2.6,3.9 -3.7,3.9 -0.1,0.1 -0.1,0.3 -0.2,0.4 0,-0.8 0.1,-1.7 0.2,-2.5 0.5,-3.3 1.8,-7.1 4.8,-8.8 -1,-0.1 -2,-0.3 -3,-0.4 1.7,1.5 -4.7,14.3 -5,4.7 0,-1 -0.1,-2.1 0,-3.1 0.2,-3.9 -0.1,-0.4 -1.5,0.7 -0.6,0.5 -2.3,1.2 -3,1.2 -0.4,0.1 -0.8,0.1 -1.2,0.2 -0.5,-1.6 0,-2.6 1.6,-3 -0.7,-0.4 -1.4,-0.8 -2.2,-1.2 0,0.1 -0.1,3 0,2.9 0.2,-0.2 0.5,-2.6 0.6,-3 0.7,-3.1 1,-3.8 4.4,-3.5 3.4,0.3 6.9,2.6 5.5,6.5 -0.8,2.2 -1.2,0.2 -1.1,3.2 0,0.5 -0.4,2.9 0.1,2.8 0.8,0.2 1.6,0.4 2.4,0.6 0.3,0.8 0.6,0.4 0.8,-0.9 0,-1.3 -0.9,-1.8 -2.5,-1.5 -1.1,-0.8 -1.4,-3.2 -1.4,-4.4 0.3,-3.1 -4.7,-3.1 -4.8,0.1 z"
             style="fill:#434343;fill-opacity:1" />
        </g>
      </g>
      <path
         id="XMLID_19_"
         class="st4"
         d="m 69.762987,39.634967 h 17.4625 c 1.74625,0 3.175,1.42875 3.175,3.175 v 29.36875 c 0,1.74625 -1.42875,3.175 -3.175,3.175 h -17.4625 c -1.74625,0 -3.175,-1.42875 -3.175,-3.175 v -29.36875 c 0,-1.74625 1.42875,-3.175 3.175,-3.175 z"
         style="fill:none;stroke-width:0.264583" />
    </g>
    <g
       id="g776"
       transform="matrix(1.8369341,0,0,1.8369341,-50.933184,-83.197531)">
      <path
         id="XMLID_81_"
         class="st1"
         d="m 95.372458,50.0469 c 0.05292,-0.132292 0.105833,-0.264583 0.15875,-0.423333 -0.343958,0.687916 -0.291042,1.508125 -0.105833,2.275416 0.185208,0.740834 0.449791,1.481667 0.47625,2.275417 0,0.185208 -0.02646,0.396875 -0.185209,0.502708 -0.07937,-0.105833 -0.105833,-0.264583 -0.07937,-0.370416"
         style="fill:none;stroke:#000000;stroke-width:0.264583;stroke-miterlimit:10" />
      <path
         id="XMLID_82_"
         class="st1"
         d="m 93.361625,52.692733 c -0.05292,-0.105833 -0.02646,-0.264583 0.05292,-0.343958 0.238125,1.058333 1.402292,1.719792 2.487084,1.693333 0.396875,-0.02646 0.79375,-0.105833 1.084791,-0.370416 0.291042,-0.264584 0.449792,-0.687917 0.291042,-1.031875 -0.02646,0.05292 -0.02646,0.105833 -0.05292,0.15875"
         style="fill:none;stroke:#000000;stroke-width:0.264583;stroke-miterlimit:10" />
      <path
         id="XMLID_83_"
         class="st1"
         d="m 94.076,50.9994 c 0.79375,0.132292 1.640416,0.02646 2.38125,-0.291042 -0.105834,0.02646 -0.185209,0.02646 -0.291042,0.05292"
         style="fill:none;stroke:#000000;stroke-width:0.264583;stroke-miterlimit:10" />
      <path
         id="XMLID_68_"
         class="st1"
         d="m 88.413916,59.227942 c 0.105834,0 0.211667,0.05292 0.264584,0.15875 0.05292,-0.211667 -0.132292,-0.423334 -0.291042,-0.582084 -1.349375,-1.217083 -2.672291,-2.407708 -4.021666,-3.624791 -1.322917,0.555625 -2.592917,1.190625 -3.81,1.931458 1.42875,1.42875 3.360208,2.407708 4.153958,4.259792 1.42875,-0.529167 2.804583,-1.190625 4.1275,-1.931459 -0.3175,0.211667 -0.635,0.449792 -0.9525,0.661459"
         style="fill:none;stroke:#000000;stroke-width:0.264583;stroke-miterlimit:10" />
      <path
         id="XMLID_69_"
         class="st1"
         d="m 81.667042,58.540025 c -1.42875,0.3175 -2.592917,1.613958 -2.751667,3.069166 -0.105833,0.899584 0.15875,1.825625 0.07937,2.725209 -0.05292,0.687916 -0.291042,1.375833 -0.15875,2.06375 0.07937,0.502708 0.370417,0.9525 0.635,1.402291 0.343958,0.529167 0.687917,1.084792 1.005417,1.613959 0.608541,0.9525 1.243541,1.957916 2.248958,2.487083 0.820208,0.449792 1.799167,0.502708 2.725208,0.529167 0.926042,0.05292 1.905,0.07937 2.778125,-0.238125 0.873125,-0.3175 1.693333,-1.058334 1.74625,-1.984375 0.02646,-0.396875 -0.05292,-0.820209 0.15875,-1.137709 0.07937,-0.105833 0.185208,-0.211666 0.238125,-0.3175 0.132292,-0.264583 0.02646,-0.555625 -0.02646,-0.846666 -0.185209,-0.714375 -0.185209,-1.481667 -0.02646,-2.196042 0.07937,0.264583 0.211667,0.529167 0.449792,0.661458 0.423333,0.211667 0.978958,-0.185208 1.058333,-0.635 0.07937,-0.449791 -0.15875,-0.9525 -0.47625,-1.296458 -0.396875,-0.449792 -0.926041,-0.873125 -0.9525,-1.481667 -0.02646,-0.47625 0.291042,-0.899583 0.396875,-1.375833 C 90.92745,61.053567 90.821618,60.5244 90.60995,60.021692 89.948492,58.381275 88.2287,57.19065 86.455992,57.137733"
         style="fill:none;stroke:#000000;stroke-width:0.264583;stroke-miterlimit:10" />
      <path
         id="XMLID_70_"
         class="st1"
         d="m 80.397042,62.508775 c 0.529166,0.714375 1.42875,1.11125 2.301875,1.005416 0.264583,-0.02646 0.555625,-0.105833 0.820208,-0.105833 0.264583,0 0.582083,0.05292 0.79375,-0.105833 0.47625,-0.343959 0.07937,-1.243542 0.529167,-1.640417 0.02646,0.07937 0.02646,0.15875 0.05292,0.238125"
         style="fill:none;stroke:#000000;stroke-width:0.264583;stroke-miterlimit:10" />
      <path
         id="XMLID_71_"
         class="st1"
         d="m 83.386833,61.873775 c 0,-0.02646 0,-0.05292 0,-0.07937"
         style="fill:none;stroke:#000000;stroke-width:0.264583;stroke-miterlimit:10" />
      <path
         id="XMLID_72_"
         class="st1"
         d="m 83.12225,60.550858 c 0,0.02646 0,0.05292 0,0.07937"
         style="fill:none;stroke:#000000;stroke-width:0.264583;stroke-miterlimit:10" />
      <path
         id="XMLID_73_"
         class="st1"
         d="m 81.984542,60.021692 c -0.02646,-0.02646 -0.05292,-0.05292 -0.07937,-0.07937"
         style="fill:none;stroke:#000000;stroke-width:0.264583;stroke-miterlimit:10" />
      <line
         id="XMLID_74_"
         class="st1"
         x1="81.614128"
         y1="62.217731"
         x2="81.614128"
         y2="62.217731"
         style="fill:none;stroke:#000000;stroke-width:0.264583;stroke-miterlimit:10" />
      <path
         id="XMLID_75_"
         class="st1"
         d="m 81.164333,60.894817 c 0,0.07937 0.02646,0.185208 0.02646,0.264583"
         style="fill:none;stroke:#000000;stroke-width:0.264583;stroke-miterlimit:10" />
      <path
         id="XMLID_76_"
         class="st1"
         d="m 80.555792,59.677733 c 0.02646,0 0.05292,0 0.07937,0"
         style="fill:none;stroke:#000000;stroke-width:0.264583;stroke-miterlimit:10" />
      <path
         id="XMLID_77_"
         class="st1"
         d="m 81.799333,59.307317 c 0,0.07937 0,0.185208 0,0.264583"
         style="fill:none;stroke:#000000;stroke-width:0.264583;stroke-miterlimit:10" />
      <path
         id="XMLID_78_"
         class="st1"
         d="m 79.682667,61.423983 c 0.02646,0.02646 0.05292,0.05292 0.07937,0.07937"
         style="fill:none;stroke:#000000;stroke-width:0.264583;stroke-miterlimit:10" />
      <path
         id="XMLID_79_"
         class="st1"
         d="m 81.349542,62.852733 c 0,0.02646 0,0.05292 0,0.07937"
         style="fill:none;stroke:#000000;stroke-width:0.264583;stroke-miterlimit:10" />
      <line
         id="XMLID_80_"
         class="st1"
         x1="82.24913"
         y1="60.894817"
         x2="82.24913"
         y2="60.894817"
         style="fill:none;stroke:#000000;stroke-width:0.264583;stroke-miterlimit:10" />
      <path
         id="XMLID_121_"
         class="st1"
         d="m 82.3285,62.058983 c 0.02646,-0.07937 -0.02646,-0.15875 -0.07937,-0.15875"
         style="fill:none;stroke:#000000;stroke-width:0.264583;stroke-miterlimit:10" />
      <path
         id="XMLID_122_"
         class="st1"
         d="m 83.307458,62.7469 c 0,0.05292 0,0.105833 0,0.185208"
         style="fill:none;stroke:#000000;stroke-width:0.264583;stroke-miterlimit:10" />
      <line
         id="XMLID_123_"
         class="st1"
         x1="83.307457"
         y1="61.080025"
         x2="83.307457"
         y2="61.080025"
         style="fill:none;stroke:#000000;stroke-width:0.264583;stroke-miterlimit:10" />
      <path
         id="XMLID_124_"
         class="st1"
         d="m 82.672458,60.286275 c 0.02646,0.02646 0.05292,0.05292 0.07937,0.07937"
         style="fill:none;stroke:#000000;stroke-width:0.264583;stroke-miterlimit:10" />
      <path
         id="XMLID_125_"
         class="st1"
         d="M 85.66225,60.656692 C 85.477042,59.968775 84.947875,59.41315 84.365792,58.989817 83.783708,58.566483 83.148708,58.222525 82.619542,57.746275"
         style="fill:none;stroke:#000000;stroke-width:0.264583;stroke-miterlimit:10" />
      <path
         id="XMLID_126_"
         class="st1"
         d="M 86.905792,60.180442 C 87.170375,59.810025 86.7735,59.333775 86.456,59.042733 85.847458,58.540025 85.265375,58.010858 84.656833,57.50815 84.551,57.42877 84.445167,57.322942 84.312875,57.322942 c -0.105833,-0.02646 -0.211667,0 -0.291042,-0.02646 -0.105833,-0.02646 -0.15875,-0.185208 -0.07937,-0.238125"
         style="fill:none;stroke:#000000;stroke-width:0.264583;stroke-miterlimit:10" />
      <path
         id="XMLID_127_"
         class="st1"
         d="m 89.974958,61.820858 c -0.238125,-0.07937 -0.502708,0.02646 -0.635,0.238125 -0.132292,0.211667 -0.07937,0.502708 0.105833,0.661458 0.105834,0.05292 0.211667,0.07937 0.3175,0.132292 0.238125,-0.291042 0.47625,-0.555625 0.714375,-0.846667"
         style="fill:none;stroke:#000000;stroke-width:0.264583;stroke-miterlimit:10" />
      <path
         id="XMLID_128_"
         class="st1"
         d="m 86.641208,63.170233 c 0.05292,-0.05292 -0.714375,0.15875 -0.873125,0.264583 -0.291041,0.185209 -0.687916,0.47625 -0.899583,0.740834 -0.343958,0.423333 -0.687917,0.899583 0.185208,0.79375 0.687917,-0.07938 1.322917,-0.343959 1.878542,-0.740834 0.15875,-0.396875 0.264583,-0.820208 0.3175,-1.243541 -0.185208,0 -0.343958,-0.132292 -0.396875,-0.3175"
         style="fill:none;stroke:#000000;stroke-width:0.264583;stroke-miterlimit:10" />
      <path
         id="XMLID_129_"
         class="st1"
         d="m 84.894958,62.58815 c 0.449792,0 0.873125,0 1.322917,0"
         style="fill:none;stroke:#000000;stroke-width:0.264583;stroke-miterlimit:10" />
      <path
         id="XMLID_130_"
         class="st1"
         d="m 89.339958,60.312733 c -0.211667,0.529167 -0.423333,1.031875 -0.661458,1.561042 -0.02646,0.05292 -0.05292,0.105833 0,0.15875 0.05292,0.05292 0.132291,0 0.105833,-0.05292"
         style="fill:none;stroke:#000000;stroke-width:0.264583;stroke-miterlimit:10" />
      <path
         id="XMLID_131_"
         class="st1"
         d="m 87.091,69.520233 c 0.07937,0.105833 0.264583,0.05292 0.370417,-0.05292 0.07937,-0.105833 0.132291,-0.238125 0.15875,-0.370416 0.211666,-0.555625 0.793749,-0.899584 1.375833,-1.058334 0.449791,-0.132291 1.058333,-0.07937 1.243541,0.343959"
         style="fill:none;stroke:#000000;stroke-width:0.264583;stroke-miterlimit:10" />
      <path
         id="XMLID_132_"
         class="st1"
         d="m 85.953292,63.911066 c 0.07937,-0.02646 0.185208,0 0.264583,0.05292 -0.105833,0.07937 -0.211667,0.132292 -0.343958,0.211667 0.05292,-0.132292 0.264583,-0.15875 0.3175,-0.02646 -0.132292,0.02646 -0.291042,0.02646 -0.423334,0 0.05292,-0.07937 0.132292,-0.15875 0.238125,-0.132291 0.07937,0.105833 -0.132291,0.185208 -0.264583,0.132291 0,-0.132291 0.02646,-0.264583 0.02646,-0.396875 0.105834,0.05292 0.185209,0.211667 0.105834,0.3175 -0.07937,0.105834 -0.291042,0.07937 -0.291042,-0.05292 -0.02646,-0.132292 0.211667,-0.185209 0.238125,-0.07937"
         style="fill:none;stroke:#000000;stroke-width:0.264583;stroke-miterlimit:10" />
      <path
         id="XMLID_133_"
         class="st1"
         d="m 89.683916,62.244191 c -0.02646,0.05292 0.02646,0.105834 0.07937,0.105834 0.05292,-0.02646 0.02646,-0.105834 -0.02646,-0.132292"
         style="fill:none;stroke:#000000;stroke-width:0.264583;stroke-miterlimit:10" />
      <path
         id="XMLID_134_"
         class="st1"
         d="m 81.270167,65.2869 c 0.02646,0.05292 0.105833,0.02646 0.132291,-0.02646 0.02646,-0.05292 0,-0.105833 -0.02646,-0.185208 -0.07937,-0.185208 -0.15875,-0.343958 -0.211667,-0.529167 -0.15875,-0.396875 -0.396875,-0.846666 -0.79375,-0.926041 -0.3175,-0.07937 -0.635,0.105833 -0.846666,0.343958 -0.185209,0.264583 -0.291042,0.582083 -0.3175,0.899583 -0.05292,0.291042 -0.05292,0.608542 0,0.899584 0.07937,0.423333 0.343958,0.79375 0.582083,1.137708 0.238125,0.343958 0.608542,0.740833 1.005417,0.608542 0.3175,-0.105834 0.423333,-0.502709 0.423333,-0.820209 0,-0.3175 -0.07937,-0.661458 0,-0.978958 -0.05292,0.07937 0,0.185208 0.07937,0.211667"
         style="fill:none;stroke:#000000;stroke-width:0.264583;stroke-miterlimit:10" />
      <path
         id="XMLID_135_"
         class="st1"
         d="m 89.181208,60.5244 c 0.238125,-0.07938 0.47625,0.02646 0.635,0.211667 0.132292,0.185208 0.15875,0.47625 0.02646,0.661458 -0.449791,0.05292 -0.79375,-0.582083 -0.502708,-0.926042 0.185208,0.05292 0.767292,0.555625 0.9525,0.608542"
         style="fill:none;stroke:#000000;stroke-width:0.264583;stroke-miterlimit:10" />
      <path
         id="XMLID_136_"
         class="st1"
         d="m 80.846833,66.821483 c -1.402291,0.07937 -0.529166,2.804583 0.02646,1.799167 0.02646,0.105833 0.07937,0.185208 0.105833,0.291041 0.396875,-0.555625 0.502708,-1.905 -0.502708,-1.931458"
         style="fill:none;stroke:#000000;stroke-width:0.264583;stroke-miterlimit:10" />
      <path
         id="XMLID_137_"
         class="st1"
         d="m 80.397042,69.546691 c -0.05292,-0.02646 -0.105834,-0.07937 -0.15875,-0.105833 -0.740834,0.529167 -1.693334,0.635 -2.566459,0.820208 -0.873125,0.185209 -1.852083,0.529167 -2.275416,1.322917 0.291041,0 0.555625,-0.185208 0.661458,-0.449792"
         style="fill:none;stroke:#000000;stroke-width:0.264583;stroke-miterlimit:10" />
      <path
         id="XMLID_52_"
         class="st1"
         d="m 90.239541,69.599608 c 2.672292,-0.582083 5.582709,-0.05292 8.255,0.740833"
         style="fill:none;stroke:#000000;stroke-width:0.264583;stroke-miterlimit:10" />
      <path
         id="XMLID_139_"
         class="st1"
         d="m 78.836,69.89065 c 0.15875,1.217083 0.978958,2.275416 2.010833,2.963333 1.031875,0.661458 2.248959,0.978958 3.4925,1.11125 1.402292,0.15875 2.831042,0.132292 4.206875,-0.132292 0.661458,-0.105833 1.322917,-0.264583 1.878542,-0.608541 1.137708,-0.687917 1.825625,-2.06375 1.640416,-3.386667 -0.02646,-0.05292 0.105834,-0.105833 0.132292,-0.02646 0.02646,0.07938 -0.02646,0.132291 -0.07937,0.15875"
         style="fill:none;stroke:#000000;stroke-width:0.264583;stroke-miterlimit:10" />
      <path
         id="XMLID_54_"
         class="st1"
         d="m 94.605166,70.261066 c 0.05292,-0.132291 0.07937,-0.185208 0.105834,-0.343958 -0.105834,1.137708 0.211666,2.275417 0.820208,3.227917 0.846667,0.873125 1.375833,1.666875 2.38125,2.037291"
         style="fill:none;stroke:#000000;stroke-width:0.264583;stroke-miterlimit:10" />
      <path
         id="XMLID_141_"
         class="st1"
         d="m 77.830583,70.6844 c 0,-0.105834 -0.07937,-0.185209 -0.185208,-0.185209 0.238125,0.899584 -0.05292,1.905 -0.555625,2.672292 -0.502708,0.767292 -1.349375,1.322917 -2.248958,1.455208 0.211666,-0.05292 0.396875,-0.105833 0.608541,-0.15875"
         style="fill:none;stroke:#000000;stroke-width:0.264583;stroke-miterlimit:10" />
      <path
         id="XMLID_142_"
         class="st1"
         d="m 88.546208,59.783567 c 0.15875,-0.238125 0.423333,-0.502709 0.687917,-0.449792 0.15875,0.02646 0.264583,0.15875 0.396875,0.264583 0.343958,0.264584 0.846666,0.343959 1.243541,0.15875"
         style="fill:none;stroke:#000000;stroke-width:0.264583;stroke-miterlimit:10" />
      <path
         id="XMLID_143_"
         class="st1"
         d="m 89.763291,62.217733 c -0.02646,0 -0.05292,0 -0.07937,0"
         style="fill:none;stroke:#000000;stroke-width:0.264583;stroke-miterlimit:10" />
      <g
         id="XMLID_160_"
         class="st2"
         style="opacity:0.51;fill:#00aeef;fill-opacity:1"
         transform="matrix(0.26458333,0,0,0.26458333,74.787875,48.380025)">
        <g
           id="XMLID_14_-3"
           style="fill:#00aeef;fill-opacity:1">
          <path
             id="XMLID_18_-6"
             class="st3"
             d="m 72.2,25.8 c 3.9,2.7 10.1,-1.1 7.2,-5.8 -1.1,-1.8 -4,-1.5 -4.6,0.6 -0.4,1.5 -0.2,2.2 0.4,3.6 0.4,0.8 1.4,1.2 2.2,1.2 5.8,0.3 4.5,-7.9 0.4,-9.6 -1.2,-0.5 -2.4,-0.8 -3.7,-0.5 -0.5,0.1 -1.2,0.3 -1.6,0.6 -0.6,0.5 -1.3,1.6 0.1,1.3 2.6,-0.6 2.5,-4.6 1.4,-6.2 -0.7,-1 -1.6,-1.3 -2.8,-1.1 -3.3,0.5 -3.8,4.4 -3.8,7.1 0.1,3.6 1.2,6.9 4.7,8.5 3.3,1.5 7.8,1.7 10.9,-0.2 4.6,-2.8 2.2,-7.9 3.5,-12.2 -1.6,-0.2 -3.3,-0.4 -4.9,-0.7 0,1.7 -0.9,3 -1,4.6 0,0.7 0.7,-1.2 0.8,-1.8 0.4,-1.5 1,-2.9 0.1,-4.4 -1.9,-3.1 -5.3,-1.2 -8,-1.9 0.4,1.4 0.7,2.8 1.1,4.2 -0.9,-0.5 -1.3,-0.3 -1.3,0.7 -0.2,0.6 -0.3,1.2 -0.5,1.8 -0.4,1.3 -0.6,2.4 -0.6,3.7 0,3.2 5,3.2 5,0 0,-2.8 0.6,-5.6 0.7,-8.5 0,-1.5 -0.8,-4.3 0.6,-5.5 -1,0.1 -2,0.3 -3,0.4 2.7,1.2 2.8,5 1.9,7.4 1.6,0.4 3.2,0.9 4.8,1.3 0.1,-0.6 2.3,-5.4 1.9,-5.8 -0.6,0.1 -1.2,0.2 -1.8,0.3 0.1,0.3 0.3,0.5 0.4,0.8 0,-0.2 1,2.4 0.8,2.4 -3.2,0.4 -3.2,5.4 0,5 C 89.8,16.3 89.3,10.3 86.4,6 85.2,4.2 82.9,3 80.9,4.4 78.8,5.8 78,10.8 77.4,13.1 76.6,16.3 81,17.3 82.2,14.4 84,10.1 82.7,3.3 78.1,1.4 77,0.9 76,1 75.1,1.8 c -2,1.6 -2.2,4.1 -2.2,6.5 0.1,3.7 -0.5,7.3 -0.5,11 1.7,0 3.3,0 5,0 0,-3.2 2.8,-6.8 0.4,-9.7 -1.9,-2.3 -4.6,-1.9 -6.6,0 -1.3,1.3 -0.7,3.8 1.1,4.2 1.2,0.3 2.4,0.3 3.6,0.1 1.1,-0.2 1.3,0.4 1,-0.5 0.1,0.3 -0.4,1.6 -0.5,2 -0.4,2.3 -0.2,5.4 2.1,6.7 5.6,3.3 8.2,-6 8.2,-9.8 0,-2.8 -4.1,-3.4 -4.9,-0.7 -0.6,2.1 -0.8,3.9 -0.7,6 0.2,3.1 -1.6,4.2 -4.5,3.8 -2.1,-0.3 -3.5,-0.9 -4,-3.1 -0.2,-1 0,-3.8 0,-3.8 -0.9,-0.4 -1.9,-0.8 -2.8,-1.1 0.5,-0.8 0.4,-0.8 -0.3,-0.1 -0.3,0.2 -0.6,0.5 -0.8,0.7 -0.4,0.4 -0.8,0.9 -1,1.5 -0.6,1.7 0.2,3.5 1.4,4.6 1.1,1 2.4,1.6 3.9,1.2 0.8,-0.2 1.4,-1 2.2,-1.3 0.1,0 2.1,0.1 2.3,0.1 0.7,0.4 1.4,0.8 2.2,1.2 0,0.1 0.1,0.2 0.1,0.3 -1.5,0.2 -3,0.4 -4.6,0.6 -0.1,-0.4 -0.3,-0.7 -0.4,-1.1 -2.7,-1.4 -5.2,2.9 -2.6,4.7 z"
             style="fill:#00aeef;fill-opacity:1" />
        </g>
      </g>
      <path
         id="XMLID_90_"
         class="st4"
         d="m 77.962875,48.380025 h 17.4625 c 1.74625,0 3.175,1.42875 3.175,3.175 v 29.36875 c 0,1.74625 -1.42875,3.175 -3.175,3.175 h -17.4625 c -1.74625,0 -3.175,-1.42875 -3.175,-3.175 v -29.36875 c 0,-1.74625 1.42875,-3.175 3.175,-3.175 z"
         style="fill:none;stroke-width:0.264583" />
    </g>
    <g
       id="g1086"
       transform="matrix(1.8369341,0,0,1.8369341,32.365669,-118.75556)">
      <path
         id="XMLID_92_"
         class="st1"
         d="m 69.552034,73.267094 c -0.740833,-1.084792 -1.613958,-2.090208 -2.619375,-2.963333 0.529167,-0.238125 1.005417,-0.582084 1.402292,-1.005417 0.105833,-0.105833 0.185208,-0.211667 0.3175,-0.264583 0.105833,-0.05292 0.238125,-0.05292 0.370416,-0.05292 0.661459,0 1.349375,-0.02646 2.010834,-0.02646 0.15875,0 0.343958,0 0.47625,0.05292 0.105833,0.05292 0.211666,0.132292 0.3175,0.211667 0.47625,0.423333 0.978958,0.846667 1.455208,1.27 -1.455208,0.820208 -2.804583,1.878542 -3.942292,3.122083 0.343959,-0.238125 0.635,-0.502708 0.899584,-0.820208"
         style="fill:none;stroke:#000000;stroke-width:0.264583;stroke-miterlimit:10" />
      <path
         id="XMLID_53_"
         class="st1"
         d="m 61.826201,90.068135 c -0.529167,-2.143125 -0.873125,-4.550833 -1.825625,-6.535208 -0.873125,-1.74625 -2.883958,-2.883958 -2.354792,-5.08 0.423334,-1.74625 1.984375,-3.942291 3.836459,-4.28625 1.957916,-0.343958 3.757083,0.820209 4.683124,2.487084 1.217084,2.196041 1.005417,4.815416 0.608542,7.196666 0.396875,-0.396875 0.926042,-0.873125 1.534583,-0.740833 0.185209,0.05292 0.714375,0.3175 0.714375,0.846666 -0.264583,1.5875 -2.116666,2.116667 -3.175,3.175 1.5875,5.027084 2.645834,10.054167 4.206875,15.16063"
         style="fill:none;stroke:#000000;stroke-width:0.264583;stroke-miterlimit:10" />
      <path
         id="XMLID_94_"
         class="st1"
         d="m 61.058909,87.157719 c -1.005416,0.291041 -2.010833,0.582083 -3.042708,0.873125 -0.978958,0.291041 -1.984375,0.582083 -2.936875,0.9525 -1.878542,0.79375 -3.571875,2.010833 -4.894792,3.518958 -0.05292,0.05292 -0.105833,0.15875 -0.05292,0.211667 0.05292,0.05292 0.132291,-0.105834 0.05292,-0.07937"
         style="fill:none;stroke:#000000;stroke-width:0.264583;stroke-miterlimit:10" />
      <path
         id="XMLID_95_"
         class="st1"
         d="m 57.698701,80.596052 c -1.11125,-1.508125 -2.354792,-2.963333 -3.704167,-4.259791 -0.47625,-0.47625 -1.084791,-0.978959 -1.74625,-0.873125 -0.555625,0.07937 -0.978958,0.529166 -1.190625,1.058333 -0.211666,0.529167 -0.211666,1.058333 -0.211666,1.613958 0,4.180417 0.291041,8.387292 0.846666,12.54125"
         style="fill:none;stroke:#000000;stroke-width:0.264583;stroke-miterlimit:10" />
      <path
         id="XMLID_96_"
         class="st1"
         d="m 66.826826,86.49626 c 0.449791,-0.211666 0.846666,-0.555625 1.27,-0.846666 1.719791,-1.27 3.730625,-2.037292 5.741458,-2.751667 -0.05292,0.07937 -0.105833,0.185208 -0.132292,0.264583"
         style="fill:none;stroke:#000000;stroke-width:0.264583;stroke-miterlimit:10" />
      <path
         id="XMLID_97_"
         class="st1"
         d="m 70.028284,102.05376 c 0.370417,-3.069166 -0.396875,-6.164791 -0.05292,-9.233958 0.185209,-1.719792 0.740834,-3.360208 1.42875,-4.947708 0.343959,-0.79375 1.190625,-3.518959 2.248959,-3.466042 0.105833,3.307292 -0.396875,6.6675 -0.238125,10.00125 0.105833,2.06375 0.264583,4.206875 -0.47625,6.138338"
         style="fill:none;stroke:#000000;stroke-width:0.264583;stroke-miterlimit:10" />
      <path
         id="XMLID_98_"
         class="st1"
         d="m 68.996409,83.744594 c 0.555625,-0.132292 0.820208,-0.740834 0.926042,-1.296459 0.105833,-0.555625 0.07937,-1.137708 0.3175,-1.640416 -0.15875,-0.555625 -0.3175,-1.11125 -0.47625,-1.666875 -0.105834,0.132292 -0.185209,0.291042 -0.291042,0.423333 0.15875,-0.449791 0.211667,-0.9525 0.15875,-1.42875 -0.529167,-0.105833 -0.926042,-0.661458 -0.820208,-1.217083 -0.661459,-0.582083 -1.164167,-1.349375 -1.402292,-2.196042 0.07937,0.07937 -0.105833,0.185209 -0.185208,0.105834 -0.07937,-0.07937 -0.07937,-0.211667 -0.105834,-0.3175 -0.07937,-0.3175 -0.582083,-0.396875 -0.767291,-0.132292 -0.05292,-0.238125 -0.07937,-0.502708 -0.132292,-0.740833 -0.264583,0.264583 -0.740833,0.07937 -0.9525,-0.238125 -0.211667,-0.3175 -0.3175,-0.687917 -0.582083,-0.9525 -0.264584,-0.264584 -0.79375,-0.3175 -0.926042,0.02646 -0.105833,-0.185208 -0.211667,-0.396875 -0.3175,-0.582083 -0.15875,0.502708 -0.873125,0.582083 -1.375833,0.370416 -0.502708,-0.211666 -0.899583,-0.608541 -1.42875,-0.740833 -0.529167,-0.132292 -1.190625,0.264583 -1.084792,0.79375 -0.132291,-0.07937 -0.264583,-0.185208 -0.396875,-0.264583 -0.343958,0.185208 -0.714375,0.370416 -1.058333,0.555625 -0.105833,-0.132292 -0.185208,-0.264584 -0.291042,-0.396875 -0.238125,0.185208 -0.423333,0.449791 -0.555625,0.740833 -0.132291,-0.105833 -0.291041,-0.211667 -0.423333,-0.291042 -0.926042,0.978959 -1.5875,2.196042 -1.878542,3.518959 0.47625,-0.132292 0.846667,0.396875 1.058334,0.846666 0.423333,0.899584 0.846666,1.825625 1.27,2.725209"
         style="fill:none;stroke:#000000;stroke-width:0.264583;stroke-miterlimit:10" />
      <path
         id="XMLID_99_"
         class="st1"
         d="m 57.963284,78.347094 c 0.449792,-0.47625 1.217084,-0.635 1.799167,-0.370417 0.582083,0.264584 0.926042,0.846667 1.243542,1.402292 0.396875,0.661458 0.767291,1.349375 0.899583,2.090208 0.132292,0.767292 -0.07938,1.613958 -0.687917,2.06375"
         style="fill:none;stroke:#000000;stroke-width:0.264583;stroke-miterlimit:10" />
      <path
         id="XMLID_100_"
         class="st1"
         d="m 59.418493,80.701885 c 0.05292,-0.343958 0.423333,-0.608541 0.767291,-0.555625 0.343959,0.05292 0.635,0.396875 0.582084,0.740834 -0.502709,0.291041 -1.137709,0.343958 -1.666875,0.132291 -0.07938,-0.02646 -0.15875,-0.05292 -0.211667,-0.105833 -0.105833,-0.132292 -0.05292,-0.370417 0.07938,-0.47625 0.132292,-0.105833 0.3175,-0.132292 0.502708,-0.15875"
         style="fill:none;stroke:#000000;stroke-width:0.264583;stroke-miterlimit:10" />
      <path
         id="XMLID_101_"
         class="st1"
         d="m 62.567034,80.410844 c 0.529167,-0.635 1.375833,-1.005417 2.196042,-0.9525 0.07937,0 0.185208,0.02646 0.238125,0.07937 0.07937,0.105833 -0.02646,0.291042 -0.132292,0.370417 -0.423333,0.370416 -0.978958,0.582083 -1.508125,0.555624 -0.185208,0 -0.370416,-0.02646 -0.502708,-0.15875 -0.132292,-0.132291 -0.185208,-0.343958 -0.05292,-0.476249"
         style="fill:none;stroke:#000000;stroke-width:0.264583;stroke-miterlimit:10" />
      <path
         id="XMLID_102_"
         class="st1"
         d="m 61.614534,79.008552 c 0.132292,-0.105833 0.15875,-0.291041 0.211667,-0.449791 0.185208,-0.555625 0.846667,-0.820209 1.455208,-0.926042 0.582083,-0.105833 1.190625,-0.185208 1.772708,-0.185208 0.105834,0 0.211667,0 0.3175,0.05292 0.07937,0.05292 0.132292,0.185209 0.05292,0.264584"
         style="fill:none;stroke:#000000;stroke-width:0.264583;stroke-miterlimit:10" />
      <path
         id="XMLID_103_"
         class="st1"
         d="m 59.048076,82.395219 c 0.873125,0.02646 1.772708,-0.264584 2.460625,-0.820209 0.07937,-0.05292 0.15875,-0.132291 0.264583,-0.132291 0.07938,0 0.15875,0.05292 0.238125,0.07937 0.899584,0.555625 2.010833,0.529166 3.069167,0.502708 0.343958,0 0.740833,-0.05292 0.873125,-0.343958"
         style="fill:none;stroke:#000000;stroke-width:0.264583;stroke-miterlimit:10" />
      <path
         id="XMLID_104_"
         class="st1"
         d="m 61.191201,83.427094 c -0.05292,0.238125 -0.02646,0.47625 0.07937,0.687916 0.3175,-0.05292 0.608542,-0.211666 0.79375,-0.449791 0.211667,-0.02646 0.396875,-0.185209 0.449792,-0.396875 0.05292,0.05292 0.07937,0.15875 0.07937,0.238125 0.396875,0.02646 0.740833,-0.449792 0.582083,-0.820209 0.185208,0.105834 0,0.47625 -0.211667,0.396875 -0.211666,-0.07937 -0.07937,-0.47625 0.132292,-0.423333"
         style="fill:none;stroke:#000000;stroke-width:0.264583;stroke-miterlimit:10" />
      <path
         id="XMLID_105_"
         class="st1"
         d="m 61.032451,84.882302 c 0.291042,-0.185208 0.502708,-0.502708 0.820208,-0.635 0.608542,-0.264583 1.322917,0.211667 1.984375,0.07937 0.15875,-0.02646 0.370417,-0.105833 0.47625,0.02646 0.07937,0.105834 0.05292,0.264584 -0.05292,0.370417 -0.105833,0.07937 -0.238125,0.132292 -0.370416,0.15875 -0.635,0.15875 -1.296458,0.264583 -1.957917,0.370417 -0.15875,0.02646 -0.3175,0.05292 -0.449791,-0.02646 -0.132292,-0.05292 -0.264584,-0.238125 -0.185209,-0.370416 0.07938,0.05292 0.15875,0.105833 0.264584,0.132291"
         style="fill:none;stroke:#000000;stroke-width:0.264583;stroke-miterlimit:10" />
      <path
         id="XMLID_106_"
         class="st1"
         d="m 60.662034,85.967094 c 0.396875,0.47625 1.058334,0.767291 1.693334,0.687916 0.635,-0.05292 1.217083,-0.449791 1.508124,-1.005416"
         style="fill:none;stroke:#000000;stroke-width:0.264583;stroke-miterlimit:10" />
      <path
         id="XMLID_107_"
         class="st1"
         d="m 60.238701,80.543135 c -0.105833,0.07937 -0.185208,0.15875 -0.291042,0.238125 0,-0.105833 0,-0.238125 0,-0.343958 0.07937,-0.02646 0.185209,0.05292 0.185209,0.132292 0,0.07937 -0.15875,0.132291 -0.185209,0.05292 -0.02646,-0.07937 0.132292,-0.15875 0.132292,-0.05292 -0.05292,0.05292 -0.15875,0.02646 -0.185208,-0.05292 -0.02646,-0.07937 0,-0.15875 0.02646,-0.238125 0.05292,0.05292 0,0.15875 -0.07938,0.15875"
         style="fill:none;stroke:#000000;stroke-width:0.264583;stroke-miterlimit:10" />
      <path
         id="XMLID_108_"
         class="st1"
         d="m 64.101617,79.802302 c -0.105833,0.05292 -0.05292,0.211667 0.05292,0.211667 0.105833,0 0.105833,-0.211667 0,-0.211667 0.105833,0.05292 0.132292,0.185208 0.05292,0.264583 -0.105834,-0.02646 -0.211667,-0.105833 -0.211667,-0.238124 0.105833,-0.07937 0.238125,0.132291 0.132292,0.185208 -0.02646,0.07937 -0.132292,0.05292 -0.132292,-0.02646 -0.02646,-0.07937 0.02646,-0.132291 0.105833,-0.185208 0.02646,0.105834 -0.15875,0.185208 -0.211666,0.105834 -0.05292,-0.105834 0.132291,-0.211667 0.185208,-0.105834 -0.05292,0.07937 -0.132292,0.185208 -0.185208,0.264583"
         style="fill:none;stroke:#000000;stroke-width:0.264583;stroke-miterlimit:10" />
      <path
         id="XMLID_109_"
         class="st1"
         d="m 66.720992,84.406052 c 0.291042,-0.132292 0.608542,-0.291042 0.899584,-0.423333 -0.185209,0.423333 -0.449792,0.820208 -0.767292,1.190625 0.132292,0.02646 0.264583,0.05292 0.396875,0.132291 -0.185208,0.238125 -0.529167,0.343959 -0.820208,0.238125"
         style="fill:none;stroke:#000000;stroke-width:0.264583;stroke-miterlimit:10" />
      <path
         id="XMLID_110_"
         class="st1"
         d="m 66.085992,86.707927 c 0.02646,-0.15875 0.238125,-0.238125 0.396875,-0.238125 0.343959,0.05292 0.555625,0.47625 0.396875,0.767292 -0.15875,0.291041 -0.635,0.343958 -0.873125,0.07937 -0.211666,-0.264584 -0.07937,-0.714375 0.238125,-0.846667"
         style="fill:none;stroke:#000000;stroke-width:0.264583;stroke-miterlimit:10" />
      <path
         id="XMLID_111_"
         class="st1"
         d="m 61.746826,74.034386 c -0.661458,-0.238125 -1.296458,-0.555625 -1.984375,-0.555625 -0.687917,0 -1.455208,0.449791 -1.481667,1.137708"
         style="fill:none;stroke:#000000;stroke-width:0.264583;stroke-miterlimit:10" />
      <path
         id="XMLID_112_"
         class="st1"
         d="m 59.153909,74.775219 c -0.687916,0.264583 -1.375833,0.582083 -1.74625,1.217083 -0.370416,0.635 -0.238125,1.5875 0.423334,1.878542"
         style="fill:none;stroke:#000000;stroke-width:0.264583;stroke-miterlimit:10" />
      <path
         id="XMLID_113_"
         class="st1"
         d="m 57.143076,74.034386 c 0.05292,-0.05292 -0.05292,-0.15875 -0.132292,-0.15875 -0.264583,0 -0.47625,0.238125 -0.608541,0.47625 -0.343959,0.555625 -0.582084,1.137708 -0.740834,1.772708 0.05292,-0.05292 0.105834,-0.132292 0.132292,-0.185208"
         style="fill:none;stroke:#000000;stroke-width:0.264583;stroke-miterlimit:10" />
      <path
         id="XMLID_114_"
         class="st1"
         d="m 64.075159,74.272511 c -0.185208,-0.343959 -0.687916,-0.264584 -1.058333,-0.370417 -0.47625,-0.105833 -0.846667,-0.555625 -0.846667,-1.031875 0,0.132292 -0.02646,0.291042 -0.105833,0.423333"
         style="fill:none;stroke:#000000;stroke-width:0.264583;stroke-miterlimit:10" />
      <path
         id="XMLID_115_"
         class="st1"
         d="m 63.889951,72.764386 c 0.211666,0.449791 0.449791,0.873125 0.740833,1.27"
         style="fill:none;stroke:#000000;stroke-width:0.264583;stroke-miterlimit:10" />
      <path
         id="XMLID_116_"
         class="st1"
         d="m 65.980159,75.039802 c 0.07937,0.582084 0.07937,1.190625 0.05292,1.772709"
         style="fill:none;stroke:#000000;stroke-width:0.264583;stroke-miterlimit:10" />
      <path
         id="XMLID_117_"
         class="st1"
         d="m 67.620576,80.966469 c -0.07937,-0.449792 0.132291,-0.926042 0.529166,-1.164167 -0.238125,-0.291041 -0.105833,-0.767291 -0.211666,-1.137708 -0.07937,-0.264583 -0.264584,-0.47625 -0.396875,-0.714375 -0.132292,-0.238125 -0.185209,-0.555625 0,-0.767292"
         style="fill:none;stroke:#000000;stroke-width:0.264583;stroke-miterlimit:10" />
      <path
         id="XMLID_119_"
         class="st1"
         d="m 61.191201,89.803552 c -1.296458,-0.291042 -2.645833,-0.449792 -3.96875,-0.47625 -0.185208,0 -0.370417,0 -0.555625,0.02646"
         style="fill:none;stroke:#000000;stroke-width:0.264583;stroke-miterlimit:10" />
      <path
         id="XMLID_120_"
         class="st1"
         d="m 62.567034,89.433135 c 1.243542,-0.132291 2.487083,-0.15875 3.704167,-0.132291"
         style="fill:none;stroke:#000000;stroke-width:0.264583;stroke-miterlimit:10" />
      <g
         id="XMLID_161_"
         class="st2"
         style="opacity:0.51;fill:#ed1c24;fill-opacity:1"
         transform="matrix(0.26458333,0,0,0.26458333,50.237451,66.758344)">
        <g
           id="XMLID_12_"
           style="fill:#ed1c24;fill-opacity:1">
          <path
             id="XMLID_18_-7"
             class="st3"
             d="m 61,17.5 c 3.2,0 3.8,-2.2 5.5,-4.4 -1.4,-0.8 -2.8,-1.6 -4.2,-2.4 -0.7,2.1 -1.5,4 -1.8,6.2 -0.4,3.1 4.2,4.6 4.8,1.3 0.5,-2.5 1.4,-5.1 2.2,-7.6 -1.2,0.5 -2.4,1 -3.7,1.5 0.6,0.4 -0.3,4.5 1.3,5.8 1.2,1 3,1 3.9,-0.5 1.4,-2.4 1.1,-4.6 1,-7.2 -0.2,-3.2 -5,-3.2 -5,0 0,2.8 -0.9,5.3 -0.5,8.1 0.3,2 2.9,2.2 4.2,1.1 3.1,-2.6 3.2,-6.9 3.9,-10.6 C 71,8.6 69.3,8.4 67.7,8.1 c -0.1,2 -0.2,3.9 0.2,5.8 0.4,2 3.7,2.5 4.6,0.6 C 73.7,11.8 73.7,7.8 70.8,6 69.6,5.2 68.1,5.2 66.8,5.7 66.2,6 65.7,6.4 65.3,6.9 c -0.3,0.3 -0.5,0.7 -0.7,1 -0.9,1 -0.6,1.5 0.9,1.4 -1.3,0.7 -2.5,1.4 -3.8,2.2 1.7,0.8 2.5,2.4 4.5,2.6 1.8,0.2 3.5,-0.6 4.8,-1.7 1.2,-1.1 2,-3.5 3.7,-3.3 1,0.1 1.6,1.8 2.4,2.1 -0.1,-0.4 -0.2,-0.9 -0.3,-1.3 -0.7,0 -1.3,-0.3 -1.6,-0.8 -0.1,1 -0.3,2 -0.4,3 0.5,-0.5 3.1,-0.2 3.7,0 2.1,0.6 2.7,1.4 1.9,3.8 1.6,0.2 3.3,0.4 4.9,0.7 -0.1,-1.1 0,-2.3 0.2,-3.4 -0.8,0.6 -1.6,1.2 -2.4,1.8 0.2,0.6 0.3,1.2 0.5,1.7 1.4,-0.6 2.8,-1.2 4.3,-1.8 -0.2,-0.4 -0.4,-0.8 -0.7,-1.2 -0.2,0.8 -0.4,1.6 -0.6,2.4 0.2,-0.2 0.4,-0.3 0.5,-0.5 -1.4,-0.6 -2.8,-1.2 -4.3,-1.8 0.5,3.5 -4.7,4.4 -6.1,6.6 -0.3,0.3 -0.5,0.6 -0.8,0.8 1.2,0.7 1.6,0.5 1.2,-0.7 0.4,-1.2 -0.4,-2.4 0.4,-3.7 -1.6,-0.4 -3.1,-0.8 -4.7,-1.3 0.1,3.6 -1.6,7.1 -1.1,10.9 0.3,1.9 1.9,3.1 3.8,2.2 4.9,-2.4 5.5,-10.5 4.3,-15.1 -0.4,-1.7 -3,-2.6 -4.2,-1.1 -2,2.5 -2.8,6.3 -1.7,9.4 0.7,2 3.5,2.6 4.6,0.6 1.6,-3 3.3,-8.7 -1.2,-10.1 -5,-1.6 -7.2,5.3 -7.8,9 -0.4,2.1 1.6,4 3.7,2.8 2.5,-1.4 5.5,-3.9 5.4,-7 -0.1,-2.1 -1.6,-3.9 -3.9,-3.8 -4.9,0.1 -8.8,8.4 -8,12.6 0.3,1.7 2.4,2.2 3.7,1.5 4,-2.1 5.6,-8 4,-12.1 -0.5,-1.5 -2.2,-2.4 -3.7,-1.5 -4.3,2.5 -6.4,9.3 -5.5,14 0.4,2.2 3.5,2.3 4.6,0.6 2,-3 2.7,-8.2 0.8,-11.4 -1.5,-2.6 -5,-2.9 -6.5,0 -1.3,2.6 -0.3,6.6 1.9,8.4 1.5,1.2 3.7,2 5.3,3 1.2,0.8 1.7,1.7 3.4,1.6 3.4,-0.2 4.9,-4.7 7,-6.6 2.7,-2.4 7.9,-5.4 9.3,-8.9 1.1,-2.8 -0.7,-5 -3.4,-5.6 -1.7,-0.3 -3.6,0 -5.2,0.4 -3,0.7 -4.9,1 -8.1,0.5 -3.1,-0.5 -4.5,4.3 -1.3,4.8 3.7,0.6 6.3,0.7 9.9,-0.2 0.8,-0.2 1.7,-0.3 2.5,-0.5 0.8,-0.3 1.2,-1.3 -0.2,-0.2 -1.5,1.2 -2.8,2.6 -4.3,3.9 -1.4,1.1 -3.3,2.2 -4.4,3.6 -0.5,0.6 -2.1,4 -1.6,3.8 0.4,-0.2 -1.1,-1.4 -2.1,-2 -0.5,-0.3 -1.1,-0.4 -1.5,-0.7 -0.2,-0.1 -3.1,-2.5 -2.8,-2.6 -0.8,-0.2 -1.6,-0.4 -2.4,-0.6 1.5,1.5 0.6,5.3 -0.4,6.8 1.5,0.2 3,0.4 4.6,0.6 -0.5,-2.4 1,-7.1 3.2,-8.3 -1.2,-0.5 -2.4,-1 -3.7,-1.5 0.7,2 0.4,5.3 -1.7,6.5 1.2,0.5 2.4,1 3.7,1.5 -0.4,-2 5.2,-8.1 -0.8,-4.7 1.2,0.9 2.4,1.9 3.7,2.8 0.2,-1.4 1.7,-3.4 1.6,-4.8 -0.2,-2 -1.3,1.3 -1.8,2.1 1.5,0.2 3,0.4 4.6,0.6 -0.4,-1.2 -0.4,-3.4 0.5,-4.5 -1.4,-0.4 -2.8,-0.7 -4.2,-1.1 0.6,2.4 0.8,8.1 -2,9.4 1.3,0.7 2.5,1.4 3.8,2.2 -0.5,-3.8 1.2,-7.2 1.1,-10.9 0,-2.5 -3.3,-3.4 -4.7,-1.3 -1.8,2.9 -2.3,12.8 3,12.4 2.5,-0.2 5.3,-3.5 7.1,-5 2.3,-1.9 5,-4.7 4.5,-7.9 -0.3,-2.2 -2.5,-3.2 -4.3,-1.8 -0.2,0.2 -0.4,0.3 -0.5,0.5 -0.7,0.6 -0.8,1.6 -0.6,2.4 0.2,1.4 0.9,2.4 1.9,3.4 1.6,1.4 4.3,0.5 4.3,-1.8 0,-3.4 -2.1,-6.4 -5.5,-6.7 -1,-0.1 -2.2,0.9 -2.4,1.8 -0.4,1.6 -0.4,3 -0.4,4.7 0,2.8 4.1,3.4 4.9,0.7 1.2,-4.1 0.7,-7.9 -3.7,-9.5 -3,-1.1 -7.7,-1.5 -10.3,0.9 -0.8,0.7 -1,2.1 -0.4,3 3.3,5.3 15.4,3.8 10.4,-3.2 C 79.8,5.9 76.4,3.1 73.1,4 71.7,4.4 70.7,5.4 69.7,6.5 67.3,9.2 67.4,8.6 64.5,7.2 63,6.5 60.5,7.3 60.7,9.4 c 0.3,2.3 1.3,4.7 4.1,4.7 1,0 1.8,-0.3 2.7,-1 0.9,-0.7 2.5,-4.5 1,-1.1 1.5,0.2 3,0.4 4.6,0.6 -0.3,-1.5 -0.1,-3 0,-4.5 C 73,5.3 68.5,4.6 68,7.4 c -0.5,2.7 -0.4,6.5 -2.6,8.4 1.4,0.4 2.8,0.7 4.2,1.1 -0.3,-2 0.6,-4.7 0.6,-6.8 -1.7,0 -3.3,0 -5,0 0.1,1.4 0.4,3.4 -0.3,4.7 1.3,-0.2 2.6,-0.3 3.9,-0.5 -0.3,-0.3 0,-3.2 -0.2,-3.8 -0.4,-1.3 -1.1,-2 -2.2,-2.7 -1.4,-1 -3.2,0.1 -3.7,1.5 -0.8,2.4 -1.7,5.1 -2.2,7.6 1.6,0.4 3.2,0.9 4.8,1.3 0.3,-2.2 1.1,-4.1 1.8,-6.2 0.7,-2.3 -2.6,-4.4 -4.2,-2.4 -0.3,0.4 -1.8,3 -2,3 -3.1,-0.1 -3.1,4.9 0.1,4.9 z"
             style="fill:#ed1c24;fill-opacity:1" />
        </g>
      </g>
      <path
         id="XMLID_62_"
         class="st4"
         d="m 53.412451,66.758344 h 17.4625 c 1.74625,0 3.175,1.42875 3.175,3.175 v 29.36875 c 0,1.746246 -1.42875,3.174996 -3.175,3.174996 h -17.4625 c -1.74625,0 -3.175,-1.42875 -3.175,-3.174996 v -29.36875 c 0,-1.74625 1.42875,-3.175 3.175,-3.175 z"
         style="fill:none;stroke-width:0.264583" />
    </g>
    <g
       id="g1395"
       transform="matrix(1.8369341,0,0,1.8369341,88.260902,-133.96882)">
      <path
         id="XMLID_90_-5"
         class="st1"
         d="m 60.836976,78.000991 c 0.9525,-0.02646 1.931459,-0.132292 2.883959,-0.3175 -0.34396,0.555625 -0.635,1.164166 -0.84667,1.825625 0.66146,-0.264584 1.34938,-0.47625 2.03729,-0.608542 0,1.058333 0,2.143125 0.0265,3.201458 -0.71437,-0.423333 -1.42875,-0.873125 -2.11666,-1.296458 -0.0794,0.635 0.0529,1.296458 0.39687,1.852083 -0.66146,0.185209 -1.375832,0.291042 -2.063749,0.291042 0.02646,-0.502708 0.05292,-1.031875 0.07937,-1.534583 0.370417,0.15875 0.846667,-0.05292 0.9525,-0.449792 -0.79375,-0.07937 -1.5875,-0.264583 -2.328333,-0.555625 0.343958,-0.238125 0.608541,-0.661458 0.635,-1.084792 0.02646,0.132292 0.05292,0.264584 0.07937,0.396875 0.635,-0.529166 1.11125,-1.190625 1.42875,-1.957916 0.02646,0.132291 0.05292,0.264583 0.07937,0.370416"
         style="fill:none;stroke:#000000;stroke-width:0.264583;stroke-miterlimit:10" />
      <g
         id="XMLID_159_"
         class="st2"
         style="opacity:0.51;fill:#d7d62f;fill-opacity:1"
         transform="matrix(0.26458333,0,0,0.26458333,42.871768,75.884324)">
        <g
           id="XMLID_14_-6"
           style="fill:#d7d62f;fill-opacity:1">
          <path
             id="XMLID_18_-2"
             class="st3"
             d="m 68.5,26.9 c 1.4,1.5 3.4,3.4 5.7,3.2 2,-0.2 3.7,-2.2 5.3,-3.2 3.5,-2.2 5.9,-6.3 2.7,-10 -0.6,-0.7 -1.6,-0.9 -2.4,-0.6 -4.3,1.2 -9.2,5.5 -5.3,10.1 2.7,3.2 8.6,3 9.4,-1.6 0.2,-1.3 -0.3,-2.8 -1.7,-3.1 -0.2,0 -0.3,-0.1 -0.5,-0.1 -1.2,-0.3 -2.1,0.2 -2.8,1.1 -0.1,0.2 -0.2,0.3 -0.3,0.5 -1.6,2.2 1.4,4.3 3.4,3.4 5.3,-2.4 6.4,-12.5 2.1,-16.3 -4.8,-4.3 -10.5,2.4 -10.7,7.2 -0.1,2 2.2,3 3.8,2.2 2.6,-1.4 3.5,-4.4 3,-7.2 -0.2,-1.3 -1.9,-2.1 -3.1,-1.7 -3.6,1.1 -6.6,6.6 -4.8,10.2 2.5,5 8.6,1.3 10.6,-2 2.1,-3.3 2.2,-9.8 -3.3,-9.3 -6.3,0.5 -8.4,8.2 -7.5,13.3 0.3,1.7 2.4,2.1 3.7,1.5 C 79.5,22.8 84,11.4 79,8.8 75.5,7 73.2,11.1 71.6,13.4 c -2.5,3.5 -4.2,7.2 -3.5,11.6 0.3,1.7 2.4,2.2 3.7,1.5 4.5,-2.4 5.7,-9.9 4.9,-14.5 -0.2,-1.3 -1.9,-2.1 -3.1,-1.7 -2,0.5 -3.1,1.9 -4.4,3.4 -0.8,0.9 -2.4,3.6 -3.5,3.8 0.9,0.4 1.9,0.8 2.8,1.1 -1,-1.8 -3.1,-7.3 -0.8,-8.6 2,-1.2 3.5,1.9 2.2,3.4 1,-0.1 2,-0.3 3,-0.4 C 71.4,11.9 71.5,9.1 70.4,7.6 69.7,6.6 68.2,5.9 67,6.7 c -3.5,2.5 -4,9.7 1.5,9.9 2.6,0.1 4.5,-1.8 5.7,-3.9 0.7,-1.2 1,-2.5 1.6,-3.8 0.1,-0.5 0.4,-1.9 0.5,-1.9 3,-0.9 -2,4.5 -1.8,4.4 C 72,13.5 75.6,17 78,14.9 82.1,11.4 84.4,4.4 77.3,2.6 75.3,2.1 73.2,2.5 72,4.3 c -0.6,0.9 -0.8,2.1 -1.1,3 -0.3,0.9 -0.6,1.8 -1.1,2.6 -0.3,0.4 -1,1.3 -0.3,0.9 -1.1,-0.3 -2.3,-0.6 -3.4,-0.9 1.8,2.5 1.5,5.2 4.2,7.2 0.8,0.6 2.4,0.4 3,-0.4 3.2,-3.8 1.7,-13.9 -4.7,-13 -2.8,0.4 -6.3,3.2 -7.3,5.8 -1.1,3.2 1,8.6 2.7,11.4 0.6,1 1.7,1.4 2.8,1.1 3.7,-0.8 4.6,-6.3 7.9,-7.2 -1,-0.6 -2.1,-1.2 -3.1,-1.7 0.4,2 -0.4,7.6 -2.6,8.8 1.2,0.5 2.4,1 3.7,1.5 -0.3,-2 0.7,-4.4 1.7,-6 0.8,-1.2 2.9,-2.9 1.9,-4.1 -0.8,-1.1 -0.8,1.1 -1,1.9 -0.3,1.7 -0.5,3.9 -2.3,4.7 1.2,0.5 2.4,1 3.7,1.5 -0.2,-1 -0.1,-6.6 2.1,-6.4 0.7,0.1 -0.4,1.2 -0.6,1.4 -2.6,3.4 -1.6,-0.5 -0.1,-1 -1,-0.6 -2.1,-1.2 -3.1,-1.7 -0.2,0.5 -0.5,1 -0.7,1.5 1.3,0.7 2.5,1.4 3.8,2.2 0.1,-2.1 2.2,-5.5 3.1,-0.5 0.3,1.8 -0.2,4.4 -2,5.3 1.1,1.1 2.3,2.3 3.4,3.4 0.1,-0.2 0.2,-0.3 0.3,-0.5 -0.9,0.4 -1.9,0.8 -2.8,1.1 0.2,0 0.3,0.1 0.5,0.1 -0.6,-1 -1.2,-2.1 -1.7,-3.1 -0.6,-1 -0.5,-1.5 0.4,-1.7 0.5,-0.3 1.1,-0.5 1.7,-0.6 -0.8,-0.2 -1.6,-0.4 -2.4,-0.6 1.1,1.3 -3.3,3 -3.8,3.3 -0.3,0.2 -1.3,1.4 -1.5,1.4 1.3,-0.1 -0.9,-1.5 -1.2,-1.9 -2.2,-2.1 -5.8,1.4 -3.6,3.8 z"
             style="fill:#d7d62f;fill-opacity:1" />
        </g>
      </g>
      <path
         id="XMLID_235_"
         class="st1"
         d="m 66.604895,102.73953 c -1.37584,-2.16958 -2.16959,-4.709581 -2.27542,-7.302498 0,-0.3175 -0.0265,-0.635 -0.21167,-0.899583 -0.13229,-0.185209 -0.37041,-0.291042 -0.58208,-0.396875 -1.561041,-0.740834 -3.095624,-1.455209 -4.656666,-2.196042 -0.370416,-0.185208 -0.79375,-0.396875 -0.926041,-0.79375 -0.07937,-0.264583 -0.02646,-0.555625 0,-0.820208 0.449791,-2.301875 0.873125,-4.577292 1.322916,-6.879167 0.05292,-0.291041 0.105834,-0.582083 0.07937,-0.899583 -0.105833,-0.714375 -0.740833,-1.217083 -1.349375,-1.5875 -1.799166,-1.058333 -3.862916,-1.534583 -5.873749,-2.010833 -0.529167,-0.132292 -1.058334,-0.238125 -1.5875,-0.185209 -0.582084,0.05292 -1.11125,0.291042 -1.640417,0.529167 -1.11125,0.529167 -2.196042,1.137708 -3.227917,1.772708 -1.11125,0.767292 -2.301875,1.852084 -2.010833,3.095625 0.132292,0.529167 0.502708,0.9525 0.873125,1.375834 1.481667,1.666875 2.8575,3.466041 4.1275,5.318124 0.582083,0.846667 1.137708,1.772709 1.164167,2.804584 0.02646,0.926041 -0.423334,1.825625 -1.005417,2.566458 -1.137708,1.455208 -2.778125,2.407708 -4.365625,3.360208 -0.370417,0.211667 -0.714375,0.42333 -1.084792,0.635"
         style="fill:none;stroke:#000000;stroke-width:0.264583;stroke-miterlimit:10" />
      <path
         id="XMLID_234_"
         class="st1"
         d="m 58.905518,85.964949 c -0.714375,-0.767292 -1.5875,-1.402292 -2.566459,-1.772708"
         style="fill:none;stroke:#000000;stroke-width:0.264583;stroke-miterlimit:10" />
      <path
         id="XMLID_233_"
         class="st1"
         d="m 58.852601,81.308282 c -0.635,0.873125 -1.402292,1.666875 -2.275417,2.328334 -0.687916,0.529166 -1.428749,0.9525 -2.196041,1.375833 -1.243542,0.687917 -2.513542,1.322917 -3.81,1.931458 -1.296458,0.608542 -2.69875,1.190625 -3.571875,2.354792 0.105833,-0.15875 0.211667,-0.3175 0.3175,-0.47625"
         style="fill:none;stroke:#000000;stroke-width:0.264583;stroke-miterlimit:10" />
      <path
         id="XMLID_232_"
         class="st1"
         d="m 58.773226,85.964949 c 0.05292,-0.05292 0.07938,-0.132292 0.07938,-0.238125 -0.529167,0.3175 -1.084792,0.635 -1.613958,0.9525 -0.291042,0.15875 -0.582084,0.343958 -0.899584,0.396875 -0.396874,0.07937 -0.820208,0 -1.243541,-0.07937 -0.79375,-0.15875 -1.5875,-0.291042 -2.38125,-0.449792 0.105833,0.132292 0.105833,0.343959 -0.02646,0.449792"
         style="fill:none;stroke:#000000;stroke-width:0.264583;stroke-miterlimit:10" />
      <path
         id="XMLID_231_"
         class="st1"
         d="m 55.86281,88.055157 c -0.714375,-0.185208 -1.42875,-0.264583 -2.143125,-0.291041 -0.79375,-0.02646 -1.772709,0.132291 -2.090209,0.873125 0.978959,0.15875 1.957917,0.211666 2.910417,0.15875 0.238125,0 0.47625,-0.02646 0.661458,-0.15875 0.185209,-0.132292 0.291042,-0.423334 0.132292,-0.608542 -0.132292,-0.15875 -0.449792,-0.264583 -0.370417,-0.449792"
         style="fill:none;stroke:#000000;stroke-width:0.264583;stroke-miterlimit:10" />
      <path
         id="XMLID_230_"
         class="st1"
         d="m 56.524268,88.319741 c 0.264583,0.264583 0.635,0.396875 1.005416,0.423333 0.132292,0 0.291042,-0.02646 0.370417,-0.132292 0.07937,-0.132291 0,-0.291041 -0.105833,-0.370416 -0.105834,-0.07937 -0.264584,-0.132292 -0.396875,-0.15875 -0.185209,-0.05292 -0.370417,-0.07938 -0.555625,-0.02646 -0.185209,0.05292 -0.3175,0.291042 -0.211667,0.449792 0.264583,0.47625 0.555625,1.190625 0.423333,1.719791 -0.105833,0.343959 -0.396875,0.582084 -0.740833,0.687917 -0.343958,0.105833 -0.687916,0.07937 -1.031875,0.02646 -0.47625,-0.07937 -0.9525,-0.185208 -1.42875,-0.343958"
         style="fill:none;stroke:#000000;stroke-width:0.264583;stroke-miterlimit:10" />
      <path
         id="XMLID_229_"
         class="st1"
         d="m 57.714893,92.579532 c 0.02646,-0.238125 -0.238125,-0.370417 -0.449792,-0.423333 -1.243541,-0.3175 -2.566458,-0.423334 -3.862916,-0.3175 -0.07937,0 -0.15875,0 -0.185209,-0.05292 -0.02646,-0.07938 0.132292,-0.105833 0.105834,-0.02646"
         style="fill:none;stroke:#000000;stroke-width:0.264583;stroke-miterlimit:10" />
      <path
         id="XMLID_228_"
         class="st1"
         d="m 59.778643,92.870574 c -0.05292,0.635 -0.529167,1.164166 -1.084792,1.481666 -0.714375,0.423334 -1.5875,0.608542 -2.407708,0.502709 -0.767292,-0.105834 -1.508125,-0.423334 -2.248958,-0.661459 -1.137709,-0.370416 -2.328334,-0.502708 -3.518959,-0.635 0.07937,-0.105833 0.264584,-0.105833 0.343959,0"
         style="fill:none;stroke:#000000;stroke-width:0.264583;stroke-miterlimit:10" />
      <path
         id="XMLID_227_"
         class="st1"
         d="m 49.063018,96.812865 c 0.423333,0.105834 0.714375,0.502709 0.926042,0.899584 0.211666,0.396875 0.343958,0.846666 0.608541,1.190625 0.370417,0.47625 0.926042,0.714375 1.455209,0.926041 0.396875,0.15875 0.79375,0.343955 1.190625,0.502705 0.449791,0.18521 0.9525,0.47625 0.978958,0.97896 0,0.18521 -0.05292,0.37042 -0.05292,0.52917 0,0.50271 0.502709,0.84667 0.9525,0.9525 0.291042,0.0794 0.687917,0.18521 0.740834,0.50271 0,0.0794 0,0.18521 0.05292,0.23812 0.07937,0.0529 0.132292,-0.13229 0.05292,-0.10583 -0.15875,0.15875 -0.449792,0 -0.423333,-0.21167"
         style="fill:none;stroke:#000000;stroke-width:0.264583;stroke-miterlimit:10" />
      <path
         id="XMLID_226_"
         class="st1"
         d="m 60.334268,103.69203 c -0.05292,-0.635 -0.132292,-1.29646 -0.185209,-1.93146 -0.05292,-0.55562 -0.132291,-1.1377 -0.502708,-1.53458 -0.211667,-0.21167 -0.502708,-0.370416 -0.767292,-0.502708 -0.79375,-0.449792 -1.455208,-1.11125 -2.2225,-1.5875 -1.402291,-0.899583 -3.095624,-1.190625 -4.736041,-1.481667 -0.05292,0.07937 -0.132292,0.185209 -0.185208,0.264584"
         style="fill:none;stroke:#000000;stroke-width:0.264583;stroke-miterlimit:10" />
      <path
         id="XMLID_225_"
         class="st1"
         d="m 60.625309,93.479115 c -0.238125,1.74625 -0.396875,3.518959 -0.47625,5.291667"
         style="fill:none;stroke:#000000;stroke-width:0.264583;stroke-miterlimit:10" />
      <path
         id="XMLID_224_"
         class="st1"
         d="m 53.825518,88.372657 c -0.05292,-0.105833 -0.07937,-0.211666 -0.07937,-0.343958 -0.07937,-0.07937 -0.238125,-0.07937 -0.291042,0.02646 -0.05292,0.105834 0,0.238125 0.105834,0.264584 0.05292,-0.07937 0.02646,-0.211667 -0.07937,-0.238125 -0.132292,0.05292 -0.211667,0.211666 -0.15875,0.343958 0.132291,0 0.185208,-0.238125 0.05292,-0.264583 -0.132291,0.07937 0.02646,0.370416 0.15875,0.264583 0.05292,-0.07938 0.02646,-0.211667 -0.07937,-0.264583 -0.105833,0.05292 -0.15875,0.15875 -0.15875,0.264583 0.105834,0.05292 0.238125,0 0.291042,-0.105833 -0.105833,-0.105834 -0.343958,0.07937 -0.264583,0.211666 0.132291,-0.05292 0.238125,-0.15875 0.291041,-0.291041"
         style="fill:none;stroke:#000000;stroke-width:0.264583;stroke-miterlimit:10" />
      <path
         id="XMLID_223_"
         class="st1"
         d="m 57.370934,88.372657 c 0.05292,-0.07937 -0.05292,-0.185208 -0.132291,-0.15875 -0.07937,0.05292 -0.05292,0.185209 0.02646,0.211667 0.132292,0 0.07937,-0.291042 -0.05292,-0.211667 -0.02646,0.07937 0.05292,0.15875 0.132292,0.132292 0.07937,-0.02646 0.07937,-0.15875 0.02646,-0.185208"
         style="fill:none;stroke:#000000;stroke-width:0.264583;stroke-miterlimit:10" />
      <path
         id="XMLID_222_"
         class="st1"
         d="m 43.586143,100.33182 c 0.291042,-0.26458 0.687917,-0.3175 1.084792,-0.23812 0.396875,0.0794 0.714375,0.26458 1.031875,0.44979 1.031875,0.60854 2.116666,1.37583 2.434166,2.54 0.07937,0.29104 0.105834,0.58208 0.132292,0.87313 0.05292,0.74083 0.07937,1.48166 0.105833,2.2225 -0.07937,-0.10584 -0.15875,-0.18521 -0.238125,-0.29105"
         style="fill:none;stroke:#000000;stroke-width:0.264583;stroke-miterlimit:10" />
      <path
         id="XMLID_221_"
         class="st1"
         d="m 56.788851,92.182657 c -0.396875,0.396875 -0.978958,0.582083 -1.534583,0.529167 -0.555625,-0.05292 -1.058333,-0.396875 -1.349375,-0.846667"
         style="fill:none;stroke:#000000;stroke-width:0.264583;stroke-miterlimit:10" />
      <path
         id="XMLID_220_"
         class="st1"
         d="m 48.639685,88.108074 c 0.02646,-0.07937 0.07937,-0.15875 0.105833,-0.238125 -0.185208,0.211667 -0.185208,0.555625 -0.15875,0.820208 0.02646,0.3175 0.264583,0.978958 0.211667,1.27 -0.05292,0.3175 -0.211667,0.3175 -0.291042,0.582083"
         style="fill:none;stroke:#000000;stroke-width:0.264583;stroke-miterlimit:10" />
      <path
         id="XMLID_219_"
         class="st1"
         d="m 47.845935,88.769532 c -0.07937,0 0.02646,-0.132291 0.07937,-0.07937 0.05292,0.05292 0.02646,0.132292 0,0.211667 -0.132292,0.07937 -0.02646,0.555625 0.07937,0.608541"
         style="fill:none;stroke:#000000;stroke-width:0.264583;stroke-miterlimit:10" />
      <path
         id="XMLID_218_"
         class="st1"
         d="m 57.556143,91.706407 c 0.07937,0.15875 0.132291,0.3175 0.105833,0.47625"
         style="fill:none;stroke:#000000;stroke-width:0.264583;stroke-miterlimit:10" />
      <path
         id="XMLID_217_"
         class="st1"
         d="m 57.053434,91.65349 c 0.07937,0 0.105834,0.07937 0.132292,0.132292 0.02646,0.07937 0.05292,0.185208 0.05292,0.264583"
         style="fill:none;stroke:#000000;stroke-width:0.264583;stroke-miterlimit:10" />
      <path
         id="XMLID_216_"
         class="st1"
         d="m 56.603643,91.600574 c 0.05292,0.07937 0.05292,0.185208 0.02646,0.264583"
         style="fill:none;stroke:#000000;stroke-width:0.264583;stroke-miterlimit:10" />
      <path
         id="XMLID_215_"
         class="st1"
         d="m 56.153851,91.521199 c -0.02646,0.07937 -0.05292,0.185208 -0.07937,0.264583"
         style="fill:none;stroke:#000000;stroke-width:0.264583;stroke-miterlimit:10" />
      <path
         id="XMLID_214_"
         class="st1"
         d="m 55.54531,91.468282 c 0,0.105833 0,0.211667 -0.02646,0.3175"
         style="fill:none;stroke:#000000;stroke-width:0.264583;stroke-miterlimit:10" />
      <path
         id="XMLID_213_"
         class="st1"
         d="m 55.06906,91.362449 c -0.132292,0.132291 -0.238125,0.343958 -0.211667,0.529166"
         style="fill:none;stroke:#000000;stroke-width:0.264583;stroke-miterlimit:10" />
      <path
         id="XMLID_207_"
         class="st1"
         d="m 54.43406,91.388907 c -0.105834,0.132292 -0.185209,0.264583 -0.238125,0.396875"
         style="fill:none;stroke:#000000;stroke-width:0.264583;stroke-miterlimit:10" />
      <path
         id="XMLID_206_"
         class="st1"
         d="m 53.851976,91.415365 c 0,0.105834 -0.02646,0.211667 -0.05292,0.3175"
         style="fill:none;stroke:#000000;stroke-width:0.264583;stroke-miterlimit:10" />
      <path
         id="XMLID_174_"
         class="st1"
         d="m 53.48156,91.415365 c -0.02646,0.05292 -0.07937,0.105834 -0.07937,0.15875 -0.02646,0.05292 -0.02646,0.132292 0.02646,0.15875"
         style="fill:none;stroke:#000000;stroke-width:0.264583;stroke-miterlimit:10" />
      <path
         id="XMLID_60_"
         class="st4"
         d="m 46.046768,75.884324 h 17.462497 c 1.74625,0 3.175,1.42875 3.175,3.175 v 29.368746 c 0,1.74625 -1.42875,3.175 -3.175,3.175 H 46.046768 c -1.74625,0 -3.175,-1.42875 -3.175,-3.175 V 79.059324 c 0,-1.74625 1.42875,-3.175 3.175,-3.175 z"
         style="fill:none;stroke-width:0.264583" />
    </g>
  </g>
</svg>
